<?xml version="1.0" standalone="no"?><!DOCTYPE svg PUBLIC "-//W3C//DTD SVG 1.1//EN" "http://www.w3.org/Graphics/SVG/1.1/DTD/svg11.dtd" ><svg xmlns="http://www.w3.org/2000/svg"><metadata></metadata><defs><font id="fonteditor" horiz-adv-x="1232"><font-face font-family="." font-weight="250" font-stretch="normal" units-per-em="1000" panose-1="0 0 3 0 0 0 0 0 0 0" ascent="980" descent="-235" x-height="0" bbox="-446 -222 1176 957" underline-thickness="50" underline-position="-75" unicode-range="U+0020-fb02" /><missing-glyph horiz-adv-x="474"  /><glyph glyph-name="" unicode=" " d="" /><glyph glyph-name="" unicode="a" d="M293 676 l33 0 l263 -676 l-34 0 l-83 216 l-327 0 l-84 -216 l-33 0 l265 676 ZM460 247 l-151 390 l-152 -390 l303 0 Z" /><glyph glyph-name="" unicode="å" d="M589 0 l-34 0 l-83 216 l-327 0 l-84 -216 l-33 0 l258 658 q-37 9 -62.5 39 q-25.5 30 -25.5 70 q0 46 33.5 77.5 q33.5 31.5 77.5 31.5 q29 0 55 -14.5 q26 -14.5 41.5 -39.5 q15.5 -25 15.5 -55 q0 -40 -25.5 -70 q-25.5 -30 -62.5 -38 l256 -659 ZM228 767 q0 -36 23.5 -59.5 q23.5 -23.5 57.5 -23.5 q34 0 58 23.5 q24 23.5 24 59.5 q0 35 -24 58 q-24 23 -58 23 q-34 0 -57.5 -23 q-23.5 -23 -23.5 -58 ZM157 247 l303 0 l-151 390 l-152 -390 Z" /><glyph glyph-name="" unicode="æ" d="M493 676 l407 0 l0 -31 l-367 0 l0 -279 l322 0 l0 -32 l-322 0 l0 -303 l379 0 l0 -31 l-411 0 l0 209 l-306 0 l-150 -209 l-37 0 l485 676 ZM501 240 l0 397 l-284 -397 l284 0 Z" /><glyph glyph-name="" unicode="b" d="M291 676 q91 0 143.5 -45 q52.5 -45 52.5 -126 q0 -55 -27 -94.5 q-27 -39.5 -75 -59.5 q65 -14 102.5 -59.5 q37.5 -45.5 37.5 -110.5 q0 -87 -52.5 -134 q-52.5 -47 -143.5 -47 l-235 0 l0 676 l197 0 ZM285 360 q81 0 126 37 q45 37 45 108 q0 71 -44.5 106.5 q-44.5 35.5 -126.5 35.5 l-161 0 l0 -287 l161 0 ZM322 29 q171 0 171 152 q0 70 -45.5 109.5 q-45.5 39.5 -125.5 39.5 l-198 0 l0 -301 l198 0 Z" /><glyph glyph-name="" unicode="c" d="M360 -10 q-89 0 -157 43.5 q-68 43.5 -105.5 123 q-37.5 79.5 -37.5 182.5 q0 103 39.5 182 q39.5 79 110 122 q70.5 43 161.5 43 q58 0 111.5 -25 q53.5 -25 91.5 -69 l-21 -20 q-35 38 -82.5 60.5 q-47.5 22.5 -101.5 22.5 q-81 0 -144 -39.5 q-63 -39.5 -98 -111.5 q-35 -72 -35 -165 q0 -93 33.5 -165.5 q33.5 -72.5 95 -112.5 q61.5 -40 140.5 -40 q116 0 205 81 l20 -22 q-96 -90 -226 -90 Z" /><glyph glyph-name="" unicode="ç" d="M586 80 q-90 -84 -211 -90 q14 -15 22.5 -34 q8.5 -19 8.5 -38 q0 -44 -32 -66.5 q-32 -22.5 -82 -22.5 l-18 0 l0 30 l18 0 q36 0 58.5 15.5 q22.5 15.5 22.5 46.5 q0 34 -36 70 q-83 5 -145.5 50 q-62.5 45 -97 122 q-34.5 77 -34.5 176 q0 103 39.5 182 q39.5 79 110 122 q70.5 43 161.5 43 q58 0 111.5 -25 q53.5 -25 91.5 -69 l-21 -20 q-35 38 -82.5 60.5 q-47.5 22.5 -101.5 22.5 q-81 0 -144 -39.5 q-63 -39.5 -98 -111.5 q-35 -72 -35 -165 q0 -93 33.5 -165.5 q33.5 -72.5 95 -112.5 q61.5 -40 140.5 -40 q116 0 205 81 l20 -22 Z" /><glyph glyph-name="" unicode="d" d="M286 676 q99 0 171 -42.5 q72 -42.5 110 -118.5 q38 -76 38 -175 q0 -95 -39.5 -172.5 q-39.5 -77.5 -112 -122.5 q-72.5 -45 -167.5 -45 l-192 0 l0 676 l192 0 ZM286 30 q87 0 152 41 q65 41 100 112 q35 71 35 158 q0 88 -34.5 157.5 q-34.5 69.5 -99.5 108.5 q-65 39 -153 39 l-160 0 l0 -616 l160 0 Z" /><glyph glyph-name="" unicode="ð" d="M18 323 l0 30 l96 0 l0 323 l192 0 q99 0 171 -42.5 q72 -42.5 110 -118.5 q38 -76 38 -175 q0 -95 -39.5 -172.5 q-39.5 -77.5 -112 -122.5 q-72.5 -45 -167.5 -45 l-192 0 l0 323 l-96 0 ZM306 30 q87 0 152 41 q65 41 100 112 q35 71 35 158 q0 88 -34.5 157.5 q-34.5 69.5 -99.5 108.5 q-65 39 -153 39 l-160 0 l0 -293 l228 0 l0 -30 l-228 0 l0 -293 l160 0 Z" /><glyph glyph-name="" unicode="e" d="M94 676 l399 0 l0 -31 l-367 0 l0 -279 l322 0 l0 -32 l-322 0 l0 -303 l379 0 l0 -31 l-411 0 l0 676 Z" /><glyph glyph-name="" unicode="f" d="M94 676 l406 0 l0 -31 l-374 0 l0 -279 l325 0 l0 -32 l-325 0 l0 -334 l-32 0 l0 676 Z" /><glyph glyph-name="" unicode="g" d="M360 -10 q-89 0 -157 43.5 q-68 43.5 -105.5 123 q-37.5 79.5 -37.5 182.5 q0 103 40 182 q40 79 111.5 122 q71.5 43 164.5 43 q60 0 113.5 -25 q53.5 -25 92.5 -69 l-21 -20 q-36 39 -83.5 61 q-47.5 22 -103.5 22 q-83 0 -147 -39.5 q-64 -39.5 -99.5 -111.5 q-35.5 -72 -35.5 -165 q0 -93 33.5 -165 q33.5 -72 94.5 -112 q61 -40 141 -40 q62 0 110.5 18.5 q48.5 18.5 91.5 54.5 l0 199 l-212 0 l0 31 l243 0 l0 -244 q-48 -45 -107.5 -68 q-59.5 -23 -126.5 -23 Z" /><glyph glyph-name="" unicode="h" d="M94 676 l32 0 l0 -310 l393 0 l0 310 l32 0 l0 -676 l-32 0 l0 335 l-393 0 l0 -335 l-32 0 l0 676 Z" /><glyph glyph-name="" unicode="i" d="M94 676 l32 0 l0 -676 l-32 0 l0 676 Z" /><glyph glyph-name="" unicode="j" d="M66 31 q77 0 121 45.5 q44 45.5 44 125.5 l0 474 l32 0 l0 -467 q0 -99 -53 -154 q-53 -55 -148 -55 l-40 0 l0 31 l44 0 Z" /><glyph glyph-name="" unicode="k" d="M126 676 l0 -310 l119 0 q56 0 90.5 28.5 q34.5 28.5 71.5 88.5 l119 193 l35 0 l-130 -209 q-27 -43 -48.5 -68.5 q-21.5 -25.5 -49.5 -40.5 l270 -358 l-40 0 l-261 345 q-29 -10 -73 -10 l-103 0 l0 -335 l-32 0 l0 676 l32 0 Z" /><glyph glyph-name="" unicode="l" d="M94 676 l32 0 l0 -645 l364 0 l0 -31 l-396 0 l0 676 Z" /><glyph glyph-name="" unicode="m" d="M94 676 l32 0 l277 -493 l302 493 l31 0 l0 -676 l-32 0 l0 620 l-289 -473 l-26 0 l-264 467 l0 -614 l-31 0 l0 676 Z" /><glyph glyph-name="" unicode="n" d="M94 676 l28 0 l407 -613 l0 613 l31 0 l0 -676 l-27 0 l-408 614 l0 -614 l-31 0 l0 676 Z" /><glyph glyph-name="" unicode="o" d="M363 -10 q-88 0 -157 44.5 q-69 44.5 -107.5 124.5 q-38.5 80 -38.5 181 q0 97 39.5 176 q39.5 79 108.5 124.5 q69 45.5 155 45.5 q88 0 157 -44 q69 -44 107.5 -123 q38.5 -79 38.5 -179 q0 -98 -39.5 -178 q-39.5 -80 -108.5 -126 q-69 -46 -155 -46 ZM363 21 q77 0 139 42.5 q62 42.5 97 115.5 q35 73 35 162 q0 90 -34.5 161.5 q-34.5 71.5 -96.5 112 q-62 40.5 -140 40.5 q-78 0 -140 -41.5 q-62 -41.5 -96.5 -113 q-34.5 -71.5 -34.5 -159.5 q0 -90 34.5 -163 q34.5 -73 96 -115 q61.5 -42 140.5 -42 Z" /><glyph glyph-name="" unicode="ø" d="M145 87 q-41 47 -63 112 q-22 65 -22 141 q0 97 39.5 176 q39.5 79 108.5 124.5 q69 45.5 155 45.5 q116 0 197 -75 l73 93 l37 0 l-90 -114 q41 -46 63.5 -110.5 q22.5 -64.5 22.5 -139.5 q0 -98 -39.5 -178 q-39.5 -80 -108.5 -126 q-69 -46 -155 -46 q-116 0 -197 75 l-74 -94 l-38 0 l91 116 ZM540 586 q-36 33 -81 51 q-45 18 -96 18 q-78 0 -140 -41.5 q-62 -41.5 -96.5 -113 q-34.5 -71.5 -34.5 -159.5 q0 -68 19.5 -126 q19.5 -58 55.5 -102 l373 473 ZM363 21 q77 0 139 42.5 q62 42.5 97 115.5 q35 73 35 162 q0 67 -19 124 q-19 57 -55 99 l-373 -473 q73 -70 176 -70 Z" /><glyph glyph-name="" unicode="&#x152;" d="M363 -10 q-88 0 -157 44.5 q-69 44.5 -107.5 124.5 q-38.5 80 -38.5 181 q0 97 39.5 176 q39.5 79 108.5 124.5 q69 45.5 155 45.5 q95 0 166.5 -50 q71.5 -50 106.5 -139 l0 179 l399 0 l0 -31 l-367 0 l0 -279 l322 0 l0 -32 l-322 0 l0 -303 l379 0 l0 -31 l-411 0 l0 185 q-35 -90 -107.5 -142.5 q-72.5 -52.5 -165.5 -52.5 ZM363 21 q77 0 139 42.5 q62 42.5 97 115.5 q35 73 35 162 q0 90 -35 162 q-35 72 -96.5 112.5 q-61.5 40.5 -139.5 40.5 q-78 0 -140 -41.5 q-62 -41.5 -96.5 -113.5 q-34.5 -72 -34.5 -160 q0 -90 34.5 -163 q34.5 -73 96 -115 q61.5 -42 140.5 -42 Z" /><glyph glyph-name="" unicode="p" d="M299 676 q103 0 162 -53 q59 -53 59 -147 q0 -93 -60.5 -145.5 q-60.5 -52.5 -161.5 -52.5 l-173 0 l0 -278 l-31 0 l0 676 l205 0 ZM291 309 q94 0 145.5 42 q51.5 42 51.5 125 q0 85 -51.5 127 q-51.5 42 -145.5 42 l-166 0 l0 -336 l166 0 Z" /><glyph glyph-name="" unicode="þ" d="M125 676 l0 -102 l174 0 q101 0 161 -53.5 q60 -53.5 60 -146.5 q0 -93 -60 -146 q-60 -53 -161 -53 l-174 0 l0 -175 l-31 0 l0 676 l31 0 ZM291 207 q94 0 144.5 42 q50.5 42 50.5 125 q0 85 -50.5 127 q-50.5 42 -144.5 42 l-166 0 l0 -336 l166 0 Z" /><glyph glyph-name="" unicode="q" d="M533 47 q-74 -57 -170 -57 q-88 0 -157 44.5 q-69 44.5 -107.5 124.5 q-38.5 80 -38.5 181 q0 97 39.5 176 q39.5 79 108.5 124.5 q69 45.5 155 45.5 q88 0 157 -44 q69 -44 107.5 -123 q38.5 -79 38.5 -179 q0 -83 -28.5 -154 q-28.5 -71 -80.5 -119 l106 -136 l-26 -18 l-104 134 ZM363 21 q82 0 151 51 l-97 125 l24 18 l96 -123 q46 44 71.5 109 q25.5 65 25.5 140 q0 90 -35 162 q-35 72 -96.5 112.5 q-61.5 40.5 -139.5 40.5 q-78 0 -140 -41.5 q-62 -41.5 -96.5 -113.5 q-34.5 -72 -34.5 -160 q0 -90 34.5 -163 q34.5 -73 96 -115 q61.5 -42 140.5 -42 Z" /><glyph glyph-name="" unicode="r" d="M289 676 q103 0 162.5 -48.5 q59.5 -48.5 59.5 -139.5 q0 -71 -42.5 -118 q-42.5 -47 -116.5 -61 q39 -15 68.5 -49.5 q29.5 -34.5 67.5 -106.5 l80 -153 l-37 0 l-71 137 q-33 63 -56 94 q-23 31 -63 50 q-40 19 -109 19 l-107 0 l0 -300 l-31 0 l0 676 l195 0 ZM284 330 q93 0 144 40.5 q51 40.5 51 117.5 q0 82 -50 119.5 q-50 37.5 -145 37.5 l-159 0 l0 -315 l159 0 Z" /><glyph glyph-name="" unicode="s" d="M283 -10 q-141 0 -242 95 l21 23 q48 -45 101.5 -66 q53.5 -21 122.5 -21 q91 0 141.5 38 q50.5 38 50.5 104 q0 69 -47.5 107 q-47.5 38 -155.5 62 q-116 26 -166.5 67 q-50.5 41 -50.5 119 q0 46 28.5 84.5 q28.5 38.5 79 61 q50.5 22.5 113.5 22.5 q60 0 108.5 -20 q48.5 -20 91.5 -62 l-21 -22 q-77 74 -178 74 q-56 0 -99.5 -18 q-43.5 -18 -67.5 -49.5 q-24 -31.5 -24 -70.5 q0 -44 20 -73 q20 -29 65 -48.5 q45 -19.5 124 -36.5 q106 -23 158.5 -70 q52.5 -47 52.5 -125 q0 -82 -59.5 -128.5 q-59.5 -46.5 -166.5 -46.5 Z" /><glyph glyph-name="" unicode="&#x1e9e;" d="M404 -10 q-112 0 -196 80 l19 21 q43 -37 84 -53.5 q41 -16.5 91 -16.5 q79 0 126 41.5 q47 41.5 47 109.5 q0 77 -51 122 q-51 45 -139 45 l-63 0 l0 22 l192 232 q-33 29 -77 46.5 q-44 17.5 -95 17.5 q-104 0 -162 -68.5 q-58 -68.5 -58 -196.5 l0 -392 l-31 0 l0 390 q0 95 31.5 161.5 q31.5 66.5 87.5 100.5 q56 34 131 34 q67 0 120.5 -24.5 q53.5 -24.5 91.5 -61.5 l-193 -233 l28 0 q64 0 113.5 -24 q49.5 -24 77 -67.5 q27.5 -43.5 27.5 -100.5 q0 -54 -25.5 -96 q-25.5 -42 -71 -65.5 q-45.5 -23.5 -105.5 -23.5 Z" /><glyph glyph-name="" unicode="t" d="M286 645 l-246 0 l0 31 l524 0 l0 -31 l-246 0 l0 -645 l-32 0 l0 645 Z" /><glyph glyph-name="" unicode="u" d="M329 -10 q-121 0 -182 82 q-61 82 -61 234 l0 370 l32 0 l0 -369 q0 -136 52.5 -211 q52.5 -75 158.5 -75 q105 0 160 76.5 q55 76.5 55 209.5 l0 369 l32 0 l0 -370 q0 -146 -64.5 -231 q-64.5 -85 -182.5 -85 Z" /><glyph glyph-name="" unicode="v" d="M28 676 l35 0 l243 -635 l248 635 l31 0 l-263 -676 l-33 0 l-261 676 Z" /><glyph glyph-name="" unicode="w" d="M36 676 l34 0 l182 -633 l200 593 l32 0 l188 -593 l187 633 l32 0 l-201 -676 l-34 0 l-191 591 l-196 -591 l-34 0 l-199 676 Z" /><glyph glyph-name="" unicode="x" d="M290 358 l-226 318 l39 0 l208 -295 l210 295 l37 0 l-228 -319 l254 -357 l-40 0 l-235 329 l-234 -329 l-37 0 l252 358 Z" /><glyph glyph-name="" unicode="y" d="M245 265 l-224 411 l34 0 l206 -380 l209 380 l33 0 l-226 -411 l0 -265 l-32 0 l0 265 Z" /><glyph glyph-name="" unicode="z" d="M44 25 l458 620 l-443 0 l0 31 l485 0 l0 -24 l-458 -621 l470 0 l0 -31 l-512 0 l0 25 Z" /><glyph glyph-name="" unicode="a" d="M200 -10 q-67 0 -107.5 37.5 q-40.5 37.5 -40.5 99.5 q0 70 52 110 q52 40 140 40 l167 0 l0 35 q0 181 -158 181 q-42 0 -82.5 -17.5 q-40.5 -17.5 -73.5 -51.5 l-22 19 q34 37 81.5 58.5 q47.5 21.5 97.5 21.5 q188 0 188 -215 l0 -308 l-23 0 l-7 86 q-40 -44 -95 -70 q-55 -26 -117 -26 ZM204 20 q61 0 114.5 26.5 q53.5 26.5 92.5 74.5 l0 127 l-167 0 q-75 0 -118 -31.5 q-43 -31.5 -43 -88.5 q0 -49 33 -78.5 q33 -29.5 88 -29.5 Z" /><glyph glyph-name="" unicode="æ" d="M200 -10 q-67 0 -107.5 37.5 q-40.5 37.5 -40.5 99.5 q0 70 52 110 q52 40 140 40 l167 0 l0 35 q0 181 -158 181 q-42 0 -82.5 -17.5 q-40.5 -17.5 -73.5 -51.5 l-22 19 q34 37 81.5 58.5 q47.5 21.5 97.5 21.5 q152 0 179 -145 q27 68 82 106.5 q55 38.5 126 38.5 q65 0 113.5 -31.5 q48.5 -31.5 75 -90.5 q26.5 -59 26.5 -139 l0 -8 l-413 0 q1 -107 58.5 -170 q57.5 -63 152.5 -63 q40 0 79.5 16 q39.5 16 72.5 44 l18 -20 q-80 -71 -170 -71 q-72 0 -126 31.5 q-54 31.5 -84 90.5 q-43 -55 -107.5 -88.5 q-64.5 -33.5 -136.5 -33.5 ZM823 283 q-3 98 -52 154.5 q-49 56.5 -133 56.5 q-54 0 -97 -26.5 q-43 -26.5 -68.5 -74.5 q-25.5 -48 -28.5 -110 l379 0 ZM204 20 q67 0 127.5 32 q60.5 32 100.5 87 q-19 49 -20 109 l-168 0 q-75 0 -118 -31.5 q-43 -31.5 -43 -88.5 q0 -49 33 -78.5 q33 -29.5 88 -29.5 Z" /><glyph glyph-name="" unicode="b" d="M276 -8 q-43 0 -88 19.5 q-45 19.5 -75 51.5 l-7 -63 l-23 0 l0 726 l33 10 l0 -298 q38 40 86 62.5 q48 22.5 96 22.5 q67 0 117 -32.5 q50 -32.5 76.5 -92 q26.5 -59.5 26.5 -139.5 q0 -78 -30.5 -139 q-30.5 -61 -85 -94.5 q-54.5 -33.5 -126.5 -33.5 ZM272 23 q98 0 156 63.5 q58 63.5 58 171.5 q0 111 -49.5 173 q-49.5 62 -139.5 62 q-49 0 -96 -24 q-47 -24 -85 -68 l0 -307 q35 -32 75 -51.5 q40 -19.5 81 -19.5 Z" /><glyph glyph-name="" unicode="c" d="M286 -10 q-69 0 -122 33.5 q-53 33.5 -82.5 94 q-29.5 60.5 -29.5 139.5 q0 79 30.5 139.5 q30.5 60.5 86 93.5 q55.5 33 126.5 33 q46 0 88 -19.5 q42 -19.5 72 -53.5 l-22 -20 q-27 29 -62.5 46 q-35.5 17 -76.5 17 q-62 0 -109.5 -29.5 q-47.5 -29.5 -74 -83 q-26.5 -53.5 -26.5 -123.5 q0 -69 25.5 -123 q25.5 -54 71.5 -84 q46 -30 106 -30 q89 0 158 61 l20 -20 q-74 -71 -179 -71 Z" /><glyph glyph-name="" unicode="ç" d="M465 61 q-68 -65 -163 -71 q14 -15 23 -34.5 q9 -19.5 9 -38.5 q0 -44 -32 -66.5 q-32 -22.5 -82 -22.5 l-18 0 l0 30 l18 0 q36 0 58.5 15.5 q22.5 15.5 22.5 46.5 q0 34 -37 71 q-63 5 -111 39.5 q-48 34.5 -74.5 93 q-26.5 58.5 -26.5 133.5 q0 79 30.5 139.5 q30.5 60.5 86 93.5 q55.5 33 126.5 33 q46 0 88 -19.5 q42 -19.5 72 -53.5 l-22 -20 q-27 29 -62.5 46 q-35.5 17 -76.5 17 q-62 0 -109.5 -29.5 q-47.5 -29.5 -74 -83 q-26.5 -53.5 -26.5 -123.5 q0 -69 25.5 -123 q25.5 -54 71.5 -84 q46 -30 106 -30 q89 0 158 61 l20 -20 Z" /><glyph glyph-name="" unicode="d" d="M272 -10 q-67 0 -117 33 q-50 33 -76.5 93 q-26.5 60 -26.5 140 q0 79 30 139.5 q30 60.5 85 94 q55 33.5 127 33.5 q44 0 88 -18 q44 -18 73 -45 l0 266 l32 10 l0 -736 l-22 0 l-8 78 q-38 -41 -86.5 -64.5 q-48.5 -23.5 -98.5 -23.5 ZM275 21 q49 0 95.5 24 q46.5 24 84.5 68 l0 314 q-78 66 -157 66 q-64 0 -112.5 -28.5 q-48.5 -28.5 -75 -82 q-26.5 -53.5 -26.5 -125.5 q0 -110 50.5 -173 q50.5 -63 140.5 -63 Z" /><glyph glyph-name="" unicode="ð" d="M287 -10 q-69 0 -123 33 q-54 33 -84.5 91 q-30.5 58 -30.5 129 q0 74 30.5 133 q30.5 59 85.5 92 q55 33 126 33 q50 0 100 -20 q50 -20 81 -48 q-27 94 -94 170 l-137 -40 l0 30 l115 34 q-49 50 -129 101 l38 10 q76 -49 124 -101 l117 34 l0 -30 l-96 -28 q113 -138 113 -328 q0 -85 -29 -152 q-29 -67 -82.5 -105 q-53.5 -38 -124.5 -38 ZM287 21 q63 0 109 33.5 q46 33.5 70.5 93 q24.5 59.5 24.5 135.5 q0 61 -10 110 q-38 34 -86 55.5 q-48 21.5 -100 21.5 q-64 0 -112.5 -28 q-48.5 -28 -75 -79.5 q-26.5 -51.5 -26.5 -118.5 q0 -61 26 -112 q26 -51 73 -81 q47 -30 107 -30 Z" /><glyph glyph-name="" unicode="e" d="M294 -10 q-73 0 -127.5 32.5 q-54.5 32.5 -84.5 93.5 q-30 61 -30 144 q0 76 29.5 136 q29.5 60 81.5 93.5 q52 33.5 118 33.5 q99 0 157 -70 q58 -70 58 -191 l0 -8 l-413 0 q1 -71 27.5 -123.5 q26.5 -52.5 74 -81 q47.5 -28.5 109.5 -28.5 q41 0 80.5 16 q39.5 16 71.5 44 l20 -20 q-78 -71 -172 -71 ZM463 283 q-3 98 -52 154.5 q-49 56.5 -133 56.5 q-53 0 -96 -26.5 q-43 -26.5 -69 -74.5 q-26 -48 -29 -110 l379 0 Z" /><glyph glyph-name="" unicode="f" d="M83 540 q0 88 43.5 142 q43.5 54 124.5 54 q58 0 104 -35 l-16 -24 q-19 15 -40.5 22 q-21.5 7 -49.5 7 q-65 0 -99.5 -46 q-34.5 -46 -34.5 -119 l0 -27 l231 0 l0 -30 l-231 0 l0 -484 l-32 0 l0 540 Z" /><glyph glyph-name="" unicode="g" d="M263 -222 q-117 0 -196 74 l19 22 q71 -66 176 -66 q90 0 138.5 50.5 q48.5 50.5 48.5 146.5 l0 86 q-38 -40 -86 -63 q-48 -23 -96 -23 q-67 0 -117 32.5 q-50 32.5 -76.5 91 q-26.5 58.5 -26.5 134.5 q0 75 30.5 134 q30.5 59 85 92.5 q54.5 33.5 125.5 33.5 q46 0 90.5 -19 q44.5 -19 73.5 -46 l7 56 l22 0 l0 -510 q0 -106 -58.5 -166 q-58.5 -60 -159.5 -60 ZM270 35 q48 0 94.5 24 q46.5 24 84.5 68 l0 301 q-77 65 -157 65 q-63 0 -111.5 -28.5 q-48.5 -28.5 -75 -80.5 q-26.5 -52 -26.5 -120 q0 -106 51 -167.5 q51 -61.5 140 -61.5 Z" /><glyph glyph-name="" unicode="h" d="M116 736 l0 -312 q42 51 94 75 q52 24 103 24 q84 0 128 -58.5 q44 -58.5 44 -169.5 l0 -295 l-32 0 l0 289 q0 204 -146 204 q-51 0 -99.5 -26.5 q-48.5 -26.5 -91.5 -80.5 l0 -386 l-33 0 l0 726 l33 10 Z" /><glyph glyph-name="" unicode="&#x131;" d="M85 514 l32 0 l0 -514 l-32 0 l0 514 Z" /><glyph glyph-name="" unicode="&#x237;" d="M-23 -182 q51 0 79.5 33.5 q28.5 33.5 28.5 94.5 l0 568 l33 0 l0 -562 q0 -79 -37 -122 q-37 -43 -105 -43 l-19 0 l0 31 l20 0 Z" /><glyph glyph-name="" unicode="k" d="M116 736 l0 -456 l100 0 q41 0 72 21 q31 21 62 68 l94 145 l35 0 l-104 -158 q-41 -62 -79 -85 l218 -271 l-40 0 l-209 258 q-21 -7 -49 -7 l-100 0 l0 -251 l-33 0 l0 726 l33 10 Z" /><glyph glyph-name="" unicode="l" d="M219 -5 q-68 0 -105 43 q-37 43 -37 122 l0 566 l33 10 l0 -582 q0 -61 28.5 -95 q28.5 -34 79.5 -34 l20 0 l0 -30 l-19 0 Z" /><glyph glyph-name="" unicode="m" d="M106 514 l10 -91 q40 50 89 75 q49 25 93 25 q49 0 85 -23.5 q36 -23.5 55 -70.5 q40 48 91.5 71 q51.5 23 98.5 23 q78 0 123 -53 q45 -53 45 -159 l0 -311 l-33 0 l0 305 q0 188 -141 188 q-45 0 -90.5 -22.5 q-45.5 -22.5 -84.5 -68.5 q11 -41 11 -91 l0 -311 l-33 0 l0 305 q0 188 -133 188 q-45 0 -90 -27 q-45 -27 -86 -80 l0 -386 l-33 0 l0 514 l23 0 Z" /><glyph glyph-name="" unicode="n" d="M105 514 l9 -91 q43 52 95 76 q52 24 103 24 q84 0 128 -58.5 q44 -58.5 44 -169.5 l0 -295 l-32 0 l0 289 q0 204 -146 204 q-51 0 -99.5 -26.5 q-48.5 -26.5 -91.5 -80.5 l0 -386 l-32 0 l0 514 l22 0 Z" /><glyph glyph-name="" unicode="o" d="M290 -10 q-70 0 -124 34 q-54 34 -84 95 q-30 61 -30 139 q0 75 31 135.5 q31 60.5 85.5 95 q54.5 34.5 121.5 34.5 q70 0 124 -33.5 q54 -33.5 84 -93.5 q30 -60 30 -138 q0 -75 -30.5 -136.5 q-30.5 -61.5 -85 -96.5 q-54.5 -35 -122.5 -35 ZM290 20 q60 0 106.5 31 q46.5 31 73 85.5 q26.5 54.5 26.5 122.5 q0 67 -26.5 120.5 q-26.5 53.5 -73 83.5 q-46.5 30 -106.5 30 q-60 0 -107 -30.5 q-47 -30.5 -73 -84 q-26 -53.5 -26 -119.5 q0 -68 26 -122.5 q26 -54.5 73 -85.5 q47 -31 107 -31 Z" /><glyph glyph-name="" unicode="ø" d="M120 62 q-33 36 -50.5 86.5 q-17.5 50.5 -17.5 109.5 q0 75 31 135.5 q31 60.5 85.5 95 q54.5 34.5 121.5 34.5 q85 0 145 -48 l55 72 l36 0 l-70 -92 q35 -35 53.5 -85.5 q18.5 -50.5 18.5 -111.5 q0 -75 -30.5 -136.5 q-30.5 -61.5 -85 -96.5 q-54.5 -35 -122.5 -35 q-86 0 -149 52 l-57 -75 l-36 0 l72 95 ZM415 449 q-52 44 -125 44 q-60 0 -107 -30.5 q-47 -30.5 -73 -84 q-26 -53.5 -26 -119.5 q0 -51 15 -94.5 q15 -43.5 42 -75.5 l274 360 ZM290 20 q60 0 106.5 31 q46.5 31 73 85.5 q26.5 54.5 26.5 122.5 q0 51 -15.5 95 q-15.5 44 -44.5 75 l-275 -361 q54 -48 129 -48 Z" /><glyph glyph-name="" unicode="&#x153;" d="M290 -10 q-70 0 -124 34 q-54 34 -84 95 q-30 61 -30 139 q0 75 31 135.5 q31 60.5 85.5 95 q54.5 34.5 121.5 34.5 q79 0 138 -43.5 q59 -43.5 84 -118.5 q24 75 81 118.5 q57 43.5 133 43.5 q99 0 157 -70 q58 -70 58 -191 l0 -8 l-413 0 q1 -71 27.5 -123.5 q26.5 -52.5 74 -81 q47.5 -28.5 109.5 -28.5 q41 0 80.5 16 q39.5 16 71.5 44 l18 -20 q-78 -71 -170 -71 q-85 0 -144.5 43.5 q-59.5 43.5 -83.5 122.5 q-25 -75 -84 -120.5 q-59 -45.5 -137 -45.5 ZM908 283 q-2 97 -51.5 154 q-49.5 57 -133.5 57 q-53 0 -96 -26.5 q-43 -26.5 -69 -74.5 q-26 -48 -29 -110 l379 0 ZM290 21 q60 0 106.5 31 q46.5 31 73 85.5 q26.5 54.5 26.5 121.5 q0 67 -26.5 120.5 q-26.5 53.5 -73 83.5 q-46.5 30 -106.5 30 q-60 0 -107 -30.5 q-47 -30.5 -73 -84 q-26 -53.5 -26 -119.5 q0 -67 26 -121.5 q26 -54.5 73 -85.5 q47 -31 107 -31 Z" /><glyph glyph-name="" unicode="p" d="M106 514 l8 -78 q38 40 87 63.5 q49 23.5 97 23.5 q67 0 117 -32.5 q50 -32.5 76.5 -92 q26.5 -59.5 26.5 -139.5 q0 -78 -30.5 -139 q-30.5 -61 -85 -94.5 q-54.5 -33.5 -126.5 -33.5 q-44 0 -87.5 18.5 q-43.5 18.5 -72.5 44.5 l0 -264 l-33 -10 l0 733 l23 0 ZM272 23 q98 0 156 63.5 q58 63.5 58 171.5 q0 111 -49.5 173 q-49.5 62 -139.5 62 q-49 0 -96 -24 q-47 -24 -85 -68 l0 -312 q76 -66 156 -66 Z" /><glyph glyph-name="" unicode="þ" d="M116 736 l0 -298 q38 40 86 62.5 q48 22.5 96 22.5 q67 0 117 -32.5 q50 -32.5 76.5 -92 q26.5 -59.5 26.5 -139.5 q0 -78 -30.5 -139 q-30.5 -61 -85 -94.5 q-54.5 -33.5 -126.5 -33.5 q-42 0 -86 18 q-44 18 -74 50 l0 -269 l-33 -10 l0 945 l33 10 ZM272 23 q98 0 156 63.5 q58 63.5 58 171.5 q0 111 -49.5 173 q-49.5 62 -139.5 62 q-49 0 -96 -24 q-47 -24 -85 -68 l0 -307 q35 -32 75 -51.5 q40 -19.5 81 -19.5 Z" /><glyph glyph-name="" unicode="q" d="M455 76 q-38 -40 -86 -63 q-48 -23 -97 -23 q-67 0 -117 33 q-50 33 -76.5 93 q-26.5 60 -26.5 140 q0 79 30 139.5 q30 60.5 85 94 q55 33.5 127 33.5 q46 0 91 -19.5 q45 -19.5 73 -46.5 l7 57 l22 0 l0 -723 l-32 -10 l0 295 ZM275 21 q49 0 95.5 24 q46.5 24 84.5 68 l0 314 q-78 66 -157 66 q-64 0 -112.5 -28.5 q-48.5 -28.5 -75 -82 q-26.5 -53.5 -26.5 -125.5 q0 -110 50.5 -173 q50.5 -63 140.5 -63 Z" /><glyph glyph-name="" unicode="r" d="M106 514 l10 -91 q43 51 97 74.5 q54 23.5 105 23.5 l11 0 l0 -31 l-16 0 q-112 0 -197 -104 l0 -386 l-33 0 l0 514 l23 0 Z" /><glyph glyph-name="" unicode="s" d="M251 -10 q-121 0 -197 76 l21 20 q37 -35 78.5 -50 q41.5 -15 99.5 -15 q71 0 109.5 27 q38.5 27 38.5 76 q0 51 -37 79.5 q-37 28.5 -122 45.5 q-64 13 -101 30 q-37 17 -54.5 44 q-17.5 27 -17.5 70 q0 37 23 66.5 q23 29.5 63.5 46.5 q40.5 17 91.5 17 q50 0 89.5 -16 q39.5 -16 73.5 -51 l-22 -21 q-59 58 -141 58 q-65 0 -106 -27.5 q-41 -27.5 -41 -72.5 q0 -35 15.5 -55.5 q15.5 -20.5 49.5 -34 q34 -13.5 97 -26.5 q89 -18 130 -54 q41 -36 41 -97 q0 -65 -47.5 -100.5 q-47.5 -35.5 -134.5 -35.5 Z" /><glyph glyph-name="" unicode="ß" d="M384 -10 q-105 0 -176 68 l19 20 q35 -30 71.5 -43.5 q36.5 -13.5 85.5 -13.5 q70 0 108.5 29 q38.5 29 38.5 80 q0 47 -30.5 73.5 q-30.5 26.5 -88.5 51.5 l-30 12 q-36 14 -56.5 25 q-20.5 11 -34 31 q-13.5 20 -13.5 52 q0 33 20 58 q20 25 56 54 q36 29 55.5 53.5 q19.5 24.5 19.5 58.5 q0 50 -36 78.5 q-36 28.5 -105 28.5 q-51 0 -90 -25 q-39 -25 -61 -70.5 q-22 -45.5 -22 -103.5 l0 -507 l-32 0 l0 508 q0 66 27 118 q27 52 74 81 q47 29 105 29 q80 0 125.5 -37 q45.5 -37 45.5 -97 q0 -43 -22.5 -72.5 q-22.5 -29.5 -64.5 -63.5 q-32 -26 -48.5 -46 q-16.5 -20 -16.5 -46 q0 -32 22 -48 q22 -16 70 -34 q8 -4 24 -10 q64 -26 101.5 -59.5 q37.5 -33.5 37.5 -91.5 q0 -67 -47 -104 q-47 -37 -132 -37 Z" /><glyph glyph-name="" unicode="t" d="M247 -8 q-77 0 -119.5 48.5 q-42.5 48.5 -42.5 133.5 l0 467 l32 10 l0 -137 l217 0 l0 -30 l-217 0 l0 -312 q0 -72 33 -110.5 q33 -38.5 95 -38.5 q28 0 47.5 5.5 q19.5 5.5 37.5 20.5 l17 -24 q-42 -33 -100 -33 Z" /><glyph glyph-name="" unicode="u" d="M251 -10 q-84 0 -127.5 59 q-43.5 59 -43.5 170 l0 295 l33 0 l0 -290 q0 -93 32 -148 q32 -55 112 -55 q50 0 98 26.5 q48 26.5 91 79.5 l0 387 l32 0 l0 -514 l-22 0 l-10 91 q-41 -52 -93 -76.5 q-52 -24.5 -102 -24.5 Z" /><glyph glyph-name="" unicode="v" d="M22 514 l36 0 l197 -475 l200 475 l34 0 l-217 -514 l-35 0 l-215 514 Z" /><glyph glyph-name="" unicode="w" d="M34 514 l36 0 l141 -471 l157 429 l34 0 l146 -429 l146 471 l33 0 l-161 -514 l-33 0 l-151 431 l-154 -431 l-33 0 l-161 514 Z" /><glyph glyph-name="" unicode="x" d="M237 270 l-181 244 l40 0 l162 -219 l163 219 l37 0 l-182 -243 l202 -271 l-40 0 l-183 245 l-182 -245 l-37 0 l201 270 Z" /><glyph glyph-name="" unicode="y" d="M84 -182 q50 0 83 29 q33 29 56 88 l29 73 l-232 506 l36 0 l211 -467 l186 467 l34 0 l-237 -591 q-29 -72 -67 -104 q-38 -32 -102 -32 l-15 0 l0 31 l18 0 Z" /><glyph glyph-name="" unicode="z" d="M54 25 l357 459 l-350 0 l0 30 l390 0 l0 -26 l-355 -458 l363 0 l0 -30 l-405 0 l0 25 Z" /><glyph glyph-name="" unicode="ª" d="M152 295 q-51 0 -82 27.5 q-31 27.5 -31 73.5 q0 51 39.5 80 q39.5 29 106.5 29 l119 0 l0 23 q0 127 -114 127 q-65 0 -114 -49 l-20 17 q25 28 61.5 43.5 q36.5 15.5 73.5 15.5 q69 0 105 -39.5 q36 -39.5 36 -118.5 l0 -222 l-19 0 l-8 60 q-29 -30 -68.5 -48.5 q-39.5 -18.5 -84.5 -18.5 ZM155 322 q42 0 81.5 19.5 q39.5 19.5 67.5 53.5 l0 84 l-120 0 q-54 0 -85 -22 q-31 -22 -31 -61 q0 -34 24 -54 q24 -20 63 -20 Z" /><glyph glyph-name="" unicode="º" d="M219 295 q-51 0 -91.5 24.5 q-40.5 24.5 -63 69 q-22.5 44.5 -22.5 101.5 q0 54 23 98 q23 44 63.5 69 q40.5 25 90.5 25 q51 0 91.5 -24.5 q40.5 -24.5 63 -68 q22.5 -43.5 22.5 -99.5 q0 -56 -23 -100.5 q-23 -44.5 -63.5 -69.5 q-40.5 -25 -90.5 -25 ZM219 323 q42 0 75.5 21.5 q33.5 21.5 52.5 59.5 q19 38 19 86 q0 73 -41 119 q-41 46 -106 46 q-65 0 -105.5 -47 q-40.5 -47 -40.5 -118 q0 -73 40.5 -120 q40.5 -47 105.5 -47 Z" /><glyph glyph-name="" unicode="&#x3bc;" d="M115 514 l0 -292 q0 -91 35 -146 q35 -55 116 -55 q97 0 182 106 l0 387 l32 0 l0 -514 l-22 0 l-10 90 q-43 -52 -91.5 -76 q-48.5 -24 -96.5 -24 q-50 0 -86.5 21.5 q-36.5 21.5 -58.5 59.5 l0 -280 l-33 -10 l0 733 l33 0 Z" /><glyph glyph-name="" unicode="0" d="M304 -10 q-75 0 -130 43 q-55 43 -84.5 120 q-29.5 77 -29.5 177 q0 95 30 171.5 q30 76.5 85.5 120.5 q55.5 44 127.5 44 q75 0 130.5 -43 q55.5 -43 85.5 -119 q30 -76 30 -174 q0 -97 -30 -174 q-30 -77 -85.5 -121.5 q-55.5 -44.5 -129.5 -44.5 ZM303 21 q65 0 113.5 40.5 q48.5 40.5 74.5 111 q26 70.5 26 158.5 q0 89 -25.5 158 q-25.5 69 -74 107.5 q-48.5 38.5 -114.5 38.5 q-65 0 -113 -40 q-48 -40 -73 -109 q-25 -69 -25 -155 q0 -90 25 -160 q25 -70 72.5 -110 q47.5 -40 113.5 -40 Z" /><glyph glyph-name="" unicode="1" d="M198 622 l-163 -56 l0 30 l168 61 l27 0 l0 -657 l-32 0 l0 622 Z" /><glyph glyph-name="" unicode="2" d="M338 295 q53 51 79.5 96 q26.5 45 26.5 96 q0 69 -45 108.5 q-45 39.5 -129 39.5 q-55 0 -101.5 -21 q-46.5 -21 -86.5 -63 l-21 20 q42 45 95 70 q53 25 115 25 q97 0 151 -48.5 q54 -48.5 54 -128.5 q0 -54 -28 -105.5 q-28 -51.5 -84 -105.5 l-253 -247 l375 0 l0 -31 l-422 0 l0 26 l274 269 Z" /><glyph glyph-name="" unicode="3" d="M260 -10 q-63 0 -119 22.5 q-56 22.5 -99 61.5 l21 22 q89 -75 196 -75 q92 0 144.5 45.5 q52.5 45.5 52.5 119.5 q0 77 -58.5 116 q-58.5 39 -160.5 39 l-35 0 l0 24 l226 261 l-360 0 l0 31 l399 0 l0 -27 l-225 -260 q115 -2 180.5 -48.5 q65.5 -46.5 65.5 -137.5 q0 -56 -27 -100 q-27 -44 -78.5 -69 q-51.5 -25 -122.5 -25 Z" /><glyph glyph-name="" unicode="4" d="M405 187 l-358 0 l0 23 l358 447 l31 0 l0 -440 l105 0 l0 -30 l-105 0 l0 -187 l-31 0 l0 187 ZM405 217 l0 394 l-316 -394 l316 0 Z" /><glyph glyph-name="" unicode="5" d="M267 -10 q-64 0 -118 22.5 q-54 22.5 -94 61.5 l20 22 q40 -35 86.5 -55 q46.5 -20 105.5 -20 q81 0 129.5 45.5 q48.5 45.5 48.5 122.5 q0 75 -51.5 117.5 q-51.5 42.5 -136.5 42.5 l-165 0 l0 21 l60 287 l288 0 l0 -31 l-266 0 l-50 -247 l133 0 q101 0 160.5 -50.5 q59.5 -50.5 59.5 -141.5 q0 -58 -26 -102.5 q-26 -44.5 -73.5 -69.5 q-47.5 -25 -110.5 -25 Z" /><glyph glyph-name="" unicode="6" d="M298 -10 q-109 0 -169 81.5 q-60 81.5 -60 234.5 q0 112 30 193 q30 81 85.5 124 q55.5 43 131.5 43 q46 0 90.5 -19 q44.5 -19 81.5 -59 l-21 -20 q-33 34 -70 50.5 q-37 16.5 -84 16.5 q-96 0 -152 -78 q-56 -78 -61 -217 q96 51 205 51 q62 0 108 -25.5 q46 -25.5 71 -70 q25 -44.5 25 -99.5 q0 -55 -27 -102.5 q-27 -47.5 -75 -75.5 q-48 -28 -109 -28 ZM295 21 q84 0 133 50 q49 50 49 128 q0 72 -46 117 q-46 45 -127 45 q-55 0 -108.5 -13 q-53.5 -13 -95.5 -38 q0 -141 50 -215 q50 -74 145 -74 Z" /><glyph glyph-name="" unicode="7" d="M463 626 l-406 0 l0 31 l440 0 l0 -27 l-292 -630 l-35 0 l293 626 Z" /><glyph glyph-name="" unicode="8" d="M299 -10 q-69 0 -121.5 22 q-52.5 22 -81.5 63.5 q-29 41.5 -29 96.5 q0 55 35.5 103 q35.5 48 102.5 83 q-117 51 -117 149 q0 47 27 83 q27 36 76 56 q49 20 114 20 q97 0 154.5 -45.5 q57.5 -45.5 57.5 -120.5 q0 -52 -30 -95.5 q-30 -43.5 -89 -75.5 q65 -25 99 -64 q34 -39 34 -100 q0 -80 -63.5 -127.5 q-63.5 -47.5 -168.5 -47.5 ZM362 341 q58 24 91.5 67.5 q33.5 43.5 33.5 91.5 q0 64 -49 100.5 q-49 36.5 -134 36.5 q-85 0 -134.5 -35 q-49.5 -35 -49.5 -93 q0 -62 44.5 -95.5 q44.5 -33.5 136.5 -55.5 q26 -6 61 -17 ZM300 20 q91 0 145.5 38.5 q54.5 38.5 54.5 106.5 q0 50 -26 81 q-26 31 -69.5 49 q-43.5 18 -116.5 36 q-16 4 -48 14 q-64 -26 -103 -73 q-39 -47 -39 -99 q0 -71 55.5 -112 q55.5 -41 146.5 -41 Z" /><glyph glyph-name="" unicode="9" d="M244 -10 q-47 0 -93 19.5 q-46 19.5 -83 58.5 l21 20 q33 -34 71 -50.5 q38 -16.5 87 -16.5 q103 0 157 76.5 q54 76.5 56 228.5 q-95 -52 -205 -52 q-94 0 -149 54 q-55 54 -55 144 q0 56 29 100 q29 44 78 69 q49 25 109 25 q107 0 165.5 -81.5 q58.5 -81.5 58.5 -234.5 q0 -179 -63 -269.5 q-63 -90.5 -184 -90.5 ZM256 304 q55 0 108.5 13.5 q53.5 13.5 95.5 39.5 q-1 137 -50 207.5 q-49 70.5 -140 70.5 q-84 0 -135.5 -45 q-51.5 -45 -51.5 -121 q0 -76 46.5 -120.5 q46.5 -44.5 126.5 -44.5 Z" /><glyph glyph-name="" unicode="&#x2070;" d="M214 350 q-71 0 -114 53 q-43 53 -43 138 q0 53 19.5 96 q19.5 43 55 67.5 q35.5 24.5 81.5 24.5 q71 0 114.5 -52.5 q43.5 -52.5 43.5 -135.5 q0 -55 -19.5 -98.5 q-19.5 -43.5 -55.5 -68 q-36 -24.5 -82 -24.5 ZM213 379 q58 0 92 45 q34 45 34 117 q0 71 -33.5 115.5 q-33.5 44.5 -91.5 44.5 q-59 0 -93 -45.5 q-34 -45.5 -34 -114.5 q0 -72 33.5 -117 q33.5 -45 92.5 -45 Z" /><glyph glyph-name="" unicode="¹" d="M157 693 l-95 -28 l0 26 l103 33 l22 0 l0 -367 l-30 0 l0 336 Z" /><glyph glyph-name="" unicode="²" d="M228 524 q30 27 45.5 51.5 q15.5 24.5 15.5 48.5 q0 36 -25 57 q-25 21 -72 21 q-31 0 -59 -13.5 q-28 -13.5 -49 -33.5 l-19 19 q26 25 60 40.5 q34 15.5 68 15.5 q60 0 93.5 -28.5 q33.5 -28.5 33.5 -74.5 q0 -53 -68 -115 l-142 -129 l215 0 l0 -26 l-257 0 l0 22 l160 145 Z" /><glyph glyph-name="" unicode="³" d="M192 350 q-40 0 -73.5 14 q-33.5 14 -58.5 36 l20 21 q48 -43 112 -43 q50 0 79 23.5 q29 23.5 29 60.5 q0 38 -31.5 58.5 q-31.5 20.5 -84.5 20.5 l-33 0 l0 19 l127 136 l-205 0 l0 27 l244 0 l0 -20 l-128 -137 q64 -1 103 -28.5 q39 -27.5 39 -76.5 q0 -49 -37.5 -80 q-37.5 -31 -101.5 -31 Z" /><glyph glyph-name="" unicode="&#x2074;" d="M266 458 l-213 0 l0 19 l213 247 l29 0 l0 -240 l62 0 l0 -26 l-62 0 l0 -101 l-29 0 l0 101 ZM266 484 l0 203 l-176 -203 l176 0 Z" /><glyph glyph-name="" unicode="&#x2075;" d="M190 350 q-75 0 -128 49 l19 20 q46 -41 109 -41 q45 0 72.5 23.5 q27.5 23.5 27.5 62.5 q0 38 -28 60 q-28 22 -76 22 l-99 0 l0 20 l28 157 l181 0 l0 -27 l-159 0 l-21 -124 l70 0 q62 0 98.5 -29 q36.5 -29 36.5 -80 q0 -51 -35.5 -82 q-35.5 -31 -95.5 -31 Z" /><glyph glyph-name="" unicode="&#x2076;" d="M210 350 q-68 0 -105.5 45.5 q-37.5 45.5 -37.5 127.5 q0 94 42 150 q42 56 114 56 q35 0 63.5 -14 q28.5 -14 47.5 -37 l-21 -17 q-17 20 -39 30 q-22 10 -52 10 q-54 0 -87 -40 q-33 -40 -38 -108 q54 28 119 28 q58 0 92.5 -32 q34.5 -32 34.5 -82 q0 -48 -37.5 -82.5 q-37.5 -34.5 -95.5 -34.5 ZM207 378 q49 0 77 25 q28 25 28 65 q0 39 -26 62.5 q-26 23.5 -73 23.5 q-31 0 -62.5 -7.5 q-31.5 -7.5 -54.5 -20.5 q0 -72 29 -110 q29 -38 82 -38 Z" /><glyph glyph-name="" unicode="&#x2077;" d="M299 697 l-234 0 l0 27 l269 0 l0 -18 l-172 -349 l-32 0 l169 340 Z" /><glyph glyph-name="" unicode="&#x2078;" d="M214 350 q-63 0 -103 28.5 q-40 28.5 -40 74.5 q0 29 19.5 56 q19.5 27 56.5 46 q-62 28 -62 83 q0 40 36.5 65.5 q36.5 25.5 94.5 25.5 q59 0 94.5 -26.5 q35.5 -26.5 35.5 -69.5 q0 -27 -16 -51 q-16 -24 -48 -41 q73 -32 73 -91 q0 -45 -39 -72.5 q-39 -27.5 -102 -27.5 ZM251 551 q32 14 49.5 36.5 q17.5 22.5 17.5 45.5 q0 32 -28 51.5 q-28 19.5 -74 19.5 q-46 0 -74.5 -18 q-28.5 -18 -28.5 -47 q0 -31 25.5 -48.5 q25.5 -17.5 79.5 -31.5 l33 -8 ZM214 376 q49 0 80.5 20 q31.5 20 31.5 53 q0 33 -28 51.5 q-28 18.5 -86 33.5 l-34 9 q-35 -15 -56.5 -38.5 q-21.5 -23.5 -21.5 -50.5 q0 -35 32 -56.5 q32 -21.5 82 -21.5 Z" /><glyph glyph-name="" unicode="&#x2079;" d="M182 350 q-71 0 -113 51 l20 17 q19 -20 40.5 -30 q21.5 -10 53.5 -10 q57 0 88 39 q31 39 35 113 q-26 -13 -57 -20 q-31 -7 -61 -7 q-59 0 -93 30 q-34 30 -34 81 q0 49 39 82 q39 33 95 33 q67 0 104.5 -46 q37.5 -46 37.5 -127 q0 -99 -40 -152.5 q-40 -53.5 -115 -53.5 ZM191 530 q31 0 61.5 7.5 q30.5 7.5 53.5 20.5 q0 70 -28 106.5 q-28 36.5 -81 36.5 q-48 0 -77 -24 q-29 -24 -29 -64 q0 -39 26.5 -61 q26.5 -22 73.5 -22 Z" /><glyph glyph-name="" unicode="&#x2044;" d="M292 657 l39 0 l-533 -657 l-40 0 l534 657 Z" /><glyph glyph-name="" unicode="." d="M125 -10 q-14 0 -22.5 9.5 q-8.5 9.5 -8.5 23.5 q0 14 8.5 23.5 q8.5 9.5 22.5 9.5 q15 0 24 -9 q9 -9 9 -24 q0 -15 -9 -24 q-9 -9 -24 -9 Z" /><glyph glyph-name="" unicode="," d="M41 -127 q29 40 50 94.5 q21 54.5 26 92.5 l35 0 q-6 -43 -28 -98 q-22 -55 -51 -89 l-32 0 Z" /><glyph glyph-name="" unicode=":" d="M125 454 q-14 0 -22.5 9.5 q-8.5 9.5 -8.5 23.5 q0 14 8.5 23.5 q8.5 9.5 22.5 9.5 q15 0 24 -9 q9 -9 9 -24 q0 -15 -9 -24 q-9 -9 -24 -9 ZM125 -10 q-14 0 -22.5 9.5 q-8.5 9.5 -8.5 23.5 q0 14 8.5 23.5 q8.5 9.5 22.5 9.5 q15 0 24 -9 q9 -9 9 -24 q0 -15 -9 -24 q-9 -9 -24 -9 Z" /><glyph glyph-name="" unicode=";" d="M125 454 q-14 0 -22.5 9.5 q-8.5 9.5 -8.5 23.5 q0 14 8.5 23.5 q8.5 9.5 22.5 9.5 q15 0 24 -9 q9 -9 9 -24 q0 -15 -9 -24 q-9 -9 -24 -9 ZM41 -127 q29 40 50 94.5 q21 54.5 26 92.5 l35 0 q-6 -43 -28 -98 q-22 -55 -51 -89 l-32 0 Z" /><glyph glyph-name="" unicode="!" d="M99 676 l35 0 l-3 -515 l-29 0 l-3 515 ZM115 -10 q-14 0 -22.5 9.5 q-8.5 9.5 -8.5 23.5 q0 14 8.5 23.5 q8.5 9.5 22.5 9.5 q15 0 24 -9 q9 -9 9 -24 q0 -15 -9 -24 q-9 -9 -24 -9 Z" /><glyph glyph-name="" unicode="¡" d="M117 458 q-15 0 -24 9 q-9 9 -9 24 q0 15 9 24 q9 9 24 9 q14 0 22.5 -9.5 q8.5 -9.5 8.5 -23.5 q0 -14 -8.5 -23.5 q-8.5 -9.5 -22.5 -9.5 ZM101 353 l29 0 l3 -515 l-35 0 l3 515 Z" /><glyph glyph-name="" unicode="?" d="M235 197 q0 51 27 88 q27 37 79 85 q41 36 63.5 69 q22.5 33 22.5 70 q0 69 -45 107.5 q-45 38.5 -129 38.5 q-58 0 -107 -22.5 q-49 -22.5 -88 -61.5 l-22 21 q41 42 98.5 68 q57.5 26 119.5 26 q97 0 151 -48 q54 -48 54 -127 q0 -44 -24 -80.5 q-24 -36.5 -67 -75.5 q-51 -46 -76 -79 q-25 -33 -25 -74 l0 -41 l-32 0 l0 36 ZM251 -10 q-14 0 -22.5 9.5 q-8.5 9.5 -8.5 23.5 q0 14 8.5 23.5 q8.5 9.5 22.5 9.5 q15 0 24 -9 q9 -9 9 -24 q0 -15 -9 -24 q-9 -9 -24 -9 Z" /><glyph glyph-name="" unicode="¿" d="M276 458 q-15 0 -24 9 q-9 9 -9 24 q0 15 9 24 q9 9 24 9 q14 0 22.5 -9.5 q8.5 -9.5 8.5 -23.5 q0 -14 -8.5 -23.5 q-8.5 -9.5 -22.5 -9.5 ZM273 -172 q-97 0 -151 48 q-54 48 -54 127 q0 44 24 80.5 q24 36.5 67 75.5 q51 46 76 79 q25 33 25 74 l0 41 l32 0 l0 -36 q0 -51 -27 -88 q-27 -37 -79 -85 q-41 -36 -63.5 -69 q-22.5 -33 -22.5 -70 q0 -69 45 -107.5 q45 -38.5 129 -38.5 q58 0 107 22.5 q49 22.5 88 61.5 l22 -21 q-41 -42 -98.5 -68 q-57.5 -26 -119.5 -26 Z" /><glyph glyph-name="" unicode="&#x2022;" d="M180 273 q-32 0 -55 22.5 q-23 22.5 -23 55.5 q0 33 22.5 55.5 q22.5 22.5 55.5 22.5 q33 0 55.5 -22.5 q22.5 -22.5 22.5 -55.5 q0 -33 -23 -55.5 q-23 -22.5 -55 -22.5 Z" /><glyph glyph-name="" unicode="*" d="M157 535 l-93 -67 l-17 24 l99 65 l-99 64 l17 24 l93 -66 l-1 115 l30 0 l-1 -116 l93 67 l17 -24 l-98 -64 l98 -65 l-17 -24 l-93 67 l1 -116 l-30 0 l1 116 Z" /><glyph glyph-name="" unicode="#" d="M177 183 l-102 0 l5 31 l101 0 l33 235 l-100 0 l4 30 l100 0 l21 148 l31 0 l-21 -148 l189 0 l21 148 l31 0 l-21 -148 l95 0 l-4 -30 l-95 0 l-33 -235 l95 0 l-5 -31 l-94 0 l-22 -154 l-32 0 l22 154 l-188 0 l-22 -154 l-31 0 l22 154 ZM400 214 l34 235 l-189 0 l-33 -235 l188 0 Z" /><glyph glyph-name="" unicode="/" d="M364 735 l35 0 l-345 -861 l-35 0 l345 861 Z" /><glyph glyph-name="" unicode="\" d="M19 735 l35 0 l345 -861 l-35 0 l-345 861 Z" /><glyph glyph-name="" unicode="(" d="M250 -126 q-81 81 -124.5 195 q-43.5 114 -43.5 236 q0 120 44 233.5 q44 113.5 124 196.5 l38 0 q-83 -85 -127 -198 q-44 -113 -44 -232 q0 -120 44 -233.5 q44 -113.5 127 -197.5 l-38 0 Z" /><glyph glyph-name="" unicode=")" d="M30 -126 q83 85 127 198 q44 113 44 232 q0 120 -44 233.5 q-44 113.5 -127 197.5 l38 0 q81 -81 124.5 -195 q43.5 -114 43.5 -236 q0 -120 -44 -233.5 q-44 -113.5 -124 -196.5 l-38 0 Z" /><glyph glyph-name="" unicode="{" d="M309 -126 q-91 0 -139 47.5 q-48 47.5 -48 139.5 l0 91 q0 93 -78 141 l0 23 q78 48 78 142 l0 90 q0 91 48 139 q48 48 139 48 l39 0 l-8 -30 l-41 0 q-70 0 -107.5 -37.5 q-37.5 -37.5 -37.5 -108.5 l0 -95 q0 -57 -18.5 -94 q-18.5 -37 -57.5 -65 q38 -28 57 -65.5 q19 -37.5 19 -93.5 l0 -96 q0 -71 37.5 -108.5 q37.5 -37.5 107.5 -37.5 l41 0 l8 -30 l-39 0 Z" /><glyph glyph-name="" unicode="}" d="M81 -96 q70 0 107.5 37.5 q37.5 37.5 37.5 108.5 l0 95 q0 57 18.5 94 q18.5 37 57.5 65 q-38 28 -57 65.5 q-19 37.5 -19 93.5 l0 96 q0 71 -37.5 108.5 q-37.5 37.5 -107.5 37.5 l-41 0 l-8 30 l39 0 q92 0 139.5 -47.5 q47.5 -47.5 47.5 -139.5 l0 -91 q0 -93 78 -141 l0 -23 q-78 -48 -78 -142 l0 -90 q0 -91 -48 -139 q-48 -48 -139 -48 l-39 0 l8 30 l41 0 Z" /><glyph glyph-name="" unicode="[" d="M108 735 l226 0 l-8 -30 l-186 0 l0 -801 l186 0 l8 -30 l-226 0 l0 861 Z" /><glyph glyph-name="" unicode="]" d="M40 -96 l186 0 l0 801 l-186 0 l-8 30 l226 0 l0 -861 l-226 0 l8 30 Z" /><glyph glyph-name="" unicode="-" d="M62 307 l297 0 l0 -30 l-297 0 l0 30 Z" /><glyph glyph-name="" unicode="&#x2013;" d="M0 307 l490 0 l0 -30 l-490 0 l0 30 Z" /><glyph glyph-name="" unicode="&#x2014;" d="M0 307 l980 0 l0 -30 l-980 0 l0 30 Z" /><glyph glyph-name="" unicode="_" d="M0 -96 l490 0 l0 -29 l-490 0 l0 29 Z" /><glyph glyph-name="" unicode="&#x2018;" d="M58 499 q5 42 26 92 q21 50 49 85 l30 0 q-28 -40 -47 -90 q-19 -50 -24 -87 l-34 0 Z" /><glyph glyph-name="" unicode="&#x2019;" d="M47 499 q28 40 47 90 q19 50 24 87 l34 0 q-5 -42 -26 -92 q-21 -50 -49 -85 l-30 0 Z" /><glyph glyph-name="" unicode="&#x2039;" d="M58 282 l127 184 l36 0 l-124 -184 l124 -184 l-36 0 l-127 184 Z" /><glyph glyph-name="" unicode="&#x203a;" d="M183 282 l-124 184 l36 0 l127 -184 l-127 -184 l-36 0 l124 184 Z" /><glyph glyph-name="" unicode="&#39;" d="M86 676 l37 0 l-3 -243 l-31 0 l-3 243 Z" /><glyph glyph-name="" unicode=" " d="" /><glyph glyph-name="" unicode="¢" d="M301 69 q-65 4 -114 37 q-49 33 -76 89.5 q-27 56.5 -27 128.5 q0 71 27 126.5 q27 55.5 76 89 q49 33.5 114 39.5 l0 109 l32 10 l0 -118 q44 -1 84.5 -20 q40.5 -19 69.5 -50 l-21 -20 q-27 28 -63 44 q-36 16 -77 16 q-62 0 -109.5 -28 q-47.5 -28 -73.5 -79.5 q-26 -51.5 -26 -118.5 q0 -66 25.5 -117.5 q25.5 -51.5 71 -80 q45.5 -28.5 105.5 -28.5 q89 0 159 58 l19 -20 q-69 -64 -164 -68 l0 -127 l-32 -10 l0 138 Z" /><glyph glyph-name="" unicode="¤" d="M128 204 q-40 55 -40 132 q0 72 41 130 l-80 80 l23 22 l78 -77 q28 28 64.5 43.5 q36.5 15.5 78.5 15.5 q43 0 80 -15 q37 -15 65 -43 l77 76 l23 -22 l-79 -78 q40 -58 40 -132 q0 -75 -42 -131 l81 -81 l-23 -22 l-79 78 q-27 -28 -64 -43.5 q-37 -15.5 -79 -15.5 q-42 0 -79 15 q-37 15 -65 42 l-77 -76 l-23 22 l79 80 ZM293 150 q50 0 89.5 25.5 q39.5 25.5 62 68 q22.5 42.5 22.5 92.5 q0 50 -22 92.5 q-22 42.5 -62 67 q-40 24.5 -90 24.5 q-50 0 -89.5 -25 q-39.5 -25 -61.5 -67.5 q-22 -42.5 -22 -91.5 q0 -50 22 -92.5 q22 -42.5 61.5 -68 q39.5 -25.5 89.5 -25.5 Z" /><glyph glyph-name="" unicode="$" d="M275 -6 q-127 6 -223 95 l21 22 q49 -46 101 -66.5 q52 -20.5 121 -20.5 q90 0 140 36 q50 36 50 102 q0 65 -48 103 q-48 38 -154 61 q-79 17 -124.5 38.5 q-45.5 21.5 -67 55.5 q-21.5 34 -21.5 88 q0 44 27 79.5 q27 35.5 74 57.5 q47 22 104 24 l0 119 l32 10 l0 -130 q50 -2 94 -21 q44 -19 85 -57 l-21 -22 q-35 34 -80.5 52.5 q-45.5 18.5 -96.5 18.5 q-82 0 -134.5 -36.5 q-52.5 -36.5 -52.5 -95.5 q0 -46 18 -73 q18 -27 61 -44.5 q43 -17.5 126 -35.5 q105 -23 157.5 -69.5 q52.5 -46.5 52.5 -120.5 q0 -78 -55 -122.5 q-55 -44.5 -154 -47.5 l0 -135 l-32 -10 l0 145 Z" /><glyph glyph-name="" unicode="&#x20ac;" d="M367 -10 q-99 0 -168.5 63 q-69.5 63 -92.5 171 l-85 0 l10 31 l70 0 q-5 38 -5 71 q0 33 5 71 l-80 0 l10 30 l76 0 q24 109 95.5 174 q71.5 65 171.5 65 q51 0 97.5 -21.5 q46.5 -21.5 79.5 -58.5 l-22 -20 q-65 70 -157 70 q-87 0 -149 -56 q-62 -56 -85 -153 l260 0 l-10 -30 l-256 0 q-5 -38 -5 -71 q0 -33 5 -71 l236 0 l-9 -31 l-221 0 q23 -94 83.5 -148.5 q60.5 -54.5 146.5 -54.5 q54 0 96 18 q42 18 79 53 l21 -20 q-80 -82 -197 -82 Z" /><glyph glyph-name="" unicode="&#x192;" d="M64 30 q59 0 94.5 18.5 q35.5 18.5 56.5 55.5 q21 37 37 101 l30 119 l-165 0 l0 31 l173 0 l23 93 q19 74 44 119 q25 45 67.5 67.5 q42.5 22.5 110.5 22.5 l38 0 l0 -31 l-39 0 q-59 0 -95 -18.5 q-36 -18.5 -56.5 -55.5 q-20.5 -37 -36.5 -100 l-24 -97 l165 0 l0 -31 l-173 0 l-29 -115 q-19 -75 -44 -119.5 q-25 -44.5 -67 -67 q-42 -22.5 -110 -22.5 l-53 0 l0 30 l53 0 Z" /><glyph glyph-name="" unicode="£" d="M143 301 l-101 0 l0 30 l107 0 l24 117 q22 105 76 157 q54 52 155 52 l123 0 l0 -31 l-127 0 q-83 0 -128.5 -40.5 q-45.5 -40.5 -64.5 -133.5 l-25 -121 l270 0 l0 -30 l-276 0 l-57 -271 l420 0 l0 -30 l-453 0 l0 25 l57 276 Z" /><glyph glyph-name="" unicode="¥" d="M276 139 l-185 0 l0 30 l185 0 l0 105 l-185 0 l0 30 l171 0 l-217 353 l34 0 l213 -347 l216 347 l33 0 l-219 -353 l171 0 l0 -30 l-185 0 l0 -105 l185 0 l0 -30 l-185 0 l0 -139 l-32 0 l0 139 Z" /><glyph glyph-name="" unicode="+" d="M278 316 l-185 0 l0 29 l185 0 l0 185 l30 0 l0 -185 l185 0 l0 -29 l-185 0 l0 -186 l-30 0 l0 186 Z" /><glyph glyph-name="" unicode="&#x2212;" d="M115 345 l356 0 l0 -29 l-356 0 l0 29 Z" /><glyph glyph-name="" unicode="×" d="M134 192 l138 138 l-138 138 l21 21 l138 -138 l138 138 l21 -21 l-138 -138 l138 -138 l-21 -20 l-138 138 l-138 -138 l-21 20 Z" /><glyph glyph-name="" unicode="÷" d="M292 434 q-14 0 -22.5 9.5 q-8.5 9.5 -8.5 23.5 q0 14 8.5 23.5 q8.5 9.5 22.5 9.5 q15 0 24 -9 q9 -9 9 -24 q0 -15 -9 -24 q-9 -9 -24 -9 ZM115 345 l356 0 l0 -29 l-356 0 l0 29 ZM292 161 q-14 0 -22.5 9.5 q-8.5 9.5 -8.5 23.5 q0 14 8.5 23.5 q8.5 9.5 22.5 9.5 q15 0 24 -9 q9 -9 9 -24 q0 -15 -9 -24 q-9 -9 -24 -9 Z" /><glyph glyph-name="" unicode="&#x2260;" d="M146 127 l60 94 l-91 0 l0 29 l109 0 l103 163 l-212 0 l0 29 l231 0 l66 105 l26 -12 l-59 -93 l92 0 l0 -29 l-110 0 l-103 -163 l213 0 l0 -29 l-232 0 l-66 -105 l-27 11 Z" /><glyph glyph-name="" unicode="&gt;" d="M135 172 l282 159 l-282 159 l14 25 l303 -173 l0 -22 l-303 -172 l-14 24 Z" /><glyph glyph-name="" unicode="&lt;" d="M134 320 l0 22 l303 172 l14 -24 l-282 -159 l282 -159 l-14 -25 l-303 173 Z" /><glyph glyph-name="" unicode="&#x2265;" d="M155 172 l282 159 l-282 159 l14 25 l302 -173 l0 -22 l-302 -172 l-14 24 ZM134 29 l337 0 l0 -29 l-337 0 l0 29 Z" /><glyph glyph-name="" unicode="&#x2264;" d="M115 320 l0 22 l302 173 l14 -25 l-282 -159 l282 -159 l-14 -24 l-302 172 ZM115 29 l337 0 l0 -29 l-337 0 l0 29 Z" /><glyph glyph-name="" unicode="~" d="M393 258 q-25 0 -47.5 12.5 q-22.5 12.5 -53.5 36.5 q-30 24 -51 35.5 q-21 11.5 -43 11.5 q-80 0 -90 -85 l-30 0 q5 55 37.5 84 q32.5 29 82.5 29 q26 0 51 -13.5 q25 -13.5 60 -39.5 q29 -22 48.5 -32.5 q19.5 -10.5 37.5 -10.5 q35 0 56 23.5 q21 23.5 26 64.5 l30 0 q-5 -55 -35.5 -85.5 q-30.5 -30.5 -78.5 -30.5 Z" /><glyph glyph-name="" unicode="¬" d="M443 374 l-360 0 l0 30 l389 0 l0 -215 l-29 0 l0 185 Z" /><glyph glyph-name="" unicode="^" d="M278 676 l33 0 l178 -331 l-32 0 l-162 301 l-165 -301 l-32 0 l180 331 Z" /><glyph glyph-name="" unicode="@" d="M442 -162 q-110 0 -196.5 51.5 q-86.5 51.5 -135 144.5 q-48.5 93 -48.5 213 q0 124 58.5 220.5 q58.5 96.5 154 150 q95.5 53.5 202.5 53.5 q114 0 201 -44 q87 -44 134.5 -120.5 q47.5 -76.5 47.5 -170.5 q0 -82 -33 -146.5 q-33 -64.5 -88.5 -100 q-55.5 -35.5 -121.5 -35.5 l-17 0 l-7 54 q-30 -30 -67.5 -47 q-37.5 -17 -76.5 -17 q-81 0 -128.5 55.5 q-47.5 55.5 -47.5 149.5 q0 59 24.5 106 q24.5 47 68.5 73.5 q44 26.5 101 26.5 q32 0 68.5 -14.5 q36.5 -14.5 59.5 -34.5 l6 42 l23 0 l0 -368 q56 2 103 34 q47 32 74 89.5 q27 57.5 27 132.5 q0 86 -43 155.5 q-43 69.5 -123 109.5 q-80 40 -185 40 q-100 0 -188 -49.5 q-88 -49.5 -141.5 -139.5 q-53.5 -90 -53.5 -205 q0 -111 44.5 -197 q44.5 -86 124 -133.5 q79.5 -47.5 180.5 -47.5 q153 0 238 81 l22 -22 q-50 -47 -114 -68.5 q-64 -21.5 -147 -21.5 ZM452 74 q76 0 140 70 l0 232 q-59 49 -125 49 q-73 0 -117.5 -47.5 q-44.5 -47.5 -44.5 -128.5 q0 -82 39 -128.5 q39 -46.5 108 -46.5 Z" /><glyph glyph-name="" unicode="&amp;" d="M290 -10 q-71 0 -125.5 23.5 q-54.5 23.5 -84 66 q-29.5 42.5 -29.5 98.5 q0 67 43.5 116 q43.5 49 110.5 72 q-40 45 -58.5 80 q-18.5 35 -18.5 77 q0 47 24 84 q24 37 66.5 58 q42.5 21 96.5 21 q97 0 175 -88 l-22 -20 q-35 39 -71.5 58 q-36.5 19 -81.5 19 q-71 0 -114 -36.5 q-43 -36.5 -43 -95.5 q0 -30 13 -57 q13 -27 33.5 -52 q20.5 -25 62.5 -69 l25 -26 l190 -202 q58 78 58 197 l0 30 l32 0 l0 -27 q0 -65 -18 -122.5 q-18 -57.5 -51 -99.5 l89 -95 l-40 0 l-68 72 q-38 -39 -88 -60.5 q-50 -21.5 -106 -21.5 ZM289 21 q52 0 96 19 q44 19 78 54 l-237 250 q-61 -19 -102 -61.5 q-41 -42.5 -41 -100.5 q0 -73 57 -117 q57 -44 149 -44 Z" /><glyph glyph-name="" unicode="¶" d="M289 -92 q51 0 79.5 33.5 q28.5 33.5 28.5 94.5 l0 628 l32 8 l0 -630 q0 -79 -37 -122 q-37 -43 -104 -43 l-19 0 l0 31 l20 0 ZM321 223 q-122 0 -191.5 52 q-69.5 52 -69.5 142 q0 84 51 138 q51 54 148 78 l62 15 l0 -425 Z" /><glyph glyph-name="" unicode="§" d="M154 -95 q64 0 96.5 24.5 q32.5 24.5 32.5 72.5 q0 52 -66 113 l-96 88 q-31 28 -44.5 55 q-13.5 27 -13.5 62 q0 42 31 73.5 q31 31.5 78 38.5 q-31 30 -45 59.5 q-14 29.5 -14 55.5 q0 62 42.5 95.5 q42.5 33.5 117.5 33.5 l61 0 l0 -29 l-61 0 q-62 0 -95.5 -25 q-33.5 -25 -33.5 -72 q0 -27 16 -53 q16 -26 50 -58 l94 -86 q30 -27 43 -54.5 q13 -27.5 13 -61.5 q0 -43 -31 -74.5 q-31 -31.5 -79 -38.5 q66 -63 66 -119 q0 -62 -41.5 -96 q-41.5 -34 -118.5 -34 l-70 0 l0 30 l68 0 ZM228 150 q42 0 71.5 25.5 q29.5 25.5 29.5 61.5 q0 28 -11.5 51 q-11.5 23 -37.5 46 l-80 72 l-5 0 q-43 0 -72.5 -25 q-29.5 -25 -29.5 -61 q0 -28 12 -51.5 q12 -23.5 39 -47.5 l78 -71 l6 0 Z" /><glyph glyph-name="" unicode="©" d="M397 -10 q-95 0 -174.5 43.5 q-79.5 43.5 -126.5 122.5 q-47 79 -47 182 q0 100 47.5 179.5 q47.5 79.5 127 124 q79.5 44.5 173.5 44.5 q95 0 175 -44 q80 -44 127.5 -123.5 q47.5 -79.5 47.5 -180.5 q0 -102 -47.5 -181 q-47.5 -79 -128 -123 q-80.5 -44 -174.5 -44 ZM397 22 q89 0 161 39.5 q72 39.5 113.5 111.5 q41.5 72 41.5 165 q0 92 -41.5 164 q-41.5 72 -113.5 112 q-72 40 -161 40 q-88 0 -160 -40.5 q-72 -40.5 -113 -112.5 q-41 -72 -41 -163 q0 -94 40.5 -166 q40.5 -72 112 -111 q71.5 -39 161.5 -39 ZM403 145 q-53 0 -94.5 24.5 q-41.5 24.5 -64.5 68.5 q-23 44 -23 100 q0 56 24 100 q24 44 66.5 68.5 q42.5 24.5 96.5 24.5 q35 0 67.5 -14.5 q32.5 -14.5 54.5 -41.5 l-20 -20 q-45 44 -103 44 q-68 0 -110.5 -44 q-42.5 -44 -42.5 -117 q0 -73 42 -117.5 q42 -44.5 108 -44.5 q64 0 115 44 l20 -21 q-55 -54 -136 -54 Z" /><glyph glyph-name="" unicode="®" d="M266 282 q-59 0 -108 26.5 q-49 26.5 -77.5 75 q-28.5 48.5 -28.5 111.5 q0 60 29 108.5 q29 48.5 78 76 q49 27.5 107 27.5 q57 0 106 -27 q49 -27 78 -75.5 q29 -48.5 29 -109.5 q0 -62 -29.5 -110.5 q-29.5 -48.5 -78 -75.5 q-48.5 -27 -105.5 -27 ZM266 312 q51 0 92.5 22.5 q41.5 22.5 65.5 64.5 q24 42 24 96 q0 54 -24 95.5 q-24 41.5 -65.5 64 q-41.5 22.5 -92.5 22.5 q-52 0 -94 -23 q-42 -23 -65.5 -64.5 q-23.5 -41.5 -23.5 -94.5 q0 -84 51 -133.5 q51 -49.5 132 -49.5 ZM268 611 q37 0 59 -18.5 q22 -18.5 22 -49.5 q0 -22 -12.5 -37.5 q-12.5 -15.5 -34.5 -22.5 q21 -14 36 -43 l30 -57 l-33 0 l-22 41 q-14 27 -25.5 37 q-11.5 10 -39.5 10 l-31 0 l0 -88 l-30 0 l0 228 l81 0 ZM263 500 q26 0 40.5 11 q14.5 11 14.5 31 q0 20 -15 30.5 q-15 10.5 -40 10.5 l-46 0 l0 -83 l46 0 Z" /><glyph glyph-name="" unicode="&#x2122;" d="M148 646 l-128 0 l0 30 l288 0 l0 -30 l-129 0 l0 -322 l-31 0 l0 322 ZM379 676 l31 0 l142 -246 l154 246 l29 0 l0 -352 l-31 0 l0 294 l-140 -220 l-26 0 l-128 217 l0 -291 l-31 0 l0 352 Z" /><glyph glyph-name="" unicode="°" d="M184 410 q-36 0 -66.5 18 q-30.5 18 -48.5 48.5 q-18 30.5 -18 66.5 q0 36 18 66.5 q18 30.5 49 48.5 q31 18 66 18 q36 0 67 -18 q31 -18 49 -48.5 q18 -30.5 18 -66.5 q0 -36 -18 -66.5 q-18 -30.5 -49 -48.5 q-31 -18 -67 -18 ZM184 438 q43 0 73.5 30.5 q30.5 30.5 30.5 74.5 q0 44 -30.5 74.5 q-30.5 30.5 -73.5 30.5 q-43 0 -73.5 -31 q-30.5 -31 -30.5 -74 q0 -43 30.5 -74 q30.5 -31 73.5 -31 Z" /><glyph glyph-name="" unicode="|" d="M108 735 l32 0 l0 -861 l-32 0 l0 861 Z" /><glyph glyph-name="" unicode="¦" d="M108 735 l32 0 l0 -326 l-32 0 l0 326 ZM108 200 l32 0 l0 -326 l-32 0 l0 326 Z" /><glyph glyph-name="" unicode="&#x2020;" d="M158 527 l-129 0 l0 31 l129 0 l0 118 l31 8 l0 -126 l129 0 l0 -31 l-129 0 l0 -227 l-31 0 l0 227 Z" /><glyph glyph-name="" unicode="&#x2021;" d="M160 419 l-119 0 l0 31 l119 0 l0 104 l-119 0 l0 30 l119 0 l0 92 l31 8 l0 -100 l119 0 l0 -30 l-119 0 l0 -104 l119 0 l0 -31 l-119 0 l0 -109 l-31 0 l0 109 Z" /><glyph glyph-name="" unicode="&#x308;" d="M-378 637 q-13 0 -21.5 9 q-8.5 9 -8.5 21 q0 14 8.5 23 q8.5 9 21.5 9 q13 0 21.5 -9 q8.5 -9 8.5 -23 q0 -12 -8.5 -21 q-8.5 -9 -21.5 -9 ZM-211 637 q-12 0 -20.5 9 q-8.5 9 -8.5 21 q0 14 8 23 q8 9 21 9 q14 0 22.5 -9 q8.5 -9 8.5 -23 q0 -12 -8.5 -21 q-8.5 -9 -22.5 -9 Z" /><glyph glyph-name="" unicode="&#x307;" d="M-294 637 q-13 0 -21 9 q-8 9 -8 21 q0 14 8 23 q8 9 21 9 q14 0 22 -9 q8 -9 8 -23 q0 -13 -8 -21.5 q-8 -8.5 -22 -8.5 Z" /><glyph glyph-name="" unicode="&#x300;" d="M-371 725 l45 0 l110 -126 l-38 0 l-117 126 Z" /><glyph glyph-name="" unicode="&#x301;" d="M-261 725 l45 0 l-117 -126 l-38 0 l110 126 Z" /><glyph glyph-name="" unicode="&#x302;" d="M-308 725 l29 0 l117 -126 l-38 0 l-94 98 l-94 -98 l-37 0 l117 126 Z" /><glyph glyph-name="" unicode="&#x30c;" d="M-425 725 l38 0 l94 -98 l94 98 l37 0 l-117 -126 l-29 0 l-117 126 Z" /><glyph glyph-name="" unicode="&#x30a;" d="M-294 592 q-44 0 -77.5 32.5 q-33.5 32.5 -33.5 78.5 q0 46 33.5 77.5 q33.5 31.5 77.5 31.5 q29 0 55 -14.5 q26 -14.5 41.5 -39.5 q15.5 -25 15.5 -55 q0 -47 -33.5 -79 q-33.5 -32 -78.5 -32 ZM-294 620 q34 0 58 23.5 q24 23.5 24 59.5 q0 35 -24 58 q-24 23 -58 23 q-34 0 -57.5 -23 q-23.5 -23 -23.5 -58 q0 -36 23.5 -59.5 q23.5 -23.5 57.5 -23.5 Z" /><glyph glyph-name="" unicode="&#x303;" d="M-219 622 q-21 0 -37.5 6.5 q-16.5 6.5 -43.5 21.5 q-21 11 -34 16.5 q-13 5.5 -28 5.5 q-36 0 -84 -43 l0 34 q23 20 43 30 q20 10 42 10 q18 0 33 -5.5 q15 -5.5 28 -12 q13 -6.5 18 -9.5 q3 -2 16.5 -9 q13.5 -7 25 -10.5 q11.5 -3.5 21.5 -3.5 q24 0 42.5 11 q18.5 11 42.5 33 l0 -36 q-23 -19 -41.5 -29 q-18.5 -10 -43.5 -10 Z" /><glyph glyph-name="" unicode="&#x327;" d="M-342 -142 q36 0 58.5 15.5 q22.5 15.5 22.5 46.5 q0 36 -40 74 l35 3 q16 -16 27 -37.5 q11 -21.5 11 -42.5 q0 -44 -32 -66.5 q-32 -22.5 -82 -22.5 l-18 0 l0 30 l18 0 Z" /></font>
</defs>
</svg>
