<?xml version="1.0" standalone="no"?><!DOCTYPE svg PUBLIC "-//W3C//DTD SVG 1.1//EN" "http://www.w3.org/Graphics/SVG/1.1/DTD/svg11.dtd" ><svg xmlns="http://www.w3.org/2000/svg"><metadata></metadata><defs><font id="fonteditor" horiz-adv-x="1194"><font-face font-family="." font-weight="250" font-stretch="normal" units-per-em="1000" panose-1="0 0 3 0 0 0 0 0 0 0" ascent="980" descent="-235" x-height="0" bbox="-444 -222 1133 957" underline-thickness="50" underline-position="-75" unicode-range="U+0020-fb02" /><missing-glyph horiz-adv-x="474"  /><glyph glyph-name="" unicode=" " d="" /><glyph glyph-name="" unicode="a" d="M376 676 l32 0 l114 -676 l-32 0 l-36 216 l-320 0 l-128 -216 l-34 0 l404 676 ZM449 247 l-64 391 l-232 -391 l296 0 Z" /><glyph glyph-name="" unicode="å" d="M522 0 l-32 0 l-36 216 l-320 0 l-128 -216 l-34 0 l395 661 q-34 11 -56.5 40 q-22.5 29 -22.5 66 q0 46 33.5 77.5 q33.5 31.5 77.5 31.5 q29 0 55 -14.5 q26 -14.5 41.5 -39.5 q15.5 -25 15.5 -55 q0 -43 -29.5 -74 q-29.5 -31 -70.5 -36 l111 -657 ZM318 767 q0 -36 23.5 -59.5 q23.5 -23.5 57.5 -23.5 q34 0 58 23.5 q24 23.5 24 59.5 q0 35 -24 58 q-24 23 -58 23 q-34 0 -57.5 -23 q-23.5 -23 -23.5 -58 ZM153 247 l296 0 l-64 391 l-232 -391 Z" /><glyph glyph-name="" unicode="æ" d="M570 676 l401 0 l-6 -31 l-360 0 l-59 -279 l315 0 l-7 -32 l-315 0 l-64 -303 l371 0 l-7 -31 l-403 0 l45 209 l-298 0 l-191 -209 l-39 0 l617 676 ZM487 240 l84 393 l-360 -393 l276 0 Z" /><glyph glyph-name="" unicode="b" d="M369 676 q75 0 120 -41.5 q45 -41.5 45 -104.5 q0 -65 -38 -113 q-38 -48 -103 -69 q51 -14 80 -54 q29 -40 29 -92 q0 -59 -30 -105 q-30 -46 -83 -71.5 q-53 -25.5 -120 -25.5 l-232 0 l144 676 l188 0 ZM300 360 q92 0 148 46 q56 46 56 122 q0 54 -37.5 86.5 q-37.5 32.5 -103.5 32.5 l-158 0 l-61 -287 l156 0 ZM266 29 q93 0 149 48 q56 48 56 126 q0 55 -37 91 q-37 36 -102 36 l-195 0 l-64 -301 l193 0 Z" /><glyph glyph-name="" unicode="c" d="M300 -10 q-71 0 -123.5 32.5 q-52.5 32.5 -81 91 q-28.5 58.5 -28.5 133.5 q0 116 49 217 q49 101 136 161.5 q87 60.5 196 60.5 q58 0 105 -25.5 q47 -25.5 80 -71.5 l-23 -18 q-35 43 -75 63.5 q-40 20.5 -90 20.5 q-100 0 -179 -56.5 q-79 -56.5 -123 -149.5 q-44 -93 -44 -197 q0 -103 54.5 -167 q54.5 -64 149.5 -64 q114 0 219 82 l18 -24 q-111 -89 -240 -89 Z" /><glyph glyph-name="" unicode="ç" d="M448 686 q58 0 105 -25.5 q47 -25.5 80 -71.5 l-23 -18 q-35 43 -75 63.5 q-40 20.5 -90 20.5 q-100 0 -179 -56.5 q-79 -56.5 -123 -149.5 q-44 -93 -44 -197 q0 -103 54.5 -167 q54.5 -64 149.5 -64 q114 0 219 82 l18 -24 q-104 -83 -225 -89 q19 -26 19 -57 q0 -48 -38 -76.5 q-38 -28.5 -94 -28.5 l-19 0 l7 31 l16 0 q42 0 68.5 21 q26.5 21 26.5 56 q0 28 -21 55 q-98 7 -155.5 77 q-57.5 70 -57.5 179 q0 116 49 217 q49 101 136 161.5 q87 60.5 196 60.5 Z" /><glyph glyph-name="" unicode="d" d="M337 676 q82 0 146.5 -33.5 q64.5 -33.5 100.5 -95.5 q36 -62 36 -143 q0 -112 -50.5 -204 q-50.5 -92 -141.5 -146 q-91 -54 -208 -54 l-183 0 l144 676 l156 0 ZM220 30 q110 0 193.5 50.5 q83.5 50.5 129 135.5 q45.5 85 45.5 184 q0 77 -33.5 132.5 q-33.5 55.5 -90 84.5 q-56.5 29 -125.5 29 l-132 0 l-132 -616 l145 0 Z" /><glyph glyph-name="" unicode="ð" d="M34 331 l6 30 l94 0 l67 315 l156 0 q82 0 146.5 -33.5 q64.5 -33.5 100.5 -95.5 q36 -62 36 -143 q0 -112 -50.5 -204 q-50.5 -92 -141.5 -146 q-91 -54 -208 -54 l-183 0 l71 331 l-94 0 ZM240 30 q110 0 193.5 50.5 q83.5 50.5 129 135.5 q45.5 85 45.5 184 q0 77 -33.5 132.5 q-33.5 55.5 -90 84.5 q-56.5 29 -125.5 29 l-132 0 l-61 -285 l223 0 l-6 -30 l-223 0 l-65 -301 l145 0 Z" /><glyph glyph-name="" unicode="e" d="M181 676 l391 0 l-6 -31 l-360 0 l-59 -279 l315 0 l-7 -32 l-315 0 l-64 -303 l371 0 l-7 -31 l-403 0 l144 676 Z" /><glyph glyph-name="" unicode="f" d="M181 676 l398 0 l-7 -31 l-366 0 l-59 -279 l318 0 l-7 -32 l-318 0 l-71 -334 l-32 0 l144 676 Z" /><glyph glyph-name="" unicode="g" d="M308 -10 q-72 0 -126.5 31.5 q-54.5 31.5 -84.5 89 q-30 57.5 -30 133.5 q0 120 49.5 221 q49.5 101 138 161 q88.5 60 199.5 60 q60 0 107.5 -25.5 q47.5 -25.5 80.5 -71.5 l-23 -18 q-35 43 -76 63.5 q-41 20.5 -93 20.5 q-102 0 -182 -55.5 q-80 -55.5 -124.5 -149 q-44.5 -93.5 -44.5 -201.5 q0 -103 57 -165.5 q57 -62.5 155 -62.5 q61 0 109 17 q48 17 97 51 l44 205 l-207 0 l6 31 l239 0 l-54 -253 q-56 -42 -114 -62 q-58 -20 -123 -20 Z" /><glyph glyph-name="" unicode="h" d="M181 676 l32 0 l-66 -310 l384 0 l66 310 l32 0 l-144 -676 l-32 0 l71 335 l-384 0 l-71 -335 l-32 0 l144 676 Z" /><glyph glyph-name="" unicode="i" d="M181 676 l32 0 l-144 -676 l-32 0 l144 676 Z" /><glyph glyph-name="" unicode="j" d="M7 30 q83 0 136.5 44 q53.5 44 72.5 135 l99 467 l32 0 l-100 -468 q-23 -110 -85 -159 q-62 -49 -165 -49 l-30 0 l7 30 l33 0 Z" /><glyph glyph-name="" unicode="k" d="M213 676 l-66 -310 l116 0 q55 0 95 28.5 q40 28.5 89 89.5 l155 192 l37 0 l-170 -210 q-37 -45 -64.5 -71 q-27.5 -26 -58.5 -41 l188 -354 l-36 0 l-182 343 q-34 -8 -73 -8 l-103 0 l-71 -335 l-32 0 l144 676 l32 0 Z" /><glyph glyph-name="" unicode="l" d="M181 676 l32 0 l-137 -645 l356 0 l-6 -31 l-389 0 l144 676 Z" /><glyph glyph-name="" unicode="m" d="M181 676 l29 0 l167 -493 l400 493 l33 0 l-143 -676 l-32 0 l133 620 l-384 -473 l-26 0 l-160 468 l-130 -615 l-31 0 l144 676 Z" /><glyph glyph-name="" unicode="n" d="M181 676 l25 0 l271 -615 l130 615 l31 0 l-144 -676 l-24 0 l-271 616 l-131 -616 l-31 0 l144 676 Z" /><glyph glyph-name="" unicode="o" d="M304 -10 q-72 0 -126 32 q-54 32 -83 90.5 q-29 58.5 -29 134.5 q0 111 50.5 212.5 q50.5 101.5 137 164 q86.5 62.5 188.5 62.5 q72 0 125.5 -32 q53.5 -32 83 -90 q29.5 -58 29.5 -134 q0 -111 -51 -213 q-51 -102 -137.5 -164.5 q-86.5 -62.5 -187.5 -62.5 ZM306 21 q92 0 170.5 59 q78.5 59 125 153 q46.5 94 46.5 193 q0 68 -25.5 120 q-25.5 52 -72.5 80.5 q-47 28.5 -110 28.5 q-94 0 -173 -58.5 q-79 -58.5 -124 -151.5 q-45 -93 -45 -192 q0 -68 25 -120.5 q25 -52.5 72 -82 q47 -29.5 111 -29.5 Z" /><glyph glyph-name="" unicode="ø" d="M111 86 q-45 65 -45 161 q0 111 50.5 212.5 q50.5 101.5 137 164 q86.5 62.5 188.5 62.5 q54 0 98.5 -18.5 q44.5 -18.5 76.5 -53.5 l86 90 l40 0 l-108 -113 q45 -67 45 -161 q0 -111 -51 -213 q-51 -102 -137.5 -164.5 q-86.5 -62.5 -187.5 -62.5 q-109 0 -175 72 l-87 -91 l-41 0 l110 115 ZM594 590 q-27 31 -66.5 48 q-39.5 17 -87.5 17 q-94 0 -173 -58.5 q-79 -58.5 -124 -151.5 q-45 -93 -45 -192 q0 -83 37 -142 l459 479 ZM306 21 q92 0 170.5 59 q78.5 59 125 153 q46.5 94 46.5 193 q0 83 -37 140 l-458 -479 q57 -66 153 -66 Z" /><glyph glyph-name="" unicode="&#x152;" d="M304 -10 q-72 0 -126 32 q-54 32 -83 90.5 q-29 58.5 -29 134.5 q0 111 50.5 212.5 q50.5 101.5 137 164 q86.5 62.5 188.5 62.5 q92 0 152.5 -53 q60.5 -53 77.5 -142 l39 185 l391 0 l-6 -31 l-360 0 l-59 -279 l315 0 l-7 -32 l-315 0 l-64 -303 l371 0 l-7 -31 l-403 0 l39 181 q-53 -87 -132 -139 q-79 -52 -170 -52 ZM306 21 q92 0 170.5 59 q78.5 59 125 153 q46.5 94 46.5 193 q0 68 -25.5 120 q-25.5 52 -72.5 80.5 q-47 28.5 -110 28.5 q-94 0 -173 -58.5 q-79 -58.5 -124 -151.5 q-45 -93 -45 -192 q0 -68 25 -120.5 q25 -52.5 72 -82 q47 -29.5 111 -29.5 Z" /><glyph glyph-name="" unicode="p" d="M363 676 q60 0 105 -21 q45 -21 69.5 -58 q24.5 -37 24.5 -84 q0 -72 -34 -125.5 q-34 -53.5 -94 -81.5 q-60 -28 -136 -28 l-171 0 l-59 -278 l-31 0 l144 676 l182 0 ZM295 309 q111 0 173 54 q62 54 62 150 q0 62 -45.5 97 q-45.5 35 -125.5 35 l-154 0 l-71 -336 l161 0 Z" /><glyph glyph-name="" unicode="þ" d="M212 676 l-22 -103 l151 0 q60 0 105 -21 q45 -21 69.5 -58 q24.5 -37 24.5 -84 q0 -72 -34 -125.5 q-34 -53.5 -94 -81.5 q-60 -28 -136 -28 l-171 0 l-37 -175 l-31 0 l144 676 l31 0 ZM273 206 q111 0 173 54 q62 54 62 150 q0 62 -45.5 97 q-45.5 35 -125.5 35 l-154 0 l-71 -336 l161 0 Z" /><glyph glyph-name="" unicode="q" d="M484 48 q-83 -58 -180 -58 q-72 0 -126 32 q-54 32 -83 90.5 q-29 58.5 -29 134.5 q0 111 50.5 212.5 q50.5 101.5 137 164 q86.5 62.5 188.5 62.5 q72 0 125.5 -32 q53.5 -32 83 -90 q29.5 -58 29.5 -134 q0 -105 -46.5 -203 q-46.5 -98 -123.5 -161 l85 -136 l-28 -16 l-83 134 ZM306 21 q85 0 162 53 l-77 124 l26 16 l76 -121 q71 58 113 148 q42 90 42 185 q0 68 -25.5 120 q-25.5 52 -72.5 80.5 q-47 28.5 -110 28.5 q-94 0 -173 -58.5 q-79 -58.5 -124 -151.5 q-45 -93 -45 -192 q0 -68 25 -120.5 q25 -52.5 72 -82 q47 -29.5 111 -29.5 Z" /><glyph glyph-name="" unicode="r" d="M364 676 q86 0 137.5 -40.5 q51.5 -40.5 51.5 -110.5 q0 -84 -55 -141 q-55 -57 -144 -72 q32 -14 54.5 -49 q22.5 -35 42.5 -101 l50 -162 l-34 0 l-42 138 q-20 66 -35 97.5 q-15 31.5 -47 50 q-32 18.5 -91 18.5 l-119 0 l-64 -304 l-32 0 l144 676 l183 0 ZM287 334 q106 0 170 51 q64 51 64 141 q0 58 -42 88.5 q-42 30.5 -120 30.5 l-154 0 l-66 -311 l148 0 Z" /><glyph glyph-name="" unicode="s" d="M245 -10 q-67 0 -125 25 q-58 25 -100 75 l24 20 q41 -45 93.5 -67 q52.5 -22 112.5 -22 q59 0 102.5 20 q43.5 20 66.5 54.5 q23 34.5 23 78.5 q0 51 -34.5 87 q-34.5 36 -116.5 70 q-94 39 -134 78 q-40 39 -40 99 q0 55 32 95.5 q32 40.5 83 61.5 q51 21 106 21 q66 0 117 -23.5 q51 -23.5 91 -72.5 l-24 -19 q-44 49 -85.5 66.5 q-41.5 17.5 -102.5 17.5 q-52 0 -94.5 -18.5 q-42.5 -18.5 -67 -51 q-24.5 -32.5 -24.5 -73.5 q0 -54 38 -86.5 q38 -32.5 123 -67.5 q85 -34 125 -77 q40 -43 40 -104 q0 -54 -27 -96.5 q-27 -42.5 -79 -66.5 q-52 -24 -123 -24 Z" /><glyph glyph-name="" unicode="&#x1e9e;" d="M343 -10 q-108 0 -180 81 l22 20 q37 -37 72.5 -53.5 q35.5 -16.5 84.5 -16.5 q59 0 106 22 q47 22 73.5 62 q26.5 40 26.5 90 q0 64 -42.5 104 q-42.5 40 -121.5 40 l-54 0 l5 24 l233 231 q-26 28 -65.5 45.5 q-39.5 17.5 -89.5 17.5 q-108 0 -172 -64 q-64 -64 -93 -202 l-83 -391 l-32 0 l83 390 q32 151 106.5 223.5 q74.5 72.5 190.5 72.5 q66 0 114.5 -26.5 q48.5 -26.5 78.5 -64.5 l-231 -228 l9 0 q56 0 101 -21 q45 -21 70 -60 q25 -39 25 -91 q0 -59 -32 -105.5 q-32 -46.5 -86 -73 q-54 -26.5 -119 -26.5 Z" /><glyph glyph-name="" unicode="t" d="M362 645 l-241 0 l6 31 l514 0 l-7 -31 l-240 0 l-137 -645 l-32 0 l137 645 Z" /><glyph glyph-name="" unicode="u" d="M285 -10 q-96 0 -148.5 56.5 q-52.5 56.5 -52.5 158.5 q0 52 11 103 l78 368 l32 0 l-79 -370 q-11 -48 -11 -98 q0 -89 43.5 -138 q43.5 -49 128.5 -49 q97 0 162 74.5 q65 74.5 95 212.5 l78 368 l32 0 l-79 -371 q-33 -152 -106.5 -233.5 q-73.5 -81.5 -183.5 -81.5 Z" /><glyph glyph-name="" unicode="v" d="M115 676 l32 0 l103 -633 l378 633 l33 0 l-402 -676 l-32 0 l-112 676 Z" /><glyph glyph-name="" unicode="w" d="M125 676 l31 0 l45 -633 l321 593 l32 0 l58 -593 l318 633 l33 0 l-341 -676 l-33 0 l-61 592 l-319 -592 l-33 0 l-51 676 Z" /><glyph glyph-name="" unicode="x" d="M305 362 l-153 314 l36 0 l141 -295 l268 295 l39 0 l-293 -321 l174 -355 l-37 0 l-161 333 l-298 -333 l-39 0 l323 362 Z" /><glyph glyph-name="" unicode="y" d="M239 267 l-132 409 l31 0 l122 -379 l284 379 l35 0 l-310 -413 l-55 -263 l-32 0 l57 267 Z" /><glyph glyph-name="" unicode="z" d="M-7 26 l579 619 l-432 0 l7 31 l475 0 l-4 -25 l-578 -620 l457 0 l-7 -31 l-502 0 l5 26 Z" /><glyph glyph-name="" unicode="a" d="M144 -10 q-56 0 -89 33.5 q-33 33.5 -33 83.5 q0 79 62 124.5 q62 45.5 162 45.5 l162 0 l8 36 q6 30 6 65 q0 56 -31.5 85.5 q-31.5 29.5 -92.5 29.5 q-42 0 -85 -18 q-43 -18 -81 -52 l-18 21 q40 37 89.5 58 q49.5 21 97.5 21 q73 0 112.5 -38.5 q39.5 -38.5 39.5 -107.5 q0 -31 -8 -70 l-65 -307 l-22 0 l10 84 q-48 -43 -106.5 -68.5 q-58.5 -25.5 -117.5 -25.5 ZM149 20 q61 0 119.5 27 q58.5 27 107.5 75 l26 126 l-160 0 q-86 0 -137.5 -37 q-51.5 -37 -51.5 -103 q0 -38 26 -63 q26 -25 70 -25 Z" /><glyph glyph-name="" unicode="æ" d="M154 -10 q-61 0 -96.5 33.5 q-35.5 33.5 -35.5 83.5 q0 81 62 127.5 q62 46.5 162 46.5 l164 0 l6 32 q6 30 6 65 q0 56 -31.5 85.5 q-31.5 29.5 -92.5 29.5 q-42 0 -85 -18 q-43 -18 -81 -52 l-18 21 q40 37 89.5 58 q49.5 21 97.5 21 q72 0 111.5 -37.5 q39.5 -37.5 40.5 -105.5 q40 65 100 104 q60 39 131 39 q78 0 123.5 -46.5 q45.5 -46.5 45.5 -128.5 q0 -41 -12 -88 l-2 -8 l-403 0 q-7 -31 -7 -66 q0 -78 42.5 -122 q42.5 -44 117.5 -44 q80 0 162 62 l18 -22 q-91 -70 -181 -70 q-70 0 -117 31.5 q-47 31.5 -64 89.5 q-51 -54 -119.5 -87.5 q-68.5 -33.5 -133.5 -33.5 ZM813 281 q7 39 7 62 q0 71 -36.5 111 q-36.5 40 -104.5 40 q-83 0 -147 -61 q-64 -61 -90 -152 l371 0 ZM159 20 q63 0 126.5 32.5 q63.5 32.5 114.5 88.5 q-3 21 -3 42 q0 37 7 69 l-162 0 q-86 0 -137.5 -38.5 q-51.5 -38.5 -51.5 -105.5 q0 -38 28 -63 q28 -25 78 -25 Z" /><glyph glyph-name="" unicode="b" d="M221 -8 q-45 0 -86.5 21.5 q-41.5 21.5 -65.5 50.5 l-21 -64 l-22 0 l154 726 l34 10 l-63 -296 q46 39 96.5 61 q50.5 22 96.5 22 q79 0 126 -53.5 q47 -53.5 47 -137.5 q0 -91 -37.5 -169 q-37.5 -78 -105 -124.5 q-67.5 -46.5 -153.5 -46.5 ZM217 22 q81 0 142 42.5 q61 42.5 93.5 113 q32.5 70.5 32.5 153.5 q0 73 -38.5 117.5 q-38.5 44.5 -104.5 44.5 q-49 0 -100.5 -25 q-51.5 -25 -98.5 -69 l-66 -309 q66 -68 140 -68 Z" /><glyph glyph-name="" unicode="c" d="M227 -10 q-85 0 -134.5 52.5 q-49.5 52.5 -49.5 141.5 q0 88 39 166 q39 78 108 125.5 q69 47.5 154 47.5 q40 0 78 -18.5 q38 -18.5 64 -55.5 l-23 -18 q-47 62 -121 62 q-76 0 -137 -43.5 q-61 -43.5 -95.5 -114.5 q-34.5 -71 -34.5 -149 q0 -76 41 -121 q41 -45 114 -45 q87 0 169 62 l17 -22 q-87 -70 -189 -70 Z" /><glyph glyph-name="" unicode="ç" d="M344 523 q40 0 78 -18.5 q38 -18.5 64 -55.5 l-23 -18 q-47 62 -121 62 q-76 0 -137 -43.5 q-61 -43.5 -95.5 -114.5 q-34.5 -71 -34.5 -149 q0 -76 41 -121 q41 -45 114 -45 q87 0 169 62 l17 -22 q-84 -67 -182 -70 q19 -26 19 -57 q0 -48 -37.5 -76.5 q-37.5 -28.5 -93.5 -28.5 l-19 0 l7 30 l16 0 q42 0 68.5 21 q26.5 21 26.5 57 q0 27 -21 56 q-73 8 -115 59.5 q-42 51.5 -42 132.5 q0 88 39 166 q39 78 108 125.5 q69 47.5 154 47.5 Z" /><glyph glyph-name="" unicode="d" d="M216 -10 q-79 0 -126 54.5 q-47 54.5 -47 138.5 q0 91 37.5 169 q37.5 78 105 124.5 q67.5 46.5 153.5 46.5 q43 0 83.5 -20 q40.5 -20 66.5 -48 l57 271 l34 10 l-156 -736 l-22 0 l8 75 q-46 -40 -97 -62.5 q-51 -22.5 -97 -22.5 ZM218 20 q49 0 100 25 q51 25 98 69 l66 311 q-28 31 -63.5 49.5 q-35.5 18.5 -75.5 18.5 q-81 0 -142 -42 q-61 -42 -93.5 -113 q-32.5 -71 -32.5 -154 q0 -73 39 -118.5 q39 -45.5 104 -45.5 Z" /><glyph glyph-name="" unicode="ð" d="M230 -10 q-88 0 -139.5 53 q-51.5 53 -51.5 139 q0 83 39 156.5 q39 73.5 106.5 118 q67.5 44.5 148.5 44.5 q51 0 98 -21 q47 -21 70 -49 q-4 94 -53 173 l-146 -41 l7 30 l123 35 q-40 56 -107 101 l35 8 q57 -39 101 -101 l124 35 l-6 -30 l-103 -29 q57 -94 57 -206 q0 -61 -14 -124 q-18 -85 -59.5 -151 q-41.5 -66 -101 -103.5 q-59.5 -37.5 -128.5 -37.5 ZM230 20 q59 0 112.5 33.5 q53.5 33.5 91.5 94 q38 60.5 54 138.5 q13 61 14 109 q-29 33 -73 54.5 q-44 21.5 -94 21.5 q-74 0 -134.5 -40 q-60.5 -40 -95 -106 q-34.5 -66 -34.5 -139 q0 -74 42 -120 q42 -46 117 -46 Z" /><glyph glyph-name="" unicode="e" d="M234 -10 q-90 0 -140.5 51 q-50.5 51 -50.5 142 q0 87 38 165.5 q38 78.5 104 126.5 q66 48 145 48 q78 0 123.5 -46.5 q45.5 -46.5 45.5 -128.5 q0 -39 -12 -86 l-2 -8 l-403 0 q-7 -32 -7 -68 q0 -78 42.5 -122 q42.5 -44 117.5 -44 q80 0 162 62 l18 -22 q-91 -70 -181 -70 ZM459 283 q7 39 7 60 q0 71 -36.5 111 q-36.5 40 -104.5 40 q-83 0 -146.5 -60.5 q-63.5 -60.5 -89.5 -150.5 l370 0 Z" /><glyph glyph-name="" unicode="f" d="M141 541 q41 195 194 195 q29 0 56.5 -12 q27.5 -12 47.5 -34 l-22 -19 q-23 21 -41.5 28 q-18.5 7 -45.5 7 q-63 0 -101.5 -42 q-38.5 -42 -56.5 -124 l-5 -26 l227 0 l-7 -30 l-227 0 l-102 -484 l-32 0 l115 541 Z" /><glyph glyph-name="" unicode="g" d="M167 -222 q-58 0 -107 23 q-49 23 -80 60 l22 21 q31 -35 73.5 -54.5 q42.5 -19.5 92.5 -19.5 q86 0 142.5 52.5 q56.5 52.5 75.5 143.5 l18 84 q-45 -39 -96 -61 q-51 -22 -96 -22 q-52 0 -91.5 25.5 q-39.5 25.5 -60.5 68.5 q-21 43 -21 94 q0 89 37.5 164.5 q37.5 75.5 105 120.5 q67.5 45 153.5 45 q43 0 83 -20 q40 -20 66 -48 l20 59 l22 0 l-109 -513 q-23 -105 -88 -164 q-65 -59 -162 -59 ZM214 35 q49 0 100.5 25 q51.5 25 97.5 69 l63 299 q-29 29 -63.5 47 q-34.5 18 -72.5 18 q-81 0 -142 -40.5 q-61 -40.5 -93.5 -109 q-32.5 -68.5 -32.5 -149.5 q0 -68 39.5 -113.5 q39.5 -45.5 103.5 -45.5 Z" /><glyph glyph-name="" unicode="h" d="M214 736 l-66 -310 q52 51 105 74 q53 23 101 23 q65 0 102 -39 q37 -39 37 -106 q0 -36 -12 -91 l-61 -287 l-32 0 l61 285 q12 53 12 91 q0 53 -28 85 q-28 32 -86 32 q-100 0 -208 -109 l-81 -384 l-32 0 l154 726 l34 10 Z" /><glyph glyph-name="" unicode="&#x131;" d="M137 514 l32 0 l-109 -514 l-32 0 l109 514 Z" /><glyph glyph-name="" unicode="&#x237;" d="M-118 -182 q57 0 89 32.5 q32 32.5 46 97.5 l120 566 l32 0 l-120 -566 q-18 -82 -59 -121.5 q-41 -39.5 -113 -39.5 l-20 0 l7 31 l18 0 Z" /><glyph glyph-name="" unicode="k" d="M214 736 l-97 -456 l93 0 q40 0 74.5 21.5 q34.5 21.5 74.5 68.5 l123 144 l38 0 l-136 -159 q-52 -62 -97 -85 l157 -270 l-38 0 l-149 258 q-22 -7 -50 -7 l-96 0 l-53 -251 l-32 0 l154 726 l34 10 Z" /><glyph glyph-name="" unicode="l" d="M160 -5 q-54 0 -82 29 q-28 29 -28 83 q0 29 5 54 l120 565 l34 10 l-124 -583 q-4 -21 -4 -43 q0 -42 21 -64 q21 -22 61 -22 l21 0 l-6 -29 l-18 0 Z" /><glyph glyph-name="" unicode="m" d="M157 514 l-10 -89 q50 49 101 73.5 q51 24.5 90 24.5 q47 0 80 -25 q33 -25 44 -70 q50 49 103.5 72 q53.5 23 99.5 23 q61 0 97 -36 q36 -36 36 -106 q0 -36 -8 -71 l-66 -310 l-32 0 l65 305 q9 47 9 72 q0 116 -107 116 q-45 0 -94.5 -24 q-49.5 -24 -98.5 -71 q1 -4 1 -16 q0 -36 -8 -70 l-66 -312 l-32 0 l65 306 q9 44 9 76 q0 50 -25 80.5 q-25 30.5 -77 30.5 q-42 0 -92.5 -28 q-50.5 -28 -101.5 -81 l-81 -384 l-32 0 l109 514 l22 0 Z" /><glyph glyph-name="" unicode="n" d="M157 514 l-9 -89 q51 51 104 74.5 q53 23.5 102 23.5 q65 0 102 -39 q37 -39 37 -106 q0 -36 -12 -91 l-61 -287 l-32 0 l61 285 q12 53 12 91 q0 53 -28 85 q-28 32 -86 32 q-100 0 -208 -109 l-81 -384 l-32 0 l109 514 l22 0 Z" /><glyph glyph-name="" unicode="o" d="M229 -10 q-87 0 -136.5 54 q-49.5 54 -49.5 142 q0 86 40 164 q40 78 107.5 125.5 q67.5 47.5 146.5 47.5 q87 0 137 -53.5 q50 -53.5 50 -140.5 q0 -87 -40 -165 q-40 -78 -108 -126 q-68 -48 -147 -48 ZM230 20 q71 0 131 45 q60 45 95.5 115.5 q35.5 70.5 35.5 144.5 q0 76 -41.5 122 q-41.5 46 -114.5 46 q-72 0 -132 -44 q-60 -44 -94.5 -114 q-34.5 -70 -34.5 -144 q0 -77 41.5 -124 q41.5 -47 113.5 -47 Z" /><glyph glyph-name="" unicode="ø" d="M80 60 q-37 51 -37 126 q0 86 40 164 q40 78 107.5 125.5 q67.5 47.5 146.5 47.5 q80 0 128 -45 l64 69 l40 0 l-84 -91 q39 -51 39 -127 q0 -87 -40 -165 q-40 -78 -108 -126 q-68 -48 -147 -48 q-82 0 -130 48 l-66 -71 l-39 0 l86 93 ZM443 454 q-41 39 -107 39 q-72 0 -132 -44 q-60 -44 -94.5 -114 q-34.5 -70 -34.5 -144 q0 -62 28 -106 l340 369 ZM230 20 q71 0 131 45 q60 45 95.5 115.5 q35.5 70.5 35.5 144.5 q0 65 -30 107 l-341 -370 q40 -42 109 -42 Z" /><glyph glyph-name="" unicode="&#x153;" d="M229 -10 q-87 0 -136.5 54 q-49.5 54 -49.5 142 q0 86 40 164 q40 78 107.5 125.5 q67.5 47.5 146.5 47.5 q78 0 126.5 -44 q48.5 -44 57.5 -118 q39 73 103 117.5 q64 44.5 140 44.5 q78 0 123.5 -46.5 q45.5 -46.5 45.5 -128.5 q0 -39 -12 -86 l-2 -8 l-403 0 q-7 -32 -7 -68 q0 -78 42.5 -122 q42.5 -44 117.5 -44 q80 0 162 62 l18 -22 q-91 -70 -181 -70 q-82 0 -132 43.5 q-50 43.5 -58 121.5 q-40 -74 -106 -119.5 q-66 -45.5 -143 -45.5 ZM893 283 q7 39 7 60 q0 71 -36.5 111 q-36.5 40 -104.5 40 q-83 0 -146.5 -60.5 q-63.5 -60.5 -89.5 -150.5 l370 0 ZM230 20 q71 0 131 45 q60 45 95.5 115.5 q35.5 70.5 35.5 144.5 q0 76 -41.5 122 q-41.5 46 -114.5 46 q-72 0 -132 -44 q-60 -44 -94.5 -114 q-34.5 -70 -34.5 -144 q0 -77 41.5 -124 q41.5 -47 113.5 -47 Z" /><glyph glyph-name="" unicode="p" d="M157 514 l-8 -77 q46 40 97.5 63 q51.5 23 97.5 23 q79 0 126 -53.5 q47 -53.5 47 -137.5 q0 -91 -37.5 -169 q-37.5 -78 -105 -124.5 q-67.5 -46.5 -153.5 -46.5 q-44 0 -85.5 19.5 q-41.5 19.5 -64.5 46.5 l-57 -267 l-35 -10 l156 733 l22 0 ZM217 22 q81 0 142 42.5 q61 42.5 93.5 113 q32.5 70.5 32.5 153.5 q0 73 -38.5 117.5 q-38.5 44.5 -104.5 44.5 q-49 0 -100.5 -25 q-51.5 -25 -98.5 -69 l-66 -312 q28 -30 64 -47.5 q36 -17.5 76 -17.5 Z" /><glyph glyph-name="" unicode="þ" d="M214 736 l-63 -297 q45 39 96 61.5 q51 22.5 97 22.5 q79 0 126 -53.5 q47 -53.5 47 -137.5 q0 -91 -37.5 -169 q-37.5 -78 -105 -124.5 q-67.5 -46.5 -153.5 -46.5 q-44 0 -85.5 19.5 q-41.5 19.5 -64.5 46.5 l-57 -267 l-35 -10 l201 945 l34 10 ZM217 22 q81 0 142 42.5 q61 42.5 93.5 113 q32.5 70.5 32.5 153.5 q0 74 -38.5 118 q-38.5 44 -104.5 44 q-49 0 -100.5 -25 q-51.5 -25 -98.5 -69 l-66 -312 q28 -30 64 -47.5 q36 -17.5 76 -17.5 Z" /><glyph glyph-name="" unicode="q" d="M409 74 q-45 -39 -96 -61.5 q-51 -22.5 -97 -22.5 q-79 0 -126 54.5 q-47 54.5 -47 138.5 q0 91 37.5 169 q37.5 78 105 124.5 q67.5 46.5 153.5 46.5 q44 0 86 -21 q42 -21 66 -50 l21 62 l22 0 l-154 -723 l-33 -10 l62 293 ZM218 20 q49 0 100.5 25 q51.5 25 99.5 70 l65 310 q-66 68 -140 68 q-81 0 -142 -42 q-61 -42 -93.5 -113 q-32.5 -71 -32.5 -154 q0 -73 39 -118.5 q39 -45.5 104 -45.5 Z" /><glyph glyph-name="" unicode="r" d="M157 514 l-9 -89 q53 51 108.5 73.5 q55.5 22.5 106.5 22.5 l15 0 l-7 -31 l-15 0 q-110 0 -216 -106 l-82 -384 l-32 0 l109 514 l22 0 Z" /><glyph glyph-name="" unicode="s" d="M205 -10 q-61 0 -113 22 q-52 22 -82 62 l23 18 q29 -36 75 -53.5 q46 -17.5 101 -17.5 q67 0 107 31 q40 31 40 79 q0 39 -27 66 q-27 27 -93 52 q-74 28 -106.5 58.5 q-32.5 30.5 -32.5 77.5 q0 42 25 73.5 q25 31.5 65.5 48 q40.5 16.5 85.5 16.5 q52 0 92 -18 q40 -18 72 -55 l-23 -18 q-36 36 -67 49 q-31 13 -77 13 q-57 0 -99 -28.5 q-42 -28.5 -43 -76.5 q0 -30 14.5 -49.5 q14.5 -19.5 40.5 -33.5 q26 -14 72 -31 q68 -26 100.5 -59.5 q32.5 -33.5 32.5 -80.5 q0 -64 -49.5 -104.5 q-49.5 -40.5 -133.5 -40.5 Z" /><glyph glyph-name="" unicode="ß" d="M332 -10 q-107 0 -170 75 l21 18 q31 -32 65.5 -47 q34.5 -15 85.5 -15 q72 0 117.5 31.5 q45.5 31.5 45.5 88.5 q0 40 -24 67 q-24 27 -67 48 q-9 4 -42.5 20 q-33.5 16 -51 37.5 q-17.5 21.5 -17.5 49.5 q0 35 20.5 58.5 q20.5 23.5 62.5 53.5 l17 12 q8 6 39.5 28 q31.5 22 47 46.5 q15.5 24.5 15.5 53.5 q0 38 -36 64.5 q-36 26.5 -93 26.5 q-76 0 -129.5 -52.5 q-53.5 -52.5 -73.5 -147.5 l-107 -506 l-32 0 l108 509 q22 105 86.5 166 q64.5 61 150.5 61 q45 0 80.5 -16 q35.5 -16 55.5 -43 q20 -27 20 -59 q0 -36 -15.5 -62 q-15.5 -26 -33.5 -41 q-18 -15 -67 -51 l-17 -12 q-35 -24 -52.5 -42.5 q-17.5 -18.5 -17.5 -45.5 q0 -25 19 -39.5 q19 -14.5 43.5 -25.5 q24.5 -11 32.5 -15 q110 -51 110 -141 q0 -74 -55 -113.5 q-55 -39.5 -142 -39.5 Z" /><glyph glyph-name="" unicode="t" d="M188 -8 q-63 0 -96 33 q-33 33 -33 94 q0 26 6 56 l99 466 l34 10 l-29 -137 l213 0 l-6 -30 l-213 0 l-67 -313 q-6 -27 -6 -50 q0 -48 25 -73 q25 -25 73 -25 q26 0 46.5 6.5 q20.5 6.5 43.5 20.5 l15 -24 q-50 -34 -105 -34 Z" /><glyph glyph-name="" unicode="u" d="M192 -9 q-64 0 -100 39 q-36 39 -36 106 q0 36 12 91 l61 287 l32 0 l-61 -285 q-12 -53 -12 -91 q0 -53 27 -85 q27 -32 84 -32 q100 0 206 109 l82 384 l32 0 l-109 -514 l-22 0 l9 89 q-51 -51 -104 -74.5 q-53 -23.5 -101 -23.5 Z" /><glyph glyph-name="" unicode="v" d="M77 514 l33 0 l92 -475 l297 475 l35 0 l-322 -514 l-34 0 l-101 514 Z" /><glyph glyph-name="" unicode="w" d="M88 514 l33 0 l40 -471 l245 429 l33 0 l53 -429 l241 471 l34 0 l-267 -514 l-32 0 l-55 431 l-244 -431 l-32 0 l-49 514 Z" /><glyph glyph-name="" unicode="x" d="M235 274 l-125 240 l36 0 l113 -219 l206 219 l39 0 l-231 -245 l140 -269 l-37 0 l-128 248 l-229 -248 l-39 0 l255 274 Z" /><glyph glyph-name="" unicode="y" d="M-12 -182 q48 0 86.5 29.5 q38.5 29.5 74.5 88.5 l45 75 l-119 503 l34 0 l107 -466 l281 466 l35 0 l-358 -592 q-43 -72 -86.5 -103.5 q-43.5 -31.5 -106.5 -31.5 l-16 0 l6 31 l17 0 Z" /><glyph glyph-name="" unicode="z" d="M1 25 l444 459 l-339 0 l6 30 l383 0 l-5 -25 l-442 -459 l351 0 l-6 -30 l-397 0 l5 25 Z" /><glyph glyph-name="" unicode="ª" d="M157 295 q-45 0 -69.5 24 q-24.5 24 -24.5 63 q0 59 47.5 91 q47.5 32 120.5 32 l118 0 l5 24 q5 21 5 45 q0 81 -88 81 q-64 0 -123 -50 l-18 19 q31 28 69 43 q38 15 74 15 q113 0 113 -105 q0 -24 -6 -54 l-47 -221 l-18 0 l4 59 q-35 -30 -77 -48 q-42 -18 -85 -18 ZM161 322 q42 0 86.5 20.5 q44.5 20.5 78.5 54.5 l17 82 l-116 0 q-61 0 -98 -25 q-37 -25 -37 -71 q0 -26 18.5 -43.5 q18.5 -17.5 50.5 -17.5 Z" /><glyph glyph-name="" unicode="º" d="M225 295 q-64 0 -102 40.5 q-38 40.5 -38 107.5 q0 62 29 117 q29 55 78 88.5 q49 33.5 107 33.5 q64 0 102 -40.5 q38 -40.5 38 -106.5 q0 -60 -28.5 -115.5 q-28.5 -55.5 -77.5 -90 q-49 -34.5 -108 -34.5 ZM225 323 q51 0 93.5 31 q42.5 31 66.5 80.5 q24 49.5 24 100.5 q0 54 -30 87 q-30 33 -82 33 q-52 0 -93.5 -30.5 q-41.5 -30.5 -65 -79.5 q-23.5 -49 -23.5 -102 q0 -54 29.5 -87 q29.5 -33 80.5 -33 Z" /><glyph glyph-name="" unicode="&#x3bc;" d="M167 514 l-63 -294 q-10 -47 -10 -79 q0 -120 114 -120 q95 0 203 108 l82 385 l32 0 l-109 -514 l-22 0 l9 88 q-52 -51 -104 -74 q-52 -23 -99 -23 q-49 0 -81 21.5 q-32 21.5 -45 59.5 l-60 -281 l-35 -10 l156 733 l32 0 Z" /><glyph glyph-name="" unicode="0" d="M253 -10 q-88 0 -139 64 q-51 64 -51 168 q0 109 39.5 212 q39.5 103 111 167.5 q71.5 64.5 160.5 64.5 q59 0 102.5 -29.5 q43.5 -29.5 67 -83 q23.5 -53.5 23.5 -121.5 q0 -105 -40 -208 q-40 -103 -112 -168.5 q-72 -65.5 -162 -65.5 ZM253 21 q83 0 147.5 61.5 q64.5 61.5 99.5 157.5 q35 96 35 193 q0 90 -43.5 146 q-43.5 56 -118.5 56 q-83 0 -146.5 -61 q-63.5 -61 -97.5 -156 q-34 -95 -34 -193 q0 -90 41.5 -147 q41.5 -57 116.5 -57 Z" /><glyph glyph-name="" unicode="1" d="M273 622 l-171 -56 l6 30 l178 61 l26 0 l-139 -657 l-32 0 l132 622 Z" /><glyph glyph-name="" unicode="2" d="M341 296 q51 43 80.5 71.5 q29.5 28.5 49 64 q19.5 35.5 19.5 76.5 q0 57 -38 92 q-38 35 -109 35 q-56 0 -102 -20 q-46 -20 -94 -64 l-20 21 q99 94 219 94 q84 0 130 -44 q46 -44 46 -112 q0 -64 -40.5 -117 q-40.5 -53 -117.5 -116 l-301 -246 l367 0 l-6 -31 l-414 0 l5 26 l326 270 Z" /><glyph glyph-name="" unicode="3" d="M217 -10 q-62 0 -120.5 23.5 q-58.5 23.5 -93.5 61.5 l23 20 q32 -34 82.5 -54 q50.5 -20 107.5 -20 q95 0 154.5 46 q59.5 46 59.5 129 q0 68 -47 106.5 q-47 38.5 -131 38.5 l-44 0 l4 24 l276 261 l-349 0 l7 31 l391 0 l-6 -27 l-276 -260 q96 -2 151.5 -47.5 q55.5 -45.5 55.5 -125.5 q0 -65 -32 -111.5 q-32 -46.5 -87.5 -71 q-55.5 -24.5 -125.5 -24.5 Z" /><glyph glyph-name="" unicode="4" d="M384 187 l-351 0 l5 23 l446 447 l30 0 l-93 -440 l103 0 l-7 -30 l-102 0 l-40 -187 l-31 0 l40 187 ZM390 217 l84 392 l-390 -392 l306 0 Z" /><glyph glyph-name="" unicode="5" d="M218 -10 q-63 0 -116 24 q-53 24 -84 61 l22 20 q32 -34 77 -54 q45 -20 103 -20 q93 0 150 51.5 q57 51.5 57 136.5 q0 64 -43 102 q-43 38 -120 38 l-152 0 l4 21 l107 287 l295 0 l-6 -31 l-270 0 l-92 -247 l115 0 q90 0 142 -46 q52 -46 52 -122 q0 -66 -31 -116 q-31 -50 -85.5 -77.5 q-54.5 -27.5 -124.5 -27.5 Z" /><glyph glyph-name="" unicode="6" d="M258 -10 q-90 0 -141 57 q-51 57 -51 153 q0 43 12 110 q20 110 64.5 190.5 q44.5 80.5 108 123 q63.5 42.5 137.5 42.5 q46 0 86.5 -19.5 q40.5 -19.5 68.5 -59.5 l-23 -18 q-26 34 -58.5 50 q-32.5 16 -77.5 16 q-96 0 -166.5 -77 q-70.5 -77 -103.5 -216 q99 49 197 49 q81 0 129.5 -49 q48.5 -49 48.5 -128 q0 -63 -30.5 -114.5 q-30.5 -51.5 -83.5 -80.5 q-53 -29 -117 -29 ZM260 20 q57 0 102 25.5 q45 25.5 70.5 69.5 q25.5 44 25.5 99 q0 67 -40.5 107 q-40.5 40 -109.5 40 q-109 0 -201 -53 q-11 -53 -11 -107 q0 -84 43.5 -132.5 q43.5 -48.5 120.5 -48.5 Z" /><glyph glyph-name="" unicode="7" d="M526 626 l-396 0 l7 31 l431 0 l-5 -27 l-418 -630 l-38 0 l419 626 Z" /><glyph glyph-name="" unicode="8" d="M266 -10 q-100 0 -160 45 q-60 45 -60 121 q0 66 51.5 119 q51.5 53 137.5 88 q-46 26 -70 58.5 q-24 32.5 -24 78.5 q0 50 31.5 87.5 q31.5 37.5 84 58 q52.5 20.5 115.5 20.5 q57 0 100.5 -19.5 q43.5 -19.5 67.5 -53.5 q24 -34 24 -75 q0 -124 -169 -196 q55 -29 82 -64.5 q27 -35.5 27 -86.5 q0 -54 -32 -95.5 q-32 -41.5 -86.5 -63.5 q-54.5 -22 -119.5 -22 ZM363 337 q74 25 122.5 72 q48.5 47 48.5 109 q0 51 -45.5 84.5 q-45.5 33.5 -119.5 33.5 q-85 0 -141.5 -36 q-56.5 -36 -56.5 -99 q0 -51 34.5 -82.5 q34.5 -31.5 110.5 -61.5 q35 -14 47 -20 ZM267 20 q56 0 103.5 19 q47.5 19 75 53 q27.5 34 27.5 78 q0 58 -41 92.5 q-41 34.5 -130 69.5 q-22 8 -37 16 q-79 -28 -133.5 -79.5 q-54.5 -51.5 -54.5 -111.5 q0 -65 54.5 -101 q54.5 -36 135.5 -36 Z" /><glyph glyph-name="" unicode="9" d="M196 -10 q-42 0 -84.5 19 q-42.5 19 -71.5 56 l23 18 q54 -62 138 -62 q197 0 263 304 q-99 -51 -195 -51 q-85 0 -134 49 q-49 49 -49 127 q0 63 30.5 112.5 q30.5 49.5 83.5 76.5 q53 27 117 27 q57 0 100.5 -27 q43.5 -27 67.5 -74.5 q24 -47.5 24 -106.5 q0 -65 -11 -120 q-33 -170 -109 -259 q-76 -89 -193 -89 ZM272 304 q104 0 199 55 q8 49 8 99 q0 78 -45 128 q-45 50 -119 50 q-57 0 -102 -23 q-45 -23 -70.5 -64.5 q-25.5 -41.5 -25.5 -96.5 q0 -66 41 -107 q41 -41 114 -41 Z" /><glyph glyph-name="" unicode="&#x2070;" d="M224 350 q-55 0 -87 37.5 q-32 37.5 -32 99.5 q0 60 24 116 q24 56 67 91 q43 35 97 35 q54 0 87 -37.5 q33 -37.5 33 -99.5 q0 -59 -24 -115 q-24 -56 -67 -91.5 q-43 -35.5 -98 -35.5 ZM225 379 q47 0 83 32 q36 32 55.5 81.5 q19.5 49.5 19.5 100.5 q0 50 -24.5 79 q-24.5 29 -66.5 29 q-47 0 -83 -31.5 q-36 -31.5 -55.5 -81.5 q-19.5 -50 -19.5 -101 q0 -50 24.5 -79 q24.5 -29 66.5 -29 Z" /><glyph glyph-name="" unicode="¹" d="M242 693 l-99 -28 l5 26 l108 33 l22 0 l-78 -367 l-29 0 l71 336 Z" /><glyph glyph-name="" unicode="²" d="M269 521 q49 38 69 62 q20 24 20 56 q0 27 -21.5 45 q-21.5 18 -60.5 18 q-32 0 -59 -12 q-27 -12 -56 -36 l-17 21 q64 55 134 55 q52 0 81 -27 q29 -27 29 -67 q0 -37 -24.5 -65 q-24.5 -28 -70.5 -64 l-161 -124 l206 0 l-5 -26 l-253 0 l4 20 l185 144 Z" /><glyph glyph-name="" unicode="³" d="M226 350 q-39 0 -76 15 q-37 15 -58 41 l19 19 q21 -22 51 -34.5 q30 -12.5 64 -12.5 q50 0 81.5 24 q31.5 24 31.5 65 q0 35 -26 54.5 q-26 19.5 -72 19.5 l-36 0 l3 20 l151 135 l-196 0 l6 28 l239 0 l-4 -21 l-154 -137 q54 -2 86.5 -28.5 q32.5 -26.5 32.5 -70.5 q0 -52 -41 -84.5 q-41 -32.5 -102 -32.5 Z" /><glyph glyph-name="" unicode="&#x2074;" d="M305 458 l-208 0 l3 19 l262 247 l28 0 l-51 -240 l61 0 l-5 -26 l-62 0 l-21 -101 l-28 0 l21 101 ZM311 484 l42 199 l-211 -199 l169 0 Z" /><glyph glyph-name="" unicode="&#x2075;" d="M217 350 q-37 0 -69.5 15 q-32.5 15 -51.5 38 l21 17 q18 -19 44.5 -30.5 q26.5 -11.5 56.5 -11.5 q52 0 83.5 25.5 q31.5 25.5 31.5 69.5 q0 34 -24.5 53.5 q-24.5 19.5 -67.5 19.5 l-94 0 l3 17 l54 161 l188 0 l-5 -28 l-166 0 l-41 -124 l60 0 q56 0 89.5 -27 q33.5 -27 33.5 -71 q0 -57 -40.5 -90.5 q-40.5 -33.5 -105.5 -33.5 Z" /><glyph glyph-name="" unicode="&#x2076;" d="M244 350 q-54 0 -87.5 34 q-33.5 34 -33.5 91 q0 28 7 61 q19 93 68.5 143 q49.5 50 117.5 50 q62 0 98 -45 l-20 -17 q-16 18 -35 26 q-19 8 -45 8 q-55 0 -94 -38 q-39 -38 -57 -107 q56 25 111 25 q49 0 79.5 -29 q30.5 -29 30.5 -73 q0 -36 -18.5 -65.5 q-18.5 -29.5 -51 -46.5 q-32.5 -17 -70.5 -17 ZM246 378 q48 0 78 28.5 q30 28.5 30 71.5 q0 33 -23 54.5 q-23 21.5 -62 21.5 q-63 0 -112 -27 q-6 -27 -6 -50 q0 -46 25.5 -72.5 q25.5 -26.5 69.5 -26.5 Z" /><glyph glyph-name="" unicode="&#x2077;" d="M381 697 l-227 0 l6 27 l264 0 l-4 -18 l-243 -349 l-34 0 l238 340 Z" /><glyph glyph-name="" unicode="&#x2078;" d="M244 350 q-61 0 -98 26 q-37 26 -37 69 q0 35 27.5 64.5 q27.5 29.5 74.5 48.5 q-50 29 -50 74 q0 42 41.5 69.5 q41.5 27.5 98.5 27.5 q53 0 86.5 -24 q33.5 -24 33.5 -61 q0 -67 -89 -107 q29 -16 43.5 -35.5 q14.5 -19.5 14.5 -47.5 q0 -47 -42.5 -75.5 q-42.5 -28.5 -103.5 -28.5 ZM302 550 q40 13 65.5 36.5 q25.5 23.5 25.5 54.5 q0 27 -26 44.5 q-26 17.5 -67 17.5 q-47 0 -79 -19.5 q-32 -19.5 -32 -51.5 q0 -26 21 -42 q21 -16 66 -31 l26 -9 ZM246 377 q49 0 82.5 22 q33.5 22 33.5 55 q0 31 -25 49 q-25 18 -77 35 l-20 7 q-44 -15 -73 -40.5 q-29 -25.5 -29 -56.5 q0 -33 31 -52 q31 -19 77 -19 Z" /><glyph glyph-name="" unicode="&#x2079;" d="M209 350 q-29 0 -56 10.5 q-27 10.5 -46 33.5 l19 18 q30 -34 80 -34 q57 0 94.5 39 q37.5 39 52.5 117 q-56 -28 -114 -28 q-51 0 -81 29.5 q-30 29.5 -30 73.5 q0 53 39.5 86.5 q39.5 33.5 99.5 33.5 q52 0 85 -35 q33 -35 35 -90 q0 -34 -4 -62 q-15 -92 -60.5 -142 q-45.5 -50 -113.5 -50 ZM242 533 q58 0 116 30 q1 14 1 40 q-2 44 -27.5 71 q-25.5 27 -67.5 27 q-48 0 -77.5 -25 q-29.5 -25 -29.5 -66 q0 -34 22.5 -55.5 q22.5 -21.5 62.5 -21.5 Z" /><glyph glyph-name="" unicode="&#x2044;" d="M341 657 l39 0 l-602 -657 l-40 0 l603 657 Z" /><glyph glyph-name="" unicode="." d="M72 -10 q-13 0 -20.5 7.5 q-7.5 7.5 -7.5 19.5 q0 16 10 27.5 q10 11.5 25 11.5 q13 0 20.5 -7.5 q7.5 -7.5 7.5 -19.5 q0 -16 -10 -27.5 q-10 -11.5 -25 -11.5 Z" /><glyph glyph-name="" unicode="," d="M-33 -127 q36 40 69 94.5 q33 54.5 46 92.5 l35 0 q-14 -43 -47.5 -98 q-33.5 -55 -69.5 -89 l-33 0 Z" /><glyph glyph-name="" unicode=":" d="M173 454 q-13 0 -20.5 7.5 q-7.5 7.5 -7.5 19.5 q0 16 10 27.5 q10 11.5 25 11.5 q13 0 20.5 -7.5 q7.5 -7.5 7.5 -19.5 q0 -16 -10 -27.5 q-10 -11.5 -25 -11.5 ZM75 -10 q-13 0 -20.5 7.5 q-7.5 7.5 -7.5 19.5 q0 16 10 27.5 q10 11.5 25 11.5 q13 0 20.5 -7.5 q7.5 -7.5 7.5 -19.5 q0 -16 -10 -27.5 q-10 -11.5 -25 -11.5 Z" /><glyph glyph-name="" unicode=";" d="M172 454 q-13 0 -20.5 7.5 q-7.5 7.5 -7.5 19.5 q0 16 10 27.5 q10 11.5 25 11.5 q13 0 20.5 -7.5 q7.5 -7.5 7.5 -19.5 q0 -16 -10 -27.5 q-10 -11.5 -25 -11.5 ZM-32 -127 q36 40 69 94.5 q33 54.5 46 92.5 l35 0 q-14 -43 -47.5 -98 q-33.5 -55 -69.5 -89 l-33 0 Z" /><glyph glyph-name="" unicode="!" d="M186 676 l34 0 l-112 -515 l-28 0 l106 515 ZM64 -10 q-13 0 -20.5 7.5 q-7.5 7.5 -7.5 19.5 q0 16 10 27.5 q10 11.5 25 11.5 q13 0 20.5 -7.5 q7.5 -7.5 7.5 -19.5 q0 -16 -10 -27.5 q-10 -11.5 -25 -11.5 Z" /><glyph glyph-name="" unicode="¡" d="M156 458 q-13 0 -20.5 7.5 q-7.5 7.5 -7.5 19.5 q0 16 10 27.5 q10 11.5 25 11.5 q13 0 20.5 -7.5 q7.5 -7.5 7.5 -19.5 q0 -16 -10 -27.5 q-10 -11.5 -25 -11.5 ZM119 353 l28 0 l-106 -515 l-34 0 l112 515 Z" /><glyph glyph-name="" unicode="?" d="M218 198 q8 40 28 69.5 q20 29.5 44 51 q24 21.5 67 52.5 q42 31 66 53.5 q24 22.5 38.5 50 q14.5 27.5 14.5 63.5 q0 52 -37 85 q-37 33 -104 33 q-62 0 -113 -22.5 q-51 -22.5 -97 -63.5 l-19 23 q49 44 107.5 68.5 q58.5 24.5 122.5 24.5 q81 0 126.5 -41 q45.5 -41 45.5 -105 q0 -41 -15.5 -72 q-15.5 -31 -41 -56 q-25.5 -25 -69.5 -58 l-20 -15 q-49 -37 -75 -65.5 q-26 -28.5 -36 -72.5 l-9 -40 l-32 0 l8 37 ZM202 -10 q-13 0 -20.5 7.5 q-7.5 7.5 -7.5 19.5 q0 16 10 27.5 q10 11.5 25 11.5 q13 0 20.5 -7.5 q7.5 -7.5 7.5 -19.5 q0 -16 -10 -27.5 q-10 -11.5 -25 -11.5 Z" /><glyph glyph-name="" unicode="¿" d="M306 458 q-13 0 -20.5 7.5 q-7.5 7.5 -7.5 19.5 q0 16 10 27.5 q10 11.5 25 11.5 q13 0 20.5 -7.5 q7.5 -7.5 7.5 -19.5 q0 -16 -10 -27.5 q-10 -11.5 -25 -11.5 ZM179 -172 q-81 0 -126.5 41 q-45.5 41 -45.5 105 q0 41 15.5 72 q15.5 31 41 56 q25.5 25 69.5 58 l20 15 q49 37 75 65.5 q26 28.5 36 72.5 l9 40 l32 0 l-8 -37 q-8 -40 -28 -69.5 q-20 -29.5 -44 -51 q-24 -21.5 -67 -52.5 q-42 -31 -66 -53.5 q-24 -22.5 -38.5 -50 q-14.5 -27.5 -14.5 -63.5 q0 -52 37 -85 q37 -33 104 -33 q62 0 113 22.5 q51 22.5 97 63.5 l19 -23 q-49 -44 -107.5 -68.5 q-58.5 -24.5 -122.5 -24.5 Z" /><glyph glyph-name="" unicode="&#x2022;" d="M200 273 q-32 0 -55 22.5 q-23 22.5 -23 55.5 q0 33 22.5 55.5 q22.5 22.5 55.5 22.5 q33 0 55.5 -22.5 q22.5 -22.5 22.5 -55.5 q0 -33 -23 -55.5 q-23 -22.5 -55 -22.5 Z" /><glyph glyph-name="" unicode="*" d="M224 535 l-107 -65 l-11 21 l112 67 l-85 65 l18 20 l81 -65 l25 116 l28 0 l-26 -116 l107 66 l12 -22 l-112 -66 l83 -65 l-19 -20 l-80 65 l-24 -117 l-28 0 l26 116 Z" /><glyph glyph-name="" unicode="#" d="M156 183 l-99 0 l10 31 l99 0 l75 235 l-99 0 l10 30 l98 0 l47 148 l30 0 l-47 -148 l185 0 l47 148 l30 0 l-47 -148 l94 0 l-9 -30 l-94 0 l-75 -235 l94 0 l-10 -31 l-94 0 l-49 -154 l-30 0 l49 154 l-185 0 l-49 -154 l-30 0 l49 154 ZM381 214 l75 235 l-186 0 l-74 -235 l185 0 Z" /><glyph glyph-name="" unicode="/" d="M458 735 l37 0 l-521 -861 l-37 0 l521 861 Z" /><glyph glyph-name="" unicode="\" d="M121 735 l33 0 l155 -861 l-33 0 l-155 861 Z" /><glyph glyph-name="" unicode="(" d="M165 -126 q-44 58 -66.5 133 q-22.5 75 -22.5 160 q0 158 73.5 310 q73.5 152 195.5 258 l39 0 q-125 -107 -199.5 -259 q-74.5 -152 -74.5 -309 q0 -83 22.5 -158 q22.5 -75 67.5 -135 l-35 0 Z" /><glyph glyph-name="" unicode=")" d="M-66 -126 q125 107 199.5 259 q74.5 152 74.5 309 q0 83 -22.5 158 q-22.5 75 -67.5 135 l35 0 q44 -58 66.5 -133 q22.5 -75 22.5 -160 q0 -158 -73.5 -310 q-73.5 -152 -195.5 -258 l-39 0 Z" /><glyph glyph-name="" unicode="{" d="M210 -126 q-74 0 -113.5 33.5 q-39.5 33.5 -39.5 97.5 q0 28 7 57 l20 91 q5 27 5 43 q0 62 -52 98 l5 23 q44 20 69.5 54 q25.5 34 37.5 88 l19 90 q20 92 75 139 q55 47 145 47 l41 0 l-14 -30 l-39 0 q-69 0 -114 -38 q-45 -38 -60 -109 l-20 -93 q-13 -61 -37 -98 q-24 -37 -72 -64 q47 -42 47 -105 q0 -23 -6 -53 l-21 -96 q-5 -27 -5 -45 q0 -48 29 -74 q29 -26 86 -26 l41 0 l2 -30 l-36 0 Z" /><glyph glyph-name="" unicode="}" d="M4 -96 q69 0 114 38 q45 38 60 109 l20 93 q13 61 37 98 q24 37 72 64 q-47 42 -47 105 q0 23 6 53 l21 96 q5 27 5 45 q0 48 -29 74 q-29 26 -86 26 l-41 0 l-2 30 l36 0 q74 0 113.5 -33.5 q39.5 -33.5 39.5 -97.5 q0 -28 -7 -57 l-20 -91 q-5 -27 -5 -43 q0 -62 52 -98 l-5 -23 q-44 -20 -69.5 -54 q-25.5 -34 -37.5 -88 l-19 -90 q-20 -92 -75 -139 q-55 -47 -145 -47 l-41 0 l14 30 l39 0 Z" /><glyph glyph-name="" unicode="[" d="M207 735 l222 0 l-14 -30 l-182 0 l-171 -801 l181 0 l2 -30 l-221 0 l183 861 Z" /><glyph glyph-name="" unicode="]" d="M-49 -96 l182 0 l171 801 l-181 0 l-2 30 l221 0 l-183 -861 l-222 0 l14 30 Z" /><glyph glyph-name="" unicode="-" d="M71 307 l291 0 l-6 -30 l-291 0 l6 30 Z" /><glyph glyph-name="" unicode="&#x2013;" d="M11 307 l480 0 l-7 -30 l-480 0 l7 30 Z" /><glyph glyph-name="" unicode="&#x2014;" d="M11 307 l960 0 l-7 -30 l-960 0 l7 30 Z" /><glyph glyph-name="" unicode="_" d="M-75 -96 l480 0 l-6 -29 l-480 0 l6 29 Z" /><glyph glyph-name="" unicode="&#x2018;" d="M102 499 q14 42 45 92 q31 50 66 85 l30 0 q-35 -40 -65 -90 q-30 -50 -43 -87 l-33 0 Z" /><glyph glyph-name="" unicode="&#x2019;" d="M107 499 q35 40 65 90 q30 50 43 87 l33 0 q-14 -42 -45 -92 q-31 -50 -66 -85 l-30 0 Z" /><glyph glyph-name="" unicode="&#x2039;" d="M57 282 l161 184 l38 0 l-161 -187 l82 -181 l-32 0 l-88 184 Z" /><glyph glyph-name="" unicode="&#x203a;" d="M185 285 l-82 181 l32 0 l88 -184 l-161 -184 l-38 0 l161 187 Z" /><glyph glyph-name="" unicode="&#39;" d="M174 676 l37 0 l-57 -243 l-30 0 l50 243 Z" /><glyph glyph-name="" unicode=" " d="" /><glyph glyph-name="" unicode="¢" d="M261 69 q-76 5 -120 54.5 q-44 49.5 -44 130.5 q0 80 35 152.5 q35 72.5 97.5 119.5 q62.5 47 139.5 54 l23 108 l34 10 l-24 -117 q38 -2 73.5 -21 q35.5 -19 59.5 -53 l-23 -18 q-47 62 -121 62 q-76 0 -135.5 -42 q-59.5 -42 -93 -110.5 q-33.5 -68.5 -33.5 -142.5 q0 -73 41 -115.5 q41 -42.5 114 -42.5 q87 0 169 62 l17 -22 q-81 -66 -178 -70 l-27 -127 l-33 -10 l29 138 Z" /><glyph glyph-name="" unicode="¤" d="M121 206 q-15 32 -15 73 q0 51 19.5 99.5 q19.5 48.5 53.5 86.5 l-64 81 l27 21 l61 -78 q32 28 71 44 q39 16 80 16 q42 0 75.5 -16 q33.5 -16 54.5 -44 l92 78 l19 -21 l-97 -81 q15 -31 15 -71 q0 -51 -19.5 -99.5 q-19.5 -48.5 -53.5 -87.5 l65 -83 l-26 -21 l-63 79 q-32 -28 -71 -44 q-39 -16 -80 -16 q-42 0 -74.5 15 q-32.5 15 -53.5 43 l-93 -77 l-18 21 l95 82 ZM266 151 q58 0 107.5 35 q49.5 35 79 90.5 q29.5 55.5 29.5 112.5 q0 58 -35.5 94.5 q-35.5 36.5 -94.5 36.5 q-58 0 -107.5 -34.5 q-49.5 -34.5 -78.5 -89 q-29 -54.5 -29 -111.5 q0 -60 35 -97 q35 -37 94 -37 Z" /><glyph glyph-name="" unicode="$" d="M228 -3 q-55 5 -102.5 29 q-47.5 24 -82.5 66 l23 19 q40 -44 91 -65 q51 -21 108 -21 q88 0 138.5 41.5 q50.5 41.5 50.5 106.5 q0 50 -34 84.5 q-34 34.5 -116 68.5 q-95 39 -134 75.5 q-39 36.5 -39 96.5 q0 53 31.5 92 q31.5 39 81 59.5 q49.5 20.5 103.5 20.5 l8 0 l25 118 l34 10 l-28 -130 q99 -12 163 -91 l-23 -18 q-43 48 -83 64.5 q-40 16.5 -100 16.5 q-50 0 -92 -18 q-42 -18 -66 -49.5 q-24 -31.5 -24 -70.5 q0 -53 37.5 -84 q37.5 -31 123.5 -66 q85 -34 124 -75.5 q39 -41.5 39 -100.5 q0 -52 -26.5 -93 q-26.5 -41 -77 -64.5 q-50.5 -23.5 -119.5 -23.5 l-2 0 l-29 -136 l-34 -10 l31 148 Z" /><glyph glyph-name="" unicode="&#x20ac;" d="M311 -10 q-93 0 -148.5 64 q-55.5 64 -58.5 170 l-84 0 l16 30 l68 0 q3 75 27 144 l-74 0 l16 29 l69 0 q42 106 123 172.5 q81 66.5 184 66.5 q53 0 96 -21 q43 -21 71 -60 l-23 -17 q-50 68 -147 68 q-90 0 -160.5 -58 q-70.5 -58 -111.5 -151 l259 0 l-16 -29 l-254 0 q-25 -72 -28 -144 l232 0 l-15 -30 l-217 0 q4 -92 51.5 -147.5 q47.5 -55.5 127.5 -55.5 q54 0 99 18 q45 18 90 54 l18 -22 q-48 -41 -99 -61 q-51 -20 -111 -20 Z" /><glyph glyph-name="" unicode="&#x192;" d="M29 30 q58 0 96.5 18.5 q38.5 18.5 65.5 56 q27 37.5 54 101.5 l50 118 l-160 0 l6 31 l167 0 l40 94 q32 76 65 120.5 q33 44.5 78.5 66 q45.5 21.5 112.5 21.5 l49 0 l-7 -31 l-48 0 q-58 0 -96 -18.5 q-38 -18.5 -64 -55.5 q-26 -37 -54 -101 l-41 -96 l161 0 l-6 -31 l-168 0 l-50 -116 q-33 -77 -64.5 -121 q-31.5 -44 -75.5 -65.5 q-44 -21.5 -111 -21.5 l-67 0 l7 30 l60 0 Z" /><glyph glyph-name="" unicode="£" d="M154 300 l-97 0 l6 31 l104 0 l49 118 q33 80 66 124.5 q33 44.5 76 64 q43 19.5 106 19.5 l137 0 l-6 -31 l-136 0 q-55 0 -91.5 -17 q-36.5 -17 -63.5 -54.5 q-27 -37.5 -54 -103.5 l-49 -120 l264 0 l-7 -31 l-270 0 l-110 -269 l408 0 l-6 -31 l-444 0 l5 26 l113 274 Z" /><glyph glyph-name="" unicode="¥" d="M252 139 l-182 0 l6 30 l182 0 l23 105 l-182 0 l6 30 l169 0 l-138 353 l32 0 l134 -346 l284 346 l36 0 l-290 -353 l167 0 l-6 -30 l-181 0 l-23 -105 l181 0 l-6 -30 l-181 0 l-30 -139 l-31 0 l30 139 Z" /><glyph glyph-name="" unicode="+" d="M291 316 l-181 0 l6 29 l181 0 l39 185 l30 0 l-39 -185 l181 0 l-6 -29 l-181 0 l-40 -186 l-30 0 l40 186 Z" /><glyph glyph-name="" unicode="&#x2212;" d="M137 345 l349 0 l-6 -29 l-349 0 l6 29 Z" /><glyph glyph-name="" unicode="×" d="M121 192 l167 140 l-105 138 l23 17 l104 -137 l166 139 l18 -21 l-167 -139 l106 -139 l-22 -18 l-106 138 l-166 -138 l-18 20 Z" /><glyph glyph-name="" unicode="÷" d="M344 434 q-13 0 -20 7 q-7 7 -7 18 q0 15 9.5 26 q9.5 11 23.5 11 q13 0 20 -7 q7 -7 7 -19 q0 -15 -9.5 -25.5 q-9.5 -10.5 -23.5 -10.5 ZM143 345 l349 0 l-6 -29 l-349 0 l6 29 ZM287 163 q-12 0 -19.5 7.5 q-7.5 7.5 -7.5 18.5 q0 15 9.5 26.5 q9.5 11.5 24.5 11.5 q13 0 20 -7 q7 -7 7 -19 q0 -15 -9.5 -26.5 q-9.5 -11.5 -24.5 -11.5 Z" /><glyph glyph-name="" unicode="&#x2260;" d="M117 128 l77 93 l-83 0 l6 29 l101 0 l135 163 l-201 0 l6 29 l219 0 l90 109 l22 -17 l-76 -92 l94 0 l-6 -29 l-112 0 l-135 -163 l212 0 l-6 -29 l-230 0 l-90 -109 l-23 16 Z" /><glyph glyph-name="" unicode="&gt;" d="M118 174 l312 160 l-241 159 l17 22 l261 -173 l-4 -22 l-333 -172 l-12 26 Z" /><glyph glyph-name="" unicode="&lt;" d="M150 320 l4 22 l333 172 l12 -26 l-312 -160 l241 -159 l-17 -22 l-261 173 Z" /><glyph glyph-name="" unicode="&#x2265;" d="M136 174 l312 160 l-241 159 l17 22 l261 -173 l-4 -22 l-333 -172 l-12 26 ZM89 29 l330 0 l-6 -29 l-330 0 l6 29 Z" /><glyph glyph-name="" unicode="&#x2264;" d="M133 321 l4 22 l333 172 l12 -26 l-312 -160 l241 -159 l-17 -22 l-261 173 ZM70 29 l330 0 l-6 -29 l-330 0 l6 29 Z" /><glyph glyph-name="" unicode="~" d="M407 259 q-29 0 -52.5 13 q-23.5 13 -57.5 38 q-30 23 -49.5 34 q-19.5 11 -42.5 11 q-66 0 -90 -86 l-30 0 q32 113 121 113 q29 0 52.5 -13 q23.5 -13 57.5 -38 q30 -23 49.5 -34 q19.5 -11 42.5 -11 q66 0 90 88 l30 0 q-16 -55 -46 -85 q-30 -30 -75 -30 Z" /><glyph glyph-name="" unicode="¬" d="M464 374 l-352 0 l7 30 l381 0 l-46 -215 l-29 0 l39 185 Z" /><glyph glyph-name="" unicode="^" d="M367 676 l32 0 l104 -331 l-30 0 l-94 302 l-226 -302 l-33 0 l247 331 Z" /><glyph glyph-name="" unicode="@" d="M373 -162 q-98 0 -171 44.5 q-73 44.5 -111.5 122 q-38.5 77.5 -38.5 175.5 q0 143 65.5 255 q65.5 112 177 174 q111.5 62 244.5 62 q99 0 174.5 -39 q75.5 -39 116.5 -105.5 q41 -66.5 41 -145.5 q0 -86 -40.5 -161 q-40.5 -75 -110 -120.5 q-69.5 -45.5 -152.5 -45.5 l-22 0 l5 53 q-36 -29 -75.5 -46 q-39.5 -17 -77.5 -17 q-65 0 -101.5 42.5 q-36.5 42.5 -36.5 110.5 q0 70 30.5 129 q30.5 59 84.5 94 q54 35 121 35 q32 0 65 -14 q33 -14 54 -35 l15 42 l23 0 l-77 -367 q72 0 132.5 43 q60.5 43 96 112 q35.5 69 35.5 144 q0 71 -37.5 131 q-37.5 60 -106.5 95 q-69 35 -159 35 q-125 0 -229 -58 q-104 -58 -164.5 -163 q-60.5 -105 -60.5 -238 q0 -88 35.5 -159.5 q35.5 -71.5 101.5 -112.5 q66 -41 153 -41 q68 0 129.5 20 q61.5 20 108.5 59 l20 -24 q-106 -86 -258 -86 ZM403 74 q76 0 155 72 l48 232 q-46 47 -111 47 q-61 0 -107 -31 q-46 -31 -71 -83 q-25 -52 -25 -114 q0 -56 29 -89.5 q29 -33.5 82 -33.5 Z" /><glyph glyph-name="" unicode="&amp;" d="M239 -10 q-89 -1 -147 42 q-58 43 -58 117 q0 77 53.5 133.5 q53.5 56.5 141.5 85.5 q-50 75 -50 137 q0 54 26 95 q26 41 71.5 63.5 q45.5 22.5 100.5 22.5 q47 0 91 -24.5 q44 -24.5 73 -64.5 l-24 -18 q-29 37 -65 56.5 q-36 19.5 -76 19.5 q-74 0 -120.5 -40.5 q-46.5 -40.5 -46.5 -106.5 q0 -36 15.5 -69.5 q15.5 -33.5 42.5 -71.5 l180 -252 q36 39 61 90 q25 51 37 109 l6 30 l32 0 l-6 -29 q-14 -66 -43 -123 q-29 -57 -71 -100 l66 -92 l-38 0 l-50 70 q-44 -38 -95.5 -59 q-51.5 -21 -106.5 -21 ZM236 21 q106 0 188 72 l-179 251 q-77 -21 -128.5 -73 q-51.5 -52 -51.5 -118 q0 -61 47.5 -96.5 q47.5 -35.5 123.5 -35.5 Z" /><glyph glyph-name="" unicode="¶" d="M208 -92 q50 0 85.5 34 q35.5 34 48.5 95 l134 627 l33 8 l-135 -631 q-17 -80 -61 -122 q-44 -42 -110 -42 l-20 0 l6 31 l19 0 ZM309 223 q-105 0 -162.5 41 q-57.5 41 -57.5 114 q0 22 4 42 q18 83 79 136.5 q61 53.5 161 76.5 l65 15 l-89 -425 Z" /><glyph glyph-name="" unicode="§" d="M78 -95 q72 0 111 31.5 q39 31.5 39 86.5 q0 44 -43 93 l-76 88 q-39 44 -39 92 q0 56 38 93.5 q38 37.5 99 42.5 q-38 49 -38 100 q0 69 47.5 106.5 q47.5 37.5 131.5 37.5 l68 0 l-6 -30 l-63 0 q-73 0 -110 -28.5 q-37 -28.5 -37 -83.5 q0 -46 42 -96 l74 -86 q18 -20 28 -44 q10 -24 10 -47 q0 -57 -39.5 -94.5 q-39.5 -37.5 -98.5 -42.5 q43 -52 43 -101 q0 -68 -49 -108 q-49 -40 -132 -40 l-75 0 l6 30 l69 0 ZM200 150 q51 0 87 29.5 q36 29.5 36 78.5 q0 19 -8 39.5 q-8 20.5 -23 37.5 l-63 71 l-5 0 q-55 0 -89 -30 q-34 -30 -34 -76 q0 -43 31 -80 l61 -70 l7 0 Z" /><glyph glyph-name="" unicode="©" d="M407 -10 q-95 0 -174.5 43.5 q-79.5 43.5 -126.5 122.5 q-47 79 -47 182 q0 100 47.5 179.5 q47.5 79.5 127 124 q79.5 44.5 173.5 44.5 q95 0 175 -44 q80 -44 127.5 -123.5 q47.5 -79.5 47.5 -180.5 q0 -102 -47.5 -181 q-47.5 -79 -128 -123 q-80.5 -44 -174.5 -44 ZM407 22 q89 0 161 39.5 q72 39.5 113.5 111.5 q41.5 72 41.5 165 q0 92 -41.5 164.5 q-41.5 72.5 -113.5 112.5 q-72 40 -161 40 q-88 0 -160 -40.5 q-72 -40.5 -113.5 -113 q-41.5 -72.5 -41.5 -163.5 q0 -94 41 -166 q41 -72 112.5 -111 q71.5 -39 161.5 -39 ZM413 145 q-53 0 -94.5 24.5 q-41.5 24.5 -64.5 68.5 q-23 44 -23 100 q0 56 24 100 q24 44 66.5 68.5 q42.5 24.5 96.5 24.5 q35 0 67.5 -14.5 q32.5 -14.5 54.5 -41.5 l-20 -20 q-45 44 -103 44 q-68 0 -110.5 -44 q-42.5 -44 -42.5 -117 q0 -73 42 -117.5 q42 -44.5 108 -44.5 q64 0 115 44 l20 -21 q-55 -54 -136 -54 Z" /><glyph glyph-name="" unicode="®" d="M313 282 q-59 0 -108 26.5 q-49 26.5 -77.5 75 q-28.5 48.5 -28.5 111.5 q0 60 29 108.5 q29 48.5 78 76 q49 27.5 107 27.5 q57 0 106 -27 q49 -27 78 -75.5 q29 -48.5 29 -109.5 q0 -62 -29.5 -110.5 q-29.5 -48.5 -78 -75.5 q-48.5 -27 -105.5 -27 ZM313 312 q51 0 92.5 22.5 q41.5 22.5 65.5 64.5 q24 42 24 96 q0 54 -24 95.5 q-24 41.5 -65.5 64 q-41.5 22.5 -92.5 22.5 q-52 0 -94 -23 q-42 -23 -65.5 -64.5 q-23.5 -41.5 -23.5 -94.5 q0 -84 51 -133.5 q51 -49.5 132 -49.5 ZM315 611 q37 0 59 -18.5 q22 -18.5 22 -49.5 q0 -22 -12.5 -37.5 q-12.5 -15.5 -34.5 -22.5 q21 -14 36 -43 l30 -57 l-33 0 l-22 41 q-14 27 -25.5 37 q-11.5 10 -39.5 10 l-31 0 l0 -88 l-30 0 l0 228 l81 0 ZM310 500 q26 0 40.5 11 q14.5 11 14.5 31 q0 20 -15 30.5 q-15 10.5 -40 10.5 l-46 0 l0 -83 l46 0 Z" /><glyph glyph-name="" unicode="&#x2122;" d="M228 646 l-126 0 l7 30 l282 0 l-6 -30 l-127 0 l-68 -322 l-31 0 l69 322 ZM460 676 l29 0 l87 -246 l203 246 l30 0 l-75 -352 l-31 0 l64 294 l-184 -220 l-25 0 l-80 217 l-62 -291 l-31 0 l75 352 Z" /><glyph glyph-name="" unicode="°" d="M238 410 q-36 0 -66.5 18 q-30.5 18 -48.5 48.5 q-18 30.5 -18 66.5 q0 36 18 66.5 q18 30.5 49 48.5 q31 18 66 18 q36 0 67 -18 q31 -18 49 -48.5 q18 -30.5 18 -66.5 q0 -36 -18 -66.5 q-18 -30.5 -49 -48.5 q-31 -18 -67 -18 ZM238 438 q43 0 73.5 30.5 q30.5 30.5 30.5 74.5 q0 44 -30.5 74.5 q-30.5 30.5 -73.5 30.5 q-43 0 -73.5 -31 q-30.5 -31 -30.5 -74 q0 -43 30.5 -74 q30.5 -31 73.5 -31 Z" /><glyph glyph-name="" unicode="|" d="M207 735 l32 0 l-183 -861 l-32 0 l183 861 Z" /><glyph glyph-name="" unicode="¦" d="M207 735 l32 0 l-69 -326 l-32 0 l69 326 ZM94 200 l31 0 l-69 -326 l-32 0 l70 326 Z" /><glyph glyph-name="" unicode="&#x2020;" d="M212 527 l-126 0 l6 31 l127 0 l25 118 l32 8 l-27 -126 l127 0 l-7 -31 l-127 0 l-48 -227 l-30 0 l48 227 Z" /><glyph glyph-name="" unicode="&#x2021;" d="M191 419 l-116 0 l6 31 l117 0 l22 104 l-117 0 l7 30 l116 0 l20 92 l32 8 l-21 -100 l116 0 l-6 -30 l-117 0 l-22 -104 l117 0 l-7 -31 l-117 0 l-23 -109 l-30 0 l23 109 Z" /><glyph glyph-name="" unicode="&#x308;" d="M-287 637 q-12 0 -19 7 q-7 7 -7 18 q0 15 10 26 q10 11 24 11 q12 0 19 -7 q7 -7 7 -18 q0 -15 -10 -26 q-10 -11 -24 -11 ZM-123 637 q-12 0 -19 7 q-7 7 -7 18 q0 15 10 26 q10 11 24 11 q12 0 19 -7 q7 -7 7 -18 q0 -15 -10 -26 q-10 -11 -24 -11 Z" /><glyph glyph-name="" unicode="&#x307;" d="M-204 637 q-12 0 -19 7 q-7 7 -7 18 q0 15 10 26 q10 11 24 11 q12 0 19 -7 q7 -7 7 -18 q0 -15 -10 -26 q-10 -11 -24 -11 Z" /><glyph glyph-name="" unicode="&#x300;" d="M-263 725 l42 0 l80 -126 l-34 0 l-88 126 Z" /><glyph glyph-name="" unicode="&#x301;" d="M-160 725 l50 0 l-142 -126 l-41 0 l133 126 Z" /><glyph glyph-name="" unicode="&#x302;" d="M-203 725 l29 0 l88 -126 l-35 0 l-72 98 l-112 -98 l-39 0 l141 126 Z" /><glyph glyph-name="" unicode="&#x30c;" d="M-316 725 l35 0 l72 -98 l112 98 l39 0 l-141 -126 l-29 0 l-88 126 Z" /><glyph glyph-name="" unicode="&#x30a;" d="M-156 592 q-44 0 -77.5 32.5 q-33.5 32.5 -33.5 78.5 q0 46 33.5 77.5 q33.5 31.5 77.5 31.5 q29 0 55 -14.5 q26 -14.5 41.5 -39.5 q15.5 -25 15.5 -55 q0 -47 -33.5 -79 q-33.5 -32 -78.5 -32 ZM-156 620 q34 0 58 23.5 q24 23.5 24 59.5 q0 35 -24 58 q-24 23 -58 23 q-34 0 -57.5 -23 q-23.5 -23 -23.5 -58 q0 -36 23.5 -59.5 q23.5 -23.5 57.5 -23.5 Z" /><glyph glyph-name="" unicode="&#x303;" d="M-137 623 q-20 0 -34.5 6.5 q-14.5 6.5 -39.5 21.5 q-34 21 -59 21 q-23 0 -44 -11 q-21 -11 -48 -33 l8 36 q24 20 43.5 29 q19.5 9 43.5 9 q18 0 33.5 -6.5 q15.5 -6.5 41.5 -21.5 q18 -10 31 -15.5 q13 -5.5 26 -5.5 q27 0 47.5 11.5 q20.5 11.5 45.5 33.5 l-8 -38 q-23 -19 -42 -28 q-19 -9 -45 -9 Z" /><glyph glyph-name="" unicode="&#x327;" d="M-421 -142 q42 0 68.5 21 q26.5 21 26.5 57 q0 30 -24 59 l33 1 q23 -28 23 -63 q0 -48 -37.5 -76.5 q-37.5 -28.5 -93.5 -28.5 l-19 0 l7 30 l16 0 Z" /></font>
</defs>
</svg>
