<?xml version="1.0" standalone="no"?><!DOCTYPE svg PUBLIC "-//W3C//DTD SVG 1.1//EN" "http://www.w3.org/Graphics/SVG/1.1/DTD/svg11.dtd" ><svg xmlns="http://www.w3.org/2000/svg"><metadata></metadata><defs><font id="fonteditor" horiz-adv-x="1509"><font-face font-family="." font-weight="800" font-stretch="normal" units-per-em="1000" panose-1="0 0 9 0 0 0 0 0 0 0" ascent="980" descent="-235" x-height="0" bbox="-513 -225 1448 1008" underline-thickness="50" underline-position="-75" unicode-range="U+0020-fb02" /><missing-glyph horiz-adv-x="471"  /><glyph glyph-name="" unicode=" " d="" /><glyph glyph-name="" unicode="a" d="M264 676 l197 0 l249 -676 l-192 0 l-41 129 l-239 0 l-41 -129 l-184 0 l251 676 ZM429 280 l-71 221 l-71 -221 l142 0 Z" /><glyph glyph-name="" unicode="å" d="M710 0 l-192 0 l-41 129 l-239 0 l-41 -129 l-184 0 l238 642 q-37 39 -37 91 q0 39 19.5 70.5 q19.5 31.5 52.5 49.5 q33 18 73 18 q39 0 71.5 -18 q32.5 -18 52 -49.5 q19.5 -31.5 19.5 -70.5 q0 -46 -31 -84 l239 -649 ZM359 785 q-23 0 -38 -14.5 q-15 -14.5 -15 -37.5 q0 -22 15 -37 q15 -15 38 -15 q21 0 36 15.5 q15 15.5 15 36.5 q0 23 -14.5 37.5 q-14.5 14.5 -36.5 14.5 ZM287 280 l142 0 l-71 221 l-71 -221 Z" /><glyph glyph-name="" unicode="æ" d="M467 676 l545 0 l0 -161 l-308 0 l0 -95 l269 0 l0 -158 l-269 0 l0 -100 l316 0 l0 -162 l-492 0 l0 129 l-239 0 l-87 -129 l-202 0 l467 676 ZM528 280 l0 205 l-138 -205 l138 0 Z" /><glyph glyph-name="" unicode="b" d="M343 676 q110 0 172.5 -48 q62.5 -48 62.5 -132 q0 -42 -21.5 -76 q-21.5 -34 -60.5 -57 q56 -25 88.5 -68.5 q32.5 -43.5 32.5 -98.5 q0 -90 -63 -143 q-63 -53 -173 -53 l-307 0 l0 676 l269 0 ZM319 411 q44 0 66.5 17 q22.5 17 22.5 48 q0 31 -23 49 q-23 18 -66 18 l-79 0 l0 -132 l79 0 ZM352 133 q46 0 70 19 q24 19 24 54 q0 31 -24 49 q-24 18 -68 18 l-114 0 l0 -140 l112 0 Z" /><glyph glyph-name="" unicode="c" d="M384 -12 q-99 0 -175 43 q-76 43 -118 122 q-42 79 -42 184 q0 99 44 179 q44 80 121 126 q77 46 172 46 q75 0 141 -31.5 q66 -31.5 105 -81.5 l-111 -112 q-52 60 -127 60 q-70 0 -113 -52 q-43 -52 -43 -134 q0 -52 20 -94 q20 -42 55.5 -66 q35.5 -24 80.5 -24 q75 0 135 64 l109 -115 q-44 -53 -109 -83.5 q-65 -30.5 -145 -30.5 Z" /><glyph glyph-name="" unicode="ç" d="M638 102 q-72 -86 -184 -107 q30 -38 30 -80 q0 -64 -52 -99.5 q-52 -35.5 -144 -35.5 l-44 0 l0 116 l39 0 q30 0 48 11 q18 11 18 30 q0 16 -6 28.5 q-6 12.5 -20 26.5 q-83 13 -145 58.5 q-62 45.5 -95.5 119 q-33.5 73.5 -33.5 167.5 q0 99 44 179 q44 80 121 126 q77 46 172 46 q75 0 141 -31.5 q66 -31.5 105 -81.5 l-111 -112 q-52 60 -127 60 q-70 0 -113 -52 q-43 -52 -43 -134 q0 -52 20 -94 q20 -42 55.5 -66 q35.5 -24 80.5 -24 q75 0 135 64 l109 -115 Z" /><glyph glyph-name="" unicode="d" d="M353 676 q99 0 177.5 -43 q78.5 -43 122 -120 q43.5 -77 43.5 -175 q0 -99 -44 -175.5 q-44 -76.5 -122 -119.5 q-78 -43 -177 -43 l-279 0 l0 676 l279 0 ZM345 163 q77 0 120.5 47 q43.5 47 43.5 128 q0 79 -43 127 q-43 48 -120 48 l-91 0 l0 -350 l90 0 Z" /><glyph glyph-name="" unicode="ð" d="M38 261 l0 155 l76 0 l0 260 l279 0 q99 0 177.5 -43 q78.5 -43 122 -120 q43.5 -77 43.5 -175 q0 -99 -44 -175.5 q-44 -76.5 -122 -119.5 q-78 -43 -177 -43 l-279 0 l0 261 l-76 0 ZM385 163 q77 0 120.5 47 q43.5 47 43.5 128 q0 79 -43 127 q-43 48 -120 48 l-91 0 l0 -97 l136 0 l0 -155 l-136 0 l0 -98 l90 0 Z" /><glyph glyph-name="" unicode="e" d="M74 676 l484 0 l0 -161 l-308 0 l0 -95 l269 0 l0 -158 l-269 0 l0 -100 l316 0 l0 -162 l-492 0 l0 676 Z" /><glyph glyph-name="" unicode="f" d="M74 676 l478 0 l0 -166 l-300 0 l0 -121 l262 0 l0 -166 l-262 0 l0 -223 l-178 0 l0 676 Z" /><glyph glyph-name="" unicode="g" d="M384 -12 q-99 0 -175 42.5 q-76 42.5 -118 121.5 q-42 79 -42 185 q0 99 45 179 q45 80 123 126 q78 46 174 46 q77 0 144 -31.5 q67 -31.5 106 -81.5 l-111 -112 q-25 29 -56.5 44.5 q-31.5 15.5 -74.5 15.5 q-75 0 -120 -51.5 q-45 -51.5 -45 -134.5 q0 -84 43 -134.5 q43 -50.5 113 -50.5 q62 0 108 22 l0 66 l-113 0 l0 139 l267 0 l0 -292 q-48 -45 -121.5 -72 q-73.5 -27 -146.5 -27 Z" /><glyph glyph-name="" unicode="h" d="M74 676 l183 0 l0 -244 l236 0 l0 244 l183 0 l0 -676 l-183 0 l0 257 l-236 0 l0 -257 l-183 0 l0 676 Z" /><glyph glyph-name="" unicode="i" d="M74 676 l183 0 l0 -676 l-183 0 l0 676 Z" /><glyph glyph-name="" unicode="j" d="M94 174 q68 0 107 39.5 q39 39.5 39 112.5 l0 350 l184 0 l0 -362 q0 -154 -80 -234 q-80 -80 -226 -80 l-79 0 l0 174 l55 0 Z" /><glyph glyph-name="" unicode="k" d="M253 676 l0 -246 l39 0 q35 0 56 8 q21 8 41.5 33.5 q20.5 25.5 48.5 79.5 l65 125 l203 0 l-112 -201 q-42 -74 -86 -121 l224 -354 l-213 0 l-161 261 q-16 -3 -34 -3 l-71 0 l0 -258 l-179 0 l0 676 l179 0 Z" /><glyph glyph-name="" unicode="l" d="M74 676 l183 0 l0 -501 l295 0 l0 -175 l-478 0 l0 676 Z" /><glyph glyph-name="" unicode="m" d="M74 676 l163 0 l209 -389 l211 389 l162 0 l0 -676 l-178 0 l0 358 l-124 -241 l-145 0 l-126 239 l0 -356 l-172 0 l0 676 Z" /><glyph glyph-name="" unicode="n" d="M74 676 l151 0 l274 -366 l0 366 l180 0 l0 -676 l-151 0 l-274 367 l0 -367 l-180 0 l0 676 Z" /><glyph glyph-name="" unicode="o" d="M388 -12 q-97 0 -174 43.5 q-77 43.5 -121 123 q-44 79.5 -44 183.5 q0 101 44.5 180.5 q44.5 79.5 122 124.5 q77.5 45 172.5 45 q96 0 174 -44.5 q78 -44.5 122.5 -124 q44.5 -79.5 44.5 -181.5 q0 -102 -44.5 -181.5 q-44.5 -79.5 -122.5 -124 q-78 -44.5 -174 -44.5 ZM388 153 q71 0 112.5 50.5 q41.5 50.5 41.5 134.5 q0 83 -41 134 q-41 51 -112 51 q-72 0 -112.5 -51 q-40.5 -51 -40.5 -134 q0 -83 40.5 -134 q40.5 -51 111.5 -51 Z" /><glyph glyph-name="" unicode="ø" d="M141 89 q-44 46 -68 109.5 q-24 63.5 -24 139.5 q0 101 44.5 180.5 q44.5 79.5 122 124.5 q77.5 45 172.5 45 q68 0 129 -23 l45 69 l173 0 l-98 -150 q44 -46 68 -109 q24 -63 24 -137 q0 -102 -44.5 -181.5 q-44.5 -79.5 -122.5 -124 q-78 -44.5 -174 -44.5 q-66 0 -125 21 l-44 -68 l-174 0 l96 148 ZM422 520 q-15 3 -33 3 q-72 0 -112.5 -51 q-40.5 -51 -40.5 -134 q0 -43 13 -84 l173 266 ZM388 153 q71 0 112.5 50.5 q41.5 50.5 41.5 134.5 q0 45 -12 81 l-171 -263 q14 -3 29 -3 Z" /><glyph glyph-name="" unicode="&#x152;" d="M379 -12 q-92 0 -167.5 44 q-75.5 44 -119 123.5 q-43.5 79.5 -43.5 182.5 q0 100 44 180 q44 80 119.5 125 q75.5 45 166.5 45 q44 0 85.5 -15 q41.5 -15 77.5 -43 l0 46 l484 0 l0 -161 l-308 0 l0 -95 l269 0 l0 -158 l-269 0 l0 -100 l316 0 l0 -162 l-492 0 l0 46 q-75 -58 -163 -58 ZM388 153 q71 0 112.5 50.5 q41.5 50.5 41.5 134.5 q0 83 -41 133.5 q-41 50.5 -112 50.5 q-71 0 -112 -50.5 q-41 -50.5 -41 -133.5 q0 -83 40.5 -134 q40.5 -51 111.5 -51 Z" /><glyph glyph-name="" unicode="p" d="M363 676 q78 0 137 -28.5 q59 -28.5 91.5 -81.5 q32.5 -53 32.5 -125 q0 -72 -32.5 -125.5 q-32.5 -53.5 -91.5 -82 q-59 -28.5 -137 -28.5 l-105 0 l0 -205 l-184 0 l0 676 l289 0 ZM333 356 q106 0 106 85 q0 42 -26.5 64.5 q-26.5 22.5 -79.5 22.5 l-75 0 l0 -172 l75 0 Z" /><glyph glyph-name="" unicode="þ" d="M258 676 l0 -77 l105 0 q78 0 137 -28.5 q59 -28.5 91.5 -82 q32.5 -53.5 32.5 -125.5 q0 -72 -32.5 -125.5 q-32.5 -53.5 -91.5 -82 q-59 -28.5 -137 -28.5 l-105 0 l0 -127 l-184 0 l0 676 l184 0 ZM333 278 q52 0 79 22 q27 22 27 63 q0 42 -27 65 q-27 23 -79 23 l-75 0 l0 -173 l75 0 Z" /><glyph glyph-name="" unicode="q" d="M515 10 q-61 -22 -127 -22 q-97 0 -174 43.5 q-77 43.5 -121 123 q-44 79.5 -44 183.5 q0 101 44.5 180.5 q44.5 79.5 122 124.5 q77.5 45 172.5 45 q96 0 174 -44.5 q78 -44.5 123 -124 q45 -79.5 45 -181.5 q0 -72 -23 -133.5 q-23 -61.5 -65 -108.5 l71 -95 l-128 -85 l-70 94 ZM390 145 q8 0 24 2 l-68 91 l128 85 l60 -81 q16 42 16 91 q0 85 -42.5 137.5 q-42.5 52.5 -116.5 52.5 q-74 0 -116.5 -52 q-42.5 -52 -42.5 -138 q0 -54 20 -96.5 q20 -42.5 56 -67 q36 -24.5 82 -24.5 Z" /><glyph glyph-name="" unicode="r" d="M355 676 q78 0 137.5 -27.5 q59.5 -27.5 92 -77 q32.5 -49.5 32.5 -114.5 q0 -56 -28.5 -99.5 q-28.5 -43.5 -78.5 -69.5 q41 -34 70 -94 l91 -194 l-197 0 l-50 109 q-20 44 -35.5 65.5 q-15.5 21.5 -37.5 32 q-22 10.5 -60 10.5 l-40 0 l0 -217 l-177 0 l0 676 l281 0 ZM329 363 q106 0 106 85 q0 86 -106 86 l-78 0 l0 -171 l78 0 Z" /><glyph glyph-name="" unicode="s" d="M326 -12 q-96 0 -170.5 26.5 q-74.5 26.5 -137.5 80.5 l92 129 q43 -34 99.5 -54.5 q56.5 -20.5 118.5 -20.5 q89 0 89 48 q0 19 -12.5 30.5 q-12.5 11.5 -36.5 18.5 q-24 7 -73 17 q-88 17 -140.5 42 q-52.5 25 -78 67 q-25.5 42 -25.5 110 q0 59 33 106 q33 47 94 73.5 q61 26.5 141 26.5 q85 0 152.5 -27 q67.5 -27 123.5 -85 l-103 -111 q-34 32 -80.5 48.5 q-46.5 16.5 -93.5 16.5 q-84 0 -84 -45 q0 -18 10.5 -28.5 q10.5 -10.5 37 -19 q26.5 -8.5 80.5 -19.5 q125 -26 182.5 -77 q57.5 -51 57.5 -139 q0 -98 -72.5 -156 q-72.5 -58 -203.5 -58 Z" /><glyph glyph-name="" unicode="&#x1e9e;" d="M463 -12 q-115 0 -192 66 l71 115 q24 -20 48.5 -28.5 q24.5 -8.5 58.5 -8.5 q37 0 56.5 18 q19.5 18 19.5 51 q0 70 -121 70 l-64 0 l0 98 l118 153 q-32 18 -76 18 q-43 0 -76.5 -23 q-33.5 -23 -52.5 -65 q-19 -42 -19 -97 l0 -355 l-171 0 l0 362 q0 97 39.5 170.5 q39.5 73.5 111.5 114.5 q72 41 166 41 q161 0 281 -109 l-150 -196 l18 -3 q72 -11 116.5 -62.5 q44.5 -51.5 44.5 -119.5 q0 -62 -28 -109.5 q-28 -47.5 -79.5 -74 q-51.5 -26.5 -119.5 -26.5 Z" /><glyph glyph-name="" unicode="t" d="M228 502 l-191 0 l0 174 l562 0 l0 -174 l-191 0 l0 -502 l-180 0 l0 502 Z" /><glyph glyph-name="" unicode="u" d="M374 -12 q-143 0 -225 85 q-82 85 -82 247 l0 356 l183 0 l0 -357 q0 -82 32 -124 q32 -42 92 -42 q62 0 94.5 42 q32.5 42 32.5 124 l0 357 l183 0 l0 -356 q0 -102 -38.5 -177 q-38.5 -75 -108.5 -115 q-70 -40 -163 -40 Z" /><glyph glyph-name="" unicode="v" d="M13 676 l210 0 l151 -463 l149 463 l206 0 l-255 -676 l-207 0 l-254 676 Z" /><glyph glyph-name="" unicode="w" d="M24 676 l201 0 l88 -448 l113 400 l195 0 l107 -400 l93 448 l195 0 l-188 -676 l-199 0 l-113 395 l-114 -395 l-195 0 l-183 676 Z" /><glyph glyph-name="" unicode="x" d="M259 351 l-231 325 l221 0 l129 -192 l119 192 l214 0 l-226 -325 l243 -351 l-219 0 l-144 220 l-137 -220 l-214 0 l245 351 Z" /><glyph glyph-name="" unicode="y" d="M262 244 l-248 432 l210 0 l132 -255 l132 255 l203 0 l-246 -428 l0 -248 l-183 0 l0 244 Z" /><glyph glyph-name="" unicode="z" d="M47 143 l309 367 l-299 0 l0 166 l525 0 l0 -143 l-308 -366 l318 0 l0 -167 l-545 0 l0 143 Z" /><glyph glyph-name="" unicode="a" d="M209 -12 q-81 0 -128 42 q-47 42 -47 118 q0 75 59.5 118 q59.5 43 167.5 43 l95 0 q-3 96 -90 96 q-36 0 -71 -12.5 q-35 -12.5 -63 -36.5 l-82 98 q47 41 103.5 63 q56.5 22 116.5 22 q121 0 183.5 -64.5 q62.5 -64.5 62.5 -183.5 l0 -291 l-126 0 l-17 53 q-34 -30 -76 -47.5 q-42 -17.5 -88 -17.5 ZM241 111 q67 0 115 50 l0 44 l-101 0 q-32 0 -51 -13 q-19 -13 -19 -36 q0 -20 16 -32.5 q16 -12.5 40 -12.5 Z" /><glyph glyph-name="" unicode="æ" d="M222 -12 q-89 0 -138.5 41.5 q-49.5 41.5 -49.5 117.5 q0 74 60 118 q60 44 169 44 l97 0 q-3 96 -92 96 q-37 0 -72 -12.5 q-35 -12.5 -64 -36.5 l-82 98 q48 41 104 63 q56 22 118 22 q58 0 100 -23 q42 -23 67 -63 q37 40 85 63 q48 23 102 23 q76 0 133 -34 q57 -34 87.5 -97 q30.5 -63 30.5 -147 l0 -40 l-356 0 q8 -45 42.5 -70.5 q34.5 -25.5 85.5 -25.5 q71 0 116 47 l95 -89 q-86 -95 -224 -95 q-68 0 -121.5 22.5 q-53.5 22.5 -88.5 64.5 q-38 -40 -90 -63.5 q-52 -23.5 -114 -23.5 ZM714 323 q-2 41 -25.5 64.5 q-23.5 23.5 -65.5 23.5 q-40 0 -65.5 -23 q-25.5 -23 -34.5 -65 l191 0 ZM243 111 q70 0 131 66 q-4 13 -6 28 l-111 0 q-34 0 -53 -13 q-19 -13 -19 -36 q0 -21 16.5 -33 q16.5 -12 41.5 -12 Z" /><glyph glyph-name="" unicode="b" d="M369 -10 q-91 0 -158 57 l-16 -47 l-132 0 l0 721 l177 24 l0 -260 q32 26 69 40 q37 14 75 14 q67 0 119 -34 q52 -34 81 -96 q29 -62 29 -144 q0 -77 -33 -140 q-33 -63 -89 -99 q-56 -36 -122 -36 ZM324 139 q54 0 85 33.5 q31 33.5 31 95.5 q0 54 -27 85 q-27 31 -77 31 q-56 0 -96 -50 l0 -169 q37 -26 84 -26 Z" /><glyph glyph-name="" unicode="c" d="M314 -12 q-81 0 -142.5 32.5 q-61.5 32.5 -95.5 95 q-34 62.5 -34 149.5 q0 77 35.5 139.5 q35.5 62.5 98 98.5 q62.5 36 140.5 36 q60 0 113.5 -25 q53.5 -25 85.5 -66 l-96 -104 q-41 44 -95 44 q-49 0 -78.5 -34 q-29.5 -34 -29.5 -89 q0 -56 30 -91 q30 -35 77 -35 q57 0 103 46 l95 -107 q-38 -42 -91.5 -66 q-53.5 -24 -115.5 -24 Z" /><glyph glyph-name="" unicode="ç" d="M521 78 q-29 -32 -67.5 -54 q-38.5 -22 -82.5 -31 q25 -33 25 -73 q0 -60 -47 -94 q-47 -34 -126 -34 l-39 0 l0 108 l34 0 q26 0 40.5 10.5 q14.5 10.5 14.5 29.5 q0 16 -5 27 q-5 11 -17 26 q-97 18 -153 88.5 q-56 70.5 -56 183.5 q0 77 35.5 139.5 q35.5 62.5 98 98.5 q62.5 36 140.5 36 q60 0 113.5 -25 q53.5 -25 85.5 -66 l-96 -104 q-41 44 -95 44 q-49 0 -78.5 -34 q-29.5 -34 -29.5 -89 q0 -56 30 -91 q30 -35 77 -35 q57 0 103 46 l95 -107 Z" /><glyph glyph-name="" unicode="d" d="M271 -12 q-67 0 -119 33.5 q-52 33.5 -81 96 q-29 62.5 -29 146.5 q0 78 34 140.5 q34 62.5 92.5 97.5 q58.5 35 129.5 35 q60 0 117 -34 l0 218 l177 24 l0 -745 l-132 0 l-21 62 q-36 -35 -79 -54.5 q-43 -19.5 -89 -19.5 ZM319 142 q55 0 96 50 l0 171 q-38 26 -85 26 q-53 0 -83.5 -34 q-30.5 -34 -30.5 -96 q0 -55 26.5 -86 q26.5 -31 76.5 -31 Z" /><glyph glyph-name="" unicode="ð" d="M312 -12 q-79 0 -141 32.5 q-62 32.5 -97 92.5 q-35 60 -35 139 q0 67 30 121.5 q30 54.5 84 86 q54 31.5 122 31.5 q58 0 111 -28 q-21 49 -58 99 l-152 -36 l0 94 l81 20 q-38 35 -78 62 l179 43 q38 -28 71 -64 l123 30 l0 -95 l-60 -14 q45 -70 69 -152 q24 -82 24 -171 q0 -137 -72 -214 q-72 -77 -201 -77 ZM311 136 q56 0 84 40 q28 40 28 105 q0 25 -3 49 q-21 18 -47.5 28 q-26.5 10 -51.5 10 q-51 0 -81.5 -31.5 q-30.5 -31.5 -30.5 -84.5 q0 -53 27.5 -84.5 q27.5 -31.5 74.5 -31.5 Z" /><glyph glyph-name="" unicode="e" d="M317 -12 q-83 0 -145.5 34.5 q-62.5 34.5 -96 97.5 q-33.5 63 -33.5 147 q0 78 35 140 q35 62 96 97 q61 35 135 35 q74 0 130.5 -34 q56.5 -34 87 -97 q30.5 -63 30.5 -147 l0 -40 l-356 0 q8 -46 43 -71 q35 -25 86 -25 q71 0 116 47 l95 -89 q-86 -95 -223 -95 ZM394 323 q-2 40 -25.5 64 q-23.5 24 -62.5 24 q-37 0 -64.5 -23.5 q-27.5 -23.5 -37.5 -64.5 l190 0 Z" /><glyph glyph-name="" unicode="f" d="M63 506 q0 73 30 128 q30 55 84.5 85 q54.5 30 125.5 30 q54 0 99.5 -16.5 q45.5 -16.5 78.5 -46.5 l-72 -104 q-18 14 -36.5 21.5 q-18.5 7.5 -43.5 7.5 q-42 0 -65.5 -23 q-23.5 -23 -23.5 -65 l0 -3 l196 0 l0 -146 l-196 0 l0 -374 l-177 0 l0 506 Z" /><glyph glyph-name="" unicode="g" d="M291 -225 q-81 0 -147 24 q-66 24 -104 66 l85 109 q61 -55 157 -55 q55 0 91 36.5 q36 36.5 36 96.5 l0 22 q-64 -50 -139 -50 q-67 0 -119.5 29.5 q-52.5 29.5 -82 85.5 q-29.5 56 -29.5 132 q0 79 33.5 140 q33.5 61 92 94.5 q58.5 33.5 129.5 33.5 q38 0 76 -14.5 q38 -14.5 69 -39.5 l14 42 l133 0 l0 -475 q0 -81 -37 -144 q-37 -63 -104.5 -98 q-67.5 -35 -153.5 -35 ZM315 164 q54 0 94 49 l0 157 q-37 26 -82 26 q-53 0 -84.5 -31.5 q-31.5 -31.5 -31.5 -92.5 q0 -50 27.5 -79 q27.5 -29 76.5 -29 Z" /><glyph glyph-name="" unicode="h" d="M240 745 l0 -262 q67 56 152 56 q94 0 146.5 -63.5 q52.5 -63.5 52.5 -177.5 l0 -298 l-177 0 l0 278 q0 55 -18.5 80.5 q-18.5 25.5 -62.5 25.5 q-26 0 -50.5 -14.5 q-24.5 -14.5 -42.5 -40.5 l0 -329 l-177 0 l0 721 l177 24 Z" /><glyph glyph-name="" unicode="&#x131;" d="M63 527 l177 0 l0 -527 l-177 0 l0 527 Z" /><glyph glyph-name="" unicode="&#x237;" d="M-17 -64 q37 0 58.5 21.5 q21.5 21.5 21.5 59.5 l0 510 l177 0 l0 -505 q0 -110 -56.5 -167.5 q-56.5 -57.5 -162.5 -57.5 l-54 0 l0 139 l16 0 Z" /><glyph glyph-name="" unicode="k" d="M236 745 l0 -408 l18 0 q29 0 44 5 q15 5 33.5 26 q18.5 21 46.5 71 l49 88 l193 0 l-92 -155 q-35 -57 -71 -96 l183 -276 l-201 0 l-123 192 q-18 -2 -27 -2 l-53 0 l0 -190 l-173 0 l0 721 l173 24 Z" /><glyph glyph-name="" unicode="l" d="M269 -8 q-104 0 -158 58 q-54 58 -54 169 l0 502 l177 24 l0 -525 q0 -39 20 -61 q20 -22 56 -22 l13 0 l0 -145 l-54 0 Z" /><glyph glyph-name="" unicode="m" d="M197 527 l19 -63 q70 75 163 75 q52 0 91 -21.5 q39 -21.5 62 -63.5 q74 85 176 85 q89 0 138.5 -63.5 q49.5 -63.5 49.5 -177.5 l0 -298 l-176 0 l0 278 q0 51 -14.5 78.5 q-14.5 27.5 -56.5 27.5 q-23 0 -45 -14 q-22 -14 -38 -39 q1 -11 1 -33 l0 -298 l-175 0 l0 278 q0 51 -15 78.5 q-15 27.5 -57 27.5 q-23 0 -44.5 -14.5 q-21.5 -14.5 -37.5 -41.5 l0 -328 l-175 0 l0 527 l134 0 Z" /><glyph glyph-name="" unicode="n" d="M197 527 l20 -65 q75 77 175 77 q94 0 146.5 -63.5 q52.5 -63.5 52.5 -177.5 l0 -298 l-177 0 l0 278 q0 55 -18.5 80.5 q-18.5 25.5 -62.5 25.5 q-26 0 -50.5 -14.5 q-24.5 -14.5 -42.5 -40.5 l0 -329 l-177 0 l0 527 l134 0 Z" /><glyph glyph-name="" unicode="o" d="M320 -12 q-80 0 -143.5 34 q-63.5 34 -99 97 q-35.5 63 -35.5 146 q0 80 36.5 142 q36.5 62 100 97 q63.5 35 141.5 35 q80 0 144 -34.5 q64 -34.5 100 -97 q36 -62.5 36 -143.5 q0 -81 -36.5 -144 q-36.5 -63 -100.5 -97.5 q-64 -34.5 -143 -34.5 ZM319 139 q49 0 78 34 q29 34 29 91 q0 56 -28 90 q-28 34 -77 34 q-48 0 -76.5 -33.5 q-28.5 -33.5 -28.5 -89.5 q0 -57 28 -91.5 q28 -34.5 75 -34.5 Z" /><glyph glyph-name="" unicode="ø" d="M117 67 q-36 37 -55.5 87.5 q-19.5 50.5 -19.5 110.5 q0 80 36.5 142 q36.5 62 100 97 q63.5 35 141.5 35 q61 0 113 -20 l42 60 l130 0 l-82 -118 q37 -37 57 -87 q20 -50 20 -110 q0 -81 -36.5 -144 q-36.5 -63 -100.5 -97.5 q-64 -34.5 -143 -34.5 q-62 0 -114 20 l-42 -60 l-130 0 l83 119 ZM340 386 q-12 2 -19 2 q-48 0 -76.5 -33.5 q-28.5 -33.5 -28.5 -89.5 q0 -25 6 -48 l118 169 ZM319 139 q49 0 78 34 q29 34 29 91 q0 28 -7 49 l-120 -172 q12 -2 20 -2 Z" /><glyph glyph-name="" unicode="&#x153;" d="M320 -12 q-80 0 -143.5 34 q-63.5 34 -99 97 q-35.5 63 -35.5 146 q0 80 36.5 142 q36.5 62 100 97 q63.5 35 141.5 35 q58 0 108.5 -25 q50.5 -25 86.5 -69 q36 44 86 69 q50 25 109 25 q76 0 132.5 -34 q56.5 -34 87 -97 q30.5 -63 30.5 -147 l0 -40 l-359 0 q9 -45 44 -70.5 q35 -25.5 87 -25.5 q70 0 117 47 l95 -89 q-88 -95 -225 -95 q-66 0 -118 24.5 q-52 24.5 -88 68.5 q-36 -44 -86.5 -68.5 q-50.5 -24.5 -106.5 -24.5 ZM798 321 q-2 40 -27 64 q-25 24 -66 24 q-41 0 -67 -23 q-26 -23 -35 -65 l195 0 ZM319 139 q49 0 78 34 q29 34 29 91 q0 56 -28 90 q-28 34 -77 34 q-48 0 -76.5 -33.5 q-28.5 -33.5 -28.5 -89.5 q0 -57 28 -91.5 q28 -34.5 75 -34.5 Z" /><glyph glyph-name="" unicode="p" d="M196 527 l21 -63 q35 36 78.5 55.5 q43.5 19.5 88.5 19.5 q67 0 119 -34 q52 -34 81 -96 q29 -62 29 -145 q0 -79 -33.5 -141 q-33.5 -62 -92 -97 q-58.5 -35 -130.5 -35 q-57 0 -117 34 l0 -222 l-177 -24 l0 748 l133 0 ZM324 138 q54 0 85 34 q31 34 31 96 q0 54 -27 85 q-27 31 -77 31 q-56 0 -96 -50 l0 -170 q37 -26 84 -26 Z" /><glyph glyph-name="" unicode="þ" d="M240 745 l0 -260 q32 26 69 40 q37 14 75 14 q67 0 119 -34 q52 -34 81 -96 q29 -62 29 -144 q0 -79 -33.5 -141 q-33.5 -62 -92 -97 q-58.5 -35 -130.5 -35 q-30 0 -60.5 10 q-30.5 10 -56.5 28 l0 -229 l-177 -22 l0 942 l177 24 ZM324 139 q54 0 85 33.5 q31 33.5 31 95.5 q0 54 -27 85 q-27 31 -77 31 q-56 0 -96 -50 l0 -169 q37 -26 84 -26 Z" /><glyph glyph-name="" unicode="q" d="M415 42 q-67 -53 -144 -53 q-67 0 -119 33.5 q-52 33.5 -81 96 q-29 62.5 -29 146.5 q0 79 34 141.5 q34 62.5 92.5 97.5 q58.5 35 129.5 35 q38 0 76.5 -15 q38.5 -15 70.5 -40 l14 43 l133 0 l0 -724 l-177 -24 l0 263 ZM319 143 q55 0 96 50 l0 171 q-40 27 -86 27 q-53 0 -83 -34 q-30 -34 -30 -97 q0 -55 26.5 -86 q26.5 -31 76.5 -31 Z" /><glyph glyph-name="" unicode="r" d="M197 527 l22 -69 q39 40 86.5 59 q47.5 19 108.5 19 l12 0 l0 -144 l-17 0 q-52 0 -97 -16 q-45 -16 -72 -50 l0 -326 l-177 0 l0 527 l134 0 Z" /><glyph glyph-name="" unicode="s" d="M271 -12 q-73 0 -138.5 21.5 q-65.5 21.5 -110.5 57.5 l74 107 q30 -25 78 -39.5 q48 -14.5 99 -14.5 q35 0 50 7.5 q15 7.5 15 24.5 q0 18 -19.5 28 q-19.5 10 -72.5 19 q-105 17 -152 56 q-47 39 -47 120 q0 48 27 85.5 q27 37.5 76.5 58 q49.5 20.5 114.5 20.5 q68 0 127.5 -22 q59.5 -22 99.5 -62 l-85 -95 q-28 24 -65.5 36.5 q-37.5 12.5 -77.5 12.5 q-60 0 -60 -30 q0 -12 7 -19 q7 -7 26.5 -13 q19.5 -6 62.5 -14 q99 -19 147 -60 q48 -41 48 -116 q0 -79 -59 -124 q-59 -45 -165 -45 Z" /><glyph glyph-name="" unicode="ß" d="M482 -12 q-69 0 -116.5 12.5 q-47.5 12.5 -84.5 36.5 l55 116 q43 -25 102 -25 q29 0 47 13.5 q18 13.5 18 35.5 q0 29 -16 42.5 q-16 13.5 -37 21.5 q-21 8 -29 11 q-36 15 -56 26.5 q-20 11.5 -34 33 q-14 21.5 -14 56.5 q0 23 9.5 42 q9.5 19 26.5 41 q17 21 25.5 38 q8.5 17 8.5 36 q0 36 -17 52.5 q-17 16.5 -51 16.5 q-43 0 -62.5 -30.5 q-19.5 -30.5 -19.5 -83.5 l0 -480 l-174 0 l0 460 q0 134 70 209.5 q70 75.5 195 75.5 q75 0 127.5 -23 q52.5 -23 78.5 -60.5 q26 -37.5 26 -80.5 q0 -33 -13 -59.5 q-13 -26.5 -34 -51.5 q-15 -17 -23.5 -31 q-8.5 -14 -8.5 -28 q0 -19 14.5 -31 q14.5 -12 46.5 -26 q31 -15 37 -19 q42 -24 68.5 -61 q26.5 -37 26.5 -103 q0 -53 -24 -94.5 q-24 -41.5 -68 -65 q-44 -23.5 -100 -23.5 Z" /><glyph glyph-name="" unicode="t" d="M289 -12 q-106 0 -166 61 q-60 61 -60 170 l0 436 l177 23 l0 -151 l191 0 l0 -146 l-191 0 l0 -159 q0 -39 19 -60.5 q19 -21.5 54 -21.5 q23 0 40 6.5 q17 6.5 34 20.5 l79 -108 q-35 -34 -81 -52.5 q-46 -18.5 -96 -18.5 Z" /><glyph glyph-name="" unicode="u" d="M253 -12 q-95 0 -146 63 q-51 63 -51 177 l0 299 l177 0 l0 -278 q0 -56 17.5 -81.5 q17.5 -25.5 62.5 -25.5 q25 0 49 14.5 q24 14.5 42 40.5 l0 330 l177 0 l0 -527 l-133 0 l-21 65 q-74 -77 -174 -77 Z" /><glyph glyph-name="" unicode="v" d="M10 527 l195 0 l119 -355 l120 355 l192 0 l-215 -527 l-198 0 l-213 527 Z" /><glyph glyph-name="" unicode="w" d="M14 527 l185 0 l66 -333 l85 297 l180 0 l81 -297 l70 333 l181 0 l-156 -527 l-186 0 l-85 301 l-87 -301 l-181 0 l-153 527 Z" /><glyph glyph-name="" unicode="x" d="M217 274 l-193 253 l201 0 l100 -137 l92 137 l196 0 l-190 -254 l204 -273 l-201 0 l-111 158 l-105 -158 l-198 0 l205 274 Z" /><glyph glyph-name="" unicode="y" d="M113 -53 q80 0 130 79 l-238 501 l198 0 l120 -301 l111 301 l189 0 l-215 -514 q-45 -107 -110.5 -161.5 q-65.5 -54.5 -170.5 -54.5 l-55 0 l0 150 l41 0 Z" /><glyph glyph-name="" unicode="z" d="M52 109 l247 277 l-239 0 l0 141 l452 0 l0 -109 l-241 -277 l248 0 l0 -141 l-467 0 l0 109 Z" /><glyph glyph-name="" unicode="ª" d="M167 263 q-65 0 -102 32 q-37 32 -37 91 q0 58 45.5 91.5 q45.5 33.5 121.5 33.5 l79 0 q-3 61 -63 61 q-60 0 -102 -35 l-71 85 q80 66 177 66 q96 0 146.5 -51 q50.5 -51 50.5 -143 l0 -223 l-108 0 l-14 39 q-57 -47 -123 -47 ZM195 366 q45 0 79 32 l0 28 l-74 0 q-44 0 -44 -31 q0 -14 11 -21.5 q11 -7.5 28 -7.5 Z" /><glyph glyph-name="" unicode="º" d="M248 263 q-63 0 -113 26.5 q-50 26.5 -78.5 74.5 q-28.5 48 -28.5 112 q0 62 28.5 110.5 q28.5 48.5 79 75 q50.5 26.5 112.5 26.5 q63 0 113 -26.5 q50 -26.5 78.5 -75 q28.5 -48.5 28.5 -111.5 q0 -63 -29 -111 q-29 -48 -79.5 -74.5 q-50.5 -26.5 -111.5 -26.5 ZM247 395 q32 0 51 21.5 q19 21.5 19 58.5 q0 37 -18 59 q-18 22 -50 22 q-32 0 -50.5 -21.5 q-18.5 -21.5 -18.5 -58.5 q0 -37 18 -59 q18 -22 49 -22 Z" /><glyph glyph-name="" unicode="&#x3bc;" d="M240 527 l0 -278 q0 -56 17.5 -81.5 q17.5 -25.5 61.5 -25.5 q52 0 92 54 l0 331 l177 0 l0 -527 l-133 0 l-21 65 q-74 -77 -174 -77 q-13 0 -20 1 l0 -188 l-177 -22 l0 748 l177 0 Z" /><glyph glyph-name="" unicode="0" d="M323 -12 q-84 0 -145.5 41 q-61.5 41 -95 118 q-33.5 77 -33.5 182 q0 102 34 178.5 q34 76.5 96 118.5 q62 42 144 42 q83 0 145 -41 q62 -41 96 -118 q34 -77 34 -180 q0 -105 -34 -182 q-34 -77 -96 -118 q-62 -41 -145 -41 ZM323 157 q93 0 93 172 q0 82 -20 126.5 q-20 44.5 -70 44.5 q-95 0 -95 -171 q0 -82 21 -127 q21 -45 71 -45 Z" /><glyph glyph-name="" unicode="1" d="M187 490 l-154 -40 l0 144 l191 63 l140 0 l0 -657 l-177 0 l0 490 Z" /><glyph glyph-name="" unicode="2" d="M270 317 q53 49 72 72 q19 23 19 46 q0 66 -80 66 q-33 0 -70.5 -18 q-37.5 -18 -73.5 -54 l-106 123 q58 58 126.5 87 q68.5 29 142.5 29 q72 0 127 -25.5 q55 -25.5 85.5 -71.5 q30.5 -46 30.5 -106 q0 -53 -25 -99.5 q-25 -46.5 -78 -96.5 l-117 -111 l218 0 l0 -158 l-487 0 l0 115 l216 202 Z" /><glyph glyph-name="" unicode="3" d="M270 -12 q-74 0 -137.5 24.5 q-63.5 24.5 -104.5 68.5 l90 112 q61 -52 144 -52 q43 0 70.5 18.5 q27.5 18.5 27.5 49.5 q0 31 -25 46.5 q-25 15.5 -73 15.5 l-105 0 l0 107 l148 125 l-256 0 l0 154 l468 0 l0 -119 l-165 -144 q87 -11 138 -61 q51 -50 51 -128 q0 -104 -72.5 -160.5 q-72.5 -56.5 -198.5 -56.5 Z" /><glyph glyph-name="" unicode="4" d="M343 139 l-311 0 l0 125 l311 393 l158 0 l0 -370 l78 0 l0 -148 l-78 0 l0 -139 l-158 0 l0 139 ZM343 287 l0 168 l-130 -168 l130 0 Z" /><glyph glyph-name="" unicode="5" d="M251 -12 q-70 0 -132 25.5 q-62 25.5 -103 69.5 l95 109 q30 -26 61 -38.5 q31 -12.5 70 -12.5 q42 0 67 18 q25 18 25 49 q0 31 -20 47.5 q-20 16.5 -59 16.5 l-198 0 l0 108 l55 277 l363 0 l0 -155 l-253 0 l-12 -85 l60 0 q117 0 181.5 -53 q64.5 -53 64.5 -152 q0 -105 -70.5 -164.5 q-70.5 -59.5 -194.5 -59.5 Z" /><glyph glyph-name="" unicode="6" d="M316 -12 q-82 0 -142.5 38 q-60.5 38 -93 111.5 q-32.5 73.5 -32.5 175.5 q0 105 37.5 186 q37.5 81 105 125 q67.5 44 152.5 44 q65 0 122.5 -22.5 q57.5 -22.5 97.5 -69.5 l-93 -109 q-50 47 -115 47 q-54 0 -89.5 -31 q-35.5 -31 -47.5 -94 q66 27 130 27 q65 0 114 -24.5 q49 -24.5 75.5 -69 q26.5 -44.5 26.5 -101.5 q0 -68 -30 -120.5 q-30 -52.5 -86 -82.5 q-56 -30 -132 -30 ZM317 138 q45 0 68.5 19.5 q23.5 19.5 23.5 55.5 q0 31 -24.5 50 q-24.5 19 -65.5 19 q-61 0 -106 -15 q5 -63 32 -96 q27 -33 72 -33 Z" /><glyph glyph-name="" unicode="7" d="M325 495 l-289 0 l0 162 l498 0 l0 -92 l-232 -565 l-190 0 l213 495 Z" /><glyph glyph-name="" unicode="8" d="M313 -12 q-124 0 -196.5 49.5 q-72.5 49.5 -72.5 135.5 q0 46 26.5 87.5 q26.5 41.5 71.5 74.5 q-77 55 -77 147 q0 55 32 97 q32 42 88.5 65.5 q56.5 23.5 125.5 23.5 q74 0 130 -22 q56 -22 86.5 -62.5 q30.5 -40.5 30.5 -94.5 q0 -73 -79 -136 q101 -62 101 -170 q0 -57 -34 -101 q-34 -44 -95 -69 q-61 -25 -138 -25 ZM359 399 q22 15 33.5 33.5 q11.5 18.5 11.5 36.5 q0 29 -24.5 45 q-24.5 16 -65.5 16 q-41 0 -66 -14.5 q-25 -14.5 -25 -40.5 q0 -29 28 -43 q28 -14 95 -30 l13 -3 ZM314 131 q45 0 72.5 17.5 q27.5 17.5 27.5 50.5 q0 27 -17.5 42.5 q-17.5 15.5 -41 22 q-23.5 6.5 -78.5 18.5 l-14 3 q-55 -32 -55 -80 q0 -33 29.5 -53.5 q29.5 -20.5 76.5 -20.5 Z" /><glyph glyph-name="" unicode="9" d="M267 -12 q-66 0 -124.5 23 q-58.5 23 -101.5 69 l86 111 q30 -25 61 -36.5 q31 -11.5 68 -11.5 q120 0 140 125 q-66 -28 -133 -28 q-65 0 -114 26.5 q-49 26.5 -76 73 q-27 46.5 -27 104.5 q0 66 31.5 117 q31.5 51 88 79 q56.5 28 129.5 28 q125 0 196.5 -84.5 q71.5 -84.5 71.5 -238.5 q0 -112 -37 -192.5 q-37 -80.5 -104 -122.5 q-67 -42 -155 -42 ZM291 373 q63 0 108 14 q-4 62 -32 96.5 q-28 34.5 -73 34.5 q-43 0 -67.5 -19 q-24.5 -19 -24.5 -51 q0 -37 22.5 -56 q22.5 -19 66.5 -19 Z" /><glyph glyph-name="" unicode="&#x2070;" d="M247 320 q-85 0 -135.5 54.5 q-50.5 54.5 -50.5 150.5 q0 93 51 148 q51 55 135 55 q85 0 136 -55 q51 -55 51 -148 q0 -95 -51 -150 q-51 -55 -136 -55 ZM247 438 q31 0 43.5 22 q12.5 22 12.5 64 q0 42 -12 64.5 q-12 22.5 -42 22.5 q-31 0 -44 -22.5 q-13 -22.5 -13 -64.5 q0 -41 12 -63.5 q12 -22.5 43 -22.5 Z" /><glyph glyph-name="" unicode="¹" d="M168 607 l-95 -22 l0 98 l123 39 l97 0 l0 -394 l-125 0 l0 279 Z" /><glyph glyph-name="" unicode="²" d="M206 521 l20 16 q22 18 30 26.5 q8 8.5 8 18.5 q0 29 -46 29 q-21 0 -45.5 -11 q-24.5 -11 -48.5 -32 l-70 88 q37 34 82.5 53.5 q45.5 19.5 96.5 19.5 q73 0 118 -34.5 q45 -34.5 45 -91.5 q0 -35 -15.5 -61 q-15.5 -26 -51.5 -53 l-67 -50 l131 0 l0 -111 l-324 0 l0 81 l137 112 Z" /><glyph glyph-name="" unicode="³" d="M225 320 q-50 0 -91.5 16 q-41.5 16 -66.5 44 l69 74 q33 -29 83 -29 q26 0 42 8 q16 8 16 22 q0 12 -12 19.5 q-12 7.5 -33 7.5 l-83 0 l0 73 l84 60 l-153 0 l0 106 l298 0 l0 -76 l-96 -78 q56 -7 89 -37.5 q33 -30.5 33 -77.5 q0 -63 -48 -97.5 q-48 -34.5 -131 -34.5 Z" /><glyph glyph-name="" unicode="&#x2074;" d="M256 408 l-201 0 l0 78 l201 236 l111 0 l0 -214 l50 0 l0 -100 l-50 0 l0 -80 l-111 0 l0 80 ZM256 508 l0 81 l-72 -81 l72 0 Z" /><glyph glyph-name="" unicode="&#x2075;" d="M206 320 q-51 0 -91 16 q-40 16 -64 44 l71 75 q17 -15 34.5 -21 q17.5 -6 44.5 -6 q24 0 38.5 7.5 q14.5 7.5 14.5 20.5 q0 26 -44 26 l-131 0 l0 75 l35 164 l242 0 l0 -107 l-164 0 l-7 -36 l36 0 q78 0 120.5 -31 q42.5 -31 42.5 -89 q0 -65 -47.5 -101.5 q-47.5 -36.5 -130.5 -36.5 Z" /><glyph glyph-name="" unicode="&#x2076;" d="M241 320 q-86 0 -132.5 50.5 q-46.5 50.5 -46.5 142.5 q0 63 25 112 q25 49 70 76 q45 27 103 27 q47 0 85 -14.5 q38 -14.5 64 -43.5 l-63 -75 q-18 15 -36.5 21 q-18.5 6 -41.5 6 q-66 0 -86 -54 q39 13 81 13 q65 0 104 -32.5 q39 -32.5 39 -86.5 q0 -63 -44.5 -102.5 q-44.5 -39.5 -120.5 -39.5 ZM241 423 q29 0 43 8 q14 8 14 26 q0 15 -14.5 23.5 q-14.5 8.5 -40.5 8.5 q-36 0 -66 -8 q4 -28 21 -43 q17 -15 43 -15 Z" /><glyph glyph-name="" unicode="&#x2077;" d="M240 609 l-175 0 l0 113 l320 0 l0 -57 l-141 -337 l-130 0 l126 281 Z" /><glyph glyph-name="" unicode="&#x2078;" d="M246 320 q-78 0 -125.5 30.5 q-47.5 30.5 -47.5 81.5 q0 27 15.5 51 q15.5 24 42.5 44 q-45 34 -45 87 q0 50 45 82 q45 32 113 32 q72 0 115 -30 q43 -30 43 -80 q0 -40 -45 -78 q28 -17 44 -42.5 q16 -25.5 16 -57.5 q0 -53 -48 -86.5 q-48 -33.5 -123 -33.5 ZM272 572 q25 14 25 34 q0 12 -14.5 20 q-14.5 8 -36.5 8 q-22 0 -36.5 -7 q-14.5 -7 -14.5 -17 q0 -14 15.5 -21 q15.5 -7 51.5 -15 l10 -2 ZM244 418 q26 0 43 8 q17 8 17 24 q0 17 -16.5 23.5 q-16.5 6.5 -58.5 15.5 l-14 3 q-30 -16 -30 -39 q0 -16 16.5 -25.5 q16.5 -9.5 42.5 -9.5 Z" /><glyph glyph-name="" unicode="&#x2079;" d="M192 320 q-46 0 -84 15 q-38 15 -64 43 l60 76 q19 -16 38 -22 q19 -6 43 -6 q68 0 86 56 q-40 -15 -81 -15 q-66 0 -105.5 34.5 q-39.5 34.5 -39.5 87.5 q0 62 45 100.5 q45 38.5 120 38.5 q85 0 132 -52.5 q47 -52.5 47 -139.5 q0 -100 -53.5 -158 q-53.5 -58 -143.5 -58 ZM209 560 q40 0 67 7 q-5 27 -22.5 42.5 q-17.5 15.5 -43.5 15.5 q-27 0 -41.5 -8.5 q-14.5 -8.5 -14.5 -23.5 q0 -17 13 -25 q13 -8 42 -8 Z" /><glyph glyph-name="" unicode="&#x2044;" d="M257 657 l174 0 l-479 -657 l-174 0 l479 657 Z" /><glyph glyph-name="" unicode="." d="M125 -11 q-42 0 -70.5 27.5 q-28.5 27.5 -28.5 69.5 q0 43 28.5 70.5 q28.5 27.5 70.5 27.5 q44 0 72 -27.5 q28 -27.5 28 -70.5 q0 -43 -28 -70 q-28 -27 -72 -27 Z" /><glyph glyph-name="" unicode="," d="M0 -121 q26 71 42.5 146 q16.5 75 21.5 134 l159 0 q-5 -68 -27.5 -143 q-22.5 -75 -55.5 -137 l-140 0 Z" /><glyph glyph-name="" unicode=":" d="M125 340 q-42 0 -70.5 27.5 q-28.5 27.5 -28.5 69.5 q0 43 28.5 70.5 q28.5 27.5 70.5 27.5 q44 0 72 -27.5 q28 -27.5 28 -70.5 q0 -43 -28 -70 q-28 -27 -72 -27 ZM125 -11 q-42 0 -70.5 27.5 q-28.5 27.5 -28.5 69.5 q0 43 28.5 70.5 q28.5 27.5 70.5 27.5 q44 0 72 -27.5 q28 -27.5 28 -70.5 q0 -43 -28 -70 q-28 -27 -72 -27 Z" /><glyph glyph-name="" unicode=";" d="M136 340 q-42 0 -70.5 27.5 q-28.5 27.5 -28.5 69.5 q0 43 28.5 70.5 q28.5 27.5 70.5 27.5 q44 0 72 -27.5 q28 -27.5 28 -70.5 q0 -43 -28 -70 q-28 -27 -72 -27 ZM-7 -121 q26 71 42.5 146 q16.5 75 21.5 134 l159 0 q-5 -68 -27.5 -143 q-22.5 -75 -55.5 -137 l-140 0 Z" /><glyph glyph-name="" unicode="!" d="M67 676 l187 0 l-16 -434 l-156 0 l-15 434 ZM159 -11 q-42 0 -70.5 27.5 q-28.5 27.5 -28.5 69.5 q0 43 28.5 70.5 q28.5 27.5 70.5 27.5 q44 0 72 -27.5 q28 -27.5 28 -70.5 q0 -43 -28 -70 q-28 -27 -72 -27 Z" /><glyph glyph-name="" unicode="¡" d="M161 344 q-44 0 -72 27.5 q-28 27.5 -28 70.5 q0 43 28 70 q28 27 72 27 q42 0 70.5 -27.5 q28.5 -27.5 28.5 -69.5 q0 -43 -28.5 -70.5 q-28.5 -27.5 -70.5 -27.5 ZM82 286 l156 0 l15 -434 l-187 0 l16 434 Z" /><glyph glyph-name="" unicode="?" d="M168 259 q0 42 24 77.5 q24 35.5 63 67.5 q35 28 51.5 45.5 q16.5 17.5 16.5 32.5 q0 21 -16 31.5 q-16 10.5 -45 10.5 q-79 0 -144 -61 l-103 118 q49 50 120 78.5 q71 28.5 149 28.5 q67 0 118.5 -23 q51.5 -23 80 -65 q28.5 -42 28.5 -96 q0 -43 -23 -79 q-23 -36 -68 -73 q-39 -33 -59 -56.5 q-20 -23.5 -20 -49.5 l0 -4 l-173 0 l0 17 ZM253 -11 q-42 0 -70.5 27.5 q-28.5 27.5 -28.5 69.5 q0 43 28.5 70.5 q28.5 27.5 70.5 27.5 q44 0 72 -27.5 q28 -27.5 28 -70.5 q0 -43 -28 -70 q-28 -27 -72 -27 Z" /><glyph glyph-name="" unicode="¿" d="M299 344 q-44 0 -72 27.5 q-28 27.5 -28 70.5 q0 43 28 70 q28 27 72 27 q42 0 70.5 -27.5 q28.5 -27.5 28.5 -69.5 q0 -43 -28.5 -70.5 q-28.5 -27.5 -70.5 -27.5 ZM268 -160 q-67 0 -118.5 23 q-51.5 23 -80 65 q-28.5 42 -28.5 96 q0 43 23 79 q23 36 68 73 q39 33 59 56.5 q20 23.5 20 49.5 l0 4 l173 0 l0 -17 q0 -42 -24 -77.5 q-24 -35.5 -63 -67.5 q-35 -28 -51.5 -45.5 q-16.5 -17.5 -16.5 -32.5 q0 -21 16 -31.5 q16 -10.5 45 -10.5 q79 0 144 61 l103 -118 q-49 -50 -120 -78.5 q-71 -28.5 -149 -28.5 Z" /><glyph glyph-name="" unicode="&#x2022;" d="M222 191 q-41 0 -76 20 q-35 20 -55.5 55 q-20.5 35 -20.5 77 q0 43 20.5 78 q20.5 35 55.5 55 q35 20 76 20 q42 0 77 -20 q35 -20 55.5 -55 q20.5 -35 20.5 -78 q0 -42 -20.5 -77 q-20.5 -35 -55.5 -55 q-35 -20 -77 -20 Z" /><glyph glyph-name="" unicode="*" d="M197 402 l-80 -69 l-77 108 l106 55 l-106 55 l77 109 l80 -69 l-13 104 l134 0 l-12 -103 l79 68 l77 -109 l-107 -55 l107 -55 l-77 -108 l-79 68 l12 -103 l-134 0 l13 104 Z" /><glyph glyph-name="" unicode="#" d="M115 140 l-85 0 l18 131 l85 0 l17 120 l-85 0 l19 131 l84 0 l15 107 l149 0 l-15 -107 l85 0 l15 107 l149 0 l-15 -107 l85 0 l-18 -131 l-86 0 l-16 -120 l85 0 l-19 -131 l-85 0 l-16 -113 l-149 0 l16 113 l-84 0 l-16 -113 l-149 0 l16 113 ZM366 271 l17 120 l-84 0 l-17 -120 l84 0 Z" /><glyph glyph-name="" unicode="/" d="M321 735 l190 0 l-305 -890 l-190 0 l305 890 Z" /><glyph glyph-name="" unicode="\" d="M16 735 l190 0 l305 -890 l-190 0 l-305 890 Z" /><glyph glyph-name="" unicode="(" d="M214 -157 q-77 87 -116 204 q-39 117 -39 242 q0 123 39.5 240.5 q39.5 117.5 115.5 205.5 l177 0 q-73 -98 -116.5 -215.5 q-43.5 -117.5 -43.5 -230.5 q0 -114 43.5 -230.5 q43.5 -116.5 116.5 -215.5 l-177 0 Z" /><glyph glyph-name="" unicode=")" d="M18 -157 q73 98 116.5 215.5 q43.5 117.5 43.5 230.5 q0 114 -43.5 230.5 q-43.5 116.5 -116.5 215.5 l177 0 q77 -87 116 -204 q39 -117 39 -242 q0 -123 -39.5 -240.5 q-39.5 -117.5 -115.5 -205.5 l-177 0 Z" /><glyph glyph-name="" unicode="{" d="M344 -157 q-112 0 -171.5 59.5 q-59.5 59.5 -59.5 171.5 l0 30 q0 48 -17.5 78.5 q-17.5 30.5 -60.5 47.5 l0 118 q43 17 60.5 48 q17.5 31 17.5 78 l0 30 q0 113 59.5 172 q59.5 59 171.5 59 l142 0 l-24 -171 l-78 0 q-45 0 -69.5 -24.5 q-24.5 -24.5 -24.5 -69.5 l0 -43 q0 -50 -17 -81 q-17 -31 -57 -57 q40 -26 57 -56.5 q17 -30.5 17 -81.5 l0 -43 q0 -45 24.5 -69 q24.5 -24 69.5 -24 l78 0 l24 -172 l-142 0 Z" /><glyph glyph-name="" unicode="}" d="M127 14 q45 0 69.5 24.5 q24.5 24.5 24.5 69.5 l0 43 q0 50 17 81 q17 31 57 57 q-40 26 -57 56.5 q-17 30.5 -17 81.5 l0 43 q0 45 -24.5 69 q-24.5 24 -69.5 24 l-78 0 l-24 172 l142 0 q112 0 171.5 -59.5 q59.5 -59.5 59.5 -171.5 l0 -30 q0 -48 17.5 -78.5 q17.5 -30.5 60.5 -47.5 l0 -118 q-43 -17 -60.5 -48 q-17.5 -31 -17.5 -78 l0 -30 q0 -113 -59 -172 q-59 -59 -172 -59 l-142 0 l24 171 l78 0 Z" /><glyph glyph-name="" unicode="[" d="M93 735 l387 0 l-23 -173 l-182 0 l0 -545 l182 0 l23 -174 l-387 0 l0 892 Z" /><glyph glyph-name="" unicode="]" d="M49 16 l182 0 l0 545 l-182 0 l-23 174 l387 0 l0 -892 l-387 0 l23 173 Z" /><glyph glyph-name="" unicode="-" d="M52 391 l358 0 l0 -158 l-358 0 l0 158 Z" /><glyph glyph-name="" unicode="&#x2013;" d="M0 389 l490 0 l0 -154 l-490 0 l0 154 Z" /><glyph glyph-name="" unicode="&#x2014;" d="M0 389 l980 0 l0 -154 l-980 0 l0 154 Z" /><glyph glyph-name="" unicode="_" d="M0 -67 l490 0 l0 -145 l-490 0 l0 145 Z" /><glyph glyph-name="" unicode="&#x2018;" d="M41 399 q6 70 28 143.5 q22 73.5 54 133.5 l140 0 q-25 -70 -41 -143.5 q-16 -73.5 -21 -133.5 l-160 0 Z" /><glyph glyph-name="" unicode="&#x2019;" d="M22 399 q25 70 41 143.5 q16 73.5 21 133.5 l160 0 q-6 -70 -28 -143.5 q-22 -73.5 -54 -133.5 l-140 0 Z" /><glyph glyph-name="" unicode="&#x2039;" d="M50 275 l136 208 l172 0 l-133 -208 l133 -209 l-172 0 l-136 209 Z" /><glyph glyph-name="" unicode="&#x203a;" d="M165 274 l-133 209 l172 0 l136 -209 l-136 -208 l-172 0 l133 208 Z" /><glyph glyph-name="" unicode="&#39;" d="M59 676 l172 0 l-11 -292 l-150 0 l-11 292 Z" /><glyph glyph-name="" unicode=" " d="" /><glyph glyph-name="" unicode="¢" d="M240 84 q-85 22 -132.5 86.5 q-47.5 64.5 -47.5 166.5 q0 89 48 155.5 q48 66.5 129 92.5 l0 129 l166 24 l0 -149 q77 -21 123 -78 l-93 -99 q-42 42 -95 42 q-49 0 -79 -32.5 q-30 -32.5 -30 -84.5 q0 -52 30 -84.5 q30 -32.5 78 -32.5 q59 0 103 44 l92 -103 q-52 -58 -129 -78 l0 -132 l-163 -24 l0 157 Z" /><glyph glyph-name="" unicode="¤" d="M80 235 q-19 44 -19 94 q0 51 20 94 l-75 75 l109 108 l76 -76 q47 21 102 21 q57 0 103 -21 l76 76 l108 -108 l-75 -75 q20 -43 20 -95 q0 -49 -19 -93 l74 -75 l-108 -108 l-76 76 q-46 -21 -103 -21 q-56 0 -102 20 l-76 -75 l-109 108 l74 75 ZM292 236 q40 0 63.5 26 q23.5 26 23.5 66 q0 39 -23 66 q-23 27 -63 27 q-39 0 -62 -26.5 q-23 -26.5 -23 -65.5 q0 -40 23 -66.5 q23 -26.5 61 -26.5 Z" /><glyph glyph-name="" unicode="$" d="M205 0 q-109 19 -199 98 l87 123 q38 -34 91 -53 q53 -19 110 -19 q38 0 56.5 11 q18.5 11 18.5 35 q0 28 -22.5 40.5 q-22.5 12.5 -84.5 25.5 q-78 16 -126.5 39.5 q-48.5 23.5 -74 64.5 q-25.5 41 -25.5 107 q0 70 44.5 120.5 q44.5 50.5 121.5 69.5 l0 120 l166 24 l0 -143 q102 -21 175 -102 l-97 -106 q-32 34 -75.5 49 q-43.5 15 -86.5 15 q-35 0 -52.5 -10 q-17.5 -10 -17.5 -33 q0 -18 9 -28.5 q9 -10.5 30.5 -18 q21.5 -7.5 66.5 -17.5 q120 -28 175 -76 q55 -48 55 -135 q0 -79 -47.5 -132 q-47.5 -53 -134.5 -69 l0 -131 l-163 -24 l0 155 Z" /><glyph glyph-name="" unicode="&#x20ac;" d="M364 -12 q-105 0 -178 58.5 q-73 58.5 -101 160.5 l-79 0 l27 97 l37 0 l0 23 q0 16 1 24 l-65 0 l27 97 l54 0 q30 100 104.5 160 q74.5 60 172.5 60 q71 0 127.5 -26 q56.5 -26 93.5 -68 l-103 -105 q-46 41 -109 41 q-36 0 -64.5 -16 q-28.5 -16 -46.5 -46 l162 0 l-27 -97 l-162 0 q-1 -8 -1 -24 q0 -16 1 -23 l154 0 l-27 -97 l-99 0 q18 -30 46 -45.5 q28 -15.5 64 -15.5 q31 0 57.5 10 q26.5 10 55.5 35 l103 -108 q-45 -46 -98.5 -70.5 q-53.5 -24.5 -126.5 -24.5 Z" /><glyph glyph-name="" unicode="&#x192;" d="M69 147 q53 0 81.5 22 q28.5 22 40.5 77 l3 16 l-107 0 l0 147 l138 0 l5 24 q24 115 91 169.5 q67 54.5 185 54.5 l63 0 l0 -147 l-53 0 q-52 0 -81.5 -23 q-29.5 -23 -39.5 -76 l0 -2 l118 0 l0 -147 l-147 0 l-7 -39 q-22 -114 -89.5 -168.5 q-67.5 -54.5 -186.5 -54.5 l-67 0 l0 147 l53 0 Z" /><glyph glyph-name="" unicode="£" d="M97 252 l-71 0 l0 147 l105 0 l6 25 q26 114 94.5 173.5 q68.5 59.5 177.5 59.5 l132 0 l0 -155 l-122 0 q-49 0 -81.5 -26 q-32.5 -26 -42.5 -74 l-1 -3 l182 0 l0 -147 l-212 0 l-21 -97 l310 0 l0 -155 l-488 0 l0 115 l32 137 Z" /><glyph glyph-name="" unicode="¥" d="M208 95 l-144 0 l0 101 l144 0 l0 57 l-144 0 l0 102 l87 0 l-151 302 l206 0 l90 -239 l91 239 l199 0 l-151 -302 l88 0 l0 -102 l-143 0 l0 -57 l143 0 l0 -101 l-143 0 l0 -95 l-172 0 l0 95 Z" /><glyph glyph-name="" unicode="+" d="M215 253 l-159 0 l0 155 l159 0 l0 159 l156 0 l0 -159 l159 0 l0 -155 l-159 0 l0 -160 l-156 0 l0 160 Z" /><glyph glyph-name="" unicode="&#x2212;" d="M68 411 l450 0 l0 -161 l-450 0 l0 161 Z" /><glyph glyph-name="" unicode="×" d="M68 215 l116 116 l-116 115 l109 110 l116 -116 l116 116 l109 -110 l-115 -115 l115 -116 l-109 -110 l-116 116 l-116 -116 l-109 110 Z" /><glyph glyph-name="" unicode="÷" d="M292 449 q-39 0 -64.5 24.5 q-25.5 24.5 -25.5 63.5 q0 39 25.5 64 q25.5 25 64.5 25 q40 0 65.5 -24.5 q25.5 -24.5 25.5 -64.5 q0 -39 -25.5 -63.5 q-25.5 -24.5 -65.5 -24.5 ZM68 411 l450 0 l0 -161 l-450 0 l0 161 ZM292 35 q-39 0 -64.5 24.5 q-25.5 24.5 -25.5 63.5 q0 39 25.5 64 q25.5 25 64.5 25 q40 0 65.5 -24.5 q25.5 -24.5 25.5 -64.5 q0 -39 -25.5 -63.5 q-25.5 -24.5 -65.5 -24.5 Z" /><glyph glyph-name="" unicode="&#x2260;" d="M89 50 l32 73 l-53 0 l0 161 l123 0 l39 89 l-162 0 l0 161 l233 0 l56 129 l141 -58 l-31 -71 l51 0 l0 -161 l-121 0 l-39 -89 l160 0 l0 -161 l-230 0 l-58 -132 l-141 59 Z" /><glyph glyph-name="" unicode="&gt;" d="M76 197 l242 133 l-242 134 l80 140 l347 -200 l0 -145 l-347 -200 l-80 138 Z" /><glyph glyph-name="" unicode="&lt;" d="M83 258 l0 145 l347 200 l80 -138 l-242 -133 l242 -134 l-80 -140 l-347 200 Z" /><glyph glyph-name="" unicode="&#x2265;" d="M78 332 l246 94 l-246 94 l50 141 l367 -161 l0 -145 l-367 -161 l-50 138 ZM66 157 l429 0 l0 -157 l-429 0 l0 157 Z" /><glyph glyph-name="" unicode="&#x2264;" d="M91 355 l0 145 l367 161 l50 -139 l-246 -94 l246 -94 l-50 -140 l-367 161 ZM91 157 l429 0 l0 -157 l-429 0 l0 157 Z" /><glyph glyph-name="" unicode="±" d="M530 292 l-159 0 l0 -133 l147 0 l0 -161 l-450 0 l0 161 l147 0 l0 133 l-159 0 l0 155 l159 0 l0 159 l156 0 l0 -159 l159 0 l0 -155 Z" /><glyph glyph-name="" unicode="~" d="M395 221 q-28 0 -50 9 q-22 9 -50 25 q-21 13 -36.5 19.5 q-15.5 6.5 -31.5 6.5 q-51 0 -51 -59 l-143 0 q0 94 41 152.5 q41 58.5 118 58.5 q28 0 50 -9 q22 -9 50 -25 q22 -13 36.5 -19.5 q14.5 -6.5 31.5 -6.5 q24 0 37.5 14.5 q13.5 14.5 13.5 44.5 l142 0 q0 -93 -40.5 -152 q-40.5 -59 -117.5 -59 Z" /><glyph glyph-name="" unicode="¬" d="M359 298 l-290 0 l0 155 l446 0 l0 -315 l-156 0 l0 160 Z" /><glyph glyph-name="" unicode="^" d="M211 676 l167 0 l172 -338 l-182 0 l-74 170 l-74 -170 l-183 0 l174 338 Z" /><glyph glyph-name="" unicode="@" d="M479 -179 q-122 0 -218 56 q-96 56 -150 154.5 q-54 98.5 -54 221.5 q0 126 65 230 q65 104 174.5 164.5 q109.5 60.5 236.5 60.5 q121 0 218 -43.5 q97 -43.5 152 -123 q55 -79.5 55 -183.5 q0 -90 -41.5 -159.5 q-41.5 -69.5 -110.5 -107.5 q-69 -38 -148 -38 l-60 0 l-24 46 q-50 -47 -112 -47 q-80 0 -126.5 56 q-46.5 56 -46.5 152 q0 59 26 106.5 q26 47.5 70 74.5 q44 27 97 27 q28 0 56.5 -10 q28.5 -10 52.5 -31 l12 32 l114 0 l0 -292 q60 16 94 64 q34 48 34 127 q0 74 -39 129 q-39 55 -110 84.5 q-71 29.5 -163 29.5 q-98 0 -180.5 -45 q-82.5 -45 -131.5 -124.5 q-49 -79.5 -49 -177.5 q0 -95 38 -169.5 q38 -74.5 108 -116.5 q70 -42 162 -42 q67 0 115.5 17 q48.5 17 94.5 50 l66 -79 q-53 -47 -120.5 -70 q-67.5 -23 -156.5 -23 ZM503 183 q35 0 61 31 l0 111 q-25 15 -54 15 q-33 0 -52 -22.5 q-19 -22.5 -19 -63.5 q0 -32 17 -51.5 q17 -19.5 47 -19.5 Z" /><glyph glyph-name="" unicode="&amp;" d="M294 -12 q-74 0 -132 26.5 q-58 26.5 -90.5 74.5 q-32.5 48 -32.5 111 q0 115 123 194 q-30 50 -30 103 q0 55 29 98.5 q29 43.5 81 68 q52 24.5 119 24.5 q117 0 209 -102 l-102 -110 q-25 28 -49.5 40.5 q-24.5 12.5 -58.5 12.5 q-30 0 -46 -14.5 q-16 -14.5 -16 -37.5 q0 -18 14 -38 q14 -20 46 -56 q26 -28 38 -43 l82 -99 q19 44 19 91 l0 36 l143 0 l0 -40 q0 -53 -17.5 -104.5 q-17.5 -51.5 -49.5 -95.5 l106 -128 l-185 0 l-28 32 q-77 -44 -172 -44 ZM317 132 q28 0 55 8 l-130 150 q-24 -18 -34.5 -36.5 q-10.5 -18.5 -10.5 -41.5 q0 -37 32.5 -58.5 q32.5 -21.5 87.5 -21.5 Z" /><glyph glyph-name="" unicode="¶" d="M309 -40 q45 0 68.5 27 q23.5 27 23.5 75 l0 593 l177 23 l0 -635 q0 -116 -64.5 -181 q-64.5 -65 -180.5 -65 l-45 0 l0 163 l21 0 ZM335 181 q-136 0 -211.5 59 q-75.5 59 -75.5 163 q0 95 58.5 158 q58.5 63 159.5 77 l69 10 l0 -467 Z" /><glyph glyph-name="" unicode="§" d="M179 -45 q34 0 52.5 10.5 q18.5 10.5 18.5 28.5 q0 16 -12.5 30 q-12.5 14 -41.5 37 l-67 51 q-43 32 -66 70 q-23 38 -23 91 q0 49 29.5 89.5 q29.5 40.5 82.5 63.5 q-17 29 -17 62 q0 88 64 138 q64 50 178 50 l74 0 l0 -147 l-82 0 q-35 0 -53 -10.5 q-18 -10.5 -18 -29.5 q0 -17 12.5 -31.5 q12.5 -14.5 41.5 -36.5 l65 -51 q89 -68 89 -159 q0 -49 -29 -89.5 q-29 -40.5 -81 -63.5 q17 -29 17 -62 q0 -88 -64.5 -138 q-64.5 -50 -178.5 -50 l-81 0 l0 147 l90 0 ZM301 154 q28 1 44 14 q16 13 16 35 q0 18 -10 33 q-10 15 -34 34 l-74 60 l-1 0 q-27 -2 -42 -14 q-15 -12 -15 -35 q0 -19 11.5 -35.5 q11.5 -16.5 32.5 -33.5 l71 -58 l1 0 Z" /><glyph glyph-name="" unicode="©" d="M399 -12 q-97 0 -178 44 q-81 44 -128 123.5 q-47 79.5 -47 182.5 q0 100 47.5 180 q47.5 80 128.5 125 q81 45 177 45 q97 0 178 -44.5 q81 -44.5 129 -124.5 q48 -80 48 -181 q0 -102 -48 -181.5 q-48 -79.5 -129.5 -124 q-81.5 -44.5 -177.5 -44.5 ZM399 49 q83 0 149.5 36.5 q66.5 36.5 104.5 102.5 q38 66 38 150 q0 85 -38 150.5 q-38 65.5 -104.5 102 q-66.5 36.5 -149.5 36.5 q-83 0 -149 -37 q-66 -37 -103.5 -102.5 q-37.5 -65.5 -37.5 -149.5 q0 -86 37 -151.5 q37 -65.5 103 -101.5 q66 -36 150 -36 ZM408 143 q-91 0 -144.5 51.5 q-53.5 51.5 -53.5 143.5 q0 54 25.5 98.5 q25.5 44.5 70.5 70 q45 25.5 102 25.5 q43 0 82.5 -18 q39.5 -18 63.5 -48 l-73 -77 q-29 31 -66 31 q-34 0 -54.5 -23 q-20.5 -23 -20.5 -59 q0 -37 20.5 -60 q20.5 -23 54.5 -23 q36 0 72 34 l71 -80 q-28 -31 -67 -48.5 q-39 -17.5 -83 -17.5 Z" /><glyph glyph-name="" unicode="®" d="M294 229 q-71 0 -129.5 31.5 q-58.5 31.5 -92.5 89 q-34 57.5 -34 131.5 q0 72 34.5 130 q34.5 58 93 90.5 q58.5 32.5 128.5 32.5 q70 0 129 -32 q59 -32 93.5 -90 q34.5 -58 34.5 -131 q0 -73 -34.5 -130.5 q-34.5 -57.5 -93.5 -89.5 q-59 -32 -129 -32 ZM294 283 q59 0 104.5 25 q45.5 25 71 70 q25.5 45 25.5 103 q0 58 -25.5 103.5 q-25.5 45.5 -71 70.5 q-45.5 25 -104.5 25 q-59 0 -104.5 -25 q-45.5 -25 -70.5 -70.5 q-25 -45.5 -25 -103.5 q0 -58 25 -103 q25 -45 70.5 -70 q45.5 -25 104.5 -25 ZM304 606 q46 0 73 -22.5 q27 -22.5 27 -59.5 q0 -19 -10 -34.5 q-10 -15.5 -28 -24.5 q10 -9 20 -27 l36 -71 l-83 0 l-18 34 q-10 18 -16.5 24 q-6.5 6 -20.5 6 l-19 0 l0 -64 l-74 0 l0 239 l113 0 ZM295 496 q30 0 30 23 q0 23 -30 23 l-30 0 l0 -46 l30 0 Z" /><glyph glyph-name="" unicode="&#x2122;" d="M139 561 l-112 0 l0 115 l342 0 l0 -115 l-111 0 l0 -270 l-119 0 l0 270 ZM436 676 l122 0 l107 -189 l107 189 l121 0 l0 -385 l-120 0 l0 193 l-60 -121 l-98 0 l-63 121 l0 -193 l-116 0 l0 385 Z" /><glyph glyph-name="" unicode="°" d="M207 373 q-44 0 -81 22 q-37 22 -59 59 q-22 37 -22 81 q0 44 22 81 q22 37 59 59 q37 22 81 22 q44 0 81 -22 q37 -22 58.5 -59 q21.5 -37 21.5 -81 q0 -44 -21.5 -81 q-21.5 -37 -58.5 -59 q-37 -22 -81 -22 ZM207 479 q23 0 39 16.5 q16 16.5 16 39.5 q0 23 -16 39.5 q-16 16.5 -39 16.5 q-24 0 -39.5 -16 q-15.5 -16 -15.5 -40 q0 -24 15.5 -40 q15.5 -16 39.5 -16 Z" /><glyph glyph-name="" unicode="|" d="M93 735 l186 0 l0 -892 l-186 0 l0 892 Z" /><glyph glyph-name="" unicode="¦" d="M93 735 l186 0 l0 -338 l-186 0 l0 338 ZM93 181 l186 0 l0 -338 l-186 0 l0 338 Z" /><glyph glyph-name="" unicode="&#x2020;" d="M149 471 l-112 0 l0 116 l112 0 l0 89 l119 21 l0 -110 l111 0 l0 -116 l-111 0 l0 -200 l-119 0 l0 200 Z" /><glyph glyph-name="" unicode="&#x2021;" d="M157 353 l-112 0 l0 103 l112 0 l0 45 l-112 0 l0 103 l112 0 l0 72 l118 21 l0 -93 l112 0 l0 -103 l-112 0 l0 -45 l112 0 l0 -103 l-112 0 l0 -82 l-118 0 l0 82 Z" /><glyph glyph-name="" unicode="&#x308;" d="M-412 590 q-39 0 -65 23 q-26 23 -26 59 q0 36 26 59.5 q26 23.5 65 23.5 q40 0 66 -23 q26 -23 26 -60 q0 -36 -26 -59 q-26 -23 -66 -23 ZM-177 590 q-39 0 -65 23 q-26 23 -26 59 q0 36 26 59.5 q26 23.5 65 23.5 q39 0 65.5 -23.5 q26.5 -23.5 26.5 -59.5 q0 -36 -26 -59 q-26 -23 -66 -23 Z" /><glyph glyph-name="" unicode="&#x307;" d="M-294 586 q-44 0 -72.5 25 q-28.5 25 -28.5 66 q0 40 28.5 65.5 q28.5 25.5 72.5 25.5 q45 0 73.5 -25.5 q28.5 -25.5 28.5 -65.5 q0 -41 -28.5 -66 q-28.5 -25 -73.5 -25 Z" /><glyph glyph-name="" unicode="&#x300;" d="M-446 753 l174 0 l130 -152 l-158 0 l-146 152 Z" /><glyph glyph-name="" unicode="&#x301;" d="M-316 753 l174 0 l-146 -152 l-158 0 l130 152 Z" /><glyph glyph-name="" unicode="&#x302;" d="M-367 753 l147 0 l134 -152 l-143 0 l-65 69 l-66 -69 l-142 0 l135 152 Z" /><glyph glyph-name="" unicode="&#x30c;" d="M-502 753 l143 0 l65 -70 l66 70 l142 0 l-134 -152 l-147 0 l-135 152 Z" /><glyph glyph-name="" unicode="&#x30a;" d="M-293 592 q-36 0 -67 17.5 q-31 17.5 -49 47 q-18 29.5 -18 65.5 q0 56 39 93.5 q39 37.5 95 37.5 q55 0 94 -37.5 q39 -37.5 39 -93.5 q0 -36 -18 -66 q-18 -30 -48.5 -47 q-30.5 -17 -66.5 -17 ZM-293 672 q20 0 33.5 14.5 q13.5 14.5 13.5 35.5 q0 22 -13.5 36 q-13.5 14 -33.5 14 q-21 0 -34.5 -14 q-13.5 -14 -13.5 -36 q0 -21 13.5 -35.5 q13.5 -14.5 34.5 -14.5 Z" /><glyph glyph-name="" unicode="&#x303;" d="M-208 592 q-24 0 -42.5 6.5 q-18.5 6.5 -41.5 19.5 q-24 15 -40 21.5 q-16 6.5 -35 6.5 q-26 0 -48.5 -8.5 q-22.5 -8.5 -50.5 -25.5 l0 109 q27 19 50.5 29 q23.5 10 50.5 10 q24 0 43 -6.5 q19 -6.5 43 -20.5 q24 -14 40 -20.5 q16 -6.5 34 -6.5 q30 0 52 9 q22 9 49 26 l0 -111 q-27 -18 -50.5 -28 q-23.5 -10 -53.5 -10 Z" /><glyph glyph-name="" unicode="&#x327;" d="M-366 -100 q26 0 40.5 10.5 q14.5 10.5 14.5 29.5 q0 21 -8 34.5 q-8 13.5 -34 41.5 l86 30 q40 -33 59.5 -61 q19.5 -28 19.5 -65 q0 -60 -47 -94 q-47 -34 -126 -34 l-39 0 l0 108 l34 0 Z" /></font>
</defs>
</svg>
