<?xml version="1.0" standalone="no"?><!DOCTYPE svg PUBLIC "-//W3C//DTD SVG 1.1//EN" "http://www.w3.org/Graphics/SVG/1.1/DTD/svg11.dtd" ><svg xmlns="http://www.w3.org/2000/svg"><metadata></metadata><defs><font id="fonteditor" horiz-adv-x="1316"><font-face font-family="." font-weight="400" font-stretch="normal" units-per-em="1000" panose-1="0 0 5 0 0 0 0 0 0 0" ascent="980" descent="-235" x-height="0" bbox="-466 -223 1251 981" underline-thickness="50" underline-position="-75" unicode-range="U+0020-fb02" /><missing-glyph horiz-adv-x="471"  /><glyph glyph-name="" unicode=" " d="" /><glyph glyph-name="" unicode="a" d="M371 676 l71 0 l118 -676 l-81 0 l-29 187 l-293 0 l-110 -187 l-82 0 l406 676 ZM437 262 l-50 315 l-186 -315 l236 0 Z" /><glyph glyph-name="" unicode="å" d="M560 0 l-81 0 l-29 187 l-293 0 l-110 -187 l-82 0 l387 645 q-28 16 -44.5 44 q-16.5 28 -16.5 62 q0 51 35.5 85.5 q35.5 34.5 86.5 34.5 q33 0 61.5 -16 q28.5 -16 45.5 -43.5 q17 -27.5 17 -60.5 q0 -42 -25 -73.5 q-25 -31.5 -63 -43.5 l111 -634 ZM413 815 q-26 0 -45 -18.5 q-19 -18.5 -19 -45.5 q0 -29 19 -48 q19 -19 45 -19 q27 0 46 19 q19 19 19 48 q0 27 -19 45.5 q-19 18.5 -46 18.5 ZM201 262 l236 0 l-50 315 l-186 -315 Z" /><glyph glyph-name="" unicode="æ" d="M558 676 l451 0 l-17 -77 l-344 0 l-45 -211 l301 0 l-17 -78 l-300 0 l-50 -232 l356 0 l-18 -78 l-433 0 l39 182 l-273 0 l-163 -182 l-96 0 l609 676 ZM496 254 l69 327 l-293 -327 l224 0 Z" /><glyph glyph-name="" unicode="b" d="M378 676 q56 0 98 -21 q42 -21 64.5 -56 q22.5 -35 22.5 -77 q0 -62 -32 -105 q-32 -43 -89 -65 q45 -19 70 -58 q25 -39 25 -87 q0 -65 -33.5 -111.5 q-33.5 -46.5 -91.5 -71 q-58 -24.5 -132 -24.5 l-251 0 l144 676 l205 0 ZM320 380 q70 0 117.5 37 q47.5 37 47.5 99 q0 40 -30 65 q-30 25 -88 25 l-132 0 l-49 -226 l134 0 ZM277 70 q82 0 132 35 q50 35 50 100 q0 46 -32 74 q-32 28 -84 28 l-172 0 l-50 -237 l156 0 Z" /><glyph glyph-name="" unicode="c" d="M310 -10 q-117 0 -183.5 69.5 q-66.5 69.5 -66.5 187.5 q0 113 51.5 214.5 q51.5 101.5 141 163 q89.5 61.5 196.5 61.5 q67 0 117.5 -27.5 q50.5 -27.5 82.5 -75.5 l-60 -49 q-54 75 -144 75 q-86 0 -155.5 -50.5 q-69.5 -50.5 -108.5 -132.5 q-39 -82 -39 -171 q0 -87 46 -137.5 q46 -50.5 128 -50.5 q101 0 194 81 l46 -58 q-112 -100 -246 -100 Z" /><glyph glyph-name="" unicode="ç" d="M449 686 q67 0 117.5 -27.5 q50.5 -27.5 82.5 -75.5 l-60 -49 q-54 75 -144 75 q-86 0 -155.5 -50.5 q-69.5 -50.5 -108.5 -132.5 q-39 -82 -39 -171 q0 -87 46 -137.5 q46 -50.5 128 -50.5 q101 0 194 81 l46 -58 q-99 -89 -217 -99 q16 -29 16 -57 q0 -59 -46 -90.5 q-46 -31.5 -116 -31.5 l-28 0 l13 63 l19 0 q39 0 65 19.5 q26 19.5 26 52.5 q0 21 -15 45 q-100 11 -156.5 79 q-56.5 68 -56.5 176 q0 113 51.5 214.5 q51.5 101.5 141 163 q89.5 61.5 196.5 61.5 Z" /><glyph glyph-name="" unicode="d" d="M352 676 q87 0 151.5 -38 q64.5 -38 98.5 -102 q34 -64 34 -140 q0 -116 -51.5 -206 q-51.5 -90 -143 -140 q-91.5 -50 -209.5 -50 l-203 0 l144 676 l179 0 ZM242 76 q95 0 165.5 40.5 q70.5 40.5 108.5 112.5 q38 72 38 165 q0 55 -23 102 q-23 47 -70 76 q-47 29 -115 29 l-108 0 l-112 -525 l116 0 Z" /><glyph glyph-name="" unicode="ð" d="M31 310 l14 71 l91 0 l62 295 l179 0 q87 0 151.5 -38 q64.5 -38 98.5 -102 q34 -64 34 -140 q0 -116 -51.5 -206 q-51.5 -90 -143 -140 q-91.5 -50 -209.5 -50 l-203 0 l66 310 l-89 0 ZM267 76 q95 0 166 40.5 q71 40.5 109 112.5 q38 72 38 165 q0 55 -23.5 102 q-23.5 47 -70.5 76 q-47 29 -115 29 l-108 0 l-47 -220 l195 0 l-15 -71 l-195 0 l-50 -234 l116 0 Z" /><glyph glyph-name="" unicode="e" d="M173 676 l423 0 l-16 -77 l-344 0 l-45 -211 l300 0 l-16 -78 l-301 0 l-49 -232 l355 0 l-17 -78 l-434 0 l144 676 Z" /><glyph glyph-name="" unicode="f" d="M173 676 l424 0 l-17 -78 l-343 0 l-46 -213 l299 0 l-16 -77 l-299 0 l-66 -308 l-80 0 l144 676 Z" /><glyph glyph-name="" unicode="g" d="M308 -10 q-116 0 -181.5 70.5 q-65.5 70.5 -65.5 188.5 q0 113 51 214 q51 101 141 162 q90 61 201 61 q66 0 118.5 -28.5 q52.5 -28.5 82.5 -74.5 l-56 -47 q-26 34 -63.5 53.5 q-37.5 19.5 -86.5 19.5 q-89 0 -159 -50 q-70 -50 -109 -131 q-39 -81 -39 -172 q0 -86 46 -137.5 q46 -51.5 127 -51.5 q53 0 97 13.5 q44 13.5 84 41.5 l34 159 l-173 0 l16 73 l251 0 l-57 -270 q-56 -46 -124 -70 q-68 -24 -135 -24 Z" /><glyph glyph-name="" unicode="h" d="M173 676 l81 0 l-62 -288 l344 0 l61 288 l81 0 l-144 -676 l-81 0 l66 310 l-343 0 l-66 -310 l-81 0 l144 676 Z" /><glyph glyph-name="" unicode="i" d="M173 676 l81 0 l-144 -676 l-81 0 l144 676 Z" /><glyph glyph-name="" unicode="j" d="M40 78 q142 0 177 162 l92 436 l81 0 l-96 -449 q-26 -117 -92.5 -172 q-66.5 -55 -172.5 -55 l-48 0 l17 78 l42 0 Z" /><glyph glyph-name="" unicode="k" d="M253 676 l-62 -291 l84 0 q39 0 66.5 11 q27.5 11 53 36 q25.5 25 65.5 76 l132 168 l91 0 l-166 -209 q-35 -44 -62.5 -72.5 q-27.5 -28.5 -56.5 -47.5 l173 -347 l-92 0 l-153 314 q-22 -6 -50 -6 l-101 0 l-66 -308 l-80 0 l144 676 l80 0 Z" /><glyph glyph-name="" unicode="l" d="M173 676 l81 0 l-128 -597 l344 0 l-17 -79 l-424 0 l144 676 Z" /><glyph glyph-name="" unicode="m" d="M173 676 l73 0 l150 -457 l363 457 l78 0 l-144 -676 l-80 0 l113 526 l-311 -389 l-65 0 l-130 385 l-111 -522 l-80 0 l144 676 Z" /><glyph glyph-name="" unicode="n" d="M173 676 l62 0 l245 -536 l114 536 l77 0 l-144 -676 l-62 0 l-246 534 l-112 -534 l-78 0 l144 676 Z" /><glyph glyph-name="" unicode="o" d="M313 -10 q-76 0 -132.5 33 q-56.5 33 -87.5 93.5 q-31 60.5 -31 138.5 q0 111 51.5 210.5 q51.5 99.5 139.5 160 q88 60.5 190 60.5 q75 0 132.5 -33.5 q57.5 -33.5 88.5 -93.5 q31 -60 31 -138 q0 -110 -51 -209.5 q-51 -99.5 -139 -160.5 q-88 -61 -192 -61 ZM319 67 q83 0 150.5 50.5 q67.5 50.5 105.5 131.5 q38 81 38 168 q0 86 -47 139 q-47 53 -127 53 q-83 0 -151 -50.5 q-68 -50.5 -106 -131 q-38 -80.5 -38 -168.5 q0 -87 47 -139.5 q47 -52.5 128 -52.5 Z" /><glyph glyph-name="" unicode="ø" d="M109 89 q-47 69 -47 166 q0 111 51.5 210.5 q51.5 99.5 139.5 160 q88 60.5 191 60.5 q95 0 161 -55 l82 90 l89 0 l-126 -138 q45 -71 45 -162 q0 -110 -51 -209.5 q-51 -99.5 -139 -160.5 q-88 -61 -192 -61 q-94 0 -159 52 l-80 -88 l-88 0 l123 135 ZM550 571 q-43 38 -111 38 q-83 0 -151 -50.5 q-68 -50.5 -106.5 -131.5 q-38.5 -81 -38.5 -169 q0 -57 25 -105 l382 418 ZM319 67 q83 0 150.5 50.5 q67.5 50.5 105.5 132 q38 81.5 38 168.5 q0 58 -22 100 l-381 -415 q44 -36 109 -36 Z" /><glyph glyph-name="" unicode="&#x152;" d="M311 -10 q-75 0 -131.5 33 q-56.5 33 -87 93 q-30.5 60 -30.5 139 q0 111 51.5 210.5 q51.5 99.5 139.5 160 q88 60.5 190 60.5 q76 0 129 -35 q53 -35 79 -99 l26 124 l423 0 l-16 -77 l-344 0 l-45 -211 l300 0 l-16 -78 l-300 0 l-50 -232 l355 0 l-17 -78 l-434 0 l22 104 q-48 -54 -110 -84 q-62 -30 -134 -30 ZM318 67 q83 0 150.5 50.5 q67.5 50.5 106 132 q38.5 81.5 38.5 168.5 q0 86 -47 138.5 q-47 52.5 -127 52.5 q-83 0 -151 -50.5 q-68 -50.5 -106.5 -132 q-38.5 -81.5 -38.5 -168.5 q0 -86 47 -138.5 q47 -52.5 128 -52.5 Z" /><glyph glyph-name="" unicode="p" d="M392 676 q60 0 105 -24 q45 -24 69 -65 q24 -41 24 -91 q0 -68 -36 -123 q-36 -55 -99.5 -86.5 q-63.5 -31.5 -143.5 -31.5 l-148 0 l-54 -255 l-80 0 l144 676 l219 0 ZM311 331 q57 0 102 20 q45 20 70 57 q25 37 25 84 q0 49 -32.5 79.5 q-32.5 30.5 -93.5 30.5 l-146 0 l-57 -271 l132 0 Z" /><glyph glyph-name="" unicode="þ" d="M252 676 l-20 -94 l150 0 q60 0 105 -24 q45 -24 69 -64.5 q24 -40.5 24 -90.5 q0 -68 -35.5 -123.5 q-35.5 -55.5 -99 -87 q-63.5 -31.5 -143.5 -31.5 l-159 0 l-34 -161 l-80 0 l144 676 l79 0 ZM302 237 q57 0 101.5 20.5 q44.5 20.5 70 57 q25.5 36.5 25.5 83.5 q0 49 -33 80 q-33 31 -94 31 l-155 0 l-58 -272 l143 0 Z" /><glyph glyph-name="" unicode="q" d="M473 31 q-76 -41 -160 -41 q-76 0 -132.5 33 q-56.5 33 -87.5 93.5 q-31 60.5 -31 138.5 q0 111 51.5 210.5 q51.5 99.5 139.5 160 q88 60.5 191 60.5 q75 0 132 -33.5 q57 -33.5 88 -93.5 q31 -60 31 -138 q0 -100 -42.5 -192.5 q-42.5 -92.5 -115.5 -153.5 l71 -125 l-64 -41 l-71 122 ZM319 66 q61 0 117 29 l-65 114 l65 41 l63 -110 q53 51 84 125 q31 74 31 153 q0 86 -47 138.5 q-47 52.5 -128 52.5 q-83 0 -151 -50.5 q-68 -50.5 -106 -131.5 q-38 -81 -38 -169 q0 -87 46.5 -139.5 q46.5 -52.5 128.5 -52.5 Z" /><glyph glyph-name="" unicode="r" d="M378 676 q58 0 104.5 -21.5 q46.5 -21.5 72.5 -60.5 q26 -39 26 -88 q0 -80 -48.5 -132.5 q-48.5 -52.5 -130.5 -72.5 q26 -19 44 -51.5 q18 -32.5 32 -81.5 l46 -168 l-84 0 l-35 136 q-14 51 -28 80 q-14 29 -39 44.5 q-25 15.5 -68 15.5 l-104 0 l-58 -276 l-79 0 l144 676 l205 0 ZM313 350 q82 0 135.5 41 q53.5 41 53.5 110 q0 46 -33 74 q-33 28 -96 28 l-137 0 l-53 -253 l130 0 Z" /><glyph glyph-name="" unicode="s" d="M269 -10 q-76 0 -142 30.5 q-66 30.5 -110 85.5 l55 51 q81 -92 207 -92 q74 0 119.5 32 q45.5 32 45.5 86 q0 46 -30.5 73.5 q-30.5 27.5 -105.5 54.5 q-98 35 -140.5 76 q-42.5 41 -41.5 110 q0 56 34 99 q34 43 90.5 66.5 q56.5 23.5 124.5 23.5 q70 0 128.5 -30 q58.5 -30 96.5 -81 l-56 -46 q-65 82 -176 82 q-71 0 -117 -30.5 q-46 -30.5 -46 -82.5 q0 -40 31.5 -63.5 q31.5 -23.5 108.5 -52.5 q92 -35 136.5 -79.5 q44.5 -44.5 44.5 -112.5 q0 -94 -70 -147 q-70 -53 -187 -53 Z" /><glyph glyph-name="" unicode="&#x1e9e;" d="M370 -10 q-120 0 -188 77 l48 49 q33 -29 66 -41.5 q33 -12.5 70 -12.5 q74 0 120 36.5 q46 36.5 46 99.5 q0 47 -36 78.5 q-36 31.5 -101 31.5 l-67 0 l10 56 l208 208 q-20 19 -51.5 29.5 q-31.5 10.5 -67.5 10.5 q-92 0 -158 -59.5 q-66 -59.5 -90 -171.5 l-80 -381 l-79 0 l83 389 q19 91 66 158 q47 67 114 103 q67 36 147 36 q78 0 127.5 -29 q49.5 -29 85.5 -73 l-213 -212 l12 -1 q75 -7 122 -55 q47 -48 47 -114 q0 -63 -31.5 -111 q-31.5 -48 -86.5 -74.5 q-55 -26.5 -123 -26.5 Z" /><glyph glyph-name="" unicode="t" d="M332 598 l-225 0 l16 78 l531 0 l-17 -78 l-225 0 l-127 -598 l-81 0 l128 598 Z" /><glyph glyph-name="" unicode="u" d="M306 -11 q-105 0 -167 61.5 q-62 61.5 -62 173.5 q0 50 11 98 l75 354 l81 0 l-77 -360 q-11 -52 -11 -88 q0 -81 40.5 -121.5 q40.5 -40.5 111.5 -40.5 q174 0 229 254 l76 356 l81 0 l-77 -360 q-34 -159 -116 -243 q-82 -84 -195 -84 Z" /><glyph glyph-name="" unicode="v" d="M111 676 l84 0 l91 -569 l334 569 l89 0 l-406 -676 l-74 0 l-118 676 Z" /><glyph glyph-name="" unicode="w" d="M118 676 l83 0 l29 -561 l279 521 l79 0 l48 -521 l268 561 l84 0 l-337 -676 l-74 0 l-57 522 l-276 -522 l-76 0 l-50 676 Z" /><glyph glyph-name="" unicode="x" d="M287 361 l-154 315 l88 0 l125 -262 l234 262 l98 0 l-296 -325 l173 -351 l-89 0 l-143 296 l-260 -296 l-99 0 l323 361 Z" /><glyph glyph-name="" unicode="y" d="M245 262 l-138 414 l83 0 l109 -340 l250 340 l94 0 l-317 -417 l-56 -259 l-80 0 l55 262 Z" /><glyph glyph-name="" unicode="z" d="M2 63 l509 535 l-381 0 l16 78 l489 0 l-12 -63 l-509 -535 l405 0 l-16 -78 l-514 0 l13 63 Z" /><glyph glyph-name="" unicode="a" d="M166 -10 q-70 0 -108 37 q-38 37 -38 96 q0 79 66 124 q66 45 175 45 l131 0 l5 25 q7 29 7 49 q0 44 -28.5 68 q-28.5 24 -79.5 24 q-39 0 -77.5 -16.5 q-38.5 -16.5 -71.5 -45.5 l-42 53 q93 81 198 81 q82 0 128 -42 q46 -42 46 -117 q0 -27 -9 -69 l-64 -302 l-47 0 l-8 71 q-42 -37 -91.5 -59 q-49.5 -22 -91.5 -22 ZM175 59 q44 0 95.5 26 q51.5 26 91.5 66 l16 76 l-128 0 q-71 0 -113.5 -27 q-42.5 -27 -42.5 -71 q0 -34 20.5 -52 q20.5 -18 60.5 -18 Z" /><glyph glyph-name="" unicode="æ" d="M169 -10 q-72 0 -110.5 37 q-38.5 37 -38.5 96 q0 81 66 127 q66 46 175 46 l132 0 l4 21 q7 29 7 49 q0 44 -28.5 68 q-28.5 24 -79.5 24 q-39 0 -77.5 -16.5 q-38.5 -16.5 -71.5 -45.5 l-42 53 q93 81 198 81 q64 0 105.5 -26.5 q41.5 -26.5 55.5 -75.5 q41 48 94 75 q53 27 112 27 q85 0 131.5 -53 q46.5 -53 46.5 -140 q0 -32 -9 -81 l-5 -26 l-379 0 q-2 -18 -2 -27 q0 -63 34 -102 q34 -39 98 -39 q80 0 151 61 l46 -52 q-44 -38 -95.5 -59.5 q-51.5 -21.5 -107.5 -21.5 q-66 0 -112.5 30.5 q-46.5 30.5 -68.5 83.5 q-48 -52 -112 -83 q-64 -31 -117 -31 ZM771 297 q3 21 3 42 q0 57 -28 89.5 q-28 32.5 -81 32.5 q-67 0 -119 -46.5 q-52 -46.5 -77 -117.5 l302 0 ZM178 59 q50 0 105.5 29 q55.5 29 98.5 74 q-3 18 -3 37 q0 11 2 31 l-132 0 q-65 0 -110 -27 q-45 -27 -45 -74 q0 -34 21 -52 q21 -18 63 -18 Z" /><glyph glyph-name="" unicode="b" d="M248 -8 q-45 0 -85 18 q-40 18 -67 48 l-30 -58 l-49 0 l155 727 l81 16 l-61 -289 q40 36 89 56 q49 20 96 20 q85 0 134.5 -55.5 q49.5 -55.5 49.5 -147.5 q0 -91 -41 -167.5 q-41 -76.5 -112.5 -122 q-71.5 -45.5 -159.5 -45.5 ZM245 64 q72 0 126 35 q54 35 83 94.5 q29 59.5 29 131.5 q0 61 -31.5 96.5 q-31.5 35.5 -87.5 35.5 q-53 0 -102.5 -27 q-49.5 -27 -90.5 -73 l-51 -239 q24 -25 56.5 -39.5 q32.5 -14.5 68.5 -14.5 Z" /><glyph glyph-name="" unicode="c" d="M244 -10 q-93 0 -147 57 q-54 57 -54 150 q0 88 41 164.5 q41 76.5 111 122.5 q70 46 152 46 q99 0 160 -84 l-54 -44 q-46 56 -108 56 q-63 0 -114.5 -36.5 q-51.5 -36.5 -80.5 -95.5 q-29 -59 -29 -122 q0 -65 34 -103.5 q34 -38.5 94 -38.5 q78 0 145 61 l43 -53 q-90 -80 -193 -80 Z" /><glyph glyph-name="" unicode="ç" d="M347 530 q99 0 160 -84 l-54 -44 q-46 56 -108 56 q-63 0 -114.5 -36.5 q-51.5 -36.5 -80.5 -95.5 q-29 -59 -29 -122 q0 -65 34 -103.5 q34 -38.5 94 -38.5 q78 0 145 61 l43 -53 q-79 -69 -167 -79 q18 -29 18 -58 q0 -56 -43.5 -87 q-43.5 -31 -110.5 -31 l-27 0 l12 60 l19 0 q37 0 62 19.5 q25 19.5 25 52.5 q0 22 -16 45 q-78 10 -122 65.5 q-44 55.5 -44 139.5 q0 88 41 164.5 q41 76.5 111 122.5 q70 46 152 46 Z" /><glyph glyph-name="" unicode="d" d="M227 -9 q-85 0 -135 55 q-50 55 -50 146 q0 91 41 168.5 q41 77.5 113 123.5 q72 46 160 46 q41 0 78 -15 q37 -15 64 -40 l53 252 l82 16 l-158 -743 l-47 0 l-8 73 q-40 -39 -91 -60.5 q-51 -21.5 -102 -21.5 ZM240 63 q52 0 101.5 26 q49.5 26 88.5 71 l53 244 q-24 26 -56 40.5 q-32 14.5 -68 14.5 q-72 0 -126 -35.5 q-54 -35.5 -83 -96 q-29 -60.5 -29 -131.5 q0 -61 31.5 -97 q31.5 -36 87.5 -36 Z" /><glyph glyph-name="" unicode="ð" d="M245 -10 q-94 0 -148.5 54.5 q-54.5 54.5 -54.5 144.5 q0 82 39 154.5 q39 72.5 105.5 116 q66.5 43.5 145.5 43.5 q43 0 82 -13.5 q39 -13.5 68 -37.5 q-9 77 -49 142 l-158 -44 l12 60 l112 31 q-35 42 -85 80 l81 17 q44 -34 76 -78 l139 39 l-12 -60 l-96 -26 q58 -100 58 -212 q0 -61 -14 -123 q-18 -82 -61 -147.5 q-43 -65.5 -105.5 -103 q-62.5 -37.5 -134.5 -37.5 ZM247 62 q83 0 143 63.5 q60 63.5 82 164.5 q10 43 12 83 q-25 28 -60.5 45 q-35.5 17 -76.5 17 q-66 0 -118 -33 q-52 -33 -81 -88.5 q-29 -55.5 -29 -119.5 q0 -59 34 -95.5 q34 -36.5 94 -36.5 Z" /><glyph glyph-name="" unicode="e" d="M244 -10 q-62 0 -107.5 27.5 q-45.5 27.5 -69 75 q-23.5 47.5 -23.5 106.5 q0 85 39 161.5 q39 76.5 106 123 q67 46.5 146 46.5 q85 0 131.5 -53 q46.5 -53 46.5 -140 q0 -37 -9 -78 l-6 -24 l-377 0 q-1 -11 -1 -32 q0 -63 33.5 -102.5 q33.5 -39.5 96.5 -39.5 q79 0 151 62 l46 -52 q-44 -38 -95.5 -59.5 q-51.5 -21.5 -107.5 -21.5 ZM436 303 q3 20 3 36 q0 58 -28 90 q-28 32 -82 32 q-65 0 -116 -45 q-51 -45 -75 -113 l298 0 Z" /><glyph glyph-name="" unicode="f" d="M134 549 q21 95 76 144.5 q55 49.5 137 49.5 q35 0 68.5 -15 q33.5 -15 56.5 -39 l-48 -52 q-16 16 -37.5 25 q-21.5 9 -43.5 9 q-51 0 -84.5 -31.5 q-33.5 -31.5 -46.5 -89.5 l-6 -30 l213 0 l-15 -70 l-214 0 l-95 -450 l-78 0 l117 549 Z" /><glyph glyph-name="" unicode="g" d="M190 -223 q-69 0 -121 28 q-52 28 -81 70 l53 48 q28 -34 66.5 -54.5 q38.5 -20.5 84.5 -20.5 q78 0 132.5 46 q54.5 46 72.5 130 l12 57 q-39 -33 -86 -51 q-47 -18 -95 -18 q-83 0 -133 54 q-50 54 -50 143 q0 86 40.5 159.5 q40.5 73.5 111.5 117.5 q71 44 159 44 q43 0 82.5 -17 q39.5 -17 66.5 -45 l27 52 l48 0 l-107 -504 q-23 -109 -99.5 -174 q-76.5 -65 -183.5 -65 ZM242 83 q52 0 100 24.5 q48 24.5 87 67.5 l49 234 q-23 23 -54.5 36.5 q-31.5 13.5 -65.5 13.5 q-71 0 -124.5 -33.5 q-53.5 -33.5 -82 -89.5 q-28.5 -56 -28.5 -124 q0 -59 32 -94 q32 -35 87 -35 Z" /><glyph glyph-name="" unicode="h" d="M253 743 l-61 -289 q39 36 82.5 56 q43.5 20 84.5 20 q79 0 122 -43.5 q43 -43.5 43 -121.5 q0 -38 -8 -74 l-62 -291 l-79 0 l60 283 q10 47 10 74 q0 100 -97 100 q-42 0 -90 -27 q-48 -27 -86 -73 l-77 -357 l-78 0 l155 727 l81 16 Z" /><glyph glyph-name="" unicode="&#x131;" d="M129 520 l78 0 l-110 -520 l-78 0 l110 520 Z" /><glyph glyph-name="" unicode="&#x237;" d="M-105 -139 q51 0 79 29 q28 29 40 86 l115 544 l78 0 l-115 -545 q-38 -183 -197 -183 l-34 0 l15 69 l19 0 Z" /><glyph glyph-name="" unicode="k" d="M252 743 l-93 -441 l58 0 q44 0 77.5 21 q33.5 21 75.5 75 l96 122 l88 0 l-127 -160 q-45 -57 -90 -90 l133 -270 l-87 0 l-114 237 q-21 -6 -43 -6 l-82 0 l-50 -231 l-77 0 l155 727 l80 16 Z" /><glyph glyph-name="" unicode="l" d="M175 -6 q-64 0 -98 33.5 q-34 33.5 -34 95.5 q0 22 7 59 l116 545 l81 16 l-121 -572 q-5 -23 -5 -40 q0 -68 72 -68 l25 0 l-16 -69 l-27 0 Z" /><glyph glyph-name="" unicode="m" d="M175 520 l7 -74 q88 84 170 84 q51 0 85.5 -22.5 q34.5 -22.5 49.5 -62.5 q41 39 89.5 62 q48.5 23 97.5 23 q70 0 108.5 -39 q38.5 -39 38.5 -109 q0 -30 -7 -62 l-67 -320 l-78 0 l67 318 q7 37 7 53 q0 43 -22 64.5 q-22 21.5 -64 21.5 q-40 0 -82.5 -23 q-42.5 -23 -77.5 -61 q-2 -28 -7 -53 l-67 -320 l-78 0 l67 318 q7 37 7 55 q0 84 -84 84 q-41 0 -85 -28.5 q-44 -28.5 -79 -73.5 l-76 -355 l-78 0 l110 520 l48 0 Z" /><glyph glyph-name="" unicode="n" d="M175 520 l7 -74 q41 40 87 62 q46 22 90 22 q79 0 122 -43.5 q43 -43.5 43 -121.5 q0 -38 -8 -74 l-62 -291 l-79 0 l60 283 q10 47 10 74 q0 100 -97 100 q-42 0 -90 -27.5 q-48 -27.5 -87 -73.5 l-76 -356 l-78 0 l110 520 l48 0 Z" /><glyph glyph-name="" unicode="o" d="M252 -10 q-63 0 -110 26.5 q-47 26.5 -72.5 74.5 q-25.5 48 -25.5 111 q0 83 41 159 q41 76 110.5 122.5 q69.5 46.5 151.5 46.5 q62 0 109 -27 q47 -27 73 -75 q26 -48 26 -110 q0 -85 -40.5 -161 q-40.5 -76 -110.5 -121.5 q-70 -45.5 -152 -45.5 ZM257 62 q64 0 114 36.5 q50 36.5 78 95 q28 58.5 28 123.5 q0 64 -36 102.5 q-36 38.5 -98 38.5 q-63 0 -113.5 -37 q-50.5 -37 -79 -96 q-28.5 -59 -28.5 -124 q0 -64 36 -101.5 q36 -37.5 99 -37.5 Z" /><glyph glyph-name="" unicode="ø" d="M85 68 q-41 53 -41 134 q0 83 41 159 q41 76 110.5 122.5 q69.5 46.5 151.5 46.5 q69 0 122 -35 l60 65 l82 0 l-97 -108 q41 -55 41 -134 q0 -85 -40.5 -161 q-40.5 -76 -110.5 -121.5 q-70 -45.5 -152 -45.5 q-70 0 -123 35 l-61 -67 l-83 0 l100 110 ZM418 437 q-32 21 -75 21 q-63 0 -113.5 -37 q-50.5 -37 -79 -96.5 q-28.5 -59.5 -28.5 -123.5 q0 -42 16 -73 l280 309 ZM257 62 q64 0 114 36.5 q50 36.5 78 95.5 q28 59 28 124 q0 44 -18 75 l-279 -310 q32 -21 77 -21 Z" /><glyph glyph-name="" unicode="&#x153;" d="M252 -10 q-63 0 -110 26.5 q-47 26.5 -72.5 74.5 q-25.5 48 -25.5 111 q0 83 41 159 q41 76 110.5 122.5 q69.5 46.5 151.5 46.5 q69 0 118.5 -34 q49.5 -34 70.5 -93 q40 58 98.5 92.5 q58.5 34.5 125.5 34.5 q85 0 131.5 -53 q46.5 -53 46.5 -140 q0 -37 -9 -78 l-5 -24 l-377 0 q-2 -22 -2 -32 q0 -63 33 -102 q33 -39 97 -39 q79 0 152 61 l46 -52 q-45 -38 -96.5 -59.5 q-51.5 -21.5 -107.5 -21.5 q-70 0 -117 34 q-47 34 -67 93 q-41 -59 -102 -93 q-61 -34 -131 -34 ZM861 303 q3 20 3 36 q0 58 -27.5 90 q-27.5 32 -81.5 32 q-66 0 -117 -44.5 q-51 -44.5 -75 -113.5 l298 0 ZM256 62 q64 0 114.5 36.5 q50.5 36.5 78.5 95 q28 58.5 28 123.5 q0 64 -36 102.5 q-36 38.5 -98 38.5 q-63 0 -113.5 -37 q-50.5 -37 -79 -96.5 q-28.5 -59.5 -28.5 -123.5 q0 -64 36 -101.5 q36 -37.5 98 -37.5 Z" /><glyph glyph-name="" unicode="p" d="M175 520 l7 -74 q41 39 92.5 61.5 q51.5 22.5 102.5 22.5 q85 0 134.5 -55 q49.5 -55 49.5 -147 q0 -91 -41 -168 q-41 -77 -112.5 -122.5 q-71.5 -45.5 -159.5 -45.5 q-41 0 -78.5 14 q-37.5 14 -64.5 38 l-52 -248 l-82 -16 l156 740 l48 0 ZM245 64 q72 0 126 35 q54 35 83 94.5 q29 59.5 29 130.5 q0 62 -31 97.5 q-31 35.5 -88 35.5 q-54 0 -103.5 -27 q-49.5 -27 -89.5 -73 l-51 -242 q23 -24 55.5 -37.5 q32.5 -13.5 69.5 -13.5 Z" /><glyph glyph-name="" unicode="þ" d="M253 743 l-61 -289 q40 36 89 56 q49 20 96 20 q85 0 134.5 -55 q49.5 -55 49.5 -147 q0 -91 -41 -168 q-41 -77 -112.5 -122.5 q-71.5 -45.5 -159.5 -45.5 q-41 0 -78.5 14 q-37.5 14 -64.5 38 l-52 -248 l-82 -16 l201 947 l81 16 ZM245 64 q72 0 126 35 q54 35 83 94.5 q29 59.5 29 130.5 q0 62 -31 97.5 q-31 35.5 -88 35.5 q-53 0 -102.5 -26.5 q-49.5 -26.5 -89.5 -72.5 l-52 -243 q23 -24 55.5 -37.5 q32.5 -13.5 69.5 -13.5 Z" /><glyph glyph-name="" unicode="q" d="M412 66 q-40 -36 -88.5 -55.5 q-48.5 -19.5 -96.5 -19.5 q-85 0 -135 55 q-50 55 -50 146 q0 91 41 168.5 q41 77.5 113 123.5 q72 46 160 46 q45 0 85.5 -18 q40.5 -18 67.5 -48 l28 56 l49 0 l-153 -724 l-82 -16 l61 286 ZM240 63 q53 0 102.5 26.5 q49.5 26.5 89.5 71.5 l51 243 q-24 26 -56 40.5 q-32 14.5 -68 14.5 q-72 0 -126 -35.5 q-54 -35.5 -83 -96 q-29 -60.5 -29 -131.5 q0 -61 31.5 -97 q31.5 -36 87.5 -36 Z" /><glyph glyph-name="" unicode="r" d="M175 520 l7 -75 q44 39 97 61 q53 22 108 22 l17 0 l-16 -74 l-20 0 q-51 0 -103 -26 q-52 -26 -94 -73 l-76 -355 l-78 0 l110 520 l48 0 Z" /><glyph glyph-name="" unicode="s" d="M201 -10 q-66 0 -119 27.5 q-53 27.5 -88 74.5 l56 43 q28 -37 67 -55 q39 -18 93 -18 q53 0 85 21 q32 21 32 60 q0 31 -21.5 50 q-21.5 19 -76.5 40 q-71 26 -106 58.5 q-35 32.5 -35 80.5 q0 72 57 115 q57 43 143 43 q56 0 104 -25 q48 -25 77 -65 l-57 -42 q-20 29 -54.5 45 q-34.5 16 -73.5 16 q-54 0 -87.5 -20.5 q-33.5 -20.5 -33.5 -58.5 q0 -27 23.5 -44 q23.5 -17 79.5 -38 q70 -26 104.5 -62 q34.5 -36 34.5 -87 q0 -75 -56 -117 q-56 -42 -148 -42 Z" /><glyph glyph-name="" unicode="ß" d="M363 -10 q-59 0 -106 21.5 q-47 21.5 -78 58.5 l51 49 q54 -57 128 -57 q60 0 95.5 23.5 q35.5 23.5 35.5 67.5 q0 37 -19.5 57.5 q-19.5 20.5 -59.5 41.5 l-24 12 q-28 14 -44 24.5 q-16 10.5 -26.5 28 q-10.5 17.5 -10.5 43.5 q0 37 22.5 66 q22.5 29 65.5 65 q5 5 30 25.5 q25 20.5 38 41 q13 20.5 13 41.5 q0 36 -26.5 54.5 q-26.5 18.5 -68.5 18.5 q-70 0 -116 -48 q-46 -48 -64 -131 l-105 -493 l-77 0 l106 494 q25 117 94 183 q69 66 168 66 q75 0 120.5 -37.5 q45.5 -37.5 45.5 -98.5 q0 -42 -24 -72.5 q-24 -30.5 -71 -68.5 q-41 -33 -58 -50 q-17 -17 -17 -37 q0 -22 14 -35 q14 -13 49 -31 q16 -8 24 -13 q45 -24 72 -57.5 q27 -33.5 27 -88.5 q0 -48 -26 -85 q-26 -37 -72.5 -58 q-46.5 -21 -105.5 -21 Z" /><glyph glyph-name="" unicode="t" d="M194 -10 q-69 0 -106 37 q-37 37 -37 102 q0 28 6 59 l98 460 l81 15 l-30 -143 l201 0 l-16 -70 l-201 0 l-57 -271 q-5 -25 -5 -41 q0 -36 17.5 -55.5 q17.5 -19.5 51.5 -19.5 q30 0 49.5 7.5 q19.5 7.5 42.5 23.5 l36 -56 q-61 -48 -131 -48 Z" /><glyph glyph-name="" unicode="u" d="M212 -10 q-78 0 -120 43.5 q-42 43.5 -42 121.5 q0 38 8 74 l62 291 l79 0 l-60 -283 q-10 -47 -10 -74 q0 -51 22.5 -76 q22.5 -25 70.5 -25 q42 0 89.5 27.5 q47.5 27.5 86.5 73.5 l76 357 l78 0 l-110 -520 l-48 0 l-7 74 q-41 -40 -86.5 -62 q-45.5 -22 -88.5 -22 Z" /><glyph glyph-name="" unicode="v" d="M75 520 l79 0 l76 -416 l250 416 l90 0 l-324 -520 l-71 0 l-100 520 Z" /><glyph glyph-name="" unicode="w" d="M84 520 l79 0 l26 -409 l213 375 l72 0 l50 -377 l201 411 l81 0 l-266 -520 l-73 0 l-52 381 l-213 -381 l-73 0 l-45 520 Z" /><glyph glyph-name="" unicode="x" d="M219 275 l-126 245 l89 0 l93 -193 l175 193 l92 0 l-233 -254 l138 -266 l-90 0 l-105 214 l-196 -214 l-92 0 l255 275 Z" /><glyph glyph-name="" unicode="y" d="M1 -137 q46 0 82 25 q36 25 67 78 l35 59 l-113 495 l82 0 l86 -403 l239 403 l84 0 l-349 -580 q-87 -148 -214 -148 l-34 0 l16 71 l19 0 Z" /><glyph glyph-name="" unicode="z" d="M11 58 l389 392 l-301 0 l15 70 l402 0 l-11 -57 l-390 -393 l312 0 l-15 -70 l-412 0 l11 58 Z" /><glyph glyph-name="" unicode="ª" d="M173 272 q-54 0 -84.5 26 q-30.5 26 -30.5 71 q0 65 50 100.5 q50 35.5 135 35.5 l98 0 l3 14 q5 23 5 40 q0 60 -74 60 q-29 0 -60 -12.5 q-31 -12.5 -58 -34.5 l-35 49 q34 30 74.5 45.5 q40.5 15.5 82.5 15.5 q67 0 102.5 -31 q35.5 -31 35.5 -90 q0 -25 -6 -55 l-48 -226 l-46 0 l-6 52 q-33 -27 -70 -43.5 q-37 -16.5 -68 -16.5 ZM182 334 q34 0 70.5 17 q36.5 17 66.5 46 l11 52 l-95 0 q-45 0 -77 -18.5 q-32 -18.5 -32 -50.5 q0 -22 15 -34 q15 -12 41 -12 Z" /><glyph glyph-name="" unicode="º" d="M241 272 q-71 0 -116.5 45.5 q-45.5 45.5 -45.5 116.5 q0 65 30.5 122.5 q30.5 57.5 83.5 91.5 q53 34 116 34 q72 0 118 -45 q46 -45 46 -116 q0 -65 -30.5 -122 q-30.5 -57 -84 -92 q-53.5 -35 -117.5 -35 ZM244 340 q45 0 80.5 24.5 q35.5 24.5 55 65.5 q19.5 41 19.5 87 q0 44 -25.5 71 q-25.5 27 -67.5 27 q-45 0 -80 -25 q-35 -25 -54 -65.5 q-19 -40.5 -19 -86.5 q0 -43 25 -70.5 q25 -27.5 66 -27.5 Z" /><glyph glyph-name="" unicode="&#x3bc;" d="M206 520 l-61 -289 q-10 -43 -10 -77 q0 -47 22.5 -69.5 q22.5 -22.5 72.5 -22.5 q44 0 89.5 26.5 q45.5 26.5 85.5 71.5 l76 360 l79 0 l-111 -520 l-47 0 l-8 74 q-42 -40 -88.5 -62 q-46.5 -22 -93.5 -22 q-36 0 -64 12.5 q-28 12.5 -45 35.5 l-50 -242 l-81 -16 l155 740 l79 0 Z" /><glyph glyph-name="" unicode="0" d="M263 -10 q-95 0 -149.5 66.5 q-54.5 66.5 -54.5 175.5 q0 108 43 208.5 q43 100.5 118 163 q75 62.5 168 62.5 q63 0 109 -30.5 q46 -30.5 70.5 -85 q24.5 -54.5 24.5 -125.5 q0 -106 -42 -207 q-42 -101 -117.5 -164.5 q-75.5 -63.5 -169.5 -63.5 ZM268 67 q72 0 128 54.5 q56 54.5 86.5 138 q30.5 83.5 30.5 167.5 q0 75 -33 118.5 q-33 43.5 -95 43.5 q-73 0 -129.5 -53.5 q-56.5 -53.5 -87 -136.5 q-30.5 -83 -30.5 -167 q0 -76 33.5 -120.5 q33.5 -44.5 96.5 -44.5 Z" /><glyph glyph-name="" unicode="1" d="M260 574 l-160 -43 l14 68 l186 58 l56 0 l-139 -657 l-79 0 l122 574 Z" /><glyph glyph-name="" unicode="2" d="M310 296 l22 18 q46 38 72 62.5 q26 24.5 43 55 q17 30.5 17 66.5 q0 44 -29.5 68 q-29.5 24 -86.5 24 q-53 0 -97 -21 q-44 -21 -89 -62 l-44 58 q57 50 114.5 75.5 q57.5 25.5 123.5 25.5 q58 0 100.5 -21.5 q42.5 -21.5 65 -59 q22.5 -37.5 22.5 -84.5 q0 -69 -41.5 -122.5 q-41.5 -53.5 -121.5 -116.5 l-236 -188 l314 0 l-16 -74 l-434 0 l11 56 l290 240 Z" /><glyph glyph-name="" unicode="3" d="M222 -10 q-61 0 -118.5 28.5 q-57.5 28.5 -92.5 73.5 l55 45 q30 -33 74 -52 q44 -19 91 -19 q77 0 126.5 37.5 q49.5 37.5 49.5 102.5 q0 50 -34 79.5 q-34 29.5 -95 29.5 l-86 0 l8 50 l236 218 l-307 0 l15 74 l411 0 l-10 -54 l-236 -219 q80 -7 129 -55.5 q49 -48.5 49 -122.5 q0 -68 -35 -116.5 q-35 -48.5 -95 -74 q-60 -25.5 -135 -25.5 Z" /><glyph glyph-name="" unicode="4" d="M357 172 l-332 0 l12 60 l423 425 l76 0 l-88 -413 l98 0 l-15 -72 l-98 0 l-37 -172 l-76 0 l37 172 ZM372 244 l66 306 l-302 -306 l236 0 Z" /><glyph glyph-name="" unicode="5" d="M227 -10 q-66 0 -122.5 27.5 q-56.5 27.5 -90.5 71.5 l57 47 q27 -33 69 -51.5 q42 -18.5 89 -18.5 q79 0 125.5 39 q46.5 39 46.5 110 q0 47 -34.5 78 q-34.5 31 -100.5 31 l-164 0 l9 47 l101 286 l319 0 l-15 -74 l-258 0 l-64 -186 l78 0 q64 0 111.5 -23.5 q47.5 -23.5 72.5 -63.5 q25 -40 25 -90 q0 -109 -69.5 -169.5 q-69.5 -60.5 -184.5 -60.5 Z" /><glyph glyph-name="" unicode="6" d="M276 -11 q-62 0 -109.5 29 q-47.5 29 -73.5 80.5 q-26 51.5 -26 117.5 q0 52 10 106 q19 107 65 185 q46 78 111 118.5 q65 40.5 140 40.5 q53 0 99 -21 q46 -21 77 -62 l-52 -47 q-25 30 -55 42.5 q-30 12.5 -70 12.5 q-78 0 -138 -58 q-60 -58 -90 -165 q84 38 168 38 q83 0 134.5 -51 q51.5 -51 51.5 -133 q0 -65 -32 -118.5 q-32 -53.5 -87 -84 q-55 -30.5 -123 -30.5 ZM283 64 q71 0 115 44 q44 44 43 112 q-1 51 -34.5 82.5 q-33.5 31.5 -92.5 31.5 q-88 0 -166 -39 q-7 -49 -6 -82 q2 -67 40 -108 q38 -41 101 -41 Z" /><glyph glyph-name="" unicode="7" d="M472 583 l-354 0 l15 74 l450 0 l-9 -46 l-398 -611 l-89 0 l385 583 Z" /><glyph glyph-name="" unicode="8" d="M271 -11 q-68 0 -120.5 21.5 q-52.5 21.5 -81.5 60 q-29 38.5 -29 88.5 q0 61 44 112 q44 51 121 88 q-36 25 -55.5 56 q-19.5 31 -19.5 73 q0 52 33.5 93 q33.5 41 88.5 63.5 q55 22.5 118 22.5 q61 0 108 -20 q47 -20 72.5 -55 q25.5 -35 25.5 -79 q0 -115 -140 -189 q89 -57 89 -142 q0 -60 -34.5 -103.5 q-34.5 -43.5 -92 -66.5 q-57.5 -23 -127.5 -23 ZM371 358 q59 21 95.5 58 q36.5 37 36.5 85 q0 41 -37.5 68.5 q-37.5 27.5 -99.5 27.5 q-69 0 -115.5 -30 q-46.5 -30 -46.5 -77 q0 -40 31.5 -65 q31.5 -25 103.5 -53 q26 -12 32 -14 ZM280 62 q73 0 121 33 q48 33 48 85 q0 45 -37 74 q-37 29 -119 61 q-7 3 -13.5 6 q-6.5 3 -12.5 5 q-66 -26 -107.5 -66.5 q-41.5 -40.5 -41.5 -90.5 q0 -50 46 -78.5 q46 -28.5 116 -28.5 Z" /><glyph glyph-name="" unicode="9" d="M220 -10 q-54 0 -106 21.5 q-52 21.5 -83 63.5 l52 47 q49 -57 137 -57 q84 0 141 58.5 q57 58.5 84 175.5 q-85 -40 -167 -40 q-55 0 -99.5 23 q-44.5 23 -69.5 64.5 q-25 41.5 -25 94.5 q0 64 31.5 115.5 q31.5 51.5 86.5 80.5 q55 29 123 29 q63 0 111 -30 q48 -30 73.5 -83.5 q25.5 -53.5 25.5 -122.5 q0 -52 -9 -111 q-16 -102 -59 -176 q-43 -74 -107 -113.5 q-64 -39.5 -140 -39.5 ZM296 331 q85 0 163 44 q4 33 2 70 q-2 67 -40 106.5 q-38 39.5 -103 39.5 q-69 0 -113 -40 q-44 -40 -44 -104 q0 -56 35.5 -86 q35.5 -30 99.5 -30 Z" /><glyph glyph-name="" unicode="&#x2070;" d="M242 335 q-62 0 -98.5 39.5 q-36.5 39.5 -36.5 106.5 q0 63 24.5 120 q24.5 57 69 92.5 q44.5 35.5 102.5 35.5 q61 0 97.5 -40 q36.5 -40 36.5 -107 q0 -62 -24 -119 q-24 -57 -68.5 -92.5 q-44.5 -35.5 -102.5 -35.5 ZM246 401 q38 0 66 28 q28 28 42.5 70.5 q14.5 42.5 14.5 84.5 q0 37 -18 58 q-18 21 -50 21 q-39 0 -67.5 -27.5 q-28.5 -27.5 -43 -69.5 q-14.5 -42 -14.5 -84 q0 -38 18.5 -59.5 q18.5 -21.5 51.5 -21.5 Z" /><glyph glyph-name="" unicode="¹" d="M234 653 l-99 -24 l11 59 l118 35 l53 0 l-82 -381 l-69 0 l68 311 Z" /><glyph glyph-name="" unicode="²" d="M264 519 q7 5 34 25.5 q27 20.5 39.5 38.5 q12.5 18 12.5 36 q0 21 -15.5 32.5 q-15.5 11.5 -45.5 11.5 q-54 0 -109 -47 l-37 52 q74 62 155 62 q57 0 90 -29 q33 -29 33 -75 q0 -37 -24 -67.5 q-24 -30.5 -70 -64.5 l-122 -89 l170 0 l-13 -63 l-278 0 l8 46 l172 131 Z" /><glyph glyph-name="" unicode="³" d="M232 335 q-47 0 -86 16.5 q-39 16.5 -63 44.5 l46 42 q22 -20 46 -31 q24 -11 55 -11 q40 0 64.5 18 q24.5 18 24.5 48 q0 24 -18.5 38.5 q-18.5 14.5 -51.5 14.5 l-58 0 l7 41 l129 105 l-176 0 l12 62 l265 0 l-8 -45 l-140 -114 q49 -5 79 -33 q30 -28 30 -70 q0 -59 -44 -92.5 q-44 -33.5 -113 -33.5 Z" /><glyph glyph-name="" unicode="&#x2074;" d="M294 434 l-206 0 l8 46 l259 244 l65 0 l-49 -231 l58 0 l-13 -59 l-58 0 l-19 -92 l-65 0 l20 92 ZM307 493 l31 147 l-159 -147 l128 0 Z" /><glyph glyph-name="" unicode="&#x2075;" d="M221 335 q-43 0 -80 17.5 q-37 17.5 -59 43.5 l45 40 q18 -18 42.5 -29 q24.5 -11 50.5 -11 q41 0 65.5 18 q24.5 18 24.5 50 q0 25 -19 39 q-19 14 -55 14 l-104 0 l8 42 l60 164 l209 0 l-13 -63 l-159 0 l-31 -85 l41 0 q60 0 97 -29 q37 -29 37 -76 q0 -63 -43.5 -99 q-43.5 -36 -116.5 -36 Z" /><glyph glyph-name="" unicode="&#x2076;" d="M254 335 q-59 0 -97.5 37 q-38.5 37 -38.5 97 q0 37 5 64 q19 90 73 143 q54 53 126 53 q35 0 65.5 -13 q30.5 -13 50.5 -40 l-41 -39 q-30 31 -73 31 q-45 0 -79 -27.5 q-34 -27.5 -50 -79.5 q55 20 96 20 q52 0 85.5 -31 q33.5 -31 32.5 -81 q-1 -59 -45 -96.5 q-44 -37.5 -110 -37.5 ZM259 396 q37 0 60.5 19.5 q23.5 19.5 23.5 51.5 q0 27 -17.5 41 q-17.5 14 -52.5 14 q-51 0 -90 -18 q-1 -12 -1 -30 q1 -36 21.5 -57 q20.5 -21 55.5 -21 Z" /><glyph glyph-name="" unicode="&#x2077;" d="M350 660 l-203 0 l13 64 l289 0 l-7 -35 l-232 -347 l-78 0 l218 318 Z" /><glyph glyph-name="" unicode="&#x2078;" d="M247 334 q-65 0 -106 28.5 q-41 28.5 -41 73.5 q0 32 25 60 q25 28 70 50 q-42 29 -42 75 q0 47 44.5 77.5 q44.5 30.5 105.5 30.5 q60 0 97 -26 q37 -26 37 -67 q0 -61 -77 -102 q51 -32 51 -83 q0 -55 -47.5 -86 q-47.5 -31 -116.5 -31 ZM309 558 q29 9 47.5 26.5 q18.5 17.5 18.5 39.5 q0 22 -20.5 35 q-20.5 13 -54.5 13 q-35 0 -59.5 -14 q-24.5 -14 -24.5 -36 q0 -21 19 -34.5 q19 -13.5 61 -25.5 l13 -4 ZM255 393 q40 0 66 16 q26 16 26 41 q0 24 -21.5 38.5 q-21.5 14.5 -70.5 29.5 q-3 1 -5.5 2 q-2.5 1 -4.5 2 q-35 -15 -56.5 -34 q-21.5 -19 -21.5 -42 q0 -25 24.5 -39 q24.5 -14 63.5 -14 Z" /><glyph glyph-name="" unicode="&#x2079;" d="M227 334 q-36 0 -72 15 q-36 15 -57 40 l42 40 q17 -16 39 -24 q22 -8 42 -8 q94 0 122 110 q-48 -21 -95 -21 q-55 0 -89 34 q-34 34 -34 81 q0 57 43 92.5 q43 35.5 109 35.5 q60 0 99 -41 q39 -41 39 -103 q0 -6 0 -21.5 q0 -15.5 -2 -32.5 q-13 -91 -64 -144 q-51 -53 -122 -53 ZM264 544 q47 0 87 20 l0 21 q-1 36 -22.5 59 q-21.5 23 -56.5 23 q-36 0 -58.5 -17 q-22.5 -17 -22.5 -46 q0 -28 18.5 -44 q18.5 -16 54.5 -16 Z" /><glyph glyph-name="" unicode="&#x2044;" d="M333 657 l90 0 l-587 -657 l-91 0 l588 657 Z" /><glyph glyph-name="" unicode="." d="M75 -9 q-22 0 -35.5 14 q-13.5 14 -13.5 36 q0 29 18.5 47.5 q18.5 18.5 43.5 18.5 q24 0 37.5 -13.5 q13.5 -13.5 13.5 -36.5 q0 -28 -18.5 -47 q-18.5 -19 -45.5 -19 Z" /><glyph glyph-name="" unicode="," d="M-53 -118 q37 46 69 105 q32 59 51 114 l82 0 q-19 -58 -52.5 -116 q-33.5 -58 -72.5 -103 l-77 0 Z" /><glyph glyph-name="" unicode=":" d="M165 410 q-22 0 -35.5 14 q-13.5 14 -13.5 35 q0 29 18.5 48 q18.5 19 43.5 19 q23 0 37 -13.5 q14 -13.5 14 -36.5 q0 -28 -18.5 -47 q-18.5 -19 -45.5 -19 ZM76 -9 q-22 0 -35.5 14 q-13.5 14 -13.5 36 q0 29 18.5 47.5 q18.5 18.5 43.5 18.5 q24 0 37.5 -13.5 q13.5 -13.5 13.5 -36.5 q0 -28 -18.5 -47 q-18.5 -19 -45.5 -19 Z" /><glyph glyph-name="" unicode=";" d="M163 410 q-22 0 -35.5 14 q-13.5 14 -13.5 35 q0 29 18.5 48 q18.5 19 43.5 19 q23 0 37 -13.5 q14 -13.5 14 -36.5 q0 -28 -18.5 -47 q-18.5 -19 -45.5 -19 ZM-53 -118 q37 46 69.5 105 q32.5 59 51.5 114 l81 0 q-19 -58 -52.5 -116 q-33.5 -58 -72.5 -103 l-77 0 Z" /><glyph glyph-name="" unicode="!" d="M174 676 l84 0 l-109 -479 l-70 0 l95 479 ZM83 -9 q-22 0 -35.5 14 q-13.5 14 -13.5 36 q0 29 18.5 47.5 q18.5 18.5 43.5 18.5 q23 0 37 -13.5 q14 -13.5 14 -36.5 q0 -28 -18.5 -47 q-18.5 -19 -45.5 -19 Z" /><glyph glyph-name="" unicode="¡" d="M170 414 q-24 0 -37.5 13.5 q-13.5 13.5 -13.5 35.5 q0 29 18 48 q18 19 45 19 q22 0 35.5 -14 q13.5 -14 13.5 -36 q0 -29 -18.5 -47.5 q-18.5 -18.5 -42.5 -18.5 ZM117 323 l69 0 l-95 -478 l-83 0 l109 478 Z" /><glyph glyph-name="" unicode="?" d="M198 223 q11 57 48.5 97 q37.5 40 97.5 77 q51 31 77 61 q26 30 26 72 q0 38 -27.5 59 q-27.5 21 -80.5 21 q-99 0 -201 -78 l-38 60 q117 94 246 94 q85 0 134 -42 q49 -42 49 -108 q0 -55 -28.5 -94.5 q-28.5 -39.5 -89.5 -80.5 l-25 -17 q-52 -35 -79 -61 q-27 -26 -34 -65 l-4 -21 l-76 0 l5 26 ZM205 -9 q-22 0 -35.5 14 q-13.5 14 -13.5 36 q0 29 18 47.5 q18 18.5 43 18.5 q24 0 37.5 -13.5 q13.5 -13.5 13.5 -36.5 q0 -28 -18 -47 q-18 -19 -45 -19 Z" /><glyph glyph-name="" unicode="¿" d="M337 414 q-24 0 -37.5 13.5 q-13.5 13.5 -13.5 35.5 q0 29 18 48 q18 19 45 19 q22 0 35.5 -14 q13.5 -14 13.5 -36 q0 -29 -18.5 -47.5 q-18.5 -18.5 -42.5 -18.5 ZM208 -166 q-86 0 -134.5 42.5 q-48.5 42.5 -48.5 108.5 q0 55 28.5 94.5 q28.5 39.5 89.5 80.5 l23 15 q53 35 80.5 61.5 q27.5 26.5 34.5 66.5 l4 20 l75 0 l-5 -26 q-10 -57 -48 -97 q-38 -40 -97 -76 q-51 -31 -77 -61 q-26 -30 -26 -73 q0 -37 27.5 -58 q27.5 -21 80.5 -21 q100 0 201 78 l37 -60 q-116 -95 -245 -95 Z" /><glyph glyph-name="" unicode="&#x2022;" d="M208 250 q-42 0 -71.5 29 q-29.5 29 -29.5 71 q0 44 29.5 73 q29.5 29 71.5 29 q43 0 72.5 -29 q29.5 -29 29.5 -73 q0 -42 -30 -71 q-30 -29 -72 -29 Z" /><glyph glyph-name="" unicode="*" d="M223 491 l-100 -63 l-29 50 l111 61 l-85 60 l43 48 l76 -64 l21 110 l62 0 l-28 -108 l100 64 l27 -51 l-110 -61 l84 -60 l-41 -47 l-77 64 l-20 -111 l-63 0 l29 108 Z" /><glyph glyph-name="" unicode="#" d="M129 170 l-94 0 l20 63 l94 0 l63 198 l-94 0 l19 63 l95 0 l43 134 l70 0 l-44 -134 l151 0 l42 134 l70 0 l-43 -134 l90 0 l-21 -63 l-88 0 l-64 -198 l90 0 l-21 -63 l-89 0 l-44 -142 l-70 0 l44 142 l-149 0 l-45 -142 l-70 0 l45 142 ZM368 233 l64 198 l-150 0 l-63 -198 l149 0 Z" /><glyph glyph-name="" unicode="/" d="M442 735 l88 0 l-508 -871 l-88 0 l508 871 Z" /><glyph glyph-name="" unicode="\" d="M120 735 l81 0 l138 -871 l-82 0 l-137 871 Z" /><glyph glyph-name="" unicode="(" d="M150 -137 q-42 58 -63 135 q-21 77 -21 161 q0 160 72.5 314.5 q72.5 154.5 192.5 261.5 l89 0 q-123 -113 -198.5 -265.5 q-75.5 -152.5 -75.5 -304.5 q0 -84 21.5 -161.5 q21.5 -77.5 63.5 -140.5 l-81 0 Z" /><glyph glyph-name="" unicode=")" d="M-72 -137 q123 114 198 266.5 q75 152.5 75 304.5 q0 84 -21.5 161.5 q-21.5 77.5 -62.5 139.5 l81 0 q42 -58 63 -134.5 q21 -76.5 21 -161.5 q0 -159 -72.5 -314 q-72.5 -155 -192.5 -262 l-89 0 Z" /><glyph glyph-name="" unicode="{" d="M225 -137 q-80 0 -122 37 q-42 37 -42 107 q0 31 7 62 l15 69 q6 27 6 47 q0 30 -13.5 51 q-13.5 21 -40.5 38 l11 54 q46 18 70.5 52 q24.5 34 36.5 88 l15 68 q20 99 80 149 q60 50 156 50 l75 0 l-29 -77 l-49 0 q-62 0 -102 -34.5 q-40 -34.5 -54 -98.5 l-16 -74 q-11 -52 -35.5 -88 q-24.5 -36 -70.5 -68 q45 -45 45 -106 q0 -26 -5 -47 l-16 -75 q-5 -27 -5 -42 q0 -85 101 -85 l54 0 l6 -77 l-78 0 Z" /><glyph glyph-name="" unicode="}" d="M27 -59 q62 0 102 34 q40 34 54 98 l16 75 q11 52 35.5 88 q24.5 36 70.5 68 q-45 43 -45 106 q0 25 5 46 l16 76 q5 25 5 42 q0 85 -101 85 l-54 0 l-6 76 l78 0 q80 0 122 -37 q42 -37 42 -107 q0 -30 -7 -61 l-15 -69 q-6 -27 -6 -47 q0 -31 13.5 -52 q13.5 -21 40.5 -37 l-11 -54 q-46 -19 -70.5 -53 q-24.5 -34 -36.5 -88 l-15 -68 q-20 -98 -80 -148.5 q-60 -50.5 -156 -50.5 l-76 0 l30 78 l49 0 Z" /><glyph glyph-name="" unicode="[" d="M202 735 l272 0 l-30 -77 l-179 0 l-153 -718 l178 0 l6 -77 l-279 0 l185 872 Z" /><glyph glyph-name="" unicode="]" d="M-31 -59 l179 0 l153 718 l-177 0 l-6 76 l278 0 l-185 -872 l-271 0 l29 78 Z" /><glyph glyph-name="" unicode="-" d="M77 332 l313 0 l-16 -75 l-312 0 l15 75 Z" /><glyph glyph-name="" unicode="&#x2013;" d="M15 331 l480 0 l-15 -73 l-480 0 l15 73 Z" /><glyph glyph-name="" unicode="&#x2014;" d="M15 331 l960 0 l-15 -73 l-960 0 l15 73 Z" /><glyph glyph-name="" unicode="_" d="M-72 -80 l481 0 l-15 -68 l-481 0 l15 68 Z" /><glyph glyph-name="" unicode="&#x2018;" d="M98 468 q19 54 50.5 108.5 q31.5 54.5 68.5 100.5 l71 0 q-73 -104 -111 -209 l-79 0 Z" /><glyph glyph-name="" unicode="&#x2019;" d="M81 467 q34 47 63 102 q29 55 48 107 l79 0 q-19 -55 -50.5 -110 q-31.5 -55 -68.5 -99 l-71 0 Z" /><glyph glyph-name="" unicode="&#x2039;" d="M47 284 l168 190 l88 0 l-167 -195 l82 -190 l-78 0 l-93 195 Z" /><glyph glyph-name="" unicode="&#x203a;" d="M171 284 l-82 190 l79 0 l93 -195 l-169 -190 l-87 0 l166 195 Z" /><glyph glyph-name="" unicode="&#39;" d="M165 676 l81 0 l-64 -259 l-69 0 l52 259 Z" /><glyph glyph-name="" unicode=" " d="" /><glyph glyph-name="" unicode="¢" d="M252 74 q-72 13 -113 66 q-41 53 -41 133 q0 79 35 150 q35 71 96 118 q61 47 135 58 l23 112 l82 18 l-28 -131 q73 -13 121 -80 l-54 -43 q-44 55 -108 55 q-63 0 -114.5 -36.5 q-51.5 -36.5 -80.5 -94.5 q-29 -58 -29 -120 q0 -63 34.5 -100.5 q34.5 -37.5 93.5 -37.5 q79 0 146 61 l42 -53 q-77 -68 -163 -78 l-26 -119 l-81 -18 l30 140 Z" /><glyph glyph-name="" unicode="¤" d="M106 220 q-11 33 -11 68 q0 44 15.5 87 q15.5 43 43.5 79 l-59 76 l63 55 l59 -73 q61 42 133 42 q73 0 121 -45 l91 76 l44 -55 l-94 -82 q11 -31 11 -66 q0 -45 -15.5 -87.5 q-15.5 -42.5 -43.5 -78.5 l59 -76 l-63 -55 l-59 73 q-63 -42 -133 -42 q-73 0 -120 45 l-91 -76 l-46 55 l95 80 ZM275 183 q51 0 91.5 28 q40.5 28 63 73.5 q22.5 45.5 22.5 95.5 q0 49 -29 78 q-29 29 -80 29 q-50 0 -90.5 -28.5 q-40.5 -28.5 -63.5 -74 q-23 -45.5 -23 -95.5 q0 -48 29.5 -77 q29.5 -29 79.5 -29 Z" /><glyph glyph-name="" unicode="$" d="M211 -2 q-59 8 -110 36.5 q-51 28.5 -87 73.5 l50 47 q39 -44 91 -66.5 q52 -22.5 113 -22.5 q71 0 116 31.5 q45 31.5 45 83.5 q0 45 -30 71.5 q-30 26.5 -103 53.5 q-95 35 -136 74 q-41 39 -40 106 q0 52 30 92.5 q30 40.5 80 64 q50 23.5 111 27.5 l23 108 l84 18 l-28 -131 q50 -11 92.5 -38 q42.5 -27 70.5 -65 l-59 -44 q-62 79 -169 79 q-69 0 -113.5 -29.5 q-44.5 -29.5 -44.5 -80.5 q0 -38 30 -61 q30 -23 105 -52 q90 -33 133.5 -76.5 q43.5 -43.5 43.5 -109.5 q0 -84 -59.5 -134.5 q-59.5 -50.5 -160.5 -58.5 l-25 -120 l-82 -17 l29 140 Z" /><glyph glyph-name="" unicode="&#x20ac;" d="M317 -10 q-95 0 -154.5 63.5 q-59.5 63.5 -66.5 166.5 l-91 0 l31 67 l61 0 q4 44 17 90 l-76 0 l31 67 l70 0 q46 99 127 161 q81 62 177 62 q123 0 186 -91 l-57 -46 q-49 62 -131 62 q-67 0 -123 -40.5 q-56 -40.5 -93 -107.5 l223 0 l-30 -67 l-223 0 q-15 -48 -19 -90 l199 0 l-32 -67 l-167 0 q8 -69 48 -111.5 q40 -42.5 99 -42.5 q46 0 85 16.5 q39 16.5 82 51.5 l45 -57 q-53 -45 -105.5 -66 q-52.5 -21 -112.5 -21 Z" /><glyph glyph-name="" unicode="&#x192;" d="M42 74 q67 0 109 34.5 q42 34.5 75 113.5 l34 82 l-141 0 l15 71 l155 0 l31 72 q46 110 109.5 160 q63.5 50 161.5 50 l57 0 l-15 -74 l-52 0 q-68 0 -109 -34.5 q-41 -34.5 -74 -113.5 l-25 -60 l146 0 l-16 -71 l-160 0 l-39 -94 q-47 -111 -109 -160.5 q-62 -49.5 -160 -49.5 l-67 0 l15 74 l59 0 Z" /><glyph glyph-name="" unicode="£" d="M136 282 l-89 0 l15 71 l103 0 l38 90 q45 108 107 161 q62 53 166 53 l141 0 l-16 -74 l-136 0 q-69 0 -111.5 -34 q-42.5 -34 -77.5 -117 l-33 -79 l237 0 l-16 -71 l-251 0 l-86 -209 l376 0 l-16 -73 l-457 0 l12 56 l94 226 Z" /><glyph glyph-name="" unicode="¥" d="M224 121 l-175 0 l13 67 l177 0 l17 82 l-176 0 l15 67 l139 0 l-113 320 l84 0 l105 -314 l235 314 l90 0 l-246 -320 l136 0 l-14 -67 l-178 0 l-17 -82 l177 0 l-14 -67 l-178 0 l-25 -121 l-77 0 l25 121 Z" /><glyph glyph-name="" unicode="+" d="M266 295 l-172 0 l16 71 l170 0 l38 176 l70 0 l-38 -176 l172 0 l-16 -71 l-171 0 l-37 -176 l-70 0 l38 176 Z" /><glyph glyph-name="" unicode="&#x2212;" d="M129 367 l374 0 l-16 -73 l-373 0 l15 73 Z" /><glyph glyph-name="" unicode="×" d="M101 200 l160 135 l-102 133 l54 44 l102 -131 l157 132 l44 -52 l-160 -135 l102 -132 l-54 -44 l-101 131 l-159 -133 l-43 52 Z" /><glyph glyph-name="" unicode="÷" d="M343 435 q-21 0 -33.5 13 q-12.5 13 -12.5 33 q0 27 17 44 q17 17 40 17 q22 0 34.5 -12.5 q12.5 -12.5 12.5 -33.5 q0 -25 -17 -43 q-17 -18 -41 -18 ZM135 367 l374 0 l-16 -73 l-373 0 l15 73 ZM277 114 q-21 0 -34 13.5 q-13 13.5 -13 33.5 q0 28 17.5 46 q17.5 18 41.5 18 q22 0 35.5 -13 q13.5 -13 13.5 -34 q0 -27 -17.5 -45.5 q-17.5 -18.5 -43.5 -18.5 Z" /><glyph glyph-name="" unicode="&#x2260;" d="M104 113 l59 79 l-72 0 l16 73 l109 0 l96 130 l-178 0 l15 74 l217 0 l83 113 l57 -35 l-58 -78 l76 0 l-17 -74 l-113 0 l-96 -130 l183 0 l-17 -73 l-220 0 l-84 -115 l-56 36 Z" /><glyph glyph-name="" unicode="&gt;" d="M101 184 l300 154 l-229 148 l43 59 l273 -182 l-12 -63 l-348 -182 l-27 66 Z" /><glyph glyph-name="" unicode="&lt;" d="M128 299 l12 63 l348 182 l27 -66 l-300 -154 l229 -148 l-43 -59 l-273 182 Z" /><glyph glyph-name="" unicode="&#x2265;" d="M124 228 l298 141 l-229 134 l37 58 l277 -167 l-13 -61 l-345 -168 l-25 63 ZM79 72 l359 0 l-15 -72 l-360 0 l16 72 Z" /><glyph glyph-name="" unicode="&#x2264;" d="M123 332 l13 61 l345 168 l26 -63 l-299 -141 l229 -134 l-37 -58 l-277 167 ZM68 73 l360 0 l-15 -73 l-360 0 l15 73 Z" /><glyph glyph-name="" unicode="~" d="M399 248 q-27 0 -50 11.5 q-23 11.5 -54 32.5 q-27 19 -45.5 28.5 q-18.5 9.5 -38.5 9.5 q-29 0 -49 -19.5 q-20 -19.5 -28 -56.5 l-67 0 q32 146 147 146 q27 0 50.5 -11.5 q23.5 -11.5 52.5 -33.5 q30 -20 47 -29 q17 -9 37 -9 q29 0 49 19.5 q20 19.5 28 57.5 l67 0 q-31 -146 -146 -146 Z" /><glyph glyph-name="" unicode="¬" d="M428 349 l-325 0 l16 71 l396 0 l-53 -249 l-72 0 l38 178 Z" /><glyph glyph-name="" unicode="^" d="M344 676 l75 0 l105 -336 l-78 0 l-77 260 l-189 -260 l-85 0 l249 336 Z" /><glyph glyph-name="" unicode="@" d="M400 -160 q-101 0 -180.5 48.5 q-79.5 48.5 -123.5 131 q-44 82.5 -44 180.5 q0 144 67.5 254.5 q67.5 110.5 181.5 170.5 q114 60 250 60 q103 0 184.5 -39 q81.5 -39 126.5 -107 q45 -68 45 -154 q0 -89 -42.5 -163 q-42.5 -74 -115.5 -117 q-73 -43 -162 -43 l-42 0 l-5 46 q-31 -25 -66 -39 q-35 -14 -67 -14 q-65 0 -102.5 44.5 q-37.5 44.5 -37.5 114.5 q0 69 31 126.5 q31 57.5 83.5 91 q52.5 33.5 116.5 33.5 q30 0 61.5 -13 q31.5 -13 52.5 -33 l17 38 l60 0 l-69 -330 q63 4 112.5 40.5 q49.5 36.5 77 94 q27.5 57.5 27.5 123.5 q0 66 -37 118.5 q-37 52.5 -102.5 82 q-65.5 29.5 -149.5 29.5 q-117 0 -214 -50.5 q-97 -50.5 -153.5 -144 q-56.5 -93.5 -56.5 -216.5 q0 -79 35.5 -146.5 q35.5 -67.5 99.5 -107 q64 -39.5 146 -39.5 q66 0 118 18.5 q52 18.5 97 53.5 l39 -56 q-112 -87 -259 -87 ZM428 127 q32 0 64 16 q32 16 60 44 l37 178 q-36 30 -84 30 q-46 0 -82.5 -23.5 q-36.5 -23.5 -57 -63.5 q-20.5 -40 -20.5 -88 q0 -42 21.5 -67.5 q21.5 -25.5 61.5 -25.5 Z" /><glyph glyph-name="" unicode="&amp;" d="M235 -11 q-95 0 -151.5 45.5 q-56.5 45.5 -56.5 120.5 q0 74 49 130 q49 56 130 91 q-33 59 -33 120 q0 56 28.5 99.5 q28.5 43.5 76.5 67 q48 23.5 104 23.5 q57 0 103.5 -25 q46.5 -25 77.5 -71 l-60 -47 q-23 34 -55.5 51.5 q-32.5 17.5 -68.5 17.5 q-55 0 -91.5 -32 q-36.5 -32 -36.5 -83 q0 -38 18 -72.5 q18 -34.5 64 -101.5 l115 -167 q54 64 74 160 l7 35 l71 0 l-9 -44 q-26 -127 -103 -208 l69 -99 l-93 0 l-33 49 q-85 -60 -196 -60 ZM247 61 q78 0 145 44 l-150 217 q-60 -25 -99 -65.5 q-39 -40.5 -39 -89.5 q0 -48 38.5 -77 q38.5 -29 104.5 -29 Z" /><glyph glyph-name="" unicode="¶" d="M203 -73 q50 0 84.5 32.5 q34.5 32.5 45.5 90.5 l131 612 l82 14 l-134 -634 q-19 -93 -73.5 -142 q-54.5 -49 -137.5 -49 l-30 0 l15 76 l17 0 ZM301 221 q-106 0 -164.5 42.5 q-58.5 42.5 -58.5 117.5 q0 19 5 46 q18 85 79 139.5 q61 54.5 160 71.5 l68 12 l-89 -429 Z" /><glyph glyph-name="" unicode="§" d="M77 -78 q57 0 93 25.5 q36 25.5 36 70.5 q0 24 -9 41 q-9 17 -29 40 l-67 76 q-46 50 -46 105 q0 58 40 99.5 q40 41.5 102 53.5 q-23 40 -23 81 q0 78 58.5 120 q58.5 42 157.5 42 l62 0 l-15 -70 l-66 0 q-57 0 -89.5 -24.5 q-32.5 -24.5 -32.5 -73.5 q0 -40 38 -82 l65 -73 q45 -51 45 -108 q0 -56 -39.5 -96 q-39.5 -40 -99.5 -52 q22 -36 22 -81 q0 -79 -61 -121.5 q-61 -42.5 -157 -42.5 l-66 0 l16 70 l65 0 ZM214 153 q49 2 80.5 27 q31.5 25 31.5 64 q0 33 -29 65 l-60 68 q-48 -2 -79.5 -27.5 q-31.5 -25.5 -31.5 -64.5 q0 -33 29 -66 l59 -66 Z" /><glyph glyph-name="" unicode="©" d="M408 -11 q-98 0 -178.5 43.5 q-80.5 43.5 -127.5 123 q-47 79.5 -47 182.5 q0 100 47.5 180 q47.5 80 128.5 124.5 q81 44.5 177 44.5 q97 0 178 -44 q81 -44 129 -124 q48 -80 48 -181 q0 -102 -48 -181.5 q-48 -79.5 -129.5 -123.5 q-81.5 -44 -177.5 -44 ZM408 51 q82 0 148.5 36 q66.5 36 104.5 101.5 q38 65.5 38 149.5 q0 84 -38 149 q-38 65 -104.5 101.5 q-66.5 36.5 -148.5 36.5 q-82 0 -148 -36.5 q-66 -36.5 -103.5 -102 q-37.5 -65.5 -37.5 -148.5 q0 -85 37 -150 q37 -65 103 -101 q66 -36 149 -36 ZM413 150 q-83 0 -134 51.5 q-51 51.5 -51 137.5 q0 54 24 96.5 q24 42.5 67 66.5 q43 24 96 24 q39 0 73 -15 q34 -15 56 -44 l-38 -44 q-20 20 -41 29.5 q-21 9.5 -47 9.5 q-54 0 -86 -33 q-32 -33 -32 -90 q0 -57 31 -90 q31 -33 86 -33 q57 0 97 38 l38 -47 q-27 -27 -62.5 -42 q-35.5 -15 -76.5 -15 Z" /><glyph glyph-name="" unicode="®" d="M324 247 q-67 0 -123.5 30 q-56.5 30 -89.5 85 q-33 55 -33 126 q0 69 33.5 124 q33.5 55 90 86 q56.5 31 122.5 31 q67 0 123.5 -30.5 q56.5 -30.5 90 -85.5 q33.5 -55 33.5 -125 q0 -71 -33.5 -126 q-33.5 -55 -90 -85 q-56.5 -30 -123.5 -30 ZM324 294 q56 0 100.5 24.5 q44.5 24.5 69.5 68.5 q25 44 25 101 q0 56 -25 100 q-25 44 -69 69 q-44 25 -101 25 q-56 0 -100.5 -24.5 q-44.5 -24.5 -69 -69 q-24.5 -44.5 -24.5 -100.5 q0 -57 24.5 -101 q24.5 -44 69 -68.5 q44.5 -24.5 100.5 -24.5 ZM329 612 q43 0 69 -21.5 q26 -21.5 26 -56.5 q0 -21 -11.5 -37 q-11.5 -16 -31.5 -24 q18 -13 29 -36 l34 -65 l-61 0 l-20 38 q-12 24 -22 32 q-10 8 -33 8 l-24 0 l0 -78 l-53 0 l0 240 l98 0 ZM321 498 q45 0 45 33 q0 34 -45 34 l-37 0 l0 -67 l37 0 Z" /><glyph glyph-name="" unicode="&#x2122;" d="M221 615 l-115 0 l13 61 l291 0 l-13 -61 l-114 0 l-62 -293 l-62 0 l62 293 ZM475 676 l59 0 l75 -223 l179 223 l61 0 l-76 -354 l-61 0 l51 238 l-139 -170 l-51 0 l-62 168 l-51 -236 l-60 0 l75 354 Z" /><glyph glyph-name="" unicode="°" d="M245 398 q-38 0 -70.5 19 q-32.5 19 -51.5 51.5 q-19 32.5 -19 70.5 q0 38 19.5 70.5 q19.5 32.5 52 51.5 q32.5 19 69.5 19 q38 0 71 -19 q33 -19 52 -51.5 q19 -32.5 19 -70.5 q0 -38 -19 -70.5 q-19 -32.5 -52 -51.5 q-33 -19 -71 -19 ZM245 462 q32 0 54.5 22.5 q22.5 22.5 22.5 54.5 q0 32 -22.5 54.5 q-22.5 22.5 -54.5 22.5 q-31 0 -53 -22.5 q-22 -22.5 -22 -54.5 q0 -32 22 -54.5 q22 -22.5 53 -22.5 Z" /><glyph glyph-name="" unicode="|" d="M202 735 l80 0 l-185 -872 l-80 0 l185 872 Z" /><glyph glyph-name="" unicode="¦" d="M202 735 l80 0 l-70 -328 l-80 0 l70 328 ZM87 192 l79 0 l-69 -329 l-80 0 l70 329 Z" /><glyph glyph-name="" unicode="&#x2020;" d="M199 508 l-117 0 l13 60 l117 0 l23 108 l66 13 l-26 -121 l120 0 l-12 -60 l-121 0 l-44 -212 l-63 0 l44 212 Z" /><glyph glyph-name="" unicode="&#x2021;" d="M184 393 l-114 0 l12 59 l115 0 l16 81 l-113 0 l12 59 l114 0 l18 84 l66 13 l-21 -97 l117 0 l-13 -59 l-117 0 l-16 -81 l115 0 l-12 -59 l-116 0 l-21 -97 l-63 0 l21 97 Z" /><glyph glyph-name="" unicode="&#x308;" d="M-294 617 q-21 0 -33.5 12 q-12.5 12 -12.5 31 q0 26 16 42.5 q16 16.5 40 16.5 q20 0 32.5 -12.5 q12.5 -12.5 12.5 -32.5 q0 -23 -16.5 -40 q-16.5 -17 -38.5 -17 ZM-118 617 q-21 0 -33 12.5 q-12 12.5 -12 31.5 q0 26 15.5 42 q15.5 16 39.5 16 q21 0 33.5 -12.5 q12.5 -12.5 12.5 -32.5 q0 -23 -16.5 -40 q-16.5 -17 -39.5 -17 Z" /><glyph glyph-name="" unicode="&#x307;" d="M-206 617 q-21 0 -33.5 12.5 q-12.5 12.5 -12.5 32.5 q0 25 16 41.5 q16 16.5 40 16.5 q20 0 33 -12.5 q13 -12.5 13 -32.5 q0 -24 -16.5 -41 q-16.5 -17 -39.5 -17 Z" /><glyph glyph-name="" unicode="&#x300;" d="M-297 736 l90 0 l103 -137 l-80 0 l-113 137 Z" /><glyph glyph-name="" unicode="&#x301;" d="M-174 736 l105 0 l-174 -137 l-88 0 l157 137 Z" /><glyph glyph-name="" unicode="&#x302;" d="M-231 736 l87 0 l88 -137 l-77 0 l-63 85 l-100 -85 l-81 0 l146 137 Z" /><glyph glyph-name="" unicode="&#x30c;" d="M-346 736 l77 0 l64 -84 l100 84 l81 0 l-147 -137 l-87 0 l-88 137 Z" /><glyph glyph-name="" unicode="&#x30a;" d="M-156 587 q-33 0 -61 16.5 q-28 16.5 -44.5 44.5 q-16.5 28 -16.5 61 q0 50 36 85 q36 35 86 35 q51 0 87 -35 q36 -35 36 -85 q0 -51 -36 -86.5 q-36 -35.5 -87 -35.5 ZM-156 641 q27 0 46.5 20 q19.5 20 19.5 48 q0 27 -19.5 46 q-19.5 19 -46.5 19 q-26 0 -45 -19 q-19 -19 -19 -46 q0 -28 19 -48 q19 -20 45 -20 Z" /><glyph glyph-name="" unicode="&#x303;" d="M-137 607 q-19 0 -35 7 q-16 7 -37 20 q-38 24 -71 24 q-22 0 -41 -9.5 q-19 -9.5 -49 -31.5 l14 72 q43 37 87 37 q18 0 32.5 -6 q14.5 -6 38.5 -20 q21 -12 38.5 -19 q17.5 -7 34.5 -7 q20 0 38 8 q18 8 33.5 18.5 q15.5 10.5 22.5 14.5 l-15 -71 q-45 -37 -91 -37 Z" /><glyph glyph-name="" unicode="&#x327;" d="M-430 -125 q37 0 62 19.5 q25 19.5 25 52.5 q0 25 -24 57 l52 10 q35 -40 35 -81 q0 -56 -43.5 -87 q-43.5 -31 -110.5 -31 l-27 0 l12 60 l19 0 Z" /></font>
</defs>
</svg>
