<?xml version="1.0" encoding="utf-8"?>
<!-- Generator: Adobe Illustrator 23.0.6, SVG Export Plug-In . SVG Version: 6.00 Build 0)  -->
<svg version="1.1" xmlns="http://www.w3.org/2000/svg" xmlns:xlink="http://www.w3.org/1999/xlink" x="0px" y="0px"
	 viewBox="0 0 5669.3 5669.3" style="enable-background:new 0 0 5669.3 5669.3;" xml:space="preserve">
<style type="text/css">
	.st0{fill:#DFF3FD;}
	.st1{fill:#0E81ED;}
	.st2{fill:#0B2D4E;}
	.st3{fill:#2365A7;}
	.st4{fill:#061F33;}
	.st5{clip-path:url(#SVGID_2_);}
	.st6{fill:#FFFFFF;}
	.st7{fill:#499ED0;}
	.st8{fill:#26435A;}
	.st9{fill:#3F91AC;}
	.st10{fill:#F8A17A;}
	.st11{fill:#E5785C;}
	.st12{opacity:0.2;}
	.st13{fill:#2F95D2;}
	.st14{fill:#73B8D4;}
	.st15{fill:#0B67BD;}
	.st16{fill:#E1F4FD;}
</style>
<g id="Layer_1">
</g>
<g id="Layer_2">
	<g>
		<g>
			<path class="st0" d="M3930.6,4828.5l-5-8.6c143.2-83.5,309.9-90,471.2-96.2c66-2.6,134.3-5.2,199.2-13.2
				c73.8-9.1,144.2-28,209-56c64.3-27.8,123.1-64.5,174.8-109.2c52-45,96.6-97.9,132.4-157.2c36.7-60.7,64.3-128,82-200.2
				c31.5-128.1,30.9-264.1-1.6-393.4c-33-131.2-98-250.4-187.7-344.7c-9.2-9.7-18.6-19.5-27.8-29c-63.2-65.7-128.5-133.6-175-213.5
				c-29.4-50.5-48.8-105.5-57.6-163.5c-8.1-53.7-7.3-110.3,2.6-168.4c17.7-104.7,64.2-212.9,134.5-313.1
				c18.6-26.5,38.2-53.1,57.2-78.7c60.8-82.4,123.7-167.6,163.6-265.1c25.2-61.5,40.2-131.2,44.7-207.2
				c4.1-68.6-0.4-140.4-13.4-213.4c-21.6-121.6-67.4-241.3-132.5-346.3c-66.5-107.2-152.1-197.4-247.8-260.7
				c-60.2-39.9-122.9-69.2-191.5-89.6c-61.2-18.2-125.8-28.8-197.6-32.6c-133.6-6.9-273,12.1-407.7,30.4
				c-117.1,15.9-237.3,32.3-356.1,32.3c-30.9,0-61.7-1.1-92.3-3.6c-54.3-4.4-108.7-14.1-161.5-28.7
				c-53.2-14.7-105.1-34.4-154.4-58.6c-102.6-50.5-191.5-119-264.3-203.5c-138.6-160.9-321.8-281.1-515.9-338.5
				c-100.7-29.8-201.8-42-300.5-36.5c-104.3,5.9-204.4,31.7-297.5,76.7c-217.1,105.1-395.5,304.5-489.4,547.1
				c-53.4,138-64.2,287.9-74.6,432.8c-9.7,135.7-19.8,276.1-64.5,408.8c-25.1,74.7-62.4,148.4-107.9,213.2
				c-48.5,69.2-104.3,126.4-165.9,170.1c-166.9,118.4-280.5,232.1-357.3,357.8c-52.4,85.8-86.9,181.2-99.7,275.9
				c-6.7,49.6-7.3,98.4-1.9,145.2c5.7,49.1,18.1,96.1,36.9,139.6c50.8,117.7,149.6,192.9,245,265.6
				c49.6,37.8,100.9,76.8,144.4,121.2c48.9,49.9,82.8,101.5,103.4,157.8c17.1,46.6,25.3,100.5,25,165c-0.3,75.1-14.2,152-27.6,226.3
				c-11.4,63.2-23.2,128.6-26.6,192.4c-3.8,71.3,3.6,133.2,22.6,189.1c27.7,81.7,97.3,141,207,176.3c77,24.8,171.3,37.7,288.3,39.4
				c34.6,0.5,70,0.2,104.3-0.1c135.1-1.1,274.9-2.3,403.3,43.7l-3.4,9.4c-126.8-45.4-265.6-44.3-399.9-43.1
				c-34.3,0.3-69.8,0.6-104.6,0.1c-118-1.7-213.3-14.7-291.2-39.8c-112.8-36.4-184.6-97.8-213.4-182.7
				c-43.2-127.4-19.4-259.1,3.6-386.6c13.4-73.9,27.2-150.4,27.5-224.6c0.3-63.2-7.7-116-24.4-161.5
				c-20.1-54.9-53.2-105.3-101.2-154.2c-43-43.8-94-82.7-143.3-120.2c-96.5-73.5-196.3-149.5-248.2-269.6
				c-19.2-44.4-31.9-92.3-37.7-142.4c-5.5-47.6-4.9-97.3,1.9-147.7c13-96.1,47.9-192.8,101.1-279.8
				c77.5-126.9,191.9-241.5,360-360.7c60.6-43,115.7-99.4,163.5-167.6c44.9-64,81.7-136.8,106.6-210.7
				c44.2-131.5,54.3-271.2,64-406.3c10.5-145.6,21.3-296.3,75.2-435.7c94.8-245,275-446.4,494.4-552.5
				c94.3-45.6,195.6-71.7,301.3-77.7c99.8-5.6,202,6.8,303.8,36.9c195.9,57.9,380.8,179.2,520.6,341.5
				c71.9,83.5,159.8,151.2,261.2,201.1c48.7,24,100,43.5,152.6,58c52.3,14.4,106,23.9,159.7,28.3c147.4,12.1,299.3-8.6,446.2-28.6
				c135.2-18.4,275-37.4,409.5-30.5c72.6,3.7,138,14.5,199.9,33c69.6,20.7,133.1,50.4,194.1,90.9c96.8,64.1,183.5,155.3,250.7,263.8
				c65.7,106.1,112,227,133.9,349.8c13.1,73.8,17.7,146.3,13.5,215.7c-4.6,77-19.9,147.8-45.5,210.3
				c-40.3,98.6-103.6,184.3-164.8,267.2c-18.9,25.6-38.5,52.2-57,78.5c-69.4,99-115.3,205.8-132.8,309c-9.7,57-10.5,112.6-2.6,165.3
				c8.6,56.7,27.5,110.5,56.3,160c45.9,78.9,110.8,146.4,173.6,211.6c9.1,9.5,18.6,19.3,27.8,29c90.9,95.6,156.7,216.3,190.2,349.2
				c32.9,130.8,33.5,268.5,1.7,398.2c-18,73.2-46,141.5-83.2,203c-36.4,60.2-81.7,113.9-134.5,159.6
				c-105.3,91.1-239.9,149.1-389.1,167.5c-65.3,8.1-133.8,10.7-200,13.3c-79.9,3.1-162.6,6.3-241.5,19
				C4067.4,4766.9,3993.8,4791.7,3930.6,4828.5z"/>
		</g>
		<g>
			<path class="st0" d="M690.7,2485.3c-122.5,174.2-217.1,411.3-151.5,630.1c65.4,218.1,274.6,352.6,366,559.8
				c51.7,117.1,53.1,245.9,55,371.6c2.6,164.5-29.6,339.3,81.6,478.4c65.8,82.3,165,130.9,265.4,162.8
				c201.6,64.1,412.8,94.2,591.8,215.3c294.2,199,655.4,268.5,1006,247c177.8-10.9,354.1-44.4,524.4-96.3
				c197.9-60.4,373.7-167.3,572.9-224.5c345.3-99.2,817.4-100.6,1019.4-449.9c136-235.2,183.2-525.9,77.3-782.1
				c-50.3-121.8-146.4-214.9-201.1-334.5c-75.6-165.3-96-353.7-45.5-529.3c2.1-7.2,4.3-14.4,6.6-21.6
				c52.8-164.1,158.9-305.3,202.9-472.4c90.7-345-109.7-709.7-373.1-931.5c-109.4-92.1-231.7-168.8-364.9-212.5
				c-367.3-120.6-775.5,19-1143.9-97.7c-282.7-89.5-514.7-322-802.7-389.3c-221.3-51.7-460.5,3.5-648.5,138.6
				c-188,135.1-324.4,346.5-386.6,579.3c-57.6,215.7-55.8,452.7-158,648.7c-87.4,167.7-249.5,258.1-381,379.8
				C762.5,2392.7,724.6,2437.1,690.7,2485.3z"/>
		</g>
		<g>
			<path class="st0" d="M5066.6,749.3c3.3-19.7-22.9-59.6-51.4-58.9c-11.3,0.3-22.4,3.2-33.8,2.6c-30.2-1.5-45.8-25-57.4-44.4
				s-34.8-41.6-64.2-36.7c-42.3,7.1-63.7,63-111.8,21c-31.5-27.5-33.9-65.8-69.5-92.5c-24.5-18.3-64.3-29.1-97.1-19
				c-42.8,13.2-58.8,55.7-104.4,63c-50.5,8.2-86.9-30.3-103-58c-19.6-33.6-26.8-70-43.6-104.2c-15.5-31.7-46.7-74.1-102.6-73.2
				c-47.3,0.8-68.1,30.7-91.3,54.5c-30.2,30.9-92.9,141.9-163.2,128.5c-27.4-5.2-41.1-27-65.9-36.8c-39.8-15.7-90.5,5.9-114.5,33
				c-24,27.1-33.5,59.8-60.6,85.5c-7,6.6-15.5,12.9-26.5,15.9c-37.8,10.4-73.1-21.5-113.6-23.9c-28-1.6-53.9,11.5-70,27.5
				c-16.1,16-24.8,35-37.1,52.5c-3.4,4.9-7.3,9.8-13.5,13.2c-17.8,9.5-42.8,1.5-64.5-2.3c-53.8-9.3-114.9,15.4-130.1,52.6H5066.6z"
				/>
		</g>
		<g>
			<path class="st0" d="M1082.9,1586.4c1.7-10.1-11.8-30.6-26.4-30.3c-5.8,0.1-11.5,1.6-17.4,1.4c-15.5-0.8-23.6-12.8-29.5-22.8
				c-6-10-17.9-21.4-33-18.9c-21.8,3.7-32.7,32.4-57.5,10.8c-16.2-14.1-17.4-33.8-35.7-47.5c-12.6-9.4-33.1-15-49.9-9.8
				c-22,6.8-30.2,28.6-53.7,32.4c-26,4.2-44.7-15.6-52.9-29.8c-10.1-17.3-13.8-36-22.4-53.6c-8-16.3-24-38.1-52.8-37.6
				c-24.3,0.4-35,15.8-46.9,28c-15.5,15.9-47.8,72.9-83.9,66c-14.1-2.7-21.1-13.9-33.9-18.9c-20.5-8.1-46.5,3-58.8,17
				c-12.3,13.9-17.2,30.8-31.1,43.9c-3.6,3.4-8,6.6-13.6,8.2c-19.5,5.3-37.6-11-58.4-12.3c-14.4-0.8-27.7,5.9-36,14.2
				c-8.3,8.2-12.8,18-19.1,27c-1.8,2.5-3.8,5.1-6.9,6.8c-9.1,4.9-22,0.8-33.2-1.2c-27.7-4.8-59.1,7.9-66.9,27H1082.9z"/>
		</g>
		<g>
			<g>
				<g>
					<g>
						
							<rect x="4884.4" y="3074.4" transform="matrix(-1 -1.224647e-16 1.224647e-16 -1 10182.4424 8010.7485)" class="st0" width="413.6" height="1861.9"/>
					</g>
					<g>
						<rect x="4260.2" y="3645.8" class="st0" width="624.2" height="1290.5"/>
					</g>
					<g>
						<rect x="5046.3" y="4030" class="st0" width="624.2" height="906.3"/>
					</g>
					<g>
						
							<rect x="4884.4" y="2983.4" transform="matrix(-1 -1.224647e-16 1.224647e-16 -1 10104.7139 6057.8491)" class="st0" width="335.9" height="91"/>
					</g>
					<g>
						
							<rect x="4884.4" y="2892.4" transform="matrix(-1 -1.224647e-16 1.224647e-16 -1 10043.6396 5875.8311)" class="st0" width="274.8" height="91"/>
					</g>
					<g>
						
							<rect x="4884.4" y="2801.4" transform="matrix(-1 -1.224647e-16 1.224647e-16 -1 9985.3428 5693.8135)" class="st0" width="216.5" height="91"/>
					</g>
				</g>
				<g>
					<g>
						
							<rect x="3251.5" y="3074.4" transform="matrix(-1 -1.224647e-16 1.224647e-16 -1 6916.6577 8010.7485)" class="st0" width="413.6" height="1861.9"/>
					</g>
					<g>
						
							<rect x="4383" y="2471.6" transform="matrix(-1 -1.224647e-16 1.224647e-16 -1 9179.625 7407.9419)" class="st0" width="413.6" height="2464.7"/>
					</g>
					<g>
						
							<rect x="2424.2" y="4215.8" transform="matrix(-1 -1.224647e-16 1.224647e-16 -1 5675.7603 9152.1514)" class="st0" width="827.3" height="720.5"/>
					</g>
					<g>
						
							<rect x="3458.3" y="2180.9" transform="matrix(-1 -1.224647e-16 1.224647e-16 -1 7747.6582 7117.2051)" class="st0" width="831" height="2755.4"/>
					</g>
					<g>
						
							<rect x="3251.5" y="2983.4" transform="matrix(-1 -1.224647e-16 1.224647e-16 -1 6838.9282 6057.8491)" class="st0" width="335.9" height="91"/>
					</g>
					<g>
						
							<rect x="3251.5" y="2892.4" transform="matrix(-1 -1.224647e-16 1.224647e-16 -1 6777.855 5875.8311)" class="st0" width="274.8" height="91"/>
					</g>
					<g>
						
							<rect x="3251.5" y="2801.4" transform="matrix(-1 -1.224647e-16 1.224647e-16 -1 6719.5581 5693.8135)" class="st0" width="216.5" height="91"/>
					</g>
				</g>
			</g>
			<g>
				<g>
					<g>
						
							<rect x="2459" y="3074.4" transform="matrix(-1 -1.224647e-16 1.224647e-16 -1 5331.646 8010.7485)" class="st0" width="413.6" height="1861.9"/>
					</g>
					<g>
						<rect x="2872.6" y="3389.2" class="st0" width="413.6" height="1547.2"/>
					</g>
					<g>
						<rect x="1834.8" y="2656.9" class="st0" width="624.2" height="2279.4"/>
					</g>
					<g>
						
							<rect x="2459" y="2983.4" transform="matrix(-1 -1.224647e-16 1.224647e-16 -1 5253.9165 6057.8491)" class="st0" width="335.9" height="91"/>
					</g>
					<g>
						
							<rect x="2459" y="2892.4" transform="matrix(-1 -1.224647e-16 1.224647e-16 -1 5192.8438 5875.8311)" class="st0" width="274.8" height="91"/>
					</g>
					<g>
						
							<rect x="2459" y="2801.4" transform="matrix(-1 -1.224647e-16 1.224647e-16 -1 5134.5459 5693.8135)" class="st0" width="216.5" height="91"/>
					</g>
				</g>
				<g>
					<g>
						
							<rect x="826.1" y="3074.4" transform="matrix(-1 -1.224647e-16 1.224647e-16 -1 2065.8613 8010.7485)" class="st0" width="413.6" height="1861.9"/>
					</g>
					<g>
						
							<rect x="412.5" y="3389.2" transform="matrix(-1 -1.224647e-16 1.224647e-16 -1 1238.5963 8325.4883)" class="st0" width="413.6" height="1547.2"/>
					</g>
					<g>
						
							<rect x="1337.1" y="3131" transform="matrix(-1 -1.224647e-16 1.224647e-16 -1 3087.8828 8067.293)" class="st0" width="413.6" height="1805.3"/>
					</g>
					<g>
						
							<rect x="-1.2" y="4037.5" transform="matrix(-1 -1.224647e-16 1.224647e-16 -1 411.3313 8973.8633)" class="st0" width="413.6" height="898.8"/>
					</g>
					<g>
						
							<rect x="1032.9" y="3576.9" transform="matrix(-1 -1.224647e-16 1.224647e-16 -1 2896.8608 8513.1934)" class="st0" width="831" height="1359.4"/>
					</g>
					<g>
						
							<rect x="826.1" y="2983.4" transform="matrix(-1 -1.224647e-16 1.224647e-16 -1 1988.132 6057.8491)" class="st0" width="335.9" height="91"/>
					</g>
					<g>
						
							<rect x="379.2" y="4541.9" transform="matrix(-1 -1.224647e-16 1.224647e-16 -1 1094.2405 9174.9033)" class="st0" width="335.9" height="91"/>
					</g>
					<g>
						
							<rect x="826.1" y="2892.4" transform="matrix(-1 -1.224647e-16 1.224647e-16 -1 1927.0588 5875.8311)" class="st0" width="274.8" height="91"/>
					</g>
					<g>
						
							<rect x="826.1" y="2801.4" transform="matrix(-1 -1.224647e-16 1.224647e-16 -1 1868.7612 5693.8135)" class="st0" width="216.5" height="91"/>
					</g>
				</g>
				<g>
					
						<rect x="2611.9" y="3563.6" transform="matrix(-1 -1.224647e-16 1.224647e-16 -1 5767.6318 7218.2134)" class="st0" width="543.8" height="91"/>
				</g>
				<g>
					
						<rect x="2611.9" y="3889.7" transform="matrix(-1 -1.224647e-16 1.224647e-16 -1 5767.6318 7870.4429)" class="st0" width="543.8" height="91"/>
				</g>
				<g>
					
						<rect x="2611.9" y="4215.8" transform="matrix(-1 -1.224647e-16 1.224647e-16 -1 5767.6318 8522.6729)" class="st0" width="543.8" height="91"/>
				</g>
				<g>
					
						<rect x="527.7" y="4215.8" transform="matrix(-1 -1.224647e-16 1.224647e-16 -1 1599.225 8522.6729)" class="st0" width="543.8" height="91"/>
				</g>
				<g>
					
						<rect x="527.7" y="4541.9" transform="matrix(-1 -1.224647e-16 1.224647e-16 -1 1599.225 9174.9033)" class="st0" width="543.8" height="91"/>
				</g>
			</g>
		</g>
		<g>
			<path class="st1" d="M2400.9,2605.8c-107.8,110.9-10,381.8,161.8,342.6c184.7-42.1,156.9-329.9-10.1-377.1
				C2487.5,2552.8,2435.6,2570.1,2400.9,2605.8z"/>
		</g>
		<g>
			<path class="st2" d="M3257.2,2963.1c-41,39.7-88.6,70.4-145.1,83.4c-107.6,24.6-208.7-22.8-298.4-77.3
				c-95.9-58.3-191.6-117.4-282-183.9c-64.7-47.6-130.9-98.1-171.2-169.3c-46.7-82.4-49.5-181.6-39.9-273.6
				c6.5-62.9-22.8-119.3-35.7-179.2c-25.1-116.6,0.6-254.4,109.4-321.3c55.5-34.2,113.6-29.1,172.1-4c44.8,19.2,86.5,46,133.4,59.3
				c99.8,28.4,208.1-10.7,305.9-30.8c70.8-14.6,148.2-22.2,218,1.2c77.7,26,114.7,82.9,157.1,148.7c36.3,56.2,91.3,98.7,135.1,148.7
				c58.7,67,76.6,151.8,56.8,238.2c-29,126.8-101.9,235.8-165.3,347C3366.9,2821.4,3319.6,2902.7,3257.2,2963.1z"/>
		</g>
		<g>
			<path class="st3" d="M2456.4,4167c129.2-199.1,209.6-443.5,97.3-668.3c-11.4-22.8-25.1-47.6-49.2-55.7
				c-52-17.3-122.5,1.3-167.7,27.8c-156.8,92-252.7,265.1-340.8,419.1c-91.5,160-171,326.6-262.9,486.3
				c-37.2,64.7-74.9,130.3-94.8,202.2c-17.5,63-19.4,135.2,4.5,196.8c103.2,266.6,387.1-60,473.5-158.6
				C2239.4,4475.9,2354.6,4324,2456.4,4167z"/>
		</g>
		<g>
			<path class="st4" d="M3100.3,2959.8c-13.8,14.8-30,27.2-48.2,36.2c-47.1,23.3-103.5,22.2-153.8,6.8s-95.3-44-138.3-74.3
				c-116.1-82-259.7-190.6-328.8-316.7c-42.6-77.7-74.2-169.5-33.4-254.3c35-72.9,106.2-126.7,187.6-134.4c6.7-0.6,13.7-0.9,19.7,2
				c6.8,3.3,11.2,10,15.2,16.4c29.4,48.2,52.8,100.7,88.7,144.7c39,47.8,87.3,83.6,140,115.6c85.1,51.6,178.6,89.7,258.6,148.9
				c57.8,42.7,59.3,138.9,45.3,205.6C3144.8,2894.5,3126.8,2931.5,3100.3,2959.8z"/>
		</g>
		<g>
			<defs>
				<path id="SVGID_1_" d="M3749.8,3912.1c40.9-149.4,62.1-302.2-30.6-404c-41.9-46-116.5-78-177.5-100.7
					c-119.1-44.4-240.8-104-368.3-123.4c-134.4-20.4-283.8-33-417.8-3.8c-85.1,18.5-164.7,52.8-240.7,89.8
					c-102.1,49.6-174.8,83-207.6,185.1c-36.3,113.3-58.4,229.7-70.7,346.6c-36,342.4,11.6,685.7,10.5,1028.3
					c-0.1,33.7,0.4,68.7,17.5,99c33.7,59.7,125.3,60.5,191.3,60.4c217.5-0.3,435-0.6,652.5-1c90.5-0.1,159.6,9.4,244.6,24.5
					c71.5,12.7,132.9-18.4,167.2-75.8c32.5-54.3,34.9-117.7,38.4-178.8c13.5-237.5,52.6-473.8,116.5-705.1
					C3693.4,4087.8,3725.2,4002.1,3749.8,3912.1z"/>
			</defs>
			<use xlink:href="#SVGID_1_"  style="overflow:visible;fill:#0E81ED;"/>
			<clipPath id="SVGID_2_">
				<use xlink:href="#SVGID_1_"  style="overflow:visible;"/>
			</clipPath>
			<g class="st5">
				<path class="st3" d="M3223.6,3477.6c46-74.3,56.5-167.1-3.8-238.6c-27.6-32.7-76.4-36.4-118.1-37.1
					c-82.1-1.5-164.4,6.9-244.3,24.8c-76.2,17.1-153.9,46-186.9,119.8c-24.5,54.8-16,118.2,16.3,168.4c29.3,45.6,78,79.3,132.3,91.7
					c87.7,20,190.4,17.3,274-16.4C3145.6,3569,3192.6,3527.5,3223.6,3477.6z"/>
			</g>
			<g class="st5">
				<path class="st3" d="M2369.2,5077c87.5,41.3,183.2,62.1,278.7,78.1c267.2,44.7,539.5,54,810.1,41.1
					c57.9-2.8,120.6-8.5,163.3-47.7c31.7-29.1,46.7-72,57.4-113.8c36.2-142.3,35.7-291,35-437.8c-0.6-114.5-1.2-229.1-1.7-343.6
					c-0.2-39.9,25.7-282.6-36.3-279.8c-6.7,0.3-12.8,3.7-18.3,7.6c-30.9,22.1-46.7,59-61.1,94.1c-45.2,110-83.2,286.2-177.3,363.2
					c-98.8,80.9-212.7,118.6-332.5,157.4c-207.7,67.3-439.4,96.5-615.4,235c-29.3,23.1-57.2,48.6-84.4,74.2
					c-24.4,23.1-57.9,46.9-72.5,79.1C2291.3,5034.4,2327,5057.1,2369.2,5077z"/>
			</g>
		</g>
		<g>
			
				<rect x="-1.2" y="4922.9" transform="matrix(-1 -1.224647e-16 1.224647e-16 -1 5666.9897 10110.7158)" class="st6" width="5669.3" height="265"/>
		</g>
		<g>
			<path class="st1" d="M4218.3,4268.1c33,59.6,65.9,119.3,98.1,179.3c65.4,121.9,186.9,392.7-7.6,459.7
				c-98,33.7-154,0.7-218.8-70.6c-245-270-454-572.7-619.5-897.5c-61.6-120.9-225.2-435.9-26.5-507.9
				c62.7-22.7,135.1-17.4,193.9,14.2c26.9,14.5,50.7,33.9,73.5,54.2c143.4,127.9,245.6,292.9,336.4,460.3
				C4103.9,4063.2,4161.4,4165.5,4218.3,4268.1z"/>
		</g>
		<g>
			<path class="st1" d="M3227.5,4705.3c17.1-2.9,34.3-5.7,51.4-8.3c83.5-12.9,166.6-28.3,249.3-46c163.8-35.1,328.5-65.3,495.1-81
				c17.7-1.7,35.3-3.2,53-4.5c74.7-5.6,153-7.6,221.3,27.2c68.3,34.8,122.6,117.4,105.7,197c-11.8,56-55.7,98.2-104.3,119.5
				c-48.7,21.3-102.2,25.1-154.7,28.6c-170.2,11.5-340.3,23-510.5,34.5c-84.3,5.6-168.5,11.5-252.7,17.3
				c-80.5,5.6-162.1,16.9-242.8,16.9c-34.1,0-72.2-6.2-100.8-28.4c-39.8-30.9-63.7-96.7-67.4-148.2c-2-26.7,3.4-59.2,24.4-75.8
				c11.2-8.9,25.5-11.6,39.2-14.1C3098.4,4728.4,3162.8,4716.2,3227.5,4705.3z"/>
		</g>
		<g>
			<g>
				<rect x="1761.7" y="4765.7" class="st7" width="806.9" height="158"/>
			</g>
			<g>
				<g>
					<path class="st7" d="M1900.2,4781l-203.6-1036.7c-5.4-27.4-29.4-47.1-57.3-47.1H285.6c-19.6,0-36.4,9.7-46.9,24.1l-0.2-0.2
						L176,3795l55.5-12.2l200.5,1020.7c5.4,27.4,29.4,47.1,57.3,47.1h1353.7C1879.7,4850.6,1907.3,4817.1,1900.2,4781z"/>
				</g>
				<g>
					<path class="st8" d="M427.3,4923.6H1781c36.8,0,64.4-33.6,57.3-69.6l-203.6-1036.7c-5.4-27.4-29.4-47.1-57.3-47.1H223.7
						c-36.8,0-64.4,33.6-57.3,69.6L370,4876.5C375.4,4903.9,399.4,4923.6,427.3,4923.6z"/>
				</g>
				<g>
					<path class="st7" d="M853.1,4321.2c12.5,69.9,79.3,126.6,149.2,126.6c69.9,0,115.7-56.7,102.2-126.6
						c-13.5-69.9-80.3-126.6-149.2-126.6C886.4,4194.6,840.6,4251.3,853.1,4321.2z"/>
				</g>
			</g>
			<g>
				<path class="st9" d="M165.3,3818.4"/>
			</g>
		</g>
		<g>
			<path class="st10" d="M3034.9,4959.2c-40.2,8.3-71.7,43.6-111.7,55.5c-28.6,8.4-59.1,3.9-86.6-6.4c-25.2-9.5-50.9-14.5-76.8-22.8
				c-20.2-6.5-47.5-20.1-69.2-15.6c-56.9,11.8-113.6,52.3-165.1,78.6c-11.6,5.9-24.3,12-37.1,9.6c-12.8-2.4-23.4-17.9-16.2-28.7
				c-14.8,13.9-34.5,41.6-58.4,30.8c-9.8-4.4-15.7-17.4-10.3-26.6c-8.2,9-16.9,18.3-28.2,22.8c-11.4,4.5-26.2,2.5-32.9-7.7
				c-3.1-4.8-4.1-10.7-4.4-16.5c-1-19.7,5-39.2,13.2-57.2c40.6-88.6,132.4-154.3,210.5-207.1c13.8-9.3,27.9-18.8,43.8-23.7
				c14.3-4.4,29.4-4.8,44.3-4.9c96.9-0.4,193.8,15.2,285.6,46.1c19.9,6.7,41.7,1,61.5-2.7c14.7-2.7,30-5.5,44.3-1.3
				c16,4.7,28.4,17.4,38.2,30.9c17.9,24.9,31.7,57.9,29.5,89.1c-1.6,23.8-3.4,49.4-31.4,54.4c-11.3,2-23,0.8-34.4,2
				C3040.5,4958.2,3037.7,4958.6,3034.9,4959.2z"/>
		</g>
		<g>
			<path class="st10" d="M3052.1,3526.6c59.2-19,107.9-55.8,126.2-114.2c16.6-53.1-9.6-112.8-14.2-166.3
				c-4.5-51.3-5-102.9-1.7-154.3c3.1-47.5,7.7-97,0.4-144.4c-4.2-27.1-19-22.4-46.4-33.2c-27.4-10.7-58.1-10.9-87.8-10.8
				c-60.9,0.1-219.7-4.3-257.4,49.2c-17.3,24.5-18.6,55.4-19.5,84.6c-1,35.3-7.2,81-13,130.2c-2.6,21.9-1,43.7-4.3,65.5
				c-3.8,24.4-13,47.7-21.1,71.1c-30.6,88.3-1.9,172.2,93.5,212.6C2875.2,3545.6,2972.9,3552,3052.1,3526.6z"/>
		</g>
		<g>
			<path class="st11" d="M3162.4,2947.4c-4.1-27.1-19-22.4-46.4-33.2c-27.4-10.7-58.1-10.9-87.8-10.8
				c-60.9,0.1-219.7-4.3-257.4,49.2c-17.3,24.5-18.6,55.4-19.5,84.6c-1,35.3-7.2,81-13,130.2c-2.6,21.9-1,43.7-4.3,65.5
				c-2.9,18.6-8.9,36.5-15.2,54.3c59.1,21.9,125.7,26.8,187.3,11.7c111-27.3,195-96.4,255-186.2c0.3-7,0.5-14,1-20.9
				C3165.2,3044.2,3169.7,2994.7,3162.4,2947.4z"/>
		</g>
		<g>
			<path class="st10" d="M3250.8,2599.6c-0.5-81.3-11.7-158.5-32.6-222.6c-90.3-276.5-435.2-344.7-642.8-146.3
				c-231.6,221.3-143,750.4,101,936.3c65.2,49.7,153.8,67.2,233.1,45.9C3149.1,3148.7,3252.4,2853.7,3250.8,2599.6z"/>
		</g>
		<g>
			<path class="st11" d="M3218.2,2377c-90.3-276.5-435.2-344.7-642.8-146.3c-26.2,25.1-48.2,54.3-66.4,86.3
				c12.2,10.4,25.1,19.4,36.4,26.2c87.5,52.6,182.6,92.4,281.5,117.9c42.5,10.9,87.3,19.9,122.1,46.6c20,15.3,35.1,35.1,47.2,57.1
				c14.6,26.4,25.1,56,34.9,84.6c21.5,62.8,31,128.8,39.7,194.3c0.9,6.8,2.1,14.2,7.1,18.9c4.8,4.5,11.8,5.4,18.3,5.2
				c38.2-1,56.7-37.6,86.5-57.1c17.9-11.7,35.8-23.6,52.8-36.6c10.6-58.2,15.6-117.4,15.3-174.6
				C3250.4,2518.3,3239.1,2441.1,3218.2,2377z"/>
		</g>
		<g>
			<path class="st2" d="M3035.2,2554.1c11.1,28.1,17.6,58.8,23.7,88.4c13.2,65,14,131.7,14.2,197.8c0,6.9,0.2,14.3,4.6,19.6
				c4.1,5,11,6.9,17.5,7.5c38,4,61.1-30,93.1-45.4c33.2-16,66.8-32.1,95.8-54.9c82.7-64.8,63.8-171.7,61.2-266.8
				c-1.4-52.2-3-105.2-18.3-155.1c-16.7-54.5-49.2-103.1-88-144.9c-111.8-120.7-280.6-183.4-444.1-173.1
				c-80.9,5.1-172.2,39.3-229.9,97.6c-49.7,50.2,10.9,118.5,51.8,151c79.9,63.5,169.1,115.3,263.9,153.3
				c40.7,16.3,83.9,31.1,115,62.1C3013.6,2509.1,3026,2530.7,3035.2,2554.1z"/>
		</g>
		<g>
			<path class="st10" d="M3205.5,2606.5c106.1-58,138.8,88.9,120.5,162c-7.5,30.2-19.5,59.6-38.2,84.5c-25.2,33.5-97.4,89-139,52.4
				c-18.9-16.6-20.8-44.8-21.4-70C3125.8,2767.9,3133.6,2645.8,3205.5,2606.5z"/>
		</g>
		<g>
			<g>
				<g>
					<g>
						<path class="st6" d="M4740.6,4304.7c14.9-30.8,12.3-63.3,2.8-92.7c-9-30.1-25.2-55.9-42.7-84.3c-17.7-27.9-35.7-58.3-46.7-95
							c-11.2-37-8-78.6,2.3-113.7c22.2-71.6,67.8-124.4,99.1-178.5c15.7-27.3,28.6-55.1,33.7-85.8c5.7-30.4,3.8-62.8-11.2-93.4
							c25.9,22.7,38.5,59.4,40.2,95c1.6,36-7.5,72.4-21.2,104.5c-27.2,65.1-68,117.9-83.9,175c-9,28.3-11.2,55.7-4.8,83.1
							c5.3,28.1,20,56.5,33.3,87.2c14,30,27.4,64.7,30.4,100.4C4774.9,4241.9,4766.8,4281.7,4740.6,4304.7z"/>
					</g>
				</g>
			</g>
			<g>
				<g>
					<g>
						<path class="st7" d="M4862.1,4920.3h-215.2c-51.7,0-93.5-41.9-93.5-93.5v-482.7h402.3v482.7
							C4955.7,4878.4,4913.8,4920.3,4862.1,4920.3z"/>
					</g>
					<g>
						<path class="st7" d="M4983.8,4474.4c-96.5,0-174.7,79.4-174.7,177.2c0,97.9,78.2,177.2,174.7,177.2
							c96.5,0,174.7-79.4,174.7-177.2C5158.4,4553.8,5080.2,4474.4,4983.8,4474.4z M4983.8,4765.7c-62.1,0-112.4-51.1-112.4-114
							c0-63,50.3-114,112.4-114c62.1,0,112.4,51.1,112.4,114C5096.1,4714.6,5045.8,4765.7,4983.8,4765.7z"/>
					</g>
					<g class="st12">
						<path class="st6" d="M4613.5,4701.6L4613.5,4701.6c-12,0-21.8-9.8-21.8-21.7v-280.4c0-12,9.8-21.7,21.8-21.7l0,0
							c12,0,21.7,9.8,21.7,21.7v280.4C4635.3,4691.8,4625.5,4701.6,4613.5,4701.6z"/>
					</g>
					<g>
						<path class="st13" d="M4862.8,4344.1v474.4c0,56.3-45.6,101.9-101.9,101.9h92.9c56.3,0,101.9-45.6,101.9-101.9v-474.4H4862.8z
							"/>
					</g>
				</g>
			</g>
		</g>
		<g>
			<path class="st2" d="M3472.8,2609.2l-12.1-8.9c2.2-3,4.5-6.1,6.8-9.3c33-44.9,78.2-106.3,107.8-170.2
				c16-34.5,25.7-66.4,28.9-94.7c3.6-32.4-1.2-61.2-14.4-85.6c-19.6-36.3-54.5-59-91.4-83c-31.3-20.4-63.8-41.4-86.5-71.7
				c-18.1-24.1-28.7-52.5-39-79.9c-6.4-17-13-34.7-21.3-50.8c-25.1-49-66.1-85.9-118.4-106.5c-48.7-19.2-104.5-23.8-161.3-13.2
				c-39.4,7.3-79.5,22.9-121.9,39.5c-59.9,23.3-121.3,47.3-182.8,47.3c-18.3,0-36.7-2.1-54.9-7.1c-32.8-8.8-56.8-28.5-79.9-47.6
				c-14-11.5-28.4-23.4-44.7-32.7c-35.2-20.1-75.6-30.5-117-29.8c-87.2,1.3-162.8,54.6-192.6,135.8
				c-37.8,102.8,1.2,184.9,42.4,271.8c14.7,31,29.9,63,41.9,96.7l-14.1,5c-11.8-32.9-26.8-64.6-41.4-95.3
				c-21.4-45.1-41.6-87.7-52.1-133.7c-11.8-51.8-8.8-100.7,9.2-149.7c15.7-42.7,43.5-79.1,80.5-105c36.8-25.9,80.4-39.9,125.9-40.6
				c44-0.7,87.2,10.3,124.7,31.8c17.3,9.9,32.3,22.2,46.7,34.1c22.9,18.9,44.6,36.7,74.3,44.7c74.8,20.1,152.8-10.3,228.3-39.7
				c41.2-16.1,83.8-32.7,124.6-40.3c59.6-11.1,118.2-6.2,169.6,14c55.7,22,99.4,61.2,126.2,113.6c8.7,16.9,15.4,35,22,52.4
				c10.4,27.6,20.1,53.7,36.9,76.1c21.1,28.2,52.4,48.5,82.6,68.2c36.9,24,75.1,48.8,96.4,88.4c14.7,27.2,20.1,59,16.1,94.4
				c-3.3,29.9-13.5,63.3-30.2,99.3c-30.2,65.3-75.9,127.4-109.3,172.8C3477.2,2603.1,3475,2606.2,3472.8,2609.2z"/>
		</g>
		<g>
			<g>
				<path class="st3" d="M2859.9,3090.4c-26,0-52.2-1.9-78.4-5.8l4.7-31.8c95.2,14,190.2,0.8,274.6-38.4
					c22.9-10.6,42.4-21.8,59.4-34.1c31-22.5,57.6-51.8,77-84.9l27.8,16.2c-21.6,36.9-51.3,69.6-85.9,94.7
					c-18.8,13.6-39.9,25.8-64.8,37.3C3007.5,3074.5,2934.5,3090.4,2859.9,3090.4z"/>
			</g>
		</g>
		<g>
			<g>
				<path class="st3" d="M2688.5,3027.4c38.8-33.3,125.1-30.4,153.5,4.1c21.1,25.6,14.6,58.1-8.6,79.8
					c-27.5,25.6-61.4,24.1-95.7,16.4C2694.9,3118.1,2641.8,3067.5,2688.5,3027.4z"/>
			</g>
		</g>
		<g>
			<g>
				<path class="st14" d="M2654.9,2021.5l14,0.5l3.5,0.1c1.2,0.1,2.3,0.1,3.5,0.1l7-0.1l7,0l3.5,0l3.5-0.2l13.9-0.7
					c18.6-1.3,37.1-3.1,55.5-5.8c18.4-2.6,36.8-5.6,55.2-8.7c9.2-1.5,18.4-3.1,27.7-4.5l13.9-2.1l13.9-2c4.6-0.7,9.3-1.2,14-1.8
					c4.7-0.6,9.3-1.2,14-1.6l14.1-1.3l14.1-0.8c2.4-0.1,4.7-0.3,7.1-0.4l7.1-0.1l7.1-0.1l3.6-0.1l3.5,0c9.4,0.1,18.9,0.4,28.4,1
					c4.7,0.3,9.5,0.7,14.2,1.2c4.7,0.6,9.5,1.1,14.2,1.8c4.7,0.6,9.4,1.5,14.1,2.4l7,1.5c2.3,0.5,4.7,1.1,7,1.7
					c18.6,4.6,36.9,11.6,53.8,21.3c17,9.8,32.1,22.6,44.5,37.9c12.3,15.3,21.8,33.1,26.5,52.4c1.2,4.8,2.1,9.7,2.6,14.7
					c0.5,5,0.8,10,0.6,14.9c-0.3,10-2.2,19.7-4.3,28.9c-2.1,9.2-4.5,18.1-5.9,26.9c-0.7,4.4-1.2,8.7-1.3,13.1c0,1.1-0.1,2.2-0.1,3.3
					l0.1,3.3l0.1,3.3c0.1,1.1,0.2,2.2,0.3,3.3c0.9,8.8,2.9,17.6,5.7,26.1c2.8,8.6,6.3,17,10.2,25.3c3.9,8.3,8.2,16.5,12.6,24.7
					c4.4,8.2,9,16.3,13.3,24.7c4.3,8.4,8.3,16.9,11.9,25.7c3.5,8.8,6.6,17.8,8.7,27c2.1,9.2,3.4,18.7,3.2,28.2
					c-0.2,9.4-1.7,18.9-4.9,27.7c2.3-9.1,3.2-18.4,2.6-27.6c-0.5-9.2-2.3-18.3-5-27.1c-5.4-17.6-13.7-34.3-23-50.2
					c-9.4-16-19.5-31.8-28.3-48.6c-4.4-8.4-8.4-17.1-11.7-26.2c-3.3-9.1-5.8-18.5-7.1-28.3c-0.2-1.2-0.3-2.4-0.5-3.7l-0.3-3.7
					l-0.2-3.7c0-1.2,0-2.5,0-3.7c-0.1-5,0.3-9.9,1-14.8c1.3-9.7,3.5-18.9,5.4-27.9c1.9-9,3.4-17.8,3.5-26.4c0.1-4.3-0.2-8.7-0.7-13
					c-0.5-4.3-1.3-8.6-2.4-12.8c-4.4-16.9-13-32.8-24.2-46.5c-11.2-13.7-25-25.4-40.5-34.2c-15.5-8.9-32.4-15.4-50-19.9
					c-2.2-0.5-4.4-1.2-6.6-1.6l-6.7-1.5c-4.5-0.8-8.9-1.7-13.5-2.4c-4.5-0.8-9-1.3-13.6-1.9c-4.6-0.5-9.1-1-13.7-1.3
					c-9.1-0.7-18.3-1.2-27.6-1.4l-3.5-0.1l-3.5,0l-6.9,0l-6.9,0c-2.3,0-4.6,0.1-6.9,0.2l-13.8,0.5l-13.8,0.9
					c-4.6,0.2-9.2,0.7-13.9,1.1c-4.6,0.4-9.2,0.8-13.9,1.3c-18.5,1.9-36.9,4.4-55.5,6.7c-18.5,2.3-37.1,4.5-55.8,6.3l-14,1.1
					c-4.7,0.4-9.4,0.5-14.1,0.8l-7,0.4l-7,0.2l-7,0.2c-2.3,0-4.7,0.1-7,0.1C2692.2,2025.4,2673.4,2024,2654.9,2021.5z"/>
			</g>
		</g>
		<g>
			<path class="st1" d="M3250.1,2564.7c-149.8,38.4-207.6,320.5-40.6,376.7c179.5,60.4,305.9-199.7,188.1-327.1
				C3351.6,2564.6,3298.3,2552.3,3250.1,2564.7z"/>
		</g>
		<g>
			<path class="st3" d="M3299.2,2600.9c-103.4,16.6-167.1,236.2-60.5,296.7c114.5,65,221.9-130.6,154.6-243.3
				C3367,2610.3,3332.5,2595.5,3299.2,2600.9z"/>
		</g>
		<g>
			<g>
				<path class="st1" d="M3320.1,2584.4l-39.9-4.6c27.1-234.2,15.5-533.3-193.3-628.9c-98.9-45.3-189.2-77.7-350-46.1
					c-23.5-3.1-41.6-11.9-41.6-11.9c145.4-71,301.5-27.5,408.3,21.4C3334.4,2019.9,3348.7,2337,3320.1,2584.4z"/>
			</g>
		</g>
		<g>
			<g>
				<path class="st15" d="M3890.4,2569.8h1398.8c68.6,0,124.7-56.1,124.7-124.7v-751.4c0-68.6-56.1-124.7-124.7-124.7H3890.4
					c-68.6,0-124.7,56.1-124.7,124.7v751.4C3765.7,2513.7,3821.8,2569.8,3890.4,2569.8z"/>
			</g>
			<g>
				<path class="st15" d="M3982.6,2747.9v-374.6l360.2,196.5l-291.4,213.1C4022.9,2803.8,3982.6,2783.4,3982.6,2747.9z"/>
			</g>
			<g>
				<path class="st16" d="M4789,2114.4h-728.6c-24,0-43.7-19.6-43.7-43.7v0c0-24,19.6-43.7,43.7-43.7H4789c24,0,43.7,19.6,43.7,43.7
					v0C4832.7,2094.8,4813,2114.4,4789,2114.4z"/>
			</g>
			<g>
				<path class="st16" d="M5119.2,2114.4h-180.1c-24,0-43.7-19.6-43.7-43.7v0c0-24,19.6-43.7,43.7-43.7h180.1
					c24,0,43.7,19.6,43.7,43.7v0C5162.9,2094.8,5143.2,2114.4,5119.2,2114.4z"/>
			</g>
			<g>
				<path class="st16" d="M4390.6,1828.8h728.6c24,0,43.7,19.6,43.7,43.7v0c0,24-19.6,43.7-43.7,43.7h-728.6
					c-24,0-43.7-19.6-43.7-43.7v0C4346.9,1848.5,4366.6,1828.8,4390.6,1828.8z"/>
			</g>
			<g>
				<path class="st16" d="M4060.4,1828.8h180.1c24,0,43.7,19.6,43.7,43.7v0c0,24-19.6,43.7-43.7,43.7h-180.1
					c-24,0-43.7-19.6-43.7-43.7v0C4016.8,1848.5,4036.4,1828.8,4060.4,1828.8z"/>
			</g>
			<g>
				<path class="st16" d="M4546.2,2295.7h-485.7c-24,0-43.7-19.6-43.7-43.7v0c0-24,19.6-43.7,43.7-43.7h485.7
					c24,0,43.7,19.6,43.7,43.7v0C4589.8,2276.1,4570.2,2295.7,4546.2,2295.7z"/>
			</g>
		</g>
	</g>
</g>
</svg>
