<?xml version="1.0" standalone="no"?><!DOCTYPE svg PUBLIC "-//W3C//DTD SVG 1.1//EN" "http://www.w3.org/Graphics/SVG/1.1/DTD/svg11.dtd" ><svg xmlns="http://www.w3.org/2000/svg"><metadata></metadata><defs><font id="icomoon" horiz-adv-x="1024"><font-face font-family="icomoon" font-weight="400" font-stretch="normal" units-per-em="1024" panose-1="0 0 0 0 0 0 0 0 0 0" ascent="960" descent="-64" x-height="0" bbox="0 -32 1024 940" underline-thickness="0" underline-position="0" unicode-range="U+0000-fffd" /><missing-glyph horiz-adv-x="1024"  /><glyph glyph-name="" unicode="" d="M0 0 l0 0 l0 0 l0 0 Z" /><glyph glyph-name="" unicode="" d="M0 0 l0 0 l0 0 l0 0 Z" /><glyph glyph-name="" unicode=" " d="M0 0 l0 0 l0 0 l0 0 Z" /><glyph glyph-name="" unicode="&#xe900;" d="M674 518 q0 67 -47.5 114.5 q-47.5 47.5 -114.5 47.5 q-67 0 -114.5 -47.5 q-47.5 -47.5 -47.5 -114.5 q0 -67 47.5 -114.5 q47.5 -47.5 114.5 -47.5 q67 0 114.5 47.5 q47.5 47.5 47.5 114.5 ZM512 388 q-54 0 -92 38 q-38 38 -38 92 q0 53 38 91.5 q38 38.5 92 38.5 q54 0 92 -38.5 q38 -38.5 38 -91.5 q0 -54 -38 -92 q-38 -38 -92 -38 ZM891 426 q24 23 40.5 41.5 q16.5 18.5 22.5 27.5 q8 10 8 23 q0 13 -9 23 l0 -1 q-13 21 -54 60.5 q-41 39.5 -78 67.5 q-39 30 -77 52 q-39 23 -77.5 38 q-38.5 15 -77.5 23 q-38 7 -77 7 q-85 0 -159 -32 q-75 -33 -133.5 -75.5 q-58.5 -42.5 -96.5 -82.5 q-39 -41 -52 -56 l0 -1 q0 0 0 0 q0 0 0 0 q-9 -10 -9 -23.5 q0 -13.5 9 -23.5 l0 1 q13 -21 54 -60 q41 -39 78 -67 q38 -31 77 -53 q39 -23 78 -38 q39 -15 77 -23 q39 -7 77 -7 q4 0 31 0.5 q27 0.5 43 3.5 l3 1 q9 -70 62 -117.5 q53 -47.5 125 -47.5 q78 0 133.5 55.5 q55.5 55.5 55.5 133.5 q0 46 -20 85 q-20 39 -54 65 l0 0 ZM579 283 q-9 -2 -29 -3 q-20 -1 -38 -1 q-71 0 -144 28.5 q-73 28.5 -146 85.5 q-54 42 -87.5 78 q-33.5 36 -38.5 42 q0 1 -0.5 1.5 q-0.5 0.5 -0.5 0.5 q-1 1 -1 2.5 q0 1.5 1 2.5 l0 0 q0 0 0.5 0.5 q0.5 0.5 0.5 0.5 q12 15 49 54 q37 38 92 78.5 q55 40.5 125 71.5 q71 31 150 31 q71 0 143.5 -28.5 q72.5 -28.5 146.5 -85.5 q54 -42 87.5 -78 q33.5 -36 38.5 -42 q0 -1 0.5 -1.5 q0.5 -0.5 0.5 -0.5 q1 -1 1 -2.5 q0 -1.5 -1 -2.5 q0 0 -1 -1 q-1 -1 -1 -2 q-2 -3 -17.5 -21 q-15.5 -18 -45.5 -47 q-20 10 -42 15.5 q-22 5.5 -46 5.5 q-76 0 -130.5 -52.5 q-54.5 -52.5 -58.5 -128.5 l-8 -1 l0 0 ZM776 119 q-65 0 -111 46 q-46 46 -46 111 q0 65 46 111.5 q46 46.5 111 46.5 q65 0 111 -46.5 q46 -46.5 46 -111.5 q0 -65 -46 -111 q-46 -46 -111 -46 ZM863 292 l-174 0 q-6 0 -11 -4.5 q-5 -4.5 -5 -11.5 q0 -6 5 -11 q5 -5 11 -5 l174 0 q7 0 11.5 5 q4.5 5 4.5 11 q0 7 -4.5 11.5 q-4.5 4.5 -11.5 4.5 Z" /><glyph glyph-name="" unicode="&#xe901;" d="M911 183 l-80 0 l-136 246 q-2 4 -5.5 6 q-3.5 2 -8.5 2 l-307 0 l0 111 l229 0 q6 0 11 4.5 q5 4.5 5 10.5 q0 7 -5 11.5 q-5 4.5 -11 4.5 l-229 0 l0 109 q40 4 68 33.5 q28 29.5 28 70.5 q0 44 -31 74.5 q-31 30.5 -74 30.5 q-44 0 -74.5 -30.5 q-30.5 -30.5 -30.5 -74.5 q0 -37 23.5 -65.5 q23.5 -28.5 58.5 -36.5 l0 -269 q0 -7 4.5 -11.5 q4.5 -4.5 11.5 -4.5 l314 0 l136 -245 q2 -4 5.5 -6.5 q3.5 -2.5 8.5 -2.5 l89 0 q7 0 11.5 5 q4.5 5 4.5 11 q0 7 -4.5 11.5 q-4.5 4.5 -11.5 4.5 l0 0 ZM292 792 q0 30 21.5 51.5 q21.5 21.5 51.5 21.5 q30 0 51.5 -21.5 q21.5 -21.5 21.5 -51.5 q0 -30 -21.5 -51 q-21.5 -21 -51.5 -21 q-30 0 -51.5 21 q-21.5 21 -21.5 51 ZM696 228 q-6 3 -12 0 q-6 -3 -8 -9 q-15 -42 -42 -77 q-27 -35 -62 -59.5 q-35 -24.5 -76 -38.5 q-42 -13 -86 -13 q-29 0 -56.5 5.5 q-27.5 5.5 -53.5 16.5 q-26 11 -48.5 26 q-22.5 15 -40.5 34 q-19 19 -34 41.5 q-15 22.5 -26 47.5 q-11 28 -16.5 55 q-5.5 27 -5.5 55 q0 32 7.5 65 q7.5 33 22.5 63 q15 29 37 55 q22 26 49 46 q5 4 6 10.5 q1 6.5 -3 11.5 q-3 6 -10 7 q-7 1 -12 -3 q-30 -23 -54.5 -51.5 q-24.5 -28.5 -40.5 -61.5 q-17 -34 -25.5 -70.5 q-8.5 -36.5 -8.5 -71.5 q0 -31 6 -61 q6 -30 18 -61 q13 -29 29.5 -54 q16.5 -25 37.5 -46 q21 -21 46 -37.5 q25 -16.5 54 -29.5 q29 -12 59.5 -18 q30.5 -6 62.5 -6 q50 0 96 15 q46 15 85 42.5 q39 27.5 68 66.5 q30 38 47 85 q2 6 -1 12 q-3 6 -9 8 l0 0 Z" /><glyph glyph-name="" unicode="&#xe902;" d="M947 464 l-146 0 l0 145 q0 7 -4.5 11.5 q-4.5 4.5 -11.5 4.5 q-7 0 -11.5 -4.5 q-4.5 -4.5 -4.5 -11.5 l0 -145 l-145 0 q-7 0 -11.5 -4.5 q-4.5 -4.5 -4.5 -11.5 q0 -7 4.5 -11.5 q4.5 -4.5 11.5 -4.5 l145 0 l0 -146 q0 -7 4.5 -11.5 q4.5 -4.5 11.5 -4.5 q7 0 11.5 4.5 q4.5 4.5 4.5 11.5 l0 146 l146 0 q7 0 11.5 4.5 q4.5 4.5 4.5 11.5 q0 7 -4.5 11.5 q-4.5 4.5 -11.5 4.5 ZM311 724 q-1 4 -5.5 7 q-4.5 3 -8.5 3 q0 0 0 0 q0 0 0 0 q-5 0 -9 -3 q-4 -3 -6 -7 l-220 -539 q-2 -6 0.5 -12 q2.5 -6 8.5 -9 q6 -2 12 0.5 q6 2.5 9 8.5 l74 182 l260 0 l73 -182 q2 -4 6 -7 q4 -3 9 -3 q2 0 3.5 0.5 q1.5 0.5 2.5 0.5 q6 3 8.5 9 q2.5 6 0.5 12 l-218 539 l0 0 ZM179 387 l117 288 l117 -288 l-234 0 l0 0 Z" /><glyph glyph-name="" unicode="&#xe903;" d="M945 463 l-322 0 q-7 0 -11.5 -4.5 q-4.5 -4.5 -4.5 -11.5 q0 -6 5 -10.5 q5 -4.5 11 -4.5 l322 0 q7 0 11.5 4.5 q4.5 4.5 4.5 10.5 q0 7 -4.5 11.5 q-4.5 4.5 -11.5 4.5 ZM312 722 q-2 5 -6 7.5 q-4 2.5 -9 2.5 q0 0 0 0 q0 0 0 0 q-5 0 -9 -2.5 q-4 -2.5 -6 -7.5 l-219 -536 q-2 -7 0.5 -13 q2.5 -6 8.5 -8 q2 -1 3.5 -1 q1.5 0 2.5 0 q5 0 9 2.5 q4 2.5 6 7.5 l74 182 l259 0 l73 -182 q3 -7 9 -9.5 q6 -2.5 12 0.5 q6 2 8.5 8 q2.5 6 0.5 13 l-217 536 l0 0 ZM180 388 l117 286 l116 -286 l-233 0 l0 0 Z" /><glyph glyph-name="" unicode="&#xe904;" d="M595 409 q2 -1 4.5 -1.5 q2.5 -0.5 4.5 -0.5 q4 0 7.5 1.5 q3.5 1.5 5.5 5.5 q23 35 23 76 q0 41 -23 74 q-16 24 -38.5 39 q-22.5 15 -48.5 20 q-3 0 -10.5 1.5 q-7.5 1.5 -16.5 1.5 q-20 0 -39.5 -6 q-19.5 -6 -36.5 -17 q-22 -13 -36 -32 q-14 -19 -20 -42 q-2 -7 1.5 -12.5 q3.5 -5.5 10.5 -7.5 q6 -1 11.5 2.5 q5.5 3.5 7.5 9.5 q4 17 15 31 q11 14 27 24 q13 9 28.5 13.5 q15.5 4.5 30.5 4.5 q5 0 10.5 -0.5 q5.5 -0.5 10.5 -2.5 q21 -3 37.5 -14.5 q16.5 -11.5 29.5 -30.5 q17 -25 17 -56.5 q0 -31.5 -17 -58.5 q-4 -5 -2.5 -11.5 q1.5 -6.5 6.5 -10.5 l0 0 ZM705 700 q-38 38 -89 58.5 q-51 20.5 -105 20.5 q-55 0 -105 -20 q-50 -20 -89 -59 q-36 -35 -56.5 -81 q-20.5 -46 -23.5 -96 q-1 -7 3.5 -12 q4.5 -5 11.5 -5 q6 0 11 4 q5 4 6 11 q2 44 20.5 84.5 q18.5 40.5 50.5 72.5 q34 33 78.5 51 q44.5 18 92.5 18 q48 0 93 -18 q45 -18 79 -51 q71 -70 73 -146.5 q2 -76.5 -63 -208.5 q-1 -1 -19 -43 q-18 -42 -48 -134 q-9 -30 -36 -53.5 q-27 -23.5 -59 -29.5 q-36 -7 -72 7.5 q-36 14.5 -68 49.5 q-4 5 -10.5 5.5 q-6.5 0.5 -11.5 -4.5 q-5 -4 -5.5 -10.5 q-0.5 -6.5 4.5 -11.5 q31 -35 67 -53 q36 -18 73 -18 q7 0 14 1 q7 1 15 2 q41 8 74.5 37.5 q33.5 29.5 45.5 67.5 q28 90 46 131.5 q18 41.5 18 41.5 q35 70 51 126 q17 55 15 101.5 q-2 46.5 -22 85.5 q-21 40 -60 78 l0 0 ZM296 254 l-225 -225 q-5 -5 -5 -11.5 q0 -6.5 5 -11.5 q2 -2 5 -3.5 q3 -1.5 6 -1.5 q4 0 6.5 1.5 q2.5 1.5 5.5 3.5 l225 225 q4 5 4 11.5 q0 6.5 -4 11.5 q-5 4 -11.5 4 q-6.5 0 -11.5 -4 l0 0 ZM957 894 q-5 5 -11.5 5 q-6.5 0 -11.5 -5 l-159 -160 q-5 -4 -5 -11 q0 -7 5 -11 q2 -3 5 -4 q3 -1 6 -1 q3 0 6 1 q3 1 5 4 l160 160 q5 4 5 10.5 q0 6.5 -5 11.5 l0 0 Z" /><glyph glyph-name="" unicode="&#xe905;" d="M183 774 q0 -8 -5.5 -13.5 q-5.5 -5.5 -13.5 -5.5 q-8 0 -13.5 5.5 q-5.5 5.5 -5.5 13.5 q0 8 5.5 14 q5.5 6 13.5 6 q8 0 13.5 -6 q5.5 -6 5.5 -14 ZM261 774 q0 -8 -5.5 -13.5 q-5.5 -5.5 -13.5 -5.5 q-8 0 -13.5 5.5 q-5.5 5.5 -5.5 13.5 q0 8 5.5 14 q5.5 6 13.5 6 q8 0 13.5 -6 q5.5 -6 5.5 -14 ZM338 774 q0 -8 -5.5 -13.5 q-5.5 -5.5 -13.5 -5.5 q-8 0 -13.5 5.5 q-5.5 5.5 -5.5 13.5 q0 8 5.5 14 q5.5 6 13.5 6 q8 0 13.5 -6 q5.5 -6 5.5 -14 ZM710 30 l-631 0 q-6 0 -11 4.5 q-5 4.5 -5 11.5 l0 795 q0 6 5 11 q5 5 11 5 l869 0 q7 0 11.5 -5 q4.5 -5 4.5 -11 l0 -566 q0 -6 -4.5 -11 q-4.5 -5 -11.5 -5 q-6 0 -11 5 q-5 5 -5 11 l0 550 l-837 0 l0 -763 l616 0 q7 0 11.5 -5 q4.5 -5 4.5 -11 q0 -7 -4.5 -11.5 q-4.5 -4.5 -12.5 -4.5 l0 0 ZM948 689 l-869 0 q-6 0 -11 5 q-5 5 -5 11 q0 6 5 11 q5 5 11 5 l869 0 q7 0 11.5 -5 q4.5 -5 4.5 -11 q0 -6 -4.5 -11 q-4.5 -5 -11.5 -5 ZM898 76 q-3 0 -6 1 q-3 1 -6 3 q-4 5 -4 11.5 q0 6.5 4 10.5 l33 33 l-150 149 q-2 2 -3.5 5.5 q-1.5 3.5 -0.5 7.5 q0 3 2 6 q2 3 4 5 l79 57 l-355 112 q-6 1 -9 7.5 q-3 6.5 -2 12.5 q2 6 8 9 q6 3 13 2 l385 -122 q4 -1 6.5 -4.5 q2.5 -3.5 3.5 -8.5 q1 -4 -0.5 -8 q-1.5 -4 -5.5 -8 l-90 -64 l150 -146 q2 -2 3.5 -5 q1.5 -3 1.5 -7 q0 -3 -1.5 -6 q-1.5 -3 -2.5 -5 l-45 -44 q-3 -2 -6 -3 q-3 -1 -6 -1 l0 0 ZM853 32 q0 0 0 0 q0 0 0 0 q-3 0 -6 1.5 q-3 1.5 -5 3.5 l-147 150 l-64 -90 q-2 -4 -6.5 -5.5 q-4.5 -1.5 -9.5 -0.5 q-4 0 -7.5 3 q-3.5 3 -4.5 7 l-120 384 q-1 7 1.5 12.5 q2.5 5.5 9.5 8.5 q6 1 12 -2 q6 -3 8 -9 l112 -354 l57 79 q2 3 5 4.5 q3 1.5 6 1.5 q4 0 7.5 -1 q3.5 -1 5.5 -3 l146 -152 l33 33 q5 5 11.5 5 q6.5 0 11.5 -5 q5 -4 5 -10.5 q0 -6.5 -5 -11.5 l-44 -45 q-2 -2 -5 -3 q-3 -1 -7 -1 l0 0 Z" /><glyph glyph-name="" unicode="&#xe906;" d="M512 315 q6 0 11 4.5 q5 4.5 5 10.5 l0 347 q0 7 -5 11.5 q-5 4.5 -11 4.5 q-7 0 -11.5 -4.5 q-4.5 -4.5 -4.5 -11.5 l0 -346 q0 -7 4.5 -11.5 q4.5 -4.5 11.5 -4.5 l0 0 ZM531 242 q7 -8 7 -19 q0 -11 -7 -19 q-8 -7 -19 -7 q-11 0 -19 7 q-8 8 -8 19 q0 11 8 19 q8 8 19 8 q11 0 19 -8 ZM512 898 q-93 0 -175 -36 q-82 -35 -143.5 -96.5 q-61.5 -61.5 -96.5 -143.5 q-36 -82 -36 -175 q0 -93 36 -175 q35 -82 96.5 -143 q61.5 -61 143.5 -97 q82 -35 175 -35 q93 0 175 35 q82 36 143 97 q61 61 97 143 q35 82 35 175 q0 93 -35 175 q-36 82 -97 143.5 q-61 61.5 -143 96.5 q-82 36 -175 36 ZM512 29 q-87 0 -163 33 q-76 33 -133 89.5 q-57 56.5 -90 132.5 q-33 77 -33 163 q0 87 33 163 q33 76 90 133 q57 57 133 90 q76 33 163 33 q86 0 162 -33 q77 -33 133.5 -90 q56.5 -57 89.5 -133 q33 -76 33 -163 q0 -86 -33 -163 q-33 -76 -89.5 -132.5 q-56.5 -56.5 -133.5 -89.5 q-76 -33 -162 -33 l0 0 Z" /><glyph glyph-name="" unicode="&#xe907;" d="M680 561 q-3 61 -53 103.5 q-50 42.5 -115 39.5 q-33 -1 -62 -15 q-29 -14 -50 -38 q-20 -22 -30 -49 q-10 -27 -9 -56 q1 -7 6 -11.5 q5 -4.5 11 -3.5 q7 0 11.5 5 q4.5 5 3.5 11 q-1 23 7 44.5 q8 21.5 23 38.5 q18 19 41 30 q23 11 50 12 q52 3 91.5 -30.5 q39.5 -33.5 42.5 -82.5 l0 -3 q1 -15 -8.5 -49 q-9.5 -34 -55.5 -61 q-77 -42 -83.5 -80.5 q-6.5 -38.5 -5.5 -40.5 q1 -5 5.5 -8.5 q4.5 -3.5 9.5 -3.5 q1 0 2 0 q1 0 2 0 q6 2 9.5 7.5 q3.5 5.5 2.5 11.5 q0 0 6.5 27 q6.5 27 66.5 59 q58 35 70 77.5 q12 42.5 11 63.5 l0 2 l0 0 ZM514 249 q-11 0 -18.5 -7.5 q-7.5 -7.5 -7.5 -18.5 q0 -11 7.5 -18.5 q7.5 -7.5 18.5 -7.5 q11 0 18.5 7.5 q7.5 7.5 7.5 18.5 q0 11 -7.5 18.5 q-7.5 7.5 -18.5 7.5 ZM513 898 q-93 0 -175 -35 q-82 -36 -143 -97 q-61 -61 -97 -143 q-35 -82 -35 -175 q0 -93 35 -175 q36 -82 97 -143 q61 -61 143 -96 q82 -36 175 -36 q93 0 175 36 q82 35 143 96 q61 61 97 143 q35 82 35 175 q0 93 -35 175 q-36 82 -97 143 q-61 61 -143 97 q-82 35 -175 35 ZM513 30 q-86 0 -163 33 q-76 33 -132.5 89.5 q-56.5 56.5 -89.5 133.5 q-33 76 -33 162 q0 87 33 163 q33 76 89.5 132.5 q56.5 56.5 132.5 89.5 q77 33 163 33 q87 0 163 -33 q76 -33 132.5 -89.5 q56.5 -56.5 89.5 -132.5 q33 -76 33 -163 q0 -86 -33 -162 q-33 -77 -89.5 -133.5 q-56.5 -56.5 -132.5 -89.5 q-76 -33 -163 -33 Z" /><glyph glyph-name="" unicode="&#xe908;" d="M955 167 q0 0 -0.5 0.5 q-0.5 0.5 -0.5 0.5 l-380 657 q-5 8 -11 14.5 q-6 6.5 -14 11.5 q-8 5 -17.5 7.5 q-9.5 2.5 -19.5 2.5 q-19 0 -36 -10 q-17 -10 -26 -26 q-60 -104 -126 -217 q-66 -114 -121 -210 q-55 -96 -93 -160 q-37 -64 -40 -68 q-2 -4 -4 -8.5 q-2 -4.5 -3 -8.5 q-2 -7 -2.5 -12.5 q-0.5 -5.5 0.5 -7.5 q0 -8 1.5 -15.5 q1.5 -7.5 4.5 -15.5 q3 -6 6.5 -11 q3.5 -5 7.5 -10 q4 -3 8 -6 q4 -3 8 -5 q8 -5 17 -7 q9 -2 19 -2 l759 0 q11 0 20 2.5 q9 2.5 17 7.5 q12 8 20.5 19 q8.5 11 11.5 24 q3 13 1.5 26 q-1.5 13 -7.5 27 l0 0 ZM930 122 q-2 -7 -6.5 -13.5 q-4.5 -6.5 -12.5 -10.5 q0 0 0 -0.5 q0 -0.5 -1 -0.5 q-3 -2 -7.5 -3 q-4.5 -1 -11.5 -1 l-758 0 q-6 0 -11 1 q-5 1 -9 3 q-3 2 -5 3.5 q-2 1.5 -4 3.5 q-3 3 -5 5.5 q-2 2.5 -3 5.5 q-2 4 -3 9 q-1 5 -1 9 q0 2 0.5 4.5 q0.5 2.5 1.5 6.5 q0 2 1 4 q1 2 2 4 q3 4 26 44 q23 40 70 120.5 q47 80.5 117 203.5 q71 122 167 289 q5 9 15 14.5 q10 5.5 20 5.5 q6 0 11 -1.5 q5 -1.5 9 -3.5 q5 -3 8.5 -7 q3.5 -4 6.5 -8 l379 -656 q4 -9 5 -16.5 q1 -7.5 -1 -14.5 l0 0 ZM512 264 q-11 0 -19 -8 q-8 -8 -8 -19 q0 -11 8 -19 q8 -8 19 -8 q11 0 19 8 q8 8 8 19 q0 11 -8 19 q-8 8 -19 8 l0 0 ZM512 307 q6 0 11 5 q5 5 5 11 l0 243 q0 7 -5 11.5 q-5 4.5 -11 4.5 q-7 0 -11.5 -4.5 q-4.5 -4.5 -4.5 -11.5 l0 -243 q0 -6 4.5 -11 q4.5 -5 11.5 -5 l0 0 Z" /><glyph glyph-name="" unicode="&#xe909;" d="M512 898 q-93 0 -175 -35 q-82 -36 -143 -97 q-61 -61 -97 -143 q-35 -83 -35 -176 q0 -93 35 -175 q36 -82 97 -143.5 q61 -61.5 143 -96.5 q82 -36 175 -36 q94 0 176 36 q82 35 143 96.5 q61 61.5 97 143.5 q35 82 35 175 q0 93 -35 176 q-36 82 -97 143 q-61 61 -143 97 q-82 35 -176 35 ZM512 28 q-86 0 -162 33 q-77 33 -133.5 90 q-56.5 57 -89.5 133 q-33 77 -33 163 q0 87 33 163 q33 76 89.5 133 q56.5 57 133.5 90 q76 33 162 33 q87 0 163 -33 q77 -33 133.5 -90 q56.5 -57 89.5 -133 q33 -76 33 -163 q0 -86 -33 -163 q-33 -76 -89.5 -133 q-56.5 -57 -133.5 -90 q-76 -33 -163 -33 ZM691 626 q-4 5 -10.5 5 q-6.5 0 -11.5 -5 l-156 -155 l-155 157 q-5 4 -11.5 4 q-6.5 0 -11.5 -4 q-5 -5 -5 -11.5 q0 -6.5 5 -11.5 l155 -156 l-156 -155 q-5 -5 -5 -11.5 q0 -6.5 5 -11.5 q2 -2 5 -3 q3 -1 6 -1 q3 0 6 1 q3 1 5 3 l156 155 l155 -156 q3 -2 6 -3.5 q3 -1.5 6 -1.5 q3 0 6 1.5 q3 1.5 5 3.5 q5 4 5 11 q0 7 -5 11 l-155 157 l156 155 q5 4 5 10.5 q0 6.5 -5 11.5 l0 0 Z" /><glyph glyph-name="" unicode="&#xe90a;" d="M512 900 q-93 0 -175 -36 q-82 -35 -143.5 -96.5 q-61.5 -61.5 -96.5 -143.5 q-35 -82 -35 -175 q0 -44 8 -87 q8 -42 24.5 -82 q16.5 -40 39.5 -76 q24 -37 55 -68 q-8 -32 -27.5 -70 q-19.5 -38 -19.5 -38 q-3 -4 -2.5 -8.5 q0.5 -4.5 2.5 -8.5 q2 -3 6 -5 q4 -2 9 -2 q2 0 53 7.5 q51 7.5 106 32.5 q46 -22 95 -33.5 q49 -11.5 101 -11.5 q93 0 175 36 q82 35 143 96 q61 61 97 143 q35 82 35 175 q0 94 -35 176 q-36 82 -97 143 q-61 61 -143 96 q-82 36 -175 36 l0 0 ZM512 31 q-50 0 -97 11.5 q-47 11.5 -92 33.5 q-1 1 -3 1.5 q-2 0.5 -4 0.5 q-2 0 -3.5 -0.5 q-1.5 -0.5 -3.5 -1.5 q-33 -16 -67.5 -24.5 q-34.5 -8.5 -57.5 -11.5 q10 20 22 48 q12 28 16 50 q1 4 -0.5 7.5 q-1.5 3.5 -4.5 6.5 q-30 30 -53 64 q-23 35 -38.5 72.5 q-15.5 37.5 -23.5 78.5 q-9 40 -9 82 q0 87 33 163 q33 76 90 133 q57 57 133 90 q76 33 163 33 q86 0 162 -33 q77 -33 133.5 -90 q56.5 -57 89.5 -133 q33 -76 33 -163 q0 -86 -33 -162 q-33 -76 -89.5 -133 q-56.5 -57 -133.5 -90 q-76 -33 -162 -33 l0 0 ZM522 613 q12 0 20.5 8 q8.5 8 8.5 20 q0 12 -8.5 20 q-8.5 8 -20.5 8 q-11 0 -19.5 -8 q-8.5 -8 -8.5 -20 q0 -12 8.5 -20 q8.5 -8 19.5 -8 ZM547 279 q-9 -8 -16.5 -12 q-7.5 -4 -12.5 -5 q-2 -1 -4.5 -1 q-2.5 0 -5.5 0 q-1 1 -2.5 1.5 q-1.5 0.5 -3.5 1.5 q-3 3 -4 6 q-1 3 -1 9 q0 3 0.5 5.5 q0.5 2.5 1.5 5.5 q1 3 2.5 12 q1.5 9 1.5 9 l38 195 q2 12 -1 23.5 q-3 11.5 -11 20.5 q-7 9 -18 14.5 q-11 5.5 -23 5.5 l-23 0 q-7 0 -12 -5 q-5 -5 -5 -12 q0 -7 5 -12 q5 -5 12 -5 l23 0 q5 0 8 -1.5 q3 -1.5 5 -3.5 q1 0 1 0 q0 0 0 0 q4 -2 6 -7 q2 -5 1 -11 l-44 -231 q-2 -9 0 -17 q2 -8 8 -15 q7 -9 16.5 -14.5 q9.5 -5.5 19.5 -6.5 l4 0 q13 0 27.5 7.5 q14.5 7.5 30.5 20.5 q5 5 5 12 q0 7 -4 12 q-7 6 -13.5 4.5 q-6.5 -1.5 -11.5 -6.5 l0 0 Z" /><glyph glyph-name="" unicode="&#xe90b;" d="M356 605 l0 169 l-169 0 l0 -169 l169 0 ZM219 742 l105 0 l0 -105 l-105 0 l0 105 ZM670 292 l0 -168 l169 0 l0 168 l-169 0 ZM807 155 l-105 0 l0 105 l105 0 l0 -105 l0 0 ZM839 774 l-169 0 l0 -168 l169 0 l0 168 ZM807 637 l-105 0 l0 105 l105 0 l0 -105 l0 0 ZM298 500 q0 7 -4.5 11.5 q-4.5 4.5 -11.5 4.5 l-185 0 l0 302 q0 19 13 32 q13 13 32 13 l302 0 l0 -186 q0 -6 4.5 -10.5 q4.5 -4.5 11.5 -4.5 q6 0 11 4.5 q5 4.5 5 10.5 l0 218 l-334 0 q-32 0 -54.5 -22.5 q-22.5 -22.5 -22.5 -54.5 l0 -334 l217 0 q7 0 11.5 5 q4.5 5 4.5 11 l0 0 ZM883 895 l-333 0 l0 -218 q0 -6 4.5 -10.5 q4.5 -4.5 11.5 -4.5 q6 0 11 4.5 q5 4.5 5 10.5 l0 186 l301 0 q19 0 32.5 -13 q13.5 -13 13.5 -32 l0 -302 l-186 0 q-7 0 -11.5 -4.5 q-4.5 -4.5 -4.5 -11.5 q0 -6 5 -11 q5 -5 11 -5 l218 0 l0 334 q0 32 -23 54.5 q-23 22.5 -55 22.5 l0 0 ZM725 392 q0 -7 5 -11.5 q5 -4.5 11 -4.5 l186 0 l0 -302 q0 -19 -13.5 -32 q-13.5 -13 -31.5 -13 l-302 0 l0 185 q0 7 -4.5 11.5 q-4.5 4.5 -11.5 4.5 q-6 0 -11 -4.5 q-5 -4.5 -5 -11.5 l0 -217 l334 0 q32 0 54.5 22.5 q22.5 22.5 22.5 54.5 l0 334 l-218 0 q-6 0 -11 -5 q-5 -5 -5 -11 l0 0 ZM460 234 q-7 0 -11.5 -5 q-4.5 -5 -4.5 -11 l0 -186 l-301 0 q-19 0 -32.5 13.5 q-13.5 13.5 -13.5 32.5 l0 301 l186 0 q6 0 11 4.5 q5 4.5 5 11.5 q0 7 -5 11.5 q-5 4.5 -11 4.5 l-218 0 l0 -334 q0 -32 23 -54.5 q23 -22.5 55 -22.5 l333 0 l0 218 q0 6 -4.5 11 q-4.5 5 -11.5 5 l0 0 ZM187 124 l169 0 l0 169 l-169 0 l0 -169 ZM219 261 l105 0 l0 -105 l-105 0 l0 105 ZM638 570 q-5 5 -11.5 5 q-6.5 0 -11.5 -5 l-102 -101 l-102 102 q-4 5 -10.5 5 q-6.5 0 -11.5 -5 q-5 -5 -5 -11.5 q0 -6.5 5 -11.5 l101 -102 l-102 -101 q-5 -5 -5 -11.5 q0 -6.5 5 -11.5 q2 -2 5 -3.5 q3 -1.5 6 -1.5 q3 0 6 1.5 q3 1.5 5 3.5 l103 101 l101 -102 q2 -2 5 -3.5 q3 -1.5 6 -1.5 q3 0 6 1.5 q3 1.5 6 3.5 q4 5 4 11.5 q0 6.5 -4 11.5 l-102 102 l103 101 q4 5 4 11.5 q0 6.5 -4 11.5 l0 0 Z" /><glyph glyph-name="" unicode="&#xe90c;" d="M354 609 l0 169 l-170 0 l0 -169 l170 0 ZM216 746 l106 0 l0 -106 l-106 0 l0 106 l0 0 ZM840 124 l0 169 l-170 0 l0 -169 l170 0 ZM702 261 l106 0 l0 -106 l-106 0 l0 106 ZM840 779 l-170 0 l0 -170 l170 0 l0 170 ZM808 641 l-106 0 l0 106 l106 0 l0 -106 ZM296 503 q0 6 -4.5 11 q-4.5 5 -11.5 5 l-187 0 l0 303 q0 19 13.5 32.5 q13.5 13.5 32.5 13.5 l303 0 l0 -187 q0 -7 5 -11.5 q5 -4.5 11 -4.5 q7 0 11.5 4.5 q4.5 4.5 4.5 11.5 l0 219 l-335 0 q-33 0 -55.5 -22.5 q-22.5 -22.5 -22.5 -55.5 l0 -335 l219 0 q6 0 11 4.5 q5 4.5 5 11.5 l0 0 ZM885 900 l-336 0 l0 -219 q0 -6 5 -11 q5 -5 11 -5 q7 0 11.5 5 q4.5 5 4.5 11 l0 187 l304 0 q19 0 32.5 -13.5 q13.5 -13.5 13.5 -32.5 l0 -303 l-187 0 q-7 0 -11.5 -5 q-4.5 -5 -4.5 -11 q0 -7 4.5 -11.5 q4.5 -4.5 11.5 -4.5 l219 0 l0 335 q0 33 -23 55.5 q-23 22.5 -55 22.5 l0 0 ZM726 393 q0 -6 4.5 -11 q4.5 -5 11.5 -5 l187 0 l0 -303 q0 -19 -13.5 -32.5 q-13.5 -13.5 -32.5 -13.5 l-304 0 l0 187 q0 7 -4.5 11.5 q-4.5 4.5 -10.5 4.5 q-7 0 -11.5 -4.5 q-4.5 -4.5 -4.5 -11.5 l0 -219 l335 0 q32 0 55 23 q23 23 23 55 l0 335 l-219 0 q-7 0 -11.5 -4.5 q-4.5 -4.5 -4.5 -11.5 l0 0 ZM461 234 q-7 0 -11.5 -4.5 q-4.5 -4.5 -4.5 -11.5 l0 -187 l-304 0 q-19 0 -32.5 13.5 q-13.5 13.5 -13.5 32.5 l0 304 l188 0 q6 0 11 4.5 q5 4.5 5 11.5 q0 6 -5 11 q-5 5 -11 5 l-220 0 l0 -336 q0 -32 23 -55 q23 -23 55 -23 l336 0 l0 219 q0 7 -4.5 11.5 q-4.5 4.5 -11.5 4.5 l0 0 ZM666 560 q-5 4 -11.5 4 q-6.5 0 -11.5 -5 l-165 -177 l-98 98 q-5 5 -11.5 5 q-6.5 0 -11.5 -5 q-4 -5 -4 -11.5 q0 -6.5 4 -11.5 l122 -121 l188 201 q4 5 4 11.5 q0 6.5 -5 11.5 l0 0 ZM184 124 l170 0 l0 170 l-170 0 l0 -170 l0 0 ZM216 262 l106 0 l0 -106 l-106 0 l0 106 l0 0 Z" /><glyph glyph-name="" unicode="&#xe90d;" d="M512 897 q-93 0 -175 -36 q-81 -35 -142 -96 q-61 -61 -97 -143 q-35 -81 -35 -174 q0 -93 35 -174 q36 -82 97 -143 q61 -61 142 -96 q82 -36 175 -36 q93 0 174 36 q82 35 143 96 q61 61 96 143 q36 81 36 174 q0 93 -36 174 q-35 82 -96 143 q-61 61 -143 96 q-81 36 -174 36 l0 0 ZM512 31 q-86 0 -162 33 q-76 33 -132.5 89.5 q-56.5 56.5 -89.5 132.5 q-33 76 -33 162 q0 86 33 162 q33 76 89.5 132.5 q56.5 56.5 132.5 89.5 q76 33 162 33 q86 0 162 -33 q76 -33 132.5 -89.5 q56.5 -56.5 89.5 -132.5 q33 -76 33 -162 q0 -86 -33 -162 q-33 -76 -89.5 -132.5 q-56.5 -56.5 -132.5 -89.5 q-76 -33 -162 -33 l0 0 ZM712 600 q-5 5 -11.5 4 q-6.5 -1 -11.5 -6 l-223 -266 l-133 132 q-4 5 -10.5 5 q-6.5 0 -11.5 -5 q-5 -4 -5 -11 q0 -7 5 -11 l157 -158 l246 294 q4 5 3.5 11.5 q-0.5 6.5 -5.5 10.5 l0 0 Z" /><glyph glyph-name="" unicode="&#xe90e;" d="M512 293 q-13 0 -22.5 -9 q-9.5 -9 -9.5 -23 q0 -13 9.5 -22.5 q9.5 -9.5 22.5 -9.5 q13 0 22.5 9.5 q9.5 9.5 9.5 22.5 q0 14 -9.5 23 q-9.5 9 -22.5 9 l0 0 ZM512 343 q8 0 13.5 5.5 q5.5 5.5 5.5 13.5 l0 284 q0 8 -5.5 13.5 q-5.5 5.5 -13.5 5.5 q-8 0 -13.5 -5.5 q-5.5 -5.5 -5.5 -13.5 l0 -284 q0 -8 5.5 -13.5 q5.5 -5.5 13.5 -5.5 ZM512 897 q-93 0 -175 -35 q-82 -35 -143.5 -96.5 q-61.5 -61.5 -96.5 -143.5 q-35 -82 -35 -175 q0 -44 8 -87 q8 -43 24.5 -82.5 q16.5 -39.5 39.5 -76.5 q24 -36 55 -68 q-8 -31 -27.5 -69 q-19.5 -38 -19.5 -39 q-3 -3 -2.5 -7.5 q0.5 -4.5 2.5 -8.5 q2 -4 6 -6 q4 -2 9 -1 q2 0 53 7.5 q51 7.5 106 32.5 q46 -23 95 -34 q49 -11 101 -11 q93 0 175 35 q82 36 143 97 q61 61 97 143 q35 82 35 175 q0 93 -35 175 q-36 82 -97 143.5 q-61 61.5 -143 96.5 q-82 35 -175 35 l0 0 ZM512 29 q-50 0 -97 11 q-47 11 -92 34 q-1 0 -3 0.5 q-2 0.5 -4 0.5 q-2 0 -3.5 -0.5 q-1.5 -0.5 -3.5 -0.5 q-33 -16 -67.5 -24.5 q-34.5 -8.5 -57.5 -12.5 q10 21 22 49 q12 28 16 50 q1 4 -0.5 7.5 q-1.5 3.5 -4.5 6.5 q-30 30 -53 64 q-23 34 -38.5 72 q-15.5 38 -23.5 78 q-9 41 -9 83 q0 87 33 163 q33 76 90 133 q57 57 133 90 q76 33 163 33 q86 0 163 -33 q76 -33 132.5 -90 q56.5 -57 89.5 -133 q33 -76 33 -163 q0 -86 -33 -163 q-33 -76 -89.5 -132.5 q-56.5 -56.5 -132.5 -89.5 q-77 -33 -163 -33 l0 0 Z" /><glyph glyph-name="" unicode="&#xe90f;" d="M959 723 q-6 42 -27 77 q-22 34 -53.5 57.5 q-31.5 23.5 -70.5 34.5 q-40 10 -81 4 q-42 -6 -77 -27 q-34 -22 -57.5 -53.5 q-23.5 -31.5 -34.5 -70.5 q-10 -40 -4 -81 q6 -41 26.5 -76 q20.5 -35 53.5 -59 q27 -20 58 -30.5 q31 -10.5 64 -10.5 q7 0 15 1 q8 1 15 2 q41 6 75.5 26.5 q34.5 20.5 59.5 53.5 q24 33 34 72.5 q10 39.5 4 79.5 l0 0 ZM895 590 q-21 -28 -50 -45.5 q-29 -17.5 -63 -22.5 q-35 -5 -68 3.5 q-33 8.5 -61 29.5 q-28 20 -45.5 49.5 q-17.5 29.5 -22.5 63.5 q-10 71 32.5 128.5 q42.5 57.5 113.5 68.5 q6 1 12.5 1 q6.5 0 12.5 0 q64 0 113 -41.5 q49 -41.5 58 -105.5 q6 -35 -2.5 -68 q-8.5 -33 -29.5 -61 l0 0 ZM886 708 l-114 0 l0 114 q0 6 -4.5 11 q-4.5 5 -11.5 5 q-6 0 -11 -5 q-5 -5 -5 -11 l0 -114 l-113 0 q-7 0 -11.5 -4.5 q-4.5 -4.5 -4.5 -11.5 q0 -7 4.5 -11.5 q4.5 -4.5 11.5 -4.5 l113 0 l0 -114 q0 -6 5 -11 q5 -5 11 -5 q7 0 11.5 5 q4.5 5 4.5 11 l0 114 l114 0 q7 0 11.5 4.5 q4.5 4.5 4.5 11.5 q0 7 -4.5 11.5 q-4.5 4.5 -11.5 4.5 ZM804 290 q-30 30 -61 53.5 q-31 23.5 -59 38.5 q-32 17 -52 18.5 q-20 1.5 -31 -3.5 q-4 -2 -9.5 -5 q-5.5 -3 -10.5 -6 q-20 -14 -35 -39.5 q-15 -25.5 -26 -49.5 q-48 36 -87 79.5 q-39 43.5 -59 69.5 q34 17 59.5 37.5 q25.5 20.5 26.5 21.5 q1 1 1.5 1.5 q0.5 0.5 0.5 0.5 q0 1 0.5 1 q0.5 0 0.5 0 q29 29 -6.5 93 q-35.5 64 -94.5 124 q-58 58 -121.5 93 q-63.5 35 -92.5 9 q-1 0 -2 -0.5 q-1 -0.5 -2 -1.5 q-8 -8 -38.5 -51.5 q-30.5 -43.5 -39.5 -118.5 q-7 -51 1 -105 q8 -54 32 -111 q24 -57 63 -116 q40 -60 94 -121 l1 0 q7 -8 44 -42 q38 -34 96.5 -72.5 q58.5 -38.5 132.5 -68.5 q74 -31 153 -31 q57 0 109 18.5 q52 18.5 98 54.5 q2 1 6.5 5 q4.5 4 7.5 11 q0 0 0 0 q0 0 0 0 q9 9 11.5 30.5 q2.5 21.5 -18.5 62.5 q-15 28 -39 59 q-24 31 -54 61 l0 0 ZM782 267 q28 -28 50.5 -57 q22.5 -29 35.5 -55 q12 -21 14.5 -34.5 q2.5 -13.5 0.5 -18.5 q-1 -1 -2.5 -2 q-1.5 -1 -2.5 -2 q-6 -2 -19 1 q-13 3 -33 14 q-26 13 -55 35.5 q-29 22.5 -57 50.5 q-29 28 -51 57 q-22 29 -36 55 q-13 25 -14.5 39 q-1.5 14 1.5 17 q0 0 0 0.5 q0 0.5 0 0.5 q1 0 2 0.5 q1 0.5 1 0.5 q0 0 0.5 0 q0.5 0 0.5 0 q1 0 2 0 q1 0 3 0 q6 0 18 -3 q12 -3 29 -12 q26 -14 55 -36 q29 -22 57 -51 l0 0 ZM178 806 q18 0 61.5 -24 q43.5 -24 99.5 -80 q66 -66 88.5 -114 q22.5 -48 13.5 -57 q-4 -3 -18 -1.5 q-14 1.5 -39 14.5 q-27 14 -56.5 37 q-29.5 23 -57.5 51 q-29 29 -51.5 58.5 q-22.5 29.5 -36.5 55.5 q-14 26 -15.5 40 q-1.5 14 1.5 17 q2 2 4 2.5 q2 0.5 6 0.5 l0 0 ZM281 222 q0 1 -0.5 1 q-0.5 0 -0.5 0 q-52 59 -90 115 q-38 56 -60.5 110 q-22.5 54 -30.5 104 q-8 51 -1 99 q4 38 16 67 q12 29 25 49 q2 -8 5.5 -17 q3.5 -9 9.5 -19 q14 -28 38.5 -59.5 q24.5 -31.5 54.5 -61.5 q38 -39 80.5 -68.5 q42.5 -29.5 76.5 -40.5 q-13 -9 -29 -18 q-16 -9 -32 -15 q-3 -1 -6 -4 q-3 -3 -4 -6 q-1 -4 -0.5 -8 q0.5 -4 3.5 -7 q15 -21 66 -80 q51 -59 116 -104 q2 -2 4.5 -2.5 q2.5 -0.5 4.5 -0.5 q2 0 3 0 q1 0 2 1 q4 1 6.5 3.5 q2.5 2.5 3.5 5.5 q10 25 20 44 q10 19 19 31 q2 -9 6.5 -20 q4.5 -11 11.5 -25 q14 -28 38 -59 q24 -31 54 -61 q30 -29 61 -53 q31 -24 59 -39 q10 -5 19 -9 q9 -4 17 -6 q-37 -24 -78 -36.5 q-41 -12.5 -86 -12.5 q-77 0 -149 31 q-72 31 -127.5 68.5 q-55.5 37.5 -89.5 69.5 q-34 31 -36 33 l0 0 Z" /><glyph glyph-name="" unicode="&#xe910;" d="M678 377 q12 10 23 21.5 q11 11.5 21 23.5 l80 0 q7 0 11.5 4.5 q4.5 4.5 4.5 11.5 l0 46 q21 0 36 15 q15 15 15 36 l0 110 q0 10 -4 19 q-4 9 -11 17 q-10 10 -20.5 12 q-10.5 2 -15.5 2 l-8 0 q-16 39 -43 75 q-28 36 -66 64.5 q-38 28.5 -86 46.5 q-47 17 -103 17 q0 0 -0.5 0 q-0.5 0 -0.5 0 q-55 0 -102 -17 q-48 -18 -86 -47 q-38 -29 -66 -65 q-27 -36 -43 -74 l-8 0 q-21 0 -36 -14.5 q-15 -14.5 -15 -35.5 l0 -110 q0 -10 4 -19.5 q4 -9.5 11 -16.5 q10 -10 20.5 -12.5 q10.5 -2.5 15.5 -2.5 l61 0 q12 -31 32 -58 q20 -27 46 -49 q-57 -23 -104 -60 q-47 -38 -80.5 -85 q-33.5 -47 -52.5 -103 q-18 -55 -19 -115 q0 -3 1.5 -6 q1.5 -3 3.5 -5 q2 -3 5 -4 q3 -1 6 -1 l814 0 q6 0 11 4.5 q5 4.5 5 11.5 q0 59 -19 115 q-18 55 -51.5 102.5 q-33.5 47.5 -81.5 85.5 q-47 37 -105 60 l0 0 ZM743 454 q4 7 7.5 14.5 q3.5 7.5 6.5 15.5 l29 0 l0 -30 l-43 0 ZM832 658 q2 -3 3.5 -6.5 q1.5 -3.5 1.5 -6.5 l0 -110 q0 -8 -5.5 -13.5 q-5.5 -5.5 -13.5 -5.5 l-51 0 q6 22 7.5 44.5 q1.5 22.5 -0.5 45.5 q-1 15 -4.5 29.5 q-3.5 14.5 -7.5 27.5 l56 0 q1 0 5.5 -0.5 q4.5 -0.5 8.5 -4.5 ZM511 866 q0 0 0.5 0 q0.5 0 0.5 0 q48 0 89 -14 q41 -15 74.5 -38.5 q33.5 -23.5 58.5 -54.5 q25 -31 41 -64 l-26 0 q-30 59 -84.5 98.5 q-54.5 39.5 -122.5 46.5 q-57 6 -111 -11 q-54 -17 -95 -55 q-19 -16 -34 -36 q-15 -20 -26 -43 l-27 0 q16 33 42 64 q26 31 59.5 55 q33.5 24 74.5 38 q41 14 86 14 l0 0 ZM206 516 q-1 0 -5.5 1 q-4.5 1 -8.5 5 q-2 3 -3.5 6 q-1.5 3 -1.5 7 l0 110 q0 7 5.5 12.5 q5.5 5.5 13.5 5.5 l56 0 q-6 -19 -9.5 -40 q-3.5 -21 -3.5 -43 q0 -16 2 -32 q2 -16 5 -32 l-50 0 l0 0 ZM122 30 q3 56 23 107 q20 51 54.5 94 q34.5 43 80.5 76 q47 32 104 51 q4 1 7 4.5 q3 3.5 4 8.5 q0 4 -2 8.5 q-2 4.5 -6 6.5 q-50 32 -78 83.5 q-28 51.5 -28 110.5 q0 49 20 93.5 q20 44.5 56 77.5 q37 33 84 48 q47 15 97 9 q41 -4 76 -22 q36 -17 63 -44.5 q27 -27.5 44 -62.5 q17 -36 21 -76 q4 -40 -5.5 -78.5 q-9.5 -38.5 -31.5 -70.5 l-188 0 q-7 0 -11.5 -5 q-4.5 -5 -4.5 -11 q0 -7 4.5 -11.5 q4.5 -4.5 11.5 -4.5 l163 0 q-10 -10 -21 -19 q-11 -9 -24 -17 q-4 -3 -6 -7 q-2 -4 -1 -9 q0 -4 3 -7.5 q3 -3.5 8 -5.5 q57 -18 104 -51 q48 -32 82 -75 q34 -43 55 -94 q20 -52 22 -107 l-780 0 l0 0 Z" /><glyph glyph-name="" unicode="&#xe911;" d="M512 487 q-16 0 -27.5 -11.5 q-11.5 -11.5 -11.5 -27.5 q0 -16 11.5 -27.5 q11.5 -11.5 27.5 -11.5 q16 0 27.5 11.5 q11.5 11.5 11.5 27.5 q0 16 -11.5 27.5 q-11.5 11.5 -27.5 11.5 ZM303 487 q-16 0 -27.5 -11.5 q-11.5 -11.5 -11.5 -27.5 q0 -16 11.5 -27.5 q11.5 -11.5 27.5 -11.5 q16 0 27.5 11.5 q11.5 11.5 11.5 27.5 q0 16 -11.5 27.5 q-11.5 11.5 -27.5 11.5 l0 0 ZM721 487 q-16 0 -27.5 -11.5 q-11.5 -11.5 -11.5 -27.5 q0 -16 11.5 -27.5 q11.5 -11.5 27.5 -11.5 q16 0 27.5 11.5 q11.5 11.5 11.5 27.5 q0 16 -11.5 27.5 q-11.5 11.5 -27.5 11.5 ZM512 900 q-93 0 -176 -36 q-82 -35 -143 -96.5 q-61 -61.5 -97 -143.5 q-36 -83 -36 -176 q0 -44 9 -87 q8 -43 24.5 -83 q16.5 -40 39.5 -76 q24 -37 55 -69 q-8 -31 -27.5 -69 q-19.5 -38 -19.5 -39 q-3 -4 -2.5 -8.5 q0.5 -4.5 2.5 -7.5 q2 -4 6 -6 q4 -2 9 -2 q2 0 53 7.5 q51 7.5 107 32.5 q46 -22 95.5 -33.5 q49.5 -11.5 100.5 -11.5 q94 0 176 36 q82 35 143.5 96.5 q61.5 61.5 96.5 143.5 q36 83 36 176 q0 93 -36 176 q-35 82 -96.5 143.5 q-61.5 61.5 -143.5 96.5 q-82 36 -176 36 l0 0 ZM512 28 q-50 0 -97.5 11.5 q-47.5 11.5 -91.5 33.5 q-2 1 -3.5 1.5 q-1.5 0.5 -3.5 0.5 q-2 0 -3.5 -0.5 q-1.5 -0.5 -3.5 -1.5 q-33 -15 -68 -23.5 q-35 -8.5 -58 -12.5 q10 20 22.5 48 q12.5 28 15.5 51 q1 4 0 7.5 q-1 3.5 -4 6.5 q-30 30 -53 64 q-24 35 -39.5 72.5 q-15.5 37.5 -23.5 78.5 q-9 41 -9 83 q0 87 33 163 q34 77 91 134 q57 57 133 90 q76 33 163 33 q87 0 163 -33 q77 -33 134 -90 q57 -57 90 -134 q33 -76 33 -163 q0 -87 -33 -163 q-33 -77 -90 -134 q-57 -57 -134 -90 q-76 -33 -163 -33 l0 0 Z" /><glyph glyph-name="" unicode="&#xe912;" d="M923 430 q-7 10 -15 19 q-8 9 -18 16 q-1 35 -9 69 q-8 34 -22 66 q11 10 17.5 23.5 q6.5 13.5 6.5 29.5 q0 12 -4 24 q-4 12 -12 21 q-30 42 -70 75 q-39 33 -85 56 q-46 23 -97 36 q-51 12 -104 12 q-54 0 -106 -13 q-51 -12 -97 -35.5 q-46 -23.5 -86 -57.5 q-39 -33 -69 -76 q-1 -1 -1.5 -1.5 q-0.5 -0.5 -0.5 -1.5 l0 0 q-1 -1 -1.5 -1.5 q-0.5 -0.5 -0.5 -0.5 q-5 -8 -7.5 -17 q-2.5 -9 -2.5 -20 q0 -16 7 -30 q7 -14 19 -24 q-14 -32 -22 -65.5 q-8 -33.5 -9 -68.5 q-10 -7 -18 -16 q-8 -9 -15 -19 q-15 -24 -19.5 -51 q-4.5 -27 1.5 -55 q6 -27 21.5 -49.5 q15.5 -22.5 39.5 -37.5 q17 -11 36 -16.5 q19 -5.5 39 -5.5 q7 0 14.5 1 q7.5 1 15.5 2 q3 1 5.5 3 q2.5 2 4.5 4 q2 3 2.5 6 q0.5 3 -0.5 7 l-53 241 q-2 6 -7.5 9.5 q-5.5 3.5 -11.5 2.5 q-6 -1 -11.5 -3 q-5.5 -2 -10.5 -4 q3 26 9.5 51.5 q6.5 25.5 16.5 49.5 q4 -1 8 -1.5 q4 -0.5 8 -0.5 q18 0 34 9 q16 9 25 24 q0 0 0 0 q0 0 0 0 q39 61 103.5 95 q64.5 34 139.5 34 q74 0 137.5 -33.5 q63.5 -33.5 103.5 -92.5 q0 0 0 0 q0 0 0 0 q9 -17 25.5 -26.5 q16.5 -9.5 35.5 -9.5 q5 0 9 1 q4 1 8 2 q11 -25 17.5 -50 q6.5 -25 9.5 -52 q-5 2 -10.5 4 q-5.5 2 -11.5 3 q-3 1 -6 0.5 q-3 -0.5 -6 -2.5 q-2 -2 -4 -4.5 q-2 -2.5 -3 -5.5 l-53 -241 q-2 -6 1 -11 q3 -5 8 -8 q-36 -41 -83 -69 q-47 -28 -101 -40 q-8 24 -28.5 39.5 q-20.5 15.5 -47.5 15.5 q-33 0 -56.5 -23 q-23.5 -23 -23.5 -56 q0 -33 23.5 -56.5 q23.5 -23.5 56.5 -23.5 q31 0 53.5 21 q22.5 21 25.5 51 q65 14 121.5 49.5 q56.5 35.5 98.5 87.5 q46 2 83 32 q37 30 47 78 q0 0 0 0 q0 0 0 0 q6 27 1.5 54 q-4.5 27 -19.5 51 l0 0 ZM226 247 q-17 -1 -33.5 3.5 q-16.5 4.5 -31.5 13.5 q-18 11 -30 28.5 q-12 17.5 -17 38.5 q-5 21 -1 42 q4 21 15 39 q10 15 23 26 q13 11 29 17 l46 -208 l0 0 ZM779 635 l0 0 q0 0 0 0.5 q0 0.5 -1 0.5 q-22 33 -51 59 q-29 26 -63.5 44 q-34.5 18 -73.5 28 q-38 9 -79 9 q-42 0 -81 -9 q-39 -10 -73.5 -28.5 q-34.5 -18.5 -64.5 -44.5 q-29 -27 -51 -60 q0 -1 0 -1 q0 0 0 0 l0 0 q-5 -8 -13.5 -13 q-8.5 -5 -18.5 -5 q-16 0 -27 11 q-11 11 -11 27 q0 6 1.5 10.5 q1.5 4.5 4.5 9.5 l2 3 q28 40 64 71 q37 31 79.5 53 q42.5 22 90.5 33 q48 12 98 12 q50 0 97 -12 q47 -11 89.5 -32.5 q42.5 -21.5 79.5 -51.5 q36 -31 64 -70 l1 -1 q5 -5 7 -11.5 q2 -6.5 2 -13.5 q0 -16 -11 -27 q-11 -11 -27 -11 q-11 0 -20 5.5 q-9 5.5 -14 14.5 l0 0 ZM512 38 q-20 0 -34 14 q-14 14 -14 33 q0 20 14 34 q14 14 34 14 q20 0 34 -14 q14 -14 14 -34 q0 -19 -14 -33 q-14 -14 -34 -14 ZM910 331 q-9 -39 -41 -62.5 q-32 -23.5 -71 -21.5 l46 208 q16 -6 29 -17 q13 -11 23 -26 q11 -18 15 -39 q4 -21 -1 -42 l0 0 ZM266 489 q-1 7 -7 10.5 q-6 3.5 -12 2.5 q-6 -2 -10 -7.5 q-4 -5.5 -2 -12.5 l53 -241 q2 -5 6 -8.5 q4 -3.5 10 -3.5 q1 0 2 0 q1 0 1 0 q7 2 10.5 7.5 q3.5 5.5 2.5 11.5 l-54 241 l0 0 ZM720 229 q6 0 10 3.5 q4 3.5 6 8.5 l53 241 q2 7 -1.5 12.5 q-3.5 5.5 -10.5 6.5 q-6 2 -12 -1.5 q-6 -3.5 -7 -10.5 l-54 -241 q-1 -6 2.5 -12 q3.5 -6 10.5 -7 q0 0 1 0 q1 0 2 0 l0 0 Z" /><glyph glyph-name="" unicode="&#xe913;" d="M659 599 q-6 0 -11 -4.5 q-5 -4.5 -5 -11.5 q0 -6 5 -11 q5 -5 11 -5 q17 0 30.5 -5 q13.5 -5 22.5 -15 q8 -9 12 -21 q4 -12 3 -26 q0 -6 4 -11 q4 -5 11 -6 q0 0 0.5 0 q0.5 0 0.5 0 q6 0 11 4.5 q5 4.5 5 10.5 q1 21 -5 39 q-6 18 -19 32 q-14 15 -33.5 22.5 q-19.5 7.5 -42.5 7.5 l0 0 ZM963 206 q0 4 -2 7.5 q-2 3.5 -5 5.5 l-54 35 l0 40 q0 6 -4.5 11 q-4.5 5 -11.5 5 l-315 0 l0 60 l310 0 q3 0 6 1.5 q3 1.5 5 3.5 q2 2 3.5 5 q1.5 3 1.5 6 l0 55 q0 4 -2.5 7.5 q-2.5 3.5 -5.5 5.5 l-42 25 q-2 45 -21 83 q-20 39 -52 68 q-32 29 -75 46 q-42 16 -90 16 l-36 0 l0 33 q0 19 -13.5 32.5 q-13.5 13.5 -32.5 13.5 l-30 0 q-19 0 -32.5 -13.5 q-13.5 -13.5 -13.5 -32.5 l0 -33 l-36 0 q-48 0 -90 -16 q-43 -17 -75 -46 q-32 -29 -52 -68 q-19 -39 -21 -83 l-41 -22 q-4 -2 -6.5 -6 q-2.5 -4 -2.5 -8 l1 -57 q0 -6 4.5 -11 q4.5 -5 11.5 -5 l309 0 l0 -60 l-317 0 q-7 0 -11.5 -5 q-4.5 -5 -4.5 -11 l0 -40 l-51 -33 q-4 -2 -6 -5.5 q-2 -3.5 -2 -7.5 l0 -67 q0 -7 5 -11.5 q5 -4.5 11 -4.5 l870 0 q3 0 6 1 q3 1 5 4 q2 2 3.5 5 q1.5 3 1.5 6 l0 65 l0 0 ZM483 725 q0 6 4 10 q4 4 10 4 l30 0 q6 0 10 -4 q4 -4 4 -10 l0 -33 l-58 0 l0 33 l0 0 ZM160 433 l41 22 q4 2 6 6 q2 4 2 9 l0 0 q0 39 16 74 q17 35 45 60.5 q28 25.5 65 40.5 q38 15 80 15 l194 0 q43 0 80 -15 q38 -15 66 -40.5 q28 -25.5 44 -60.5 q16 -35 16 -74 l0 0 q0 -4 2 -8 q2 -4 6 -6 l42 -25 l0 -29 l-705 0 l0 31 l0 0 ZM485 370 l54 0 l0 -60 l-54 0 l0 60 ZM93 157 l0 42 l52 33 q3 2 5 5.5 q2 3.5 2 7.5 l0 33 l718 0 l0 -33 q0 -4 2 -7.5 q2 -3.5 5 -5.5 l54 -35 l0 -40 l-838 0 l0 0 ZM114 588 q1 0 2.5 -0.5 q1.5 -0.5 2.5 -0.5 q5 0 9 3.5 q4 3.5 6 8.5 q12 41 43 74.5 q31 33.5 73 50.5 q6 3 8.5 9 q2.5 6 -0.5 12 q-2 6 -8 8.5 q-6 2.5 -12 0.5 q-50 -21 -85 -59 q-35 -38 -50 -87 q-2 -6 1.5 -12 q3.5 -6 9.5 -8 l0 0 ZM774 724 q43 -17 73.5 -50.5 q30.5 -33.5 42.5 -74.5 q2 -5 6 -8.5 q4 -3.5 10 -3.5 q1 0 2 0.5 q1 0.5 2 0.5 q6 2 9.5 8 q3.5 6 1.5 12 q-14 49 -49.5 87 q-35.5 38 -84.5 59 q-7 2 -13 -0.5 q-6 -2.5 -8 -8.5 q-3 -6 -0.5 -12 q2.5 -6 8.5 -9 l0 0 Z" /><glyph glyph-name="" unicode="&#xe914;" d="M433 148 q-13 0 -22 -9 q-9 -9 -9 -22 q0 -13 9 -22 q9 -9 22 -9 q13 0 22 9 q9 9 9 22 q0 13 -9 22 q-9 9 -22 9 ZM478 783 q0 4 -3 7.5 q-3 3.5 -7 3.5 l-69 0 q-4 0 -7.5 -3.5 q-3.5 -3.5 -3.5 -7.5 q0 -4 3.5 -7.5 q3.5 -3.5 7.5 -3.5 l69 0 q4 0 7 3.5 q3 3.5 3 7.5 ZM356 794 q-4 0 -7 -3 q-3 -3 -3 -8 q0 -5 3 -8 q3 -3 7 -3 l1 0 q4 0 7.5 3 q3.5 3 3.5 8 q0 5 -3.5 8 q-3.5 3 -8.5 3 l0 0 ZM632 532 q-11 0 -19 -7.5 q-8 -7.5 -8 -18.5 q0 -11 8 -18.5 q8 -7.5 19 -7.5 q10 0 18 7.5 q8 7.5 8 18.5 q0 11 -8 18.5 q-8 7.5 -18 7.5 ZM539 532 q-11 0 -18.5 -7.5 q-7.5 -7.5 -7.5 -18.5 q0 -11 7.5 -18.5 q7.5 -7.5 18.5 -7.5 q11 0 18.5 7.5 q7.5 7.5 7.5 18.5 q0 11 -7.5 18.5 q-7.5 7.5 -18.5 7.5 ZM724 532 q-10 0 -18 -7.5 q-8 -7.5 -8 -18.5 q0 -11 8 -18.5 q8 -7.5 18 -7.5 q11 0 19 7.5 q8 7.5 8 18.5 q0 11 -8 18.5 q-8 7.5 -19 7.5 ZM841 506 q0 73 -44.5 129.5 q-44.5 56.5 -112.5 73.5 l0 117 q0 31 -21.5 52.5 q-21.5 21.5 -52.5 21.5 l-354 0 q-30 0 -51.5 -21.5 q-21.5 -21.5 -21.5 -52.5 l0 -756 q0 -31 21.5 -52.5 q21.5 -21.5 51.5 -21.5 l354 0 q31 0 52.5 21.5 q21.5 21.5 21.5 52.5 l0 233 q68 18 112.5 74 q44.5 56 44.5 129 l0 0 ZM652 70 q0 -17 -12 -29.5 q-12 -12.5 -30 -12.5 l-354 0 q-17 0 -29 12.5 q-12 12.5 -12 29.5 l0 756 q0 18 12 30 q12 12 29 12 l354 0 q17 0 29.5 -12 q12.5 -12 12.5 -30 l0 -111 q-5 1 -10 1 q-5 0 -10 0 q-44 0 -82 -16 q-38 -17 -66.5 -45.5 q-28.5 -28.5 -45.5 -66.5 q-16 -38 -16 -82 q0 -40 14.5 -76.5 q14.5 -36.5 41.5 -65.5 q-4 -11 -10 -23.5 q-6 -12.5 -9 -17.5 q-3 -4 -2.5 -8.5 q0.5 -4.5 2.5 -8.5 q2 -4 6 -6 q4 -2 9 -1 q1 0 23 3 q22 3 47 14 q21 -10 43 -14.5 q22 -4.5 45 -4.5 q5 0 10 0 q5 0 10 1 l0 -228 l0 0 ZM632 329 q-21 0 -41.5 4.5 q-20.5 4.5 -38.5 14.5 q-2 0 -4 0.5 q-2 0.5 -4 0.5 q-1 0 -3 0 q-2 0 -4 -1 q-9 -5 -18.5 -8 q-9.5 -3 -17.5 -4 q3 7 6 15 q3 8 4 15 q1 4 -0.5 7.5 q-1.5 3.5 -3.5 6.5 q-26 25 -39.5 57.5 q-13.5 32.5 -13.5 68.5 q0 74 52 126 q52 52 126 52 q73 0 125 -52 q52 -52 52 -126 q0 -73 -52 -125 q-52 -52 -125 -52 l0 0 Z" /><glyph glyph-name="" unicode="&#xe915;" d="M543 117 q0 -13 -9 -22 q-9 -9 -22 -9 q-13 0 -22 9 q-9 9 -9 22 q0 13 9 22 q9 9 22 9 q13 0 22 -9 q9 -9 9 -22 ZM689 900 l-354 0 q-30 0 -52 -21.5 q-22 -21.5 -22 -52.5 l0 -756 q0 -31 22 -52.5 q22 -21.5 52 -21.5 l354 0 q30 0 52 21.5 q22 21.5 22 52.5 l0 756 q0 31 -22 52.5 q-22 21.5 -52 21.5 ZM731 70 q0 -17 -12.5 -29.5 q-12.5 -12.5 -29.5 -12.5 l-354 0 q-17 0 -29.5 12.5 q-12.5 12.5 -12.5 29.5 l0 756 q0 18 12.5 30 q12.5 12 29.5 12 l354 0 q17 0 29.5 -12 q12.5 -12 12.5 -30 l0 -756 ZM546 794 l-68 0 q-5 0 -8 -3.5 q-3 -3.5 -3 -7.5 q0 -4 3 -7.5 q3 -3.5 8 -3.5 l68 0 q5 0 8 3.5 q3 3.5 3 7.5 q0 4 -3 7.5 q-3 3.5 -8 3.5 ZM435 794 q-4 0 -7.5 -3 q-3.5 -3 -3.5 -8 q0 -5 3.5 -8 q3.5 -3 7.5 -3 l1 0 q4 0 7 3 q3 3 3 8 q0 5 -3 8 q-3 3 -8 3 l0 0 Z" /><glyph glyph-name="" unicode="&#xe916;" d="M418 567 q0 -14 -9.5 -23.5 q-9.5 -9.5 -22.5 -9.5 q-13 0 -22.5 9.5 q-9.5 9.5 -9.5 23.5 q0 13 9.5 22.5 q9.5 9.5 22.5 9.5 q13 0 22.5 -9.5 q9.5 -9.5 9.5 -22.5 ZM269 567 q0 -14 -9.5 -23.5 q-9.5 -9.5 -22.5 -9.5 q-14 0 -23.5 9.5 q-9.5 9.5 -9.5 23.5 q0 13 9.5 22.5 q9.5 9.5 23.5 9.5 q13 0 22.5 -9.5 q9.5 -9.5 9.5 -22.5 ZM535 534 q14 0 23.5 9.5 q9.5 9.5 9.5 23.5 q0 13 -9.5 22.5 q-9.5 9.5 -23.5 9.5 q-13 0 -22.5 -9.5 q-9.5 -9.5 -9.5 -22.5 q0 -14 9.5 -23.5 q9.5 -9.5 22.5 -9.5 ZM892 83 q34 37 52 83 q18 46 18 96 q0 53 -19 99 q-20 47 -54 82 q-34 35 -80 56 q-46 21 -99 23 q2 11 3 22 q1 11 1 23 q0 68 -26 127 q-26 60 -70.5 104.5 q-44.5 44.5 -104.5 70.5 q-59 25 -127 25 q-68 0 -127 -25 q-60 -26 -104.5 -70.5 q-44.5 -44.5 -70.5 -104.5 q-26 -60 -26 -127 q0 -64 23.5 -122.5 q23.5 -58.5 67.5 -104.5 q-5 -18 -16 -41 q-11 -23 -17 -33 q-2 -3 -2 -7.5 q0 -4.5 3 -8.5 q2 -4 6 -6 q4 -2 8 -1 q2 0 38.5 5 q36.5 5 75.5 23 q34 -16 69 -24 q35 -8 72 -8 q14 0 28.5 1.5 q14.5 1.5 28.5 3.5 q3 -51 25 -95 q21 -44 56 -77 q35 -33 81 -52 q46 -18 97 -18 q29 0 56.5 6 q27.5 6 53.5 18 q32 -13 60 -17.5 q28 -4.5 29 -4.5 q5 0 9 2 q4 2 6 6 q2 3 2.5 7.5 q0.5 4.5 -2.5 8.5 q-4 8 -12 24.5 q-8 16.5 -12 30.5 l0 0 ZM246 304 q-2 0 -4 0 q-2 0 -3 -1 q-21 -10 -42.5 -15.5 q-21.5 -5.5 -37.5 -8.5 q7 14 14 31.5 q7 17.5 10 31.5 q0 4 -1 8 q-1 4 -4 7 q-42 42 -65 96 q-23 54 -23 114 q0 61 24 115 q23 54 63 94 q40 40 94 63 q54 23 115 23 q61 0 115 -23 q54 -23 94 -63 q40 -40 63 -94 q24 -54 24 -115 q0 -61 -24 -115 q-23 -54 -63 -94 q-40 -40 -94 -64 q-54 -23 -115 -23 q-35 0 -68.5 8 q-33.5 8 -64.5 24 q-2 1 -3.5 1 q-1.5 0 -3.5 0 l0 0 ZM819 58 q-3 2 -7 2 q-4 0 -7 -2 q-24 -12 -50 -18 q-26 -6 -53 -6 q-46 0 -86 17 q-41 17 -71.5 46.5 q-30.5 29.5 -49.5 68.5 q-18 40 -20 85 q42 12 79 35 q38 22 67.5 53 q29.5 31 51.5 69 q21 39 31 82 q47 -1 88 -19 q41 -18 72 -49 q31 -31 49 -72 q17 -41 17 -88 q0 -46 -17.5 -88 q-17.5 -42 -49.5 -74 q-3 -3 -4 -7 q-1 -4 -1 -8 q2 -10 6.5 -22 q4.5 -12 9.5 -22 q-12 2 -26.5 6.5 q-14.5 4.5 -28.5 10.5 l0 0 Z" /><glyph glyph-name="" unicode="&#xe917;" d="M393 286 l0 94 q0 3 -2 4 q-2 1 -5 -1 l-25 -14 l0 -88 l27 0 q2 0 3.5 1.5 q1.5 1.5 1.5 3.5 l0 0 ZM354 281 l0 84 l-18 -11 q-1 0 -2 -1.5 q-1 -1.5 -1 -3.5 l0 -65 q0 -1 1 -2 q1 -1 2 -1 l18 0 l0 0 ZM214 468 q8 3 16 5 q8 2 16 3 q-1 -4 -1.5 -8.5 q-0.5 -4.5 -0.5 -9.5 q0 -30 15 -57.5 q15 -27.5 40 -43.5 q2 -1 4.5 -1 q2.5 0 3.5 2 q1 2 1 3.5 q0 1.5 -2 3.5 q-16 15 -24.5 35 q-8.5 20 -8.5 41 q0 11 2 21 q2 10 6 20 q8 0 17.5 0.5 q9.5 0.5 19.5 0.5 q64 0 111.5 -19 q47.5 -19 47.5 -47 q0 -14 -15.5 -27.5 q-15.5 -13.5 -37.5 -22.5 q-5 -2 -6 -4 q-1 -2 0 -4 q0 -2 2.5 -3 q2.5 -1 4.5 0 q38 12 63 31.5 q25 19.5 25 44.5 q0 33 -47 55.5 q-47 22.5 -114 22.5 q-14 0 -28 -1 q-14 -1 -29 -4 q15 19 37 30 q22 11 48 11 q19 0 37 -6.5 q18 -6.5 31 -17.5 q2 -1 4 -1.5 q2 -0.5 3 1.5 q2 2 2 3.5 q0 1.5 -2 4.5 q-17 19 -41 31 q-24 12 -53 11 q-38 0 -67.5 -22 q-29.5 -22 -42.5 -55 q-11 -3 -21 -7.5 q-10 -4.5 -19 -9.5 q-3 -1 -4 -3 q-1 -2 0 -4 q1 -2 3 -2.5 q2 -0.5 4 -0.5 l0 0 ZM628 290 q20 -7 40.5 -10.5 q20.5 -3.5 41.5 -3.5 q27 0 53.5 5.5 q26.5 5.5 50.5 17.5 q30 -13 56.5 -16.5 q26.5 -3.5 27.5 -4.5 q5 0 9 2 q4 2 6 6 q2 4 2.5 8 q0.5 4 -2.5 8 q-3 7 -11 23 q-8 16 -12 29 q33 34 50 77.5 q17 43.5 17 91.5 q0 51 -19 96 q-20 45 -53.5 78.5 q-33.5 33.5 -78.5 53.5 q-45 19 -96 19 q-55 0 -105 -23.5 q-50 -23.5 -85 -65.5 q-35 22 -75.5 34 q-40.5 12 -84.5 12 q-62 0 -117 -23 q-55 -24 -95.5 -65 q-40.5 -41 -64.5 -95 q-24 -55 -24 -117 q0 -59 21.5 -112.5 q21.5 -53.5 61.5 -95.5 q-5 -16 -15 -36.5 q-10 -20.5 -15 -29.5 q-2 -4 -2 -8.5 q0 -4.5 3 -8.5 q2 -3 6 -5 q4 -2 9 -2 q1 0 34 5 q33 5 70 21 q30 -15 62 -22 q32 -7 66 -7 q44 0 84 12 q40 12 74.5 33.5 q34.5 21.5 62.5 51.5 q28 30 47 67 l0 0 ZM710 738 q44 0 84 -17 q39 -17 68 -46 q29 -29 46 -68 q17 -39 17 -84 q0 -43 -16.5 -82.5 q-16.5 -39.5 -47.5 -70.5 q-3 -3 -4 -6.5 q-1 -3.5 0 -7.5 q1 -9 5.5 -20 q4.5 -11 8.5 -21 q-11 2 -24 6 q-13 4 -26 10 q-3 2 -7 2 q-4 0 -7 -2 q-23 -12 -47.5 -17.5 q-24.5 -5.5 -49.5 -5.5 q-18 0 -35 3 q-17 3 -34 8 q10 25 15 52 q5 27 5 56 q0 71 -31 132.5 q-31 61.5 -84 103.5 q31 35 74 55 q43 20 90 20 l0 0 ZM239 187 q-2 0 -3.5 0.5 q-1.5 0.5 -3.5 0.5 q-2 0 -4 0 q-2 0 -3 -1 q-18 -9 -37 -14 q-19 -5 -33 -8 q6 13 12 28.5 q6 15.5 8 27.5 q1 4 0 8 q-1 4 -4 7 q-39 38 -59.5 87 q-20.5 49 -20.5 104 q0 55 21 104 q21 49 57.5 85.5 q36.5 36.5 85.5 57.5 q49 21 105 21 q56 0 104 -21 q49 -21 85.5 -57.5 q36.5 -36.5 58.5 -85.5 q21 -49 21 -104 q0 -56 -21 -105 q-22 -49 -58.5 -85.5 q-36.5 -36.5 -85.5 -57.5 q-48 -21 -104 -21 q-32 0 -62.5 7 q-30.5 7 -58.5 22 l0 0 Z" /><glyph glyph-name="" unicode="&#xe918;" d="M418 567 q0 -14 -9.5 -23.5 q-9.5 -9.5 -22.5 -9.5 q-13 0 -22.5 9.5 q-9.5 9.5 -9.5 23.5 q0 13 9.5 22.5 q9.5 9.5 22.5 9.5 q13 0 22.5 -9.5 q9.5 -9.5 9.5 -22.5 ZM269 567 q0 -14 -9.5 -23.5 q-9.5 -9.5 -22.5 -9.5 q-14 0 -23.5 9.5 q-9.5 9.5 -9.5 23.5 q0 13 9.5 22.5 q9.5 9.5 23.5 9.5 q13 0 22.5 -9.5 q9.5 -9.5 9.5 -22.5 ZM535 534 q14 0 23.5 9.5 q9.5 9.5 9.5 23.5 q0 13 -9.5 22.5 q-9.5 9.5 -23.5 9.5 q-13 0 -22.5 -9.5 q-9.5 -9.5 -9.5 -22.5 q0 -14 9.5 -23.5 q9.5 -9.5 22.5 -9.5 ZM892 83 q34 37 52 83 q18 46 18 96 q0 53 -19 99 q-20 47 -54 82 q-34 35 -80 56 q-46 21 -99 23 q2 11 3 22 q1 11 1 23 q0 68 -26 127 q-26 60 -70.5 104.5 q-44.5 44.5 -104.5 70.5 q-59 25 -127 25 q-68 0 -127 -25 q-60 -26 -104.5 -70.5 q-44.5 -44.5 -70.5 -104.5 q-26 -60 -26 -127 q0 -64 23.5 -122.5 q23.5 -58.5 67.5 -104.5 q-5 -18 -16 -41 q-11 -23 -17 -33 q-2 -3 -2 -7.5 q0 -4.5 3 -8.5 q2 -4 6 -6 q4 -2 8 -1 q2 0 38.5 5 q36.5 5 75.5 23 q34 -16 69 -24 q35 -8 72 -8 q14 0 28.5 1.5 q14.5 1.5 28.5 3.5 q3 -51 25 -95 q21 -44 56 -77 q35 -33 81 -52 q46 -18 97 -18 q29 0 56.5 6 q27.5 6 53.5 18 q32 -13 60 -17.5 q28 -4.5 29 -4.5 q5 0 9 2 q4 2 6 6 q2 3 2.5 7.5 q0.5 4.5 -2.5 8.5 q-4 8 -12 24.5 q-8 16.5 -12 30.5 l0 0 ZM246 304 q-2 0 -4 0 q-2 0 -3 -1 q-21 -10 -42.5 -15.5 q-21.5 -5.5 -37.5 -8.5 q7 14 14 31.5 q7 17.5 10 31.5 q0 4 -1 8 q-1 4 -4 7 q-42 42 -65 96 q-23 54 -23 114 q0 61 24 115 q23 54 63 94 q40 40 94 63 q54 23 115 23 q61 0 115 -23 q54 -23 94 -63 q40 -40 63 -94 q24 -54 24 -115 q0 -61 -24 -115 q-23 -54 -63 -94 q-40 -40 -94 -64 q-54 -23 -115 -23 q-35 0 -68.5 8 q-33.5 8 -64.5 24 q-2 1 -3.5 1 q-1.5 0 -3.5 0 l0 0 ZM819 58 q-3 2 -7 2 q-4 0 -7 -2 q-24 -12 -50 -18 q-26 -6 -53 -6 q-46 0 -86 17 q-41 17 -71.5 46.5 q-30.5 29.5 -49.5 68.5 q-18 40 -20 85 q42 12 79 35 q38 22 67.5 53 q29.5 31 51.5 69 q21 39 31 82 q47 -1 88 -19 q41 -18 72 -49 q31 -31 49 -72 q17 -41 17 -88 q0 -46 -17.5 -88 q-17.5 -42 -49.5 -74 q-3 -3 -4 -7 q-1 -4 -1 -8 q2 -10 6.5 -22 q4.5 -12 9.5 -22 q-12 2 -26.5 6.5 q-14.5 4.5 -28.5 10.5 l0 0 Z" /><glyph glyph-name="" unicode="&#xe919;" d="M946 765 l-868 0 q-7 0 -11.5 -4.5 q-4.5 -4.5 -4.5 -11.5 l0 -602 q0 -6 4.5 -11 q4.5 -5 11.5 -5 l868 0 q7 0 11.5 5 q4.5 5 4.5 11 l0 602 q0 7 -4.5 11.5 q-4.5 4.5 -11.5 4.5 ZM512 328 l-405 405 l810 0 l-405 -405 l0 0 ZM349 446 l-255 -255 l0 510 l255 -255 l0 0 ZM371 424 l130 -130 q2 -2 5 -3 q3 -1 6 -1 q3 0 6 1 q3 1 5 3 l130 130 l260 -261 l-802 0 l260 261 l0 0 ZM675 446 l255 255 l0 -510 l-255 255 l0 0 Z" /><glyph glyph-name="" unicode="&#xe91a;" d="M890 670 l-239 0 l0 156 q0 31 -22 52.5 q-22 21.5 -52 21.5 l-354 0 q-31 0 -52.5 -21.5 q-21.5 -21.5 -21.5 -52.5 l0 -756 q0 -31 21.5 -52.5 q21.5 -21.5 52.5 -21.5 l354 0 q30 0 52 21.5 q22 21.5 22 52.5 l0 213 l239 0 q6 0 11 5 q5 5 5 11 l0 355 q0 6 -4.5 11 q-4.5 5 -11.5 5 l0 0 ZM634 415 l-223 223 l446 0 l-223 -223 ZM394 610 l135 -135 l-135 -134 l0 269 l0 0 ZM551 453 l72 -72 q2 -2 5 -3.5 q3 -1.5 6 -1.5 q3 0 6 1.5 q3 1.5 5 3.5 l72 72 l137 -138 l-440 0 l137 138 l0 0 ZM740 475 l134 135 l0 -269 l-134 134 l0 0 ZM619 70 q0 -17 -12.5 -29.5 q-12.5 -12.5 -29.5 -12.5 l-354 0 q-17 0 -29.5 12.5 q-12.5 12.5 -12.5 29.5 l0 756 q0 18 12.5 30 q12.5 12 29.5 12 l354 0 q17 0 29.5 -12 q12.5 -12 12.5 -30 l0 -156 l-241 0 q-6 0 -11 -5 q-5 -5 -5 -11 l0 -355 q0 -7 5 -11.5 q5 -4.5 11 -4.5 l241 0 l0 -213 l0 0 ZM431 117 q0 -13 -9 -22 q-9 -9 -22 -9 q-13 0 -22 9 q-9 9 -9 22 q0 13 9 22 q9 9 22 9 q13 0 22 -9 q9 -9 9 -22 ZM434 772 q5 0 8 3.5 q3 3.5 3 7.5 q0 4 -3 7.5 q-3 3.5 -8 3.5 l-68 0 q-5 0 -8 -3.5 q-3 -3.5 -3 -7.5 q0 -4 3 -7.5 q3 -3.5 8 -3.5 l68 0 ZM323 794 q-5 0 -8 -3 q-3 -3 -3 -8 q0 -5 3 -8 q3 -3 8 -3 l0 0 q5 0 8 3 q3 3 3 8 q0 5 -3 8 q-3 3 -8 3 l0 0 Z" /><glyph glyph-name="" unicode="&#xe91b;" d="M947 689 l-648 0 q-7 0 -11.5 -5 q-4.5 -5 -4.5 -11 l0 -142 q0 -7 4.5 -11.5 q4.5 -4.5 11.5 -4.5 q6 0 11 4.5 q5 4.5 5 11.5 l0 96 l180 -180 l-180 -181 l0 147 q0 7 -5 11.5 q-5 4.5 -11 4.5 q-7 0 -11.5 -4.5 q-4.5 -4.5 -4.5 -11.5 l0 -27 l-95 0 q-7 0 -11.5 -5 q-4.5 -5 -4.5 -11 q0 -7 4.5 -11.5 q4.5 -4.5 11.5 -4.5 l95 0 l0 -131 q0 -6 4.5 -11 q4.5 -5 11.5 -5 l648 0 q6 0 11 5 q5 5 5 11 l0 450 q0 6 -5 11 q-5 5 -11 5 l0 0 ZM750 447 l181 180 l0 -361 l-181 181 l0 0 ZM623 364 l-293 293 l585 0 l-292 -293 ZM611 330 q3 -2 5.5 -3 q2.5 -1 6.5 -1 q3 0 6 1 q3 1 5 3 l93 94 l185 -184 l-579 0 l185 184 l93 -94 l0 0 ZM97 565 l139 0 q6 0 11 4.5 q5 4.5 5 11.5 q0 6 -5 11 q-5 5 -11 5 l-139 0 q-6 0 -11 -5 q-5 -5 -5 -11 q0 -7 5 -11.5 q5 -4.5 11 -4.5 ZM410 474 q0 6 -5 11 q-5 5 -11 5 l-317 0 q-6 0 -11 -5 q-5 -5 -5 -11 q0 -7 5 -11.5 q5 -4.5 11 -4.5 l317 0 q6 0 11 4.5 q5 4.5 5 11.5 l0 0 ZM229 304 l-123 0 q-6 0 -11 -4.5 q-5 -4.5 -5 -11.5 q0 -6 5 -11 q5 -5 11 -5 l123 0 q7 0 11.5 5 q4.5 5 4.5 11 q0 7 -4.5 11.5 q-4.5 4.5 -11.5 4.5 Z" /><glyph glyph-name="" unicode="&#xe91c;" d="M650 372 q-30 16 -49 17.5 q-19 1.5 -30 -3.5 q-4 -2 -9 -4.5 q-5 -2.5 -10 -6.5 q-19 -13 -33 -36.5 q-14 -23.5 -24 -46.5 q-44 34 -80.5 74 q-36.5 40 -55.5 65 q32 15 55.5 34.5 q23.5 19.5 25.5 20.5 q0 1 0.5 1 q0.5 0 0.5 1 q0 0 0.5 0.5 q0.5 0.5 1.5 0.5 q9 9 11 30 q2 21 -19 60 q-14 27 -36.5 56.5 q-22.5 29.5 -51.5 58.5 q-28 29 -58 51.5 q-30 22.5 -56 36.5 q-39 21 -60 19 q-21 -2 -30 -11 q0 -1 -0.5 -1 q-0.5 0 -1.5 0 q-8 -8 -36.5 -49 q-28.5 -41 -37.5 -112 q-7 -48 1 -99 q7 -51 29.5 -104.5 q22.5 -53.5 60.5 -109.5 q37 -56 89 -114 l0 0 q7 -7 42 -40 q36 -32 91 -68 q55 -36 124 -65 q70 -28 145 -28 q53 0 102 17 q49 17 93 51 q2 1 6 5 q4 4 7 10 q0 0 0 0 q0 0 0 0 q28 28 -6 88.5 q-34 60.5 -88 113.5 q-28 28 -57 50.5 q-29 22.5 -56 36.5 l0 0 ZM173 769 q6 0 17 -3 q11 -3 28 -12 q24 -13 52 -34.5 q28 -21.5 55 -48.5 q26 -27 47.5 -54.5 q21.5 -27.5 34.5 -52.5 q14 -26 14.5 -38 q0.5 -12 -1.5 -14 q-2 -2 -14 -1.5 q-12 0.5 -39 14.5 q-25 13 -52.5 34 q-27.5 21 -54.5 48 q-63 63 -82.5 107.5 q-19.5 44.5 -12.5 52.5 q1 0 3 1 q2 1 5 1 l0 0 ZM271 222 q0 0 -0.5 0 q-0.5 0 -0.5 0 q-49 55 -84 108 q-36 53 -57.5 103.5 q-21.5 50.5 -28.5 97.5 q-8 48 -1 93 q4 35 15 62 q11 27 22 45 q2 -7 5.5 -15 q3.5 -8 8.5 -17 q14 -27 36.5 -56.5 q22.5 -29.5 51.5 -57.5 q35 -35 74 -63.5 q39 -28.5 72 -38.5 q-12 -9 -26.5 -17 q-14.5 -8 -29.5 -13 q-3 -1 -5.5 -4 q-2.5 -3 -3.5 -7 q-2 -3 -1 -7 q1 -4 3 -7 q15 -20 63 -75.5 q48 -55.5 109 -98.5 q2 -1 4.5 -1.5 q2.5 -0.5 4.5 -0.5 q1 0 2.5 0 q1.5 0 2.5 0 q3 1 6 3.5 q3 2.5 4 6.5 q9 22 18 39.5 q9 17.5 17 29.5 q2 -9 6 -19 q4 -10 10 -22 q14 -26 36.5 -55.5 q22.5 -29.5 50.5 -57.5 q35 -35 74 -63 q39 -28 71 -38 q-35 -22 -72.5 -33 q-37.5 -11 -78.5 -11 q-73 0 -140 29 q-67 29 -119.5 64 q-52.5 35 -84.5 65 q-32 30 -34 32 l0 0 ZM836 108 q-1 -1 -2 -2 q-1 -1 -2 -2 q-5 -1 -17 1.5 q-12 2.5 -32 12.5 q-24 13 -51.5 34 q-27.5 21 -53.5 47 q-27 27 -48 54 q-21 27 -33 52 q-12 23 -14 35.5 q-2 12.5 1 15.5 q0 0 0.5 0.5 q0.5 0.5 0.5 0.5 q1 0 1.5 0 q0.5 0 0.5 0 q0 1 0 1 q0 0 0 0 q1 0 2 0 q1 0 3 0 q6 0 17 -3 q11 -3 27 -11 q24 -13 51 -34 q27 -21 54 -48 q59 -59 79 -101.5 q20 -42.5 16 -52.5 l0 0 ZM761 717 q-11 0 -18.5 -7.5 q-7.5 -7.5 -7.5 -18.5 q0 -11 7.5 -18.5 q7.5 -7.5 18.5 -7.5 q10 0 18 7.5 q8 7.5 8 18.5 q0 11 -8 18.5 q-8 7.5 -18 7.5 l0 0 ZM668 717 q-11 0 -18.5 -7.5 q-7.5 -7.5 -7.5 -18.5 q0 -11 7.5 -18.5 q7.5 -7.5 18.5 -7.5 q11 0 18.5 7.5 q7.5 7.5 7.5 18.5 q0 11 -7.5 18.5 q-7.5 7.5 -18.5 7.5 l0 0 ZM853 717 q-11 0 -18.5 -7.5 q-7.5 -7.5 -7.5 -18.5 q0 -11 7.5 -18.5 q7.5 -7.5 18.5 -7.5 q11 0 18.5 7.5 q7.5 7.5 7.5 18.5 q0 11 -7.5 18.5 q-7.5 7.5 -18.5 7.5 l0 0 ZM761 900 q-44 0 -82 -17 q-38 -16 -66 -44.5 q-28 -28.5 -45 -66.5 q-16 -38 -16 -81 q0 -40 14 -76.5 q14 -36.5 41 -65.5 q-3 -10 -9 -22.5 q-6 -12.5 -10 -18.5 q-2 -4 -1.5 -8.5 q0.5 -4.5 2.5 -7.5 q2 -4 6 -6 q4 -2 9 -2 q1 0 23 3.5 q22 3.5 46 13.5 q21 -9 43 -14 q22 -5 45 -5 q43 0 81 16 q38 17 66.5 45.5 q28.5 28.5 44.5 66.5 q16 38 16 81 q0 43 -16 81 q-16 38 -44.5 66.5 q-28.5 28.5 -66.5 44.5 q-38 17 -81 17 l0 0 ZM761 514 q-21 0 -41 5 q-20 5 -39 14 q-2 1 -3.5 1.5 q-1.5 0.5 -3.5 0.5 q-2 0 -3.5 -0.5 q-1.5 -0.5 -3.5 -1.5 q-9 -4 -18.5 -7 q-9.5 -3 -17.5 -5 q3 8 6 15.5 q3 7.5 4 14.5 q0 4 -1 8 q-1 4 -4 6 q-25 25 -38.5 57.5 q-13.5 32.5 -13.5 68.5 q0 73 52 125 q52 52 125 52 q73 0 125 -52 q52 -52 52 -125 q-1 -73 -52.5 -125 q-51.5 -52 -124.5 -52 l0 0 Z" /><glyph glyph-name="" unicode="&#xe91d;" d="M433 148 q-13 0 -22 -9 q-9 -9 -9 -22 q0 -13 9 -22 q9 -9 22 -9 q13 0 22 9 q9 9 9 22 q0 13 -9 22 q-9 9 -22 9 ZM478 783 q0 4 -3 7.5 q-3 3.5 -7 3.5 l-69 0 q-4 0 -7.5 -3.5 q-3.5 -3.5 -3.5 -7.5 q0 -4 3.5 -7.5 q3.5 -3.5 7.5 -3.5 l69 0 q4 0 7 3.5 q3 3.5 3 7.5 ZM356 794 q-4 0 -7 -3 q-3 -3 -3 -8 q0 -5 3 -8 q3 -3 7 -3 l1 0 q4 0 7.5 3 q3.5 3 3.5 8 q0 5 -3.5 8 q-3.5 3 -8.5 3 l0 0 ZM632 532 q-11 0 -19 -7.5 q-8 -7.5 -8 -18.5 q0 -11 8 -18.5 q8 -7.5 19 -7.5 q10 0 18 7.5 q8 7.5 8 18.5 q0 11 -8 18.5 q-8 7.5 -18 7.5 ZM539 532 q-11 0 -18.5 -7.5 q-7.5 -7.5 -7.5 -18.5 q0 -11 7.5 -18.5 q7.5 -7.5 18.5 -7.5 q11 0 18.5 7.5 q7.5 7.5 7.5 18.5 q0 11 -7.5 18.5 q-7.5 7.5 -18.5 7.5 ZM724 532 q-10 0 -18 -7.5 q-8 -7.5 -8 -18.5 q0 -11 8 -18.5 q8 -7.5 18 -7.5 q11 0 19 7.5 q8 7.5 8 18.5 q0 11 -8 18.5 q-8 7.5 -19 7.5 ZM841 506 q0 73 -44.5 129.5 q-44.5 56.5 -112.5 73.5 l0 117 q0 31 -21.5 52.5 q-21.5 21.5 -52.5 21.5 l-354 0 q-30 0 -51.5 -21.5 q-21.5 -21.5 -21.5 -52.5 l0 -756 q0 -31 21.5 -52.5 q21.5 -21.5 51.5 -21.5 l354 0 q31 0 52.5 21.5 q21.5 21.5 21.5 52.5 l0 233 q68 18 112.5 74 q44.5 56 44.5 129 l0 0 ZM652 70 q0 -17 -12 -29.5 q-12 -12.5 -30 -12.5 l-354 0 q-17 0 -29 12.5 q-12 12.5 -12 29.5 l0 756 q0 18 12 30 q12 12 29 12 l354 0 q17 0 29.5 -12 q12.5 -12 12.5 -30 l0 -111 q-5 1 -10 1 q-5 0 -10 0 q-44 0 -82 -16 q-38 -17 -66.5 -45.5 q-28.5 -28.5 -45.5 -66.5 q-16 -38 -16 -82 q0 -40 14.5 -76.5 q14.5 -36.5 41.5 -65.5 q-4 -11 -10 -23.5 q-6 -12.5 -9 -17.5 q-3 -4 -2.5 -8.5 q0.5 -4.5 2.5 -8.5 q2 -4 6 -6 q4 -2 9 -1 q1 0 23 3 q22 3 47 14 q21 -10 43 -14.5 q22 -4.5 45 -4.5 q5 0 10 0 q5 0 10 1 l0 -228 l0 0 l0 0 ZM632 329 q-21 0 -41.5 4.5 q-20.5 4.5 -38.5 14.5 q-2 0 -4 0.5 q-2 0.5 -4 0.5 q-1 0 -3 0 q-2 0 -4 -1 q-9 -5 -18.5 -8 q-9.5 -3 -17.5 -4 q3 7 6 15 q3 8 4 15 q1 4 -0.5 7.5 q-1.5 3.5 -3.5 6.5 q-26 25 -39.5 57.5 q-13.5 32.5 -13.5 68.5 q0 74 52 126 q52 52 126 52 q73 0 125 -52 q52 -52 52 -126 q0 -73 -52 -125 q-52 -52 -125 -52 l0 0 Z" /><glyph glyph-name="" unicode="&#xe91e;" d="M752 192 l0 436 q0 6 -0.5 11 q-0.5 5 -2.5 10 q6 9 11.5 18.5 q5.5 9.5 10.5 18.5 q4 6 2 12.5 q-2 6.5 -8 9.5 q-5 3 -11.5 1.5 q-6.5 -1.5 -10.5 -7.5 q-3 -6 -6 -11.5 q-3 -5.5 -7 -10.5 q-9 9 -22 14.5 q-13 5.5 -28 5.5 l-17 0 q6 11 9 23.5 q3 12.5 3 25.5 l0 35 q0 47 -33.5 80.5 q-33.5 33.5 -80.5 33.5 l-98 0 q-47 0 -80.5 -33.5 q-33.5 -33.5 -33.5 -80.5 l0 -35 q0 -13 3 -25.5 q3 -12.5 9 -23.5 l-17 0 q-30 0 -51 -21 q-21 -21 -21 -51 l0 -349 q-10 -5 -15.5 -7.5 q-5.5 -2.5 -5.5 -2.5 q-5 -2 -7.5 -6 q-2.5 -4 -2.5 -9 l0 -70 q-22 -9 -34 -27 q-12 -18 -12 -41 l0 -30 q0 -36 25.5 -61.5 q25.5 -25.5 61.5 -25.5 l461 0 q36 0 61.5 25.5 q25.5 25.5 25.5 61.5 l0 30 q0 31 -21.5 52 q-21.5 21 -56.5 24 l0 0 ZM720 192 l-416 0 l0 66 q31 16 80 45 q50 28 107 71 q57 43 117 101 q60 58 112 131 l0 -414 ZM381 784 q0 34 24 58 q24 24 58 24 l98 0 q34 0 58 -24 q24 -24 24 -58 l0 -35 q0 -34 -24 -58 q-24 -24 -58 -24 l-98 0 q-34 0 -58 24 q-24 24 -24 58 l0 35 l0 0 l0 0 ZM304 628 q0 17 11.5 28.5 q11.5 11.5 28.5 11.5 l40 0 q15 -15 35.5 -24 q20.5 -9 43.5 -9 l98 0 q23 0 43.5 9 q20.5 9 35.5 24 l40 0 q10 0 18.5 -4.5 q8.5 -4.5 13.5 -11.5 q-48 -74 -105 -133 q-58 -58 -113.5 -102.5 q-55.5 -44.5 -105.5 -74.5 q-50 -30 -84 -48 l0 334 l0 0 ZM798 86 q0 -23 -16.5 -39 q-16.5 -16 -39.5 -16 l-460 0 q-23 0 -39.5 16 q-16.5 16 -16.5 39 l0 30 q0 24 18 34 q18 10 38 10 l460 0 q20 0 38 -10 q18 -10 18 -34 l0 -30 Z" /><glyph glyph-name="" unicode="&#xe91f;" d="M964 547 q0 1 0 1.5 q0 0.5 0 1.5 q-1 0 -1 1 q0 1 0 2 l-98 265 q-1 5 -5.5 7.5 q-4.5 2.5 -9.5 2.5 l-547 0 q-5 0 -9.5 -2.5 q-4.5 -2.5 -5.5 -7.5 l-50 -137 q0 0 -0.5 -0.5 q-0.5 -0.5 -0.5 -0.5 q-38 -11 -70 -32 q-33 -22 -56.5 -52.5 q-23.5 -30.5 -36.5 -68.5 q-14 -37 -14 -79 q0 0 0 0 q0 0 0 0 q0 0 0 -0.5 q0 -0.5 0 -1.5 q5 -69 40 -136 q35 -66 76 -118 q41 -52 75 -85 q35 -32 38 -35 q2 -2 5 -3 q3 -1 6 -1 q0 0 0 0 q0 0 0 0 q0 0 0 0 q0 0 0 0 l586 0 q7 0 11.5 4.5 q4.5 4.5 4.5 11.5 l0 366 q27 13 44.5 39 q17.5 26 17.5 58 l0 0 ZM92 448 q0 0 0 0 q0 0 0 0 q0 43 17 81 q16 38 44 66.5 q28 28.5 66 44.5 q38 16 81 16 q43 0 81 -16 q38 -16 66 -44.5 q28 -28.5 45 -66.5 q16 -38 16 -81 q0 0 0 0 q0 0 0 0 q-4 -56 -31 -112 q-27 -55 -61.5 -101.5 q-34.5 -46.5 -66.5 -80.5 q-33 -34 -49 -49 q-15 15 -48 49 q-33 34 -67 80.5 q-34 46.5 -62 101.5 q-27 56 -31 112 l0 0 ZM390 151 l0 -51 l-49 0 q10 10 22.5 22.5 q12.5 12.5 26.5 28.5 ZM745 104 l-146 0 l0 235 l146 0 l0 -235 ZM567 104 l-145 0 l0 85 q25 32 49.5 70.5 q24.5 38.5 41.5 79.5 l54 0 l0 -235 l0 0 ZM870 100 l-93 0 l0 255 q0 7 -5 11.5 q-5 4.5 -11 4.5 l-236 0 q6 19 10 37.5 q4 18.5 5 37.5 q0 1 0 1.5 q0 0.5 0 0.5 q0 0 0 0 q0 0 0 0 q0 2 0 3 q0 1 0 2 q0 0 0 0 q0 0 0 0 q12 7 22 16.5 q10 9.5 17 21.5 q14 -24 38.5 -38 q24.5 -14 53.5 -14 q29 0 53.5 14 q24.5 14 38.5 38 q15 -24 39 -38 q24 -14 54 -14 q3 0 7 0.5 q4 0.5 7 0.5 l0 -340 l0 0 ZM856 471 q-32 0 -54.5 22.5 q-22.5 22.5 -22.5 53.5 q0 7 -4.5 11.5 q-4.5 4.5 -11.5 4.5 q-6 0 -11 -4.5 q-5 -4.5 -5 -11.5 q0 -31 -22 -53.5 q-22 -22.5 -54 -22.5 q-31 0 -53.5 22.5 q-22.5 22.5 -22.5 53.5 q0 7 -4.5 11.5 q-4.5 4.5 -11.5 4.5 q-7 0 -11.5 -4.5 q-4.5 -4.5 -4.5 -11.5 q0 -17 -7 -32 q-7 -15 -20 -26 q-7 43 -28 79 q-21 36 -52.5 63 q-31.5 27 -71.5 42 q-40 15 -84 15 q-7 0 -13.5 0 q-6.5 0 -12.5 -1 l40 109 l525 0 l93 -252 q-1 -30 -23.5 -51.5 q-22.5 -21.5 -52.5 -21.5 l0 0 ZM395 477 q0 39 -27.5 67 q-27.5 28 -66.5 28 q-40 0 -67.5 -28 q-27.5 -28 -27.5 -67 q0 -39 27.5 -66.5 q27.5 -27.5 67.5 -27.5 q39 0 66.5 27.5 q27.5 27.5 27.5 66.5 ZM238 477 q0 26 18.5 44.5 q18.5 18.5 44.5 18.5 q25 0 43.5 -18.5 q18.5 -18.5 18.5 -44.5 q0 -26 -18.5 -44 q-18.5 -18 -43.5 -18 q-26 0 -44.5 18 q-18.5 18 -18.5 44 l0 0 Z" /><glyph glyph-name="" unicode="&#xe920;" d="M513 137 q-13 0 -22 -9 q-9 -9 -9 -22 q0 -13 9 -22 q9 -9 22 -9 q12 0 21.5 9 q9.5 9 9.5 22 q0 13 -9.5 22 q-9.5 9 -21.5 9 ZM512 106 q0 1 0 1 q0 0 1 0 q0 0 0.5 0 q0.5 0 0.5 -1 q0 0 -1 0 q-1 0 -1 0 l0 0 ZM557 805 q0 4 -3 7 q-3 3 -7 3 l-69 0 q-4 0 -7 -3 q-3 -3 -3 -7 q0 -5 3 -8 q3 -3 7 -3 l69 0 q4 0 7 3 q3 3 3 8 ZM667 582 q-4 1 -8.5 2.5 q-4.5 1.5 -9.5 2.5 q-4 1 -7 2 q-3 1 -5 1 q-2 1 -4 2 q-2 1 -3 2 q-2 1 -2.5 2.5 q-0.5 1.5 -0.5 3.5 q0 2 1 4 q1 2 4 4 q2 2 6 2.5 q4 0.5 9 0.5 q3 0 6 -0.5 q3 -0.5 6 -1.5 q4 -1 7 -2 q3 -1 6 -3 l2 -1 l7 17 l-1 0 q-4 3 -7.5 4.5 q-3.5 1.5 -8.5 2.5 q-4 1 -8.5 1.5 q-4.5 0.5 -8.5 0.5 q-7 0 -12.5 -1 q-5.5 -1 -9.5 -3 q-5 -2 -8.5 -4.5 q-3.5 -2.5 -5.5 -6.5 q-2 -3 -3.5 -7 q-1.5 -4 -1.5 -8 q0 -5 1.5 -9 q1.5 -4 3.5 -7 q3 -3 6 -5.5 q3 -2.5 7 -3.5 q3 -1 7.5 -2.5 q4.5 -1.5 10.5 -2.5 q4 -1 7 -2 q3 -1 5 -2 q2 0 4 -1 q2 -1 3 -2 q1 -1 2 -2.5 q1 -1.5 1 -3.5 q0 -2 -1.5 -4 q-1.5 -2 -3.5 -4 q-2 -1 -6 -2 q-4 -1 -9 -1 q-4 0 -8.5 1 q-4.5 1 -8.5 2 q-4 1 -7.5 3 q-3.5 2 -6.5 4 l-2 2 l-7 -17 l1 -1 q3 -3 7 -5 q4 -2 10 -4 q5 -1 10.5 -2 q5.5 -1 11.5 -1 q6 0 11.5 1 q5.5 1 10.5 3 q4 2 7.5 4.5 q3.5 2.5 6.5 6.5 q2 3 3 7 q1 4 1 8 q0 5 -1 9 q-1 4 -4 7 q-2 3 -5.5 5 q-3.5 2 -6.5 4 l0 0 ZM808 628 l-18 0 l-36 -62 l-37 61 l-1 1 l-17 0 l0 -100 l20 0 l0 59 l29 -48 l10 0 l29 49 l0 -58 l1 -2 l20 0 l0 98 l0 2 ZM897 573 q-2 3 -5.5 5 q-3.5 2 -6.5 4 q-4 1 -8.5 2.5 q-4.5 1.5 -9.5 2.5 q-4 1 -7 2 q-3 1 -5 1 q-2 1 -4 2 q-2 1 -3 2 q-1 1 -2 2.5 q-1 1.5 -1 3.5 q0 2 1.5 4 q1.5 2 3.5 4 q2 2 6 2.5 q4 0.5 9 0.5 q3 0 6 -0.5 q3 -0.5 7 -1.5 q3 -1 6 -2 q3 -1 7 -3 l1 -1 l7 17 l-1 0 q-3 3 -7 4.5 q-4 1.5 -8 2.5 q-5 1 -9.5 1.5 q-4.5 0.5 -8.5 0.5 q-7 0 -12.5 -1 q-5.5 -1 -9.5 -3 q-5 -2 -8.5 -4.5 q-3.5 -2.5 -5.5 -6.5 q-2 -3 -3.5 -7 q-1.5 -4 -1.5 -8 q0 -5 1.5 -9 q1.5 -4 4.5 -7 q2 -3 5 -5.5 q3 -2.5 7 -3.5 q3 -1 8 -2.5 q5 -1.5 10 -2.5 q4 -1 7 -2 q3 -1 5 -2 q2 0 4 -1 q2 -1 3 -2 q2 -1 2.5 -2.5 q0.5 -1.5 0.5 -3.5 q0 -2 -1.5 -4 q-1.5 -2 -3.5 -4 q-2 -1 -6 -2 q-4 -1 -9 -1 q-4 0 -8.5 1 q-4.5 1 -8.5 2 q-4 1 -7.5 3 q-3.5 2 -6.5 4 l-1 2 l-8 -17 l1 -1 q3 -3 7.5 -5 q4.5 -2 9.5 -4 q5 -1 10.5 -2 q5.5 -1 11.5 -1 q6 0 12 1 q6 1 10 3 q5 2 8.5 4.5 q3.5 2.5 5.5 6.5 q2 3 3.5 7 q1.5 4 1.5 8 q0 5 -1.5 9 q-1.5 4 -4.5 7 l0 0 ZM960 584 q0 42 -16 80 q-15 38 -42 66.5 q-27 28.5 -63 46.5 q-36 19 -77 22 l0 24 q0 31 -22 52.5 q-22 21.5 -53 21.5 l-349 0 q-31 0 -53 -21.5 q-22 -21.5 -22 -52.5 l0 -749 q0 -31 22 -53 q22 -22 53 -22 l349 0 q31 0 53 22 q22 22 22 53 l0 295 q41 3 77 22 q36 18 63 46.5 q27 28.5 42 66.5 q16 38 16 80 l0 0 ZM687 31 l-349 0 q-18 0 -30.5 12.5 q-12.5 12.5 -12.5 30.5 l0 749 q0 18 12.5 30.5 q12.5 12.5 30.5 12.5 l349 0 q18 0 30.5 -12.5 q12.5 -12.5 12.5 -30.5 l0 -24 q-42 -2 -79 -20 q-37 -18 -64 -47 q-27 -29 -43 -67 q-16 -38 -16 -81 q0 -41 15 -79 q15 -38 43 -68 q-4 -11 -10.5 -24 q-6.5 -13 -9.5 -19 q-2 -3 -2 -7.5 q0 -4.5 2 -8.5 q3 -4 7 -6 q4 -2 8 -1 q1 0 24 3 q23 3 49 14 q18 -8 37 -13 q19 -5 39 -6 l0 -295 q0 -18 -12.5 -30.5 q-12.5 -12.5 -30.5 -12.5 l0 0 ZM744 400 q-22 0 -42.5 5 q-20.5 5 -40.5 15 q-2 1 -3.5 1.5 q-1.5 0.5 -3.5 0.5 q-2 0 -3.5 -0.5 q-1.5 -0.5 -3.5 -1.5 q-10 -4 -20 -7.5 q-10 -3.5 -19 -5.5 q4 8 7 16.5 q3 8.5 4 15.5 q1 4 -0.5 8 q-1.5 4 -3.5 6 q-27 26 -41 60 q-14 34 -14 71 q0 76 54 130 q54 54 130 54 q76 0 130 -54 q54 -54 54 -130 q0 -76 -54 -130 q-54 -54 -130 -54 l0 0 ZM444 813 q3 -4 3 -8.5 q0 -4.5 -3 -7.5 q-3 -3 -7.5 -3 q-4.5 0 -7.5 3 q-4 3 -4 7.5 q0 4.5 4 8.5 q3 3 7.5 3 q4.5 0 7.5 -3 Z" /><glyph glyph-name="" unicode="&#xe921;" d="M686 381 q-32 17 -52 18.5 q-20 1.5 -31 -3.5 q-5 -2 -10 -5 q-5 -3 -10 -6 q-20 -14 -35 -39.5 q-15 -25.5 -26 -49.5 q-48 36 -87 79.5 q-39 43.5 -60 69.5 q34 17 60 37.5 q26 20.5 27 22.5 q0 0 0.5 0.5 q0.5 0.5 1.5 1.5 q0 0 0.5 0 q0.5 0 0.5 1 q28 28 -7 92.5 q-35 64.5 -95 123.5 q-30 31 -61.5 55 q-31.5 24 -60.5 39 q-39 21 -61 19.5 q-22 -1.5 -32 -10.5 q0 0 -1 -0.5 q-1 -0.5 -2 -1.5 q-8 -8 -38.5 -51.5 q-30.5 -43.5 -39.5 -119.5 q-8 -51 1 -105 q8 -54 31.5 -111 q23.5 -57 63.5 -116 q40 -60 95 -122 l0 0 q7 -7 45 -41 q37 -35 95.5 -73 q58.5 -38 132.5 -69 q75 -31 154 -31 q57 0 109 18.5 q52 18.5 98 54.5 q2 1 6.5 5.5 q4.5 4.5 7.5 10.5 q0 0 0 0 q0 0 0 0 q28 28 -6.5 91.5 q-34.5 63.5 -93.5 122.5 q-30 30 -60.5 53.5 q-30.5 23.5 -59.5 38.5 l0 0 ZM169 803 q1 1 3.5 2 q2.5 1 5.5 1 q8 0 20 -3.5 q12 -3.5 29 -12.5 q26 -14 55.5 -37 q29.5 -23 58.5 -51 q66 -67 88 -115 q22 -48 13 -57 q-3 -3 -17 -1.5 q-14 1.5 -40 15.5 q-26 14 -55.5 36.5 q-29.5 22.5 -58.5 51.5 q-66 66 -88.5 114 q-22.5 48 -13.5 57 l0 0 ZM685 18 q-77 0 -149 31 q-72 31 -128 68.5 q-56 37.5 -90 69.5 q-34 32 -36 34 q0 0 -0.5 0 q-0.5 0 -0.5 1 q-52 59 -90 115 q-38 56 -61 110 q-23 54 -31 105 q-7 50 0 98 q4 39 16 68 q12 29 25 49 q10 -35 40 -77 q30 -42 68 -81 q31 -30 62.5 -54.5 q31.5 -24.5 59.5 -39.5 q10 -5 19 -8.5 q9 -3.5 16 -6.5 q-13 -9 -28.5 -18 q-15.5 -9 -32.5 -15 q-3 -1 -5.5 -4 q-2.5 -3 -3.5 -6 q-1 -4 -0.5 -8 q0.5 -4 2.5 -7 q16 -21 67 -80 q51 -59 116 -104 q2 -2 4.5 -2.5 q2.5 -0.5 4.5 -0.5 q1 0 2.5 0 q1.5 0 2.5 0 q3 1 6 3.5 q3 2.5 4 6.5 q10 25 19.5 44 q9.5 19 19.5 31 q2 -9 6 -20 q4 -11 12 -25 q14 -28 38 -59 q24 -31 54 -61 q38 -38 80 -67.5 q42 -29.5 77 -39.5 q-38 -25 -79 -37.5 q-41 -12.5 -86 -12.5 l0 0 ZM885 100 q-1 -1 -2.5 -2 q-1.5 -1 -2.5 -2 q-14 -4 -59.5 19 q-45.5 23 -105.5 83 q-65 65 -86.5 112 q-21.5 47 -13.5 56 q1 0 1 0.5 q0 0.5 0 0.5 q1 0 1.5 0 q0.5 0 1.5 1 q0 0 0.5 0 q0.5 0 1.5 0 q1 1 2 1 q1 0 2 0 q18 0 61 -24 q43 -24 98 -79 q61 -61 84 -107 q23 -46 17 -59 l0 0 ZM507 700 q2 -1 3.5 -1.5 q1.5 -0.5 4.5 -0.5 q18 -3 54 -13 q37 -11 75 -37 q38 -26 70 -72 q32 -46 43 -118 q0 -6 5 -10 q5 -4 10 -4 q1 0 1.5 0 q0.5 0 1.5 0 q6 1 10 6.5 q4 5.5 3 11.5 q-12 81 -47 132 q-36 51 -78.5 80 q-42.5 29 -82.5 41 q-40 12 -61 15 l-1 0 q-5 1 -10 -1 q-5 -2 -8 -8 q-3 -5 -1 -11.5 q2 -6.5 8 -9.5 l0 0 ZM523 879 q-6 1 -11 -4 q-5 -5 -5 -11 q-1 -7 3.5 -12 q4.5 -5 11.5 -5 q78 -3 147 -35 q68 -31 119.5 -83.5 q51.5 -52.5 82.5 -121.5 q30 -69 32 -147 q0 -7 4.5 -11.5 q4.5 -4.5 11.5 -4.5 q0 0 0 0 q0 0 0 0 q7 0 11.5 5 q4.5 5 4.5 11 q-2 85 -35 160 q-33 74 -88.5 130.5 q-55.5 56.5 -129.5 90.5 q-74 35 -159 38 l0 0 Z" /><glyph glyph-name="" unicode="&#xe922;" d="M542 106 q0 13 -9 22 q-9 9 -22 9 q-13 0 -22 -9 q-9 -9 -9 -22 q0 -13 9 -22 q9 -9 22 -9 q13 0 22 9 q9 9 9 22 ZM510 106 q0 1 0.5 1 q0.5 0 0.5 0 q1 0 1 0 q0 0 0 -1 q0 0 -1 0 q-1 0 -1 0 l0 0 ZM745 246 q-7 0 -11.5 -4.5 q-4.5 -4.5 -4.5 -11.5 l0 -157 q0 -17 -12 -29.5 q-12 -12.5 -30 -12.5 l-352 0 q-17 0 -29.5 12.5 q-12.5 12.5 -12.5 29.5 l0 753 q0 17 12.5 29.5 q12.5 12.5 29.5 12.5 l352 0 q18 0 30 -12.5 q12 -12.5 12 -29.5 l0 -120 q0 -7 4.5 -11.5 q4.5 -4.5 11.5 -4.5 q7 0 11.5 4.5 q4.5 4.5 4.5 11.5 l0 120 q0 30 -21.5 51.5 q-21.5 21.5 -52.5 21.5 l-352 0 q-30 0 -51.5 -21.5 q-21.5 -21.5 -21.5 -51.5 l0 -753 q0 -31 21.5 -52.5 q21.5 -21.5 51.5 -21.5 l352 0 q31 0 52.5 21.5 q21.5 21.5 21.5 52.5 l0 157 q0 7 -4.5 11.5 q-4.5 4.5 -11.5 4.5 l0 0 ZM477 817 q-4 0 -7.5 -3 q-3.5 -3 -3.5 -8 q0 -4 3.5 -7 q3.5 -3 7.5 -3 l69 0 q4 0 7 3 q3 3 3 7 q0 5 -3 8 q-3 3 -7 3 l-69 0 l0 0 ZM953 563 l-53 0 q-2 0 -4 -0.5 q-2 -0.5 -4 -1.5 q-9 37 -36 67 q-27 30 -69 30 q-1 0 -1.5 0 q-0.5 0 -0.5 0 l-122 -2 q-39 0 -67.5 -27.5 q-28.5 -27.5 -37.5 -72.5 q-1 1 -3 1.5 q-2 0.5 -5 0.5 l-53 -1 q-9 0 -16 -7 q-7 -7 -7 -17 l0 -22 q0 -10 7 -16.5 q7 -6.5 17 -6.5 l29 0 q-9 -13 -14 -28 q-5 -15 -5 -31 l0 -62 q1 -20 10.5 -36.5 q9.5 -16.5 26.5 -26.5 q2 -22 18 -36.5 q16 -14.5 38 -14.5 l11 0 q22 0 37.5 10.5 q15.5 10.5 21.5 28.5 l113 2 q7 -18 22.5 -28 q15.5 -10 37.5 -9 l6 0 q22 0 39.5 15 q17.5 15 20.5 37 q17 11 26.5 27.5 q9.5 16.5 9.5 37.5 l-1 62 q0 16 -5.5 31 q-5.5 15 -15.5 28 l29 0 q4 0 8.5 1.5 q4.5 1.5 7.5 4.5 q4 3 6 7.5 q2 4.5 2 9.5 l0 22 q0 10 -7 16.5 q-7 6.5 -17 6.5 l0 0 ZM589 542 q3 30 22 56 q19 26 52 26 l123 2 q34 0 53 -26.5 q19 -26.5 24 -54.5 l3 -14 q-4 1 -8 1.5 q-4 0.5 -8 0.5 l-49 4 q-40 3 -79 2.5 q-39 -0.5 -83 -5.5 l-39 -5 q-4 0 -7 -0.5 q-3 -0.5 -6 -1.5 l2 15 l0 0 ZM500 513 l0 18 l49 1 l0 -13 l3 -7 q0 0 -0.5 0 q-0.5 0 -0.5 0 q0 0 0 0 q0 0 0 0 l-14 2 l-37 -1 l0 0 ZM889 332 l-10 -4 l0 -10 q0 -12 -8.5 -21 q-8.5 -9 -20.5 -9 l-6 0 q-10 0 -20 5 q-10 5 -11 18 l-1 15 l-170 -3 l0 -15 q-1 -13 -10.5 -18.5 q-9.5 -5.5 -19.5 -5.5 l-12 0 q-10 0 -17 7.5 q-7 7.5 -7 17.5 l0 15 l-10 4 q-9 4 -18 13 q-9 9 -9 27 l0 62 q0 26 18.5 45.5 q18.5 19.5 44.5 22.5 l39 4 q27 3 49.5 4.5 q22.5 1.5 43.5 1.5 q18 0 34 -1 q16 -1 31 -2 l49 -4 q27 -2 46.5 -21 q19.5 -19 19.5 -45 l1 -62 q0 -18 -8.5 -27.5 q-8.5 -9.5 -17.5 -13.5 l0 0 ZM951 519 l-38 0 l-12 -4 q0 0 0 0.5 q0 0.5 0 0.5 q-1 0 -1 0 q0 0 -1 1 l0 0 l3 5 l0 15 l49 1 l0 -19 l0 0 ZM619 455 q-9 0 -17.5 -3.5 q-8.5 -3.5 -14.5 -10.5 q-7 -7 -10.5 -15.5 q-3.5 -8.5 -3.5 -17.5 q1 -19 14.5 -32.5 q13.5 -13.5 33.5 -13.5 q9 0 17.5 4 q8.5 4 15.5 10 q6 7 9.5 15.5 q3.5 8.5 3.5 17.5 q0 9 -4 17.5 q-4 8.5 -10 15.5 q-7 7 -15.5 10.5 q-8.5 3.5 -18.5 2.5 l0 0 ZM635 394 q-3 -3 -7 -5 q-4 -2 -8 -2 q-4 0 -8 1.5 q-4 1.5 -7 4.5 q-3 3 -5 7 q-2 4 -2 9 q0 5 2 8.5 q2 3.5 4 6.5 q3 3 7 4.5 q4 1.5 9 1.5 q5 0 9 -2 q4 -2 6 -4 q3 -3 5 -6.5 q2 -3.5 2 -8.5 q0 -4 -2 -8 q-2 -4 -5 -7 l0 0 ZM833 458 q-19 0 -32.5 -13.5 q-13.5 -13.5 -13.5 -33.5 q0 -9 4 -17.5 q4 -8.5 10 -15.5 q7 -6 15.5 -9.5 q8.5 -3.5 17.5 -3.5 q9 0 17.5 3.5 q8.5 3.5 15.5 10.5 q6 7 9.5 15.5 q3.5 8.5 3.5 17.5 q0 9 -3.5 18 q-3.5 9 -10.5 16 q-7 6 -15.5 9.5 q-8.5 3.5 -17.5 2.5 l0 0 ZM849 397 q-3 -3 -7 -4.5 q-4 -1.5 -8 -1.5 q-5 0 -9 2 q-4 2 -6 4 q-3 3 -5 6.5 q-2 3.5 -2 8.5 q0 9 6.5 15 q6.5 6 15.5 6 q9 0 15 -6 q6 -6 7 -14 q-1 -5 -2.5 -9 q-1.5 -4 -4.5 -7 l0 0 ZM446 806 q0 -4 -3 -7.5 q-3 -3.5 -8 -3.5 q-5 0 -8 3.5 q-3 3.5 -3 7.5 q0 5 3 8 q3 3 8 3 q5 0 8 -3 q3 -3 3 -8 Z" /><glyph glyph-name="" unicode="&#xe923;" d="M240 287 q-23 0 -39.5 -16.5 q-16.5 -16.5 -16.5 -39.5 q0 -24 16.5 -40.5 q16.5 -16.5 39.5 -16.5 q23 0 39.5 16.5 q16.5 16.5 16.5 40.5 q0 23 -16.5 39.5 q-16.5 16.5 -39.5 16.5 ZM240 206 q-10 0 -17 7.5 q-7 7.5 -7 17.5 q0 10 7 17 q7 7 17 7 q10 0 17 -7 q7 -7 7 -17 q0 -10 -7 -17.5 q-7 -7.5 -17 -7.5 ZM505 287 q-23 0 -39.5 -16.5 q-16.5 -16.5 -16.5 -39.5 q0 -24 16.5 -40.5 q16.5 -16.5 39.5 -16.5 q23 0 39.5 16.5 q16.5 16.5 16.5 40.5 q0 23 -16.5 39.5 q-16.5 16.5 -39.5 16.5 ZM505 206 q-10 0 -17 7.5 q-7 7.5 -7 17.5 q0 10 7 17 q7 7 17 7 q10 0 17 -7 q7 -7 7 -17 q0 -10 -7 -17.5 q-7 -7.5 -17 -7.5 ZM639 409 l-37 0 q-6 0 -10.5 -1.5 q-4.5 -1.5 -9.5 -3.5 q-12 57 -46.5 91.5 q-34.5 34.5 -85.5 36.5 l-153 0 q-30 -1 -56.5 -13.5 q-26.5 -12.5 -45.5 -34.5 q-11 -12 -21.5 -32 q-10.5 -20 -14.5 -48 q-4 2 -9 3.5 q-5 1.5 -10 1.5 l-37 0 q-16 0 -27.5 -11.5 q-11.5 -11.5 -11.5 -27.5 q0 -16 11.5 -27 q11.5 -11 27.5 -11 l29 0 q-14 -17 -21.5 -38 q-7.5 -21 -7.5 -44 l0 -60 q0 -26 12.5 -49 q12.5 -23 32.5 -37 l0 0 q0 -28 20 -48 q20 -20 48 -20 l18 0 q24 0 42 15 q18 15 23 37 l146 0 q5 -22 23 -37 q18 -15 42 -15 l18 0 q28 0 48 19.5 q20 19.5 20 47.5 q21 14 33 37 q12 23 12 50 l0 60 q0 23 -7.5 44 q-7.5 21 -21.5 38 l27 0 q16 0 27.5 11 q11.5 11 11.5 27 q0 16 -11.5 27.5 q-11.5 11.5 -27.5 11.5 l0 0 ZM219 463 q15 17 35.5 26.5 q20.5 9.5 42.5 10.5 l152 0 q45 -2 73 -36 q28 -34 33 -92 q-10 3 -20.5 5 q-10.5 2 -21.5 2 q-7 0 -57.5 4 q-50.5 4 -74.5 4 q-28 0 -85.5 -4 q-57.5 -4 -64.5 -4 q-11 0 -22 -2 q-11 -2 -20 -6 q-1 28 7 51 q8 23 23 41 l0 0 ZM96 362 l0 17 l51 0 l0 -15 l1 -4 l-6 2 l-46 0 l0 0 ZM609 189 q0 -22 -12.5 -40.5 q-12.5 -18.5 -31.5 -25.5 l0 -2 l-1 0 l0 -18 q0 -14 -10.5 -24.5 q-10.5 -10.5 -25.5 -10.5 l-18 0 q-14 0 -24.5 10.5 q-10.5 10.5 -10.5 24.5 l0 12 l-1 0 l0 5 l-204 0 l0 -7 l-1 0 l0 -10 q0 -14 -10.5 -24.5 q-10.5 -10.5 -24.5 -10.5 l-18 0 q-15 0 -25.5 10.5 q-10.5 10.5 -10.5 24.5 l0 18 l-1 0 l1 2 q-20 8 -32.5 26.5 q-12.5 18.5 -12.5 39.5 l0 61 q0 40 28 68.5 q28 28.5 68 28.5 l1 0 q1 0 61.5 4 q60.5 4 87.5 4 q24 0 77 -4 q53 -4 53 -4 l2 0 q40 0 68 -28.5 q28 -28.5 28 -68.5 l0 -61 l0 0 ZM646 362 l-44 0 l-9 -2 l1 1 l1 18 l51 0 l0 -17 l0 0 ZM843 563 q-17 0 -32.5 -4.5 q-15.5 -4.5 -29.5 -12.5 l-269 172 q1 3 1 6 q0 3 0 7 q0 50 -36 86 q-36 36 -86 36 q-18 0 -34.5 -5 q-16.5 -5 -31.5 -14 q-3 -2 -5 -5.5 q-2 -3.5 -2 -8.5 q0 -4 2 -7.5 q2 -3.5 5 -5.5 l75 -46 l-33 -52 l-73 47 q-4 2 -8 2.5 q-4 0.5 -8 -1.5 q-4 -1 -6 -4.5 q-2 -3.5 -3 -7.5 q0 -4 -0.5 -7.5 q-0.5 -3.5 -0.5 -6.5 q0 -51 36 -87 q36 -36 87 -36 q16 0 32 4.5 q16 4.5 30 12.5 l268 -172 q0 -3 -0.5 -6.5 q-0.5 -3.5 -0.5 -6.5 q0 -51 36 -86.5 q36 -35.5 87 -35.5 q17 0 34 4.5 q17 4.5 31 14.5 q4 2 6 5.5 q2 3.5 2 7.5 q0 4 -2 7.5 q-2 3.5 -6 6.5 l-74 46 l33 52 l73 -48 q3 -2 7 -2 q4 0 8 1 q4 2 6.5 5.5 q2.5 3.5 2.5 7.5 q1 3 1 7 q0 4 0 7 q0 51 -36 87 q-36 36 -86 36 l0 0 ZM871 498 q-3 2 -6 2.5 q-3 0.5 -6 -0.5 q-3 -1 -6 -2.5 q-3 -1.5 -4 -4.5 l-51 -79 q-2 -3 -2.5 -6 q-0.5 -3 0.5 -7 q1 -3 2.5 -5.5 q1.5 -2.5 4.5 -4.5 l62 -38 q-5 -2 -10.5 -2.5 q-5.5 -0.5 -11.5 -0.5 q-38 0 -64.5 26.5 q-26.5 26.5 -26.5 63.5 q0 5 0.5 9.5 q0.5 4.5 1.5 8.5 q0 0 0 0 q0 0 0 0 q0 1 0 1.5 q0 0.5 0 0.5 q0 1 0 1 q0 0 0 0 q0 1 0 1.5 q0 0.5 0 0.5 q0 0 0 0.5 q0 0.5 0 0.5 q0 1 0 1.5 q0 0.5 -1 0.5 q0 0 0 0.5 q0 0.5 0 0.5 q0 1 -0.5 1 q-0.5 0 -0.5 1 q0 0 0 0.5 q0 0.5 0 0.5 q-1 0 -1 0.5 q0 0.5 0 0.5 q-1 1 -1 1 q0 0 0 1 q-1 0 -1 0 q0 0 0 0 q-1 1 -1.5 1 q-0.5 0 -0.5 1 q0 0 0 0 q0 0 0 0 l-285 183 q-5 2 -9.5 2 q-4.5 0 -8.5 -3 q-12 -8 -25.5 -12.5 q-13.5 -4.5 -27.5 -4.5 q-33 0 -58 21 q-25 21 -31 52 l61 -40 q2 -2 5.5 -2.5 q3.5 -0.5 6.5 0.5 q3 0 5.5 2 q2.5 2 4.5 5 l50 79 q2 3 2.5 6 q0.5 3 0.5 6 q-1 3 -3 6 q-2 3 -5 4 l-62 39 q6 2 11.5 2.5 q5.5 0.5 11.5 0.5 q37 0 63.5 -26.5 q26.5 -26.5 26.5 -63.5 q0 -5 -0.5 -9.5 q-0.5 -4.5 -0.5 -8.5 q-1 -5 0.5 -9.5 q1.5 -4.5 6.5 -7.5 l285 -183 q0 0 0 0 q0 0 0 0 q1 0 1 -0.5 q0 -0.5 1 -0.5 q0 0 0.5 0 q0.5 0 0.5 0 q0 -1 0.5 -1 q0.5 0 1.5 0 q0 0 0.5 0 q0.5 0 0.5 0 q1 0 1.5 0 q0.5 0 0.5 0 q0 0 0.5 0 q0.5 0 0.5 0 q1 0 1.5 0 q0.5 0 0.5 0 q1 0 1 0 q0 0 0 0 q1 0 1 0 q0 0 1 1 q0 0 0.5 0 q0.5 0 0.5 0 q0 0 0.5 0 q0.5 0 0.5 1 q1 0 1 0 q0 0 1 1 q0 0 0 0 q0 0 0 0 q12 8 25.5 12.5 q13.5 4.5 27.5 4.5 q33 0 57.5 -21 q24.5 -21 30.5 -52 l-60 40 l0 0 Z" /><glyph glyph-name="" unicode="&#xe924;" d="M959 466 q-4 92 -44 172 q-39 79 -103 136.5 q-64 57.5 -147 88.5 q-83 32 -176 28 q-98 -4 -179 -47 q-80 -43 -136 -110 q-56 -67 -85 -149 q-29 -81 -24 -162 q0 -1 2 -27.5 q2 -26.5 8 -48.5 q3 -11 8 -32 q5 -21 9 -30 l55 82 q-4 19 -8 38.5 q-4 19.5 -4 40.5 q0 77 30 145 q30 68 81 119 q51 51 120 80 q68 29 145 29 q77 0 145 -29 q68 -29 118.5 -80 q50.5 -51 80.5 -119 q29 -68 29 -145 q0 -46 -10.5 -88.5 q-10.5 -42.5 -33.5 -87.5 l-10 -21 l-16 24 l-229 354 l-142 0 l-286 -446 q52 -67 110 -103 q59 -36 109.5 -52.5 q50.5 -16.5 84.5 -18.5 q34 -2 34 -2 q112 1 169.5 25.5 q57.5 24.5 75.5 37.5 l-33 60 q-42 -25 -93.5 -40 q-51.5 -15 -102.5 -15 q-73 0 -139.5 27 q-66.5 27 -118.5 77 l-6 6 l6 12 l227 359 l68 0 l275 -430 q2 2 4 3.5 q2 1.5 2 2.5 q17 15 30.5 32 q13.5 17 23.5 34 l2 2 q22 35 50 105.5 q28 70.5 24 162.5 l0 0 Z" /><glyph glyph-name="" unicode="&#xe925;" d="M739 596 q-17 0 -31 -10 q-14 -10 -20 -25 l-93 5 l-43 84 q7 7 11.5 17 q4.5 10 4.5 22 q0 23 -16.5 38.5 q-16.5 15.5 -38.5 15.5 q-22 0 -38.5 -16 q-16.5 -16 -16.5 -38 q0 -12 4 -22 q4 -10 12 -17 l-43 -84 l-93 -5 q-6 15 -20 25 q-14 10 -31 10 q-23 0 -39 -16 q-16 -16 -16 -39 q0 -22 16 -38.5 q16 -16.5 39 -16.5 q7 0 14 2 q7 2 13 5 l72 -66 l-12 -91 q-20 -4 -33 -19.5 q-13 -15.5 -13 -35.5 q0 -23 16 -39 q16 -16 39 -16 q22 0 38.5 16.5 q16.5 16.5 16.5 38.5 q0 2 -0.5 5 q-0.5 3 -1.5 5 l76 42 l75 -42 q-1 -2 -1 -4.5 q0 -2.5 0 -5.5 q0 -23 16.5 -39 q16.5 -16 38.5 -16 q22 0 38.5 16.5 q16.5 16.5 16.5 38.5 q0 20 -13 35 q-13 15 -33 20 l-13 91 l72 66 q6 -3 13 -5 q7 -2 15 -2 q23 0 39 16.5 q16 16.5 16 38.5 q0 23 -15.5 39 q-15.5 16 -37.5 16 ZM302 527 q-4 -4 -7.5 -5.5 q-3.5 -1.5 -7.5 -1.5 q-9 0 -15 6 q-6 6 -6 14 q0 9 6 15 q6 6 15 6 q8 0 14 -6 q6 -6 6 -14 q0 -2 1 -4.5 q1 -2.5 3 -5.5 q-3 0 -5.5 -1 q-2.5 -1 -3.5 -3 ZM383 260 q-9 0 -15 6 q-6 6 -6 15 q0 9 6 15 q6 6 15 6 q1 0 1.5 0 q0.5 0 1.5 0 q4 -1 7 -0.5 q3 0.5 6 3.5 q1 1 1 1 q0 0 1 1 q0 -1 -0.5 -1.5 q-0.5 -0.5 -0.5 -0.5 q-1 -3 -1 -6.5 q0 -3.5 2 -6.5 q2 -2 2 -4.5 q0 -2.5 0 -5.5 q0 -9 -6 -15.5 q-6 -6.5 -14 -6.5 l0 0 ZM640 302 q1 0 1.5 0 q0.5 0 1.5 0 q9 0 15 -6 q6 -6 6 -15 q0 -9 -6 -15 q-6 -6 -15 -6 q-8 0 -14 6 q-6 6 -6 15 q0 3 0.5 5.5 q0.5 2.5 1.5 4.5 q2 3 2 6.5 q0 3.5 -1 6.5 q0 1 -0.5 1.5 q-0.5 0.5 -0.5 0.5 q1 -1 1 -1 q0 0 1 -1 q3 -2 6 -2.5 q3 -0.5 7 0.5 l0 0 ZM610 445 q-3 -2 -4.5 -6 q-1.5 -4 -1.5 -8 l16 -115 q0 -1 1 -2 q1 -1 1 -2 q-1 1 -2 1.5 q-1 0.5 -3 1.5 l-97 54 q-4 2 -8.5 2 q-4.5 0 -8.5 -2 l-97 -54 q-1 -1 -2.5 -1.5 q-1.5 -0.5 -2.5 -1.5 q1 1 1 2.5 q0 1.5 0 3.5 l20 113 q0 4 -1.5 8 q-1.5 4 -4.5 6 l-88 80 l114 7 q4 0 8 2.5 q4 2.5 6 6.5 l54 105 q3 6 1 13 q-2 7 -8 10 q-5 3 -8.5 8 q-3.5 5 -3.5 11 q0 8 6 14 q6 6 15 6 q8 0 14 -6 q6 -6 6 -14 q0 -6 -3 -11 q-3 -5 -8 -8 q-6 -3 -8 -10 q-2 -7 1 -13 l54 -105 q1 -4 5 -6.5 q4 -2.5 8 -2.5 l115 -7 l-86 -80 l0 0 ZM739 520 q-4 0 -8 1.5 q-4 1.5 -7 4.5 q-2 2 -4 3.5 q-2 1.5 -5 2.5 q2 2 3 4.5 q1 2.5 1 5.5 q0 9 6 14.5 q6 5.5 14 5.5 q9 0 15 -6 q6 -6 6 -15 q0 -8 -6 -14.5 q-6 -6.5 -15 -6.5 l0 0 ZM889 781 q-2 3 -5.5 4 q-3.5 1 -6.5 0 q-76 -6 -137 6 q-60 11 -104.5 30.5 q-44.5 19.5 -72.5 40.5 q-29 21 -41 32 q-4 5 -10.5 5 q-6.5 0 -10.5 -4 q-49 -44 -102 -67 q-53 -23 -101 -33.5 q-48 -10.5 -88 -10.5 q-40 -1 -63 1 q-4 1 -7 0 q-3 -1 -6 -4 q-2 -2 -3.5 -5 q-1.5 -3 -1.5 -7 l0 -368 q0 -60 41.5 -125.5 q41.5 -65.5 124.5 -134.5 q66 -56 127.5 -93.5 q61.5 -37.5 81.5 -47.5 q1 -1 3 -1.5 q2 -0.5 4 -0.5 q2 0 4 0.5 q2 0.5 4 1.5 q23 12 85 50 q62 38 126.5 92 q64.5 54 114.5 121 q50 67 50 138 l0 368 q-1 4 -2 7 q-1 3 -4 5 l0 0 ZM862 401 q0 -62 -46 -123 q-46 -61 -106.5 -111.5 q-60.5 -50.5 -117.5 -86.5 q-58 -36 -81 -48 q-22 12 -80 48 q-57 36 -117 86.5 q-60 50.5 -107 111.5 q-46 60 -46 123 l0 351 q28 -1 68 1 q40 2 87 13 q47 11 97 33 q50 23 98 62 q17 -14 47 -34 q31 -21 75 -39 q44 -18 101 -29 q58 -11 128 -7 l0 -351 l0 0 Z" /><glyph glyph-name="" unicode="&#xe926;" d="M900 398 l-59 163 q0 0 0 0.5 q0 0.5 0 0.5 q0 0 -0.5 0.5 q-0.5 0.5 -0.5 0.5 q0 1 0 1 q0 0 0 0 q-1 1 -1 1.5 q0 0.5 -1 0.5 q0 0 0 0.5 q0 0.5 0 0.5 q-1 0 -1.5 0.5 q-0.5 0.5 -0.5 0.5 q0 1 -0.5 1 q-0.5 0 -0.5 0 q0 0 -0.5 0.5 q-0.5 0.5 -1.5 0.5 q0 0 0 0 q0 0 0 0 q-1 1 -1.5 1 q-0.5 0 -0.5 0 q0 0 -0.5 0 q-0.5 0 -0.5 0 q0 0 -0.5 0.5 q-0.5 0.5 -0.5 0.5 l-162 35 q-6 1 -12 -2.5 q-6 -3.5 -7 -9.5 q-1 -7 2.5 -12.5 q3.5 -5.5 9.5 -6.5 l108 -24 l-171 -63 l45 228 l35 72 l-5 79 l-85 16 l-36 -71 l7 -78 q-1 0 -1 -1 q0 -1 0 -2 l-35 -178 l-47 159 q2 1 4 3 q2 2 3 4 q15 17 22 38 q7 21 5 43 q-1 22 -11 41.5 q-10 19.5 -26 34.5 q-12 10 -26.5 16.5 q-14.5 6.5 -29.5 9.5 q-4 0 -8 -1 q-4 -1 -7 -5 q-3 -3 -3.5 -7 q-0.5 -4 0.5 -8 l22 -73 l-49 -14 l-21 73 q-1 4 -4 7 q-3 3 -7 4 q-4 1 -8 0 q-4 -1 -7 -4 q-2 -2 -4.5 -4.5 q-2.5 -2.5 -4.5 -4.5 q-14 -17 -21 -37.5 q-7 -20.5 -6 -42.5 q2 -22 11.5 -42 q9.5 -20 26.5 -34 q11 -10 24 -16.5 q13 -6.5 27 -9.5 l57 -195 l-173 63 l106 23 q6 2 9.5 7.5 q3.5 5.5 2.5 11.5 q-2 7 -7.5 10.5 q-5.5 3.5 -11.5 1.5 l-160 -34 q0 0 -0.5 0 q-0.5 0 -0.5 0 q0 0 0 -0.5 q0 -0.5 -1 -0.5 q0 0 -0.5 0 q-0.5 0 -1.5 0 q0 -1 0 -1 q0 0 0 0 q-1 0 -1.5 -0.5 q-0.5 -0.5 -0.5 -0.5 q0 0 -0.5 0 q-0.5 0 -0.5 -1 q0 0 -0.5 -0.5 q-0.5 -0.5 -1.5 -0.5 q0 0 0 -0.5 q0 -0.5 0 -0.5 q-1 0 -1 -0.5 q0 -0.5 0 -0.5 q-1 -1 -1 -1 q0 0 0 -1 q0 0 -0.5 -0.5 q-0.5 -0.5 -0.5 -0.5 q0 0 0 0 q0 0 0 -1 l-59 -163 q-1 -3 -1 -6 q0 -3 1 -6 q2 -3 4 -5 q2 -2 5 -3 l61 -22 l0 -214 q0 -5 2.5 -9 q2.5 -4 6.5 -6 l299 -135 q1 -1 3 -1.5 q2 -0.5 3 -0.5 q2 0 3.5 0.5 q1.5 0.5 3.5 1.5 l301 135 q4 2 7 6 q3 4 3 9 l0 214 l60 22 q3 1 5.5 3 q2.5 2 3.5 5 q1 3 1 6 q0 3 -1 6 l0 0 ZM589 728 q0 1 0.5 3.5 q0.5 2.5 0.5 4.5 l-6 71 l21 41 l36 -7 l3 -46 l-31 -62 q-2 -4 -2.5 -6.5 q-0.5 -2.5 -0.5 -5.5 l-49 -244 l-14 -6 l-5 17 l47 240 l0 0 ZM405 703 q-1 5 -5 8 q-4 3 -9 4 q-12 1 -23.5 5.5 q-11.5 4.5 -20.5 13.5 q-12 10 -19 24 q-7 14 -8 30 q-1 10 1 20.5 q2 10.5 7 19.5 l16 -58 q1 -3 3 -5.5 q2 -2.5 5 -3.5 q3 -2 6 -2.5 q3 -0.5 6 0.5 l81 24 q3 1 5.5 3 q2.5 2 3.5 5 q2 3 2 6 q0 3 0 6 l-18 59 q3 -2 6 -4.5 q3 -2.5 6 -4.5 q12 -11 19 -25 q7 -14 8 -29 q1 -16 -3.5 -31 q-4.5 -15 -15.5 -27 q-2 -3 -5 -5.5 q-3 -2.5 -6 -4.5 q-4 -3 -5.5 -8 q-1.5 -5 -0.5 -10 l76 -253 l-2 0 l-43 15 l-67 228 l0 0 ZM213 535 l241 -87 q0 0 0 0 q0 0 0 0 l39 -15 l-49 -133 l-280 102 l49 133 l0 0 ZM231 344 l217 -79 q2 -1 3.5 -1 q1.5 0 2.5 0 q5 0 9 2.5 q4 2.5 6 7.5 l29 81 l0 -324 l-267 121 l0 192 l0 0 ZM798 152 l-268 -120 l0 323 l30 -81 q2 -5 6 -7.5 q4 -2.5 9 -2.5 q1 0 2.5 0 q1.5 0 2.5 1 l218 79 l0 -192 l0 0 ZM584 300 l-48 133 l280 102 l49 -133 l-281 -102 Z" /><glyph glyph-name="" unicode="&#xe927;" d="M511 894 q-93 0 -174 -35 q-81 -35 -141.5 -95.5 q-60.5 -60.5 -95.5 -141.5 q-35 -82 -35 -174 q0 -92 35 -173 q35 -81 95.5 -141.5 q60.5 -60.5 141.5 -95.5 q81 -35 173 -35 q93 0 174 35 q81 35 141.5 95.5 q60.5 60.5 95.5 141.5 q35 81 35 173 q0 92 -35 174 q-35 81 -95.5 141.5 q-60.5 60.5 -141.5 95.5 q-81 35 -173 35 l0 0 ZM511 34 q-86 0 -161 33 q-76 33 -132 89 q-56 56 -89 131 q-32 76 -32 161 q0 86 32 161 q33 75 89 131.5 q56 56.5 132 88.5 q75 33 161 33 q85 0 160 -33 q76 -32 132 -88.5 q56 -56.5 89 -131.5 q32 -75 32 -161 q0 -85 -32 -161 q-33 -75 -89 -131 q-56 -56 -132 -89 q-75 -33 -160 -33 ZM723 691 q-6 0 -10.5 -4.5 q-4.5 -4.5 -4.5 -10.5 l0 -212 l-182 0 l0 212 q0 6 -4.5 10.5 q-4.5 4.5 -10.5 4.5 q-7 0 -11.5 -4.5 q-4.5 -4.5 -4.5 -10.5 l0 -212 l-183 0 l0 212 q0 6 -4.5 10.5 q-4.5 4.5 -11.5 4.5 q-6 0 -11 -4.5 q-5 -4.5 -5 -10.5 l0 -457 q0 -7 5 -11.5 q5 -4.5 11 -4.5 q7 0 11.5 4.5 q4.5 4.5 4.5 11.5 l0 213 l183 0 l0 -213 q0 -7 4.5 -11.5 q4.5 -4.5 10.5 -4.5 q7 0 11.5 4.5 q4.5 4.5 4.5 11.5 l0 213 l182 0 l0 -213 q0 -7 4.5 -11.5 q4.5 -4.5 10.5 -4.5 q7 0 11.5 4.5 q4.5 4.5 4.5 11.5 l0 457 q0 6 -4.5 10.5 q-4.5 4.5 -11.5 4.5 l0 0 Z" /><glyph glyph-name="" unicode="&#xe928;" d="M756 596 l-83 0 q-3 0 -6 -1 q-3 -1 -5 -4 q-2 -2 -3.5 -5 q-1.5 -3 -1.5 -6 l0 -129 q0 -7 5 -11.5 q5 -4.5 11 -4.5 l136 0 q6 0 11 4.5 q5 4.5 5 11.5 l0 64 q0 3 -1 5.5 q-1 2.5 -3 5.5 l-53 64 q-2 3 -5.5 4.5 q-3.5 1.5 -6.5 1.5 l0 0 ZM793 467 l-104 0 l0 97 l59 0 l45 -54 l0 -43 l0 0 ZM959 473 l-167 212 q-3 3 -6 4.5 q-3 1.5 -7 1.5 l-163 1 l0 107 q0 7 -5 11.5 q-5 4.5 -11 4.5 l-520 0 q-6 0 -10.5 -4.5 q-4.5 -4.5 -4.5 -11.5 l0 -549 q0 -7 4.5 -11.5 q4.5 -4.5 10.5 -4.5 l98 0 q-1 -7 -2 -13.5 q-1 -6.5 -1 -13.5 q0 -50 36 -85.5 q36 -35.5 86 -35.5 q50 0 85.5 35.5 q35.5 35.5 35.5 85.5 q0 7 -0.5 13.5 q-0.5 6.5 -2.5 13.5 l241 0 q-2 -7 -2.5 -13.5 q-0.5 -6.5 -0.5 -13.5 q0 -50 35.5 -85.5 q35.5 -35.5 85.5 -35.5 q50 0 86 35.5 q36 35.5 36 85.5 q0 7 -1 13.5 q-1 6.5 -2 13.5 l53 0 q7 0 11.5 4.5 q4.5 4.5 4.5 11.5 l0 213 q0 3 -1 5.5 q-1 2.5 -2 4.5 l0 0 ZM297 118 q-37 0 -63.5 26 q-26.5 26 -26.5 63 q0 9 2 18.5 q2 9.5 6 17.5 q11 24 33 38.5 q22 14.5 49 14.5 q26 0 48.5 -14.5 q22.5 -14.5 33.5 -38.5 q3 -8 5 -17.5 q2 -9.5 2 -18.5 q0 -37 -26 -63 q-26 -26 -63 -26 ZM584 676 l0 -410 l-181 0 q-16 29 -44.5 45.5 q-28.5 16.5 -61.5 16.5 q-34 0 -62.5 -17 q-28.5 -17 -43.5 -45 l-95 0 l0 517 l488 0 l0 -107 l0 0 ZM774 118 q-37 0 -63 26 q-26 26 -26 63 q0 9 2 18.5 q2 9.5 5 17.5 q11 24 33.5 38.5 q22.5 14.5 48.5 14.5 q27 0 49 -14.5 q22 -14.5 33 -38.5 q0 0 0 0 q0 0 0 0 q4 -8 6 -17.5 q2 -9.5 2 -18.5 q0 -37 -26.5 -63 q-26.5 -26 -63.5 -26 l0 0 ZM930 266 l-50 0 q-15 29 -43.5 45.5 q-28.5 16.5 -62.5 16.5 q-33 0 -61.5 -16.5 q-28.5 -16.5 -44.5 -45.5 l-52 0 l0 394 l155 -1 l159 -202 l0 -191 l0 0 Z" /><glyph glyph-name="" unicode="&#xe929;" d="M351 327 q-27 0 -45.5 -19 q-18.5 -19 -18.5 -46 q0 -27 18.5 -45.5 q18.5 -18.5 45.5 -18.5 q27 0 46 18.5 q19 18.5 19 45.5 q0 27 -19 46 q-19 19 -46 19 ZM351 229 q-13 0 -22.5 10 q-9.5 10 -9.5 23 q0 14 9.5 23.5 q9.5 9.5 22.5 9.5 q14 0 23.5 -9.5 q9.5 -9.5 9.5 -23.5 q0 -13 -9.5 -23 q-9.5 -10 -23.5 -10 ZM671 327 q-27 0 -45.5 -19 q-18.5 -19 -18.5 -46 q0 -27 18.5 -45.5 q18.5 -18.5 45.5 -18.5 q27 0 46 18.5 q19 18.5 19 45.5 q0 27 -19 46 q-19 19 -46 19 ZM671 229 q-13 0 -22.5 10 q-9.5 10 -9.5 23 q0 14 9.5 23.5 q9.5 9.5 22.5 9.5 q14 0 23.5 -9.5 q9.5 -9.5 9.5 -23.5 q0 -13 -9.5 -23 q-9.5 -10 -23.5 -10 ZM835 474 l-49 0 q-7 0 -13 -2 q-6 -2 -11 -6 q-13 71 -54.5 112.5 q-41.5 41.5 -103.5 43.5 l-184 0 q-35 -1 -66.5 -16 q-31.5 -15 -54.5 -40 q-13 -16 -25.5 -40 q-12.5 -24 -17.5 -59 q-5 3 -11 5 q-6 2 -13 2 l-48 0 q-17 0 -29.5 -12 q-12.5 -12 -12.5 -30 l0 -3 q0 -17 12.5 -29.5 q12.5 -12.5 29.5 -12.5 l44 0 q-18 -20 -28.5 -46 q-10.5 -26 -10.5 -55 l0 -74 q0 -32 14.5 -58 q14.5 -26 40.5 -42 l0 -4 q0 -32 23 -55 q23 -23 55 -23 l22 0 q28 0 49.5 18 q21.5 18 26.5 45 l181 0 q5 -27 26.5 -45 q21.5 -18 50.5 -18 l22 0 q32 0 55 23 q23 23 23 55 l0 4 q25 15 39.5 41.5 q14.5 26.5 14.5 58.5 l0 74 q0 29 -10.5 55 q-10.5 26 -28.5 46 l42 0 q17 0 29 12.5 q12 12.5 12 29.5 l0 3 q0 18 -12 30 q-12 12 -29 12 l0 0 ZM323 544 q19 21 44 33 q25 12 53 13 l184 0 q56 -2 91 -45.5 q35 -43.5 40 -117.5 q-13 5 -26.5 8 q-13.5 3 -27.5 3 q-8 0 -69 4.5 q-61 4.5 -90 4.5 q-33 0 -103.5 -4.5 q-70.5 -4.5 -78.5 -4.5 q-14 0 -27.5 -3 q-13.5 -3 -26.5 -8 q-1 36 8.5 65.5 q9.5 29.5 28.5 51.5 l0 0 ZM173 419 l0 24 l69 0 l0 -21 l3 -7 l-11 4 l-61 0 l0 0 ZM800 212 q0 -27 -13.5 -48 q-13.5 -21 -38.5 -31 l1 -3 l-3 0 l0 -22 q0 -19 -13.5 -32.5 q-13.5 -13.5 -33.5 -13.5 l-21 0 q-19 0 -33 13.5 q-14 13.5 -14 32.5 l0 14 l-4 0 l0 3 l-234 0 l0 -4 l-3 0 l0 -13 q0 -19 -13.5 -32.5 q-13.5 -13.5 -32.5 -13.5 l-22 0 q-19 0 -32.5 13.5 q-13.5 13.5 -13.5 32.5 l0 22 l-4 0 l2 3 q-25 10 -39 31 q-14 21 -14 48 l0 74 q0 49 35 84.5 q35 35.5 85 35.5 l1 0 q1 0 72.5 4.5 q71.5 4.5 105.5 4.5 q1 0 1 0 q0 0 1 0 q29 0 92.5 -4.5 q63.5 -4.5 64.5 -4.5 l1 0 q50 0 85 -35.5 q35 -35.5 35 -84.5 l0 -74 l0 0 ZM846 419 l-60 0 l-14 -4 l3 5 l0 23 l71 0 l0 -24 l0 0 ZM930 622 q-27 63 -70 115 q-43 51 -97.5 87 q-54.5 36 -117.5 56 q-64 20 -133 20 q-68 0 -132 -20 q-64 -20 -118.5 -56 q-54.5 -36 -97.5 -88 q-43 -51 -70 -114 q-2 -6 0.5 -12 q2.5 -6 8.5 -9 q1 -1 2.5 -1 q1.5 0 3.5 0 q5 0 9 2.5 q4 2.5 6 6.5 q24 59 64 107 q40 48 91 81.5 q51 33.5 110 51.5 q59 19 123 19 q64 0 123 -19 q59 -18 110 -51.5 q51 -33.5 91 -81.5 q40 -48 64 -106 q3 -6 9 -8.5 q6 -2.5 12 -0.5 q6 3 8.5 9 q2.5 6 0.5 12 l0 0 Z" /><glyph glyph-name="" unicode="&#xe92a;" d="M846 482 q-7 0 -11.5 -4.5 q-4.5 -4.5 -4.5 -11.5 l0 -332 l-630 0 l0 332 q0 7 -5 11.5 q-5 4.5 -11 4.5 q-7 0 -11.5 -4.5 q-4.5 -4.5 -4.5 -11.5 l0 -348 q0 -6 4.5 -11 q4.5 -5 11.5 -5 l662 0 q7 0 11.5 5 q4.5 5 4.5 11 l0 348 q0 7 -5 11.5 q-5 4.5 -11 4.5 ZM955 526 l-150 98 l0 153 q0 10 -7 17.5 q-7 7.5 -17 7.5 l-139 0 q-9 0 -16 -7 q-7 -7 -7 -16 l0 -33 l-57 38 q-21 14 -47 14 q-26 0 -48 -14 l-392 -258 q-6 -4 -7 -10.5 q-1 -6.5 2 -12.5 q4 -5 10.5 -6.5 q6.5 -1.5 12.5 2.5 l392 258 q14 9 30 9 q16 0 30 -9 l106 -70 l0 83 l123 0 l0 -164 l163 -107 q2 -1 4.5 -2 q2.5 -1 4.5 -1 q4 0 7.5 2 q3.5 2 5.5 5 q4 6 2.5 12.5 q-1.5 6.5 -6.5 10.5 l0 0 ZM728 465 l-1 0 q-3 2 -6.5 3.5 q-3.5 1.5 -7.5 1.5 l-28 0 q-2 0 -4 -0.5 q-2 -0.5 -4 -1.5 q-8 45 -34.5 72 q-26.5 27 -65.5 28 l-110 0 q-22 0 -42 -9.5 q-20 -9.5 -35 -25.5 q-8 -10 -16 -26 q-8 -16 -11 -38 q-2 0 -3.5 0.5 q-1.5 0.5 -3.5 0.5 l-29 0 q-4 0 -7.5 -1.5 q-3.5 -1.5 -6.5 -3.5 l0 0 q-1 0 -1 -0.5 q0 -0.5 0 -0.5 l0 -1 q-3 -3 -4.5 -6.5 q-1.5 -3.5 -1.5 -7.5 l0 -2 q0 -4 1.5 -7.5 q1.5 -3.5 4.5 -6.5 l0 0 q0 0 0 -0.5 q0 -0.5 1 -0.5 l0 0 q3 -2 6.5 -3.5 q3.5 -1.5 7.5 -1.5 l21 0 q-11 -13 -18 -29.5 q-7 -16.5 -7 -35.5 l0 -43 q0 -19 9.5 -35.5 q9.5 -16.5 23.5 -27.5 q0 -21 15.5 -36.5 q15.5 -15.5 37.5 -15.5 l13 0 q18 0 31.5 10.5 q13.5 10.5 18.5 26.5 l98 0 q5 -16 18.5 -26.5 q13.5 -10.5 31.5 -10.5 l13 0 q22 0 37.5 15.5 q15.5 15.5 15.5 36.5 q15 12 24 28.5 q9 16.5 9 34.5 l0 43 q0 19 -7 35.5 q-7 16.5 -18 29.5 l19 0 q4 0 8 1.5 q4 1.5 6 3.5 l1 0 q0 0 0.5 0.5 q0.5 0.5 0.5 0.5 l0 1 q2 2 3.5 5.5 q1.5 3.5 1.5 7.5 l0 2 q0 4 -1.5 8 q-1.5 4 -3.5 6 l0 1 q0 0 -0.5 0.5 q-0.5 0.5 -0.5 0.5 l0 0 ZM414 512 q10 11 24 17.5 q14 6.5 29 7.5 l109 0 q29 -1 47.5 -23 q18.5 -22 23.5 -58 q-6 1 -12 2 q-6 1 -13 1 q-5 0 -41 2.5 q-36 2.5 -53 2.5 q-1 0 -1 0 q0 0 0 0 q-21 0 -61.5 -2.5 q-40.5 -2.5 -46.5 -2.5 q-6 0 -12.5 -1 q-6.5 -1 -12.5 -3 q1 17 6 31.5 q5 14.5 14 25.5 l0 0 ZM687 319 q0 -14 -9.5 -27 q-9.5 -13 -23.5 -18 l0 0 l0 -17 q0 -9 -6 -15 q-6 -6 -15 -6 l-13 0 q-7 0 -12.5 4 q-5.5 4 -7.5 10 l0 23 l-158 0 l0 -23 q-2 -6 -7.5 -10 q-5.5 -4 -12.5 -4 l-13 0 q-9 0 -15 6 q-6 6 -6 15 l0 12 l1 4 q0 0 -0.5 0 q-0.5 0 -0.5 0 l0 1 l-2 0 q-11 6 -21 18.5 q-10 12.5 -10 26.5 l0 43 q0 27 19 46 q19 19 46 19 l1 0 q1 0 43.5 2.5 q42.5 2.5 62.5 2.5 q0 0 0 0 q0 0 0 0 q17 0 55 -2.5 q38 -2.5 39 -2.5 l1 0 q27 0 46 -19 q19 -19 19 -46 l0 -43 l0 0 ZM455 355 q3 -12 -3 -22 q-6 -10 -18 -13 q-12 -3 -22 3.5 q-10 6.5 -13 18.5 q-2 11 4 21 q6 10 18 13 q11 3 21.5 -3.5 q10.5 -6.5 12.5 -17.5 l0 0 ZM646 348 q0 -12 -8.5 -20.5 q-8.5 -8.5 -20.5 -8.5 q-12 0 -20 8.5 q-8 8.5 -8 20.5 q0 12 8 20.5 q8 8.5 20 8.5 q12 0 20.5 -8.5 q8.5 -8.5 8.5 -20.5 Z" /><glyph glyph-name="" unicode="&#xe92b;" d="M512 900 q-93 0 -174 -35 q-82 -35 -142.5 -96 q-60.5 -61 -96.5 -143 q-35 -81 -35 -174 q0 -92 35 -174 q36 -81 96.5 -142 q60.5 -61 142.5 -96 q81 -36 174 -36 q93 0 174 36 q82 35 142.5 96 q60.5 61 95.5 142 q36 82 36 174 q0 93 -36 174 q-35 82 -95.5 143 q-60.5 61 -142.5 96 q-81 35 -174 35 ZM512 36 q-86 0 -162 33 q-75 33 -131.5 89.5 q-56.5 56.5 -89.5 132.5 q-33 75 -33 161 q0 86 33 162 q33 76 89.5 132.5 q56.5 56.5 131.5 88.5 q76 33 162 33 q86 0 162 -33 q75 -32 131.5 -88.5 q56.5 -56.5 89.5 -132.5 q33 -76 33 -162 q0 -86 -33 -161 q-33 -76 -89.5 -132.5 q-56.5 -56.5 -131.5 -89.5 q-76 -33 -162 -33 l0 0 ZM425 351 q-31 25 -76 27.5 q-45 2.5 -46 2.5 l-103 -1 q-4 0 -7 -1.5 q-3 -1.5 -5 -4.5 q-3 -3 -3.5 -7 q-0.5 -4 0.5 -7 q1 -3 12 -34 q12 -31 41 -71 q29 -40 78 -79 q50 -39 126 -57 q1 0 2 -0.5 q1 -0.5 2 -0.5 q3 0 5.5 1 q2.5 1 4.5 3 q3 2 4.5 5.5 q1.5 3.5 1.5 6.5 l0 111 q0 3 0 11.5 q0 8.5 -1 20.5 q0 4 -6.5 30.5 q-6.5 26.5 -29.5 43.5 l0 0 ZM430 247 q0 0 0 -0.5 q0 -0.5 0 -0.5 l0 -91 q-101 31 -147.5 95.5 q-46.5 64.5 -59.5 97.5 l81 1 q17 1 50 -3.5 q33 -4.5 51 -19.5 q13 -9 18 -26 q5 -17 6 -26 q2 -11 1.5 -19 q-0.5 -8 -0.5 -8 l0 0 ZM822 380 l-103 1 q0 0 -45.5 -2.5 q-45.5 -2.5 -76.5 -27.5 q-23 -17 -29.5 -43.5 q-6.5 -26.5 -6.5 -29.5 q-1 -12 -1 -21 q0 -9 0 -12 l0 -111 q0 -3 1.5 -6.5 q1.5 -3.5 4.5 -5.5 q2 -2 4.5 -3 q2.5 -1 5.5 -1 q1 0 2 0.5 q1 0.5 2 0.5 q76 18 125 57 q50 39 79 79 q29 40 40 71 q12 31 13 34 q1 3 0 7 q-1 4 -3 7 q-2 3 -5.5 4.5 q-3.5 1.5 -6.5 1.5 l0 0 ZM592 155 l0 91 q0 0 0 0.5 q0 0.5 0 0.5 q0 0 -0.5 8 q-0.5 8 1.5 19 q1 10 6 26.5 q5 16.5 18 25.5 q16 14 45 18.5 q29 4.5 49 4.5 q2 0 4 0 q2 0 3 0 l81 -1 q-13 -33 -60 -97.5 q-47 -64.5 -147 -95.5 l0 0 ZM599 444 q0 36 -25.5 61.5 q-25.5 25.5 -61.5 25.5 q-36 0 -61.5 -25.5 q-25.5 -25.5 -25.5 -61.5 q0 -36 25.5 -61.5 q25.5 -25.5 61.5 -25.5 q36 0 61.5 25.5 q25.5 25.5 25.5 61.5 ZM512 388 q-23 0 -39 16.5 q-16 16.5 -16 39.5 q0 23 16 39 q16 16 39 16 q23 0 39 -16 q16 -16 16 -39 q0 -23 -16 -39.5 q-16 -16.5 -39 -16.5 l0 0 ZM847 470 q-13 77 -42 138 q-28 61 -71 102.5 q-43 41.5 -100 63.5 q-56 22 -123 22 q-65 0 -122 -24 q-56 -23 -100.5 -66 q-44.5 -43 -75.5 -103 q-30 -60 -41 -133 q-1 -4 0.5 -8 q1.5 -4 4.5 -6 q2 -3 5 -4 q3 -1 6 -1 q0 0 1 0 q1 0 2 0 q29 6 54.5 14 q25.5 8 53.5 27 l11 6 q41 26 89.5 49 q48.5 23 111.5 23 q61 0 109 -22 q48 -22 89 -47 l14 -8 q27 -17 51 -25.5 q24 -8.5 53 -15.5 q4 -1 8 0 q4 1 7 3 q3 3 4 7 q1 4 1 8 l0 0 ZM739 520 q0 0 0 0 q0 0 0 0 l-14 8 q-43 26 -94.5 50 q-51.5 24 -119.5 24 q-69 0 -121.5 -24.5 q-52.5 -24.5 -96.5 -51.5 l-11 -7 q-19 -13 -37 -19.5 q-18 -6.5 -37 -11.5 q13 62 41 113 q28 51 67.5 87 q39.5 36 88.5 56 q50 20 106 20 q58 0 107 -18 q49 -19 87.5 -54 q38.5 -35 65.5 -86 q26 -51 40 -117 q-19 5 -35.5 12 q-16.5 7 -36.5 19 l0 0 Z" /><glyph glyph-name="" unicode="&#xe92c;" d="M741 320 q0 -6 5 -11 q5 -5 12 -5 l85 0 q7 0 12 5 q5 5 5 11 q0 7 -5 12 q-5 5 -12 5 l-85 0 q-7 0 -12 -5 q-5 -5 -5 -12 ZM959 58 l-23 256 q0 3 -3 29 q-4 25 -21 60.5 q-17 35.5 -51 74.5 q-34 38 -95 66 q27 25 43.5 58.5 q16.5 33.5 18.5 68.5 q2 72 -47.5 125 q-49.5 53 -121.5 55 q-35 2 -67.5 -10.5 q-32.5 -12.5 -58.5 -35.5 q-20 -19 -33 -42.5 q-13 -23.5 -18 -49.5 q-23 32 -58.5 51.5 q-35.5 19.5 -77.5 19.5 q-68 0 -116 -48 q-48 -48 -50 -117 q0 -40 -29.5 -53 q-29.5 -13 -31.5 -13 q-4 -1 -7 -3.5 q-3 -2.5 -4 -6.5 q-2 -3 -1.5 -7 q0.5 -4 2.5 -8 q0 0 11 -13 q11 -13 32 -25 q9 -5 21 -9.5 q12 -4.5 27 -6.5 q-84 -53 -101.5 -121 q-17.5 -68 -17.5 -72 l-16 -190 q0 -3 1 -6 q1 -3 4 -6 q2 -2 5 -3.5 q3 -1.5 6 -1.5 l204 0 q6 0 11 4.5 q5 4.5 5 11.5 q0 6 -5 11 q-5 5 -11 5 l-186 0 l14 173 q0 3 9 46 q9 43 52 87 l69 -16 l93 -71 q0 0 0.5 -0.5 q0.5 -0.5 0.5 -0.5 q0 0 0 0 q0 0 0 0 q0 0 0.5 0 q0.5 0 0.5 -1 q0 0 0 0 q0 0 0 0 q1 0 1 0 q0 0 0 0 q0 0 0 0 q0 0 1 0 q0 0 0 -0.5 q0 -0.5 0 -0.5 q0 0 0.5 0 q0.5 0 0.5 0 q0 0 0 0 q0 0 0 0 q1 0 1 0 q0 0 0 0 q0 0 0.5 0 q0.5 0 0.5 0 q0 0 0 -0.5 q0 -0.5 0 -0.5 q0 0 0.5 0 q0.5 0 0.5 0 q0 0 0 0 q0 0 1 0 q0 0 0 0 q0 0 0 0 q0 0 0.5 0 q0.5 0 0.5 0 q0 0 0 0 q0 0 1 0 q0 0 0 0 q0 0 0 0 q0 0 0.5 0.5 q0.5 0.5 0.5 0.5 q0 0 0 0 q0 0 1 0 q0 0 0 0 q0 0 0 0 q0 0 0.5 0 q0.5 0 0.5 0 q0 0 0 0 q0 0 1 0 q0 0 0 0 q0 0 0 0 q0 1 0.5 1 q0.5 0 0.5 0 q0 0 0 0 q0 0 0 0 q1 0 1 0 q0 0 0 0 q0 1 0.5 1 q0.5 0 0.5 0 q0 0 0 0 q0 0 0 0 q1 0 1 0 q0 0 0 0 q0 1 0 1 q0 0 1 0 q0 0 0 0 q0 0 0 0 l15 14 l-25 -281 l613 0 l0 0 ZM654 455 l28 -27 l-17 -17 l-23 0 l-16 17 l28 27 l0 0 ZM734 511 l8 -7 l17 -19 l-43 -46 l-36 35 l54 37 ZM674 193 l-19 -21 l-21 21 l20 151 l20 -151 l0 0 ZM592 439 l-43 46 l17 19 l7 7 l55 -37 l-36 -35 ZM452 481 l-13 8 q27 18 44 42.5 q17 24.5 24 52.5 q7 -10 15 -19.5 q8 -9.5 17 -17.5 q-12 -7 -36.5 -24 q-24.5 -17 -50.5 -42 l0 0 ZM420 463 l9 -5 q-7 -9 -14 -18 q-7 -9 -13 -18 l18 41 ZM423 469 l7 14 q0 0 1 0.5 q1 0.5 1 1.5 l-9 -16 l0 0 ZM904 312 l20 -222 l-543 0 l22 246 q1 10 4 20 q3 10 7 20 q0 0 0 1 q0 1 1 1 q15 36 43.5 64.5 q28.5 28.5 53.5 48.5 q-1 -4 0 -8.5 q1 -4.5 4 -8.5 l63 -69 q3 -2 6 -3.5 q3 -1.5 6 -1.5 q0 0 0 0 q0 0 0 0 q3 0 6 1.5 q3 1.5 5 3.5 l1 1 l24 -26 q0 -1 -0.5 -2.5 q-0.5 -1.5 -1.5 -3.5 l-24 -184 q0 -4 1 -7.5 q1 -3.5 4 -5.5 l37 -39 q3 -3 6 -4 q3 -1 6 -1 q0 0 0 0 q0 0 0 0 q3 0 6 1.5 q3 1.5 6 3.5 l36 39 q2 2 3 5.5 q1 3.5 1 7.5 l-25 184 q0 2 -1 3.5 q-1 1.5 -1 2.5 l24 26 l1 -1 q2 -2 5 -3.5 q3 -1.5 6 -1.5 q0 0 0.5 0 q0.5 0 0.5 0 q3 0 6 1.5 q3 1.5 5 3.5 l64 69 q3 4 4 8.5 q1 4.5 -1 8.5 q78 -52 93.5 -113 q15.5 -61 15.5 -66 l0 0 ZM510 682 q1 28 12.5 54 q11.5 26 32.5 45 q21 20 47.5 30 q26.5 10 55.5 9 q59 -3 99.5 -46 q40.5 -43 38.5 -102 q-2 -38 -23.5 -70 q-21.5 -32 -46.5 -48 q-3 -3 -5 -7 q-2 -4 -2 -8 l-65 -44 l-63 42 q1 5 -1 9 q-2 4 -6 7 q-29 18 -52.5 52.5 q-23.5 34.5 -21.5 76.5 l0 0 ZM150 530 q22 10 41.5 31.5 q19.5 21.5 20.5 56.5 l0 0 q2 57 40.5 95.5 q38.5 38.5 93.5 38.5 q55 0 94 -39 q39 -39 39 -94 q0 -47 -25 -73.5 q-25 -26.5 -44 -37.5 q-3 -1 -4.5 -3 q-1.5 -2 -2.5 -4 l-57 -124 l-54 125 q-2 4 -6 6.5 q-4 2.5 -8 2.5 q-2 0 -3 0 q-1 0 -2 0 q-47 -14 -77.5 -4 q-30.5 10 -45.5 23 l0 0 ZM253 427 l-37 8 l53 27 q1 1 2 1.5 q1 0.5 2 1.5 l34 -77 l-47 36 q-2 1 -3.5 1.5 q-1.5 0.5 -3.5 1.5 l0 0 ZM182 314 q-5 0 -9 -5 q-4 -5 -4 -12 q0 -7 4 -12 q4 -5 9 -5 l67 0 q5 0 9 5 q4 5 4 12 q0 7 -4 12 q-4 5 -9 5 l-67 0 l0 0 Z" /><glyph glyph-name="" unicode="&#xe92d;" d="M961 543 l-65 222 q-1 5 -5.5 8.5 q-4.5 3.5 -9.5 3.5 l-168 0 q-12 0 -30 -13.5 q-18 -13.5 -21 -53.5 l0 -323 l-140 0 q22 5 38.5 20 q16.5 15 21.5 37 q12 2 24 8.5 q12 6.5 19 16.5 q7 8 9 16.5 q2 8.5 0 17.5 l-11 42 q-4 18 -15.5 32 q-11.5 14 -27.5 22 l-55 27 q-5 3 -9 5.5 q-4 2.5 -9 5.5 q-2 2 -4.5 4.5 q-2.5 2.5 -4.5 6.5 q-23 52 -72 83 q-49 31 -106 31 l-57 0 q-76 0 -131.5 -54 q-55.5 -54 -56.5 -130 l-2 -51 q0 -17 6 -32 q6 -15 18 -27 q10 -10 22.5 -16.5 q12.5 -6.5 27.5 -7.5 q5 -21 20 -36 q15 -15 35 -20 l-85 0 q0 0 0 0 q0 0 0 0 q-5 0 -8.5 -2.5 q-3.5 -2.5 -5.5 -6.5 l-39 -81 q-2 -4 -1.5 -8 q0.5 -4 2.5 -8 q2 -3 5.5 -5 q3.5 -2 7.5 -2 l136 0 q-5 -11 -8 -23 q-3 -12 -3 -25 q0 -44 31.5 -75.5 q31.5 -31.5 76.5 -31.5 q45 0 76.5 31.5 q31.5 31.5 31.5 75.5 q0 13 -3 25 q-3 12 -8 23 l275 0 q-5 -11 -8 -23 q-3 -12 -3 -25 q0 -44 32 -75.5 q32 -31.5 76 -31.5 q45 0 76.5 31.5 q31.5 31.5 31.5 75.5 q0 13 -3 25 q-3 12 -8 23 l36 0 q4 0 8 2 q4 2 6 6 l33 58 q1 2 1.5 4 q0.5 2 0.5 4 l0 189 q-1 1 -1 2.5 q0 1.5 0 2.5 l0 0 ZM508 418 q-19 0 -32 13 q-13 13 -13 31 q0 19 13 32 q13 13 32 13 q18 0 31 -13 q13 -13 13 -32 q0 -18 -13 -31 q-13 -13 -31 -13 l0 0 ZM105 526 l2 51 q1 63 47 108 q46 45 109 45 l57 0 q48 0 88.5 -26 q40.5 -26 60.5 -70 q4 -7 9 -13 q5 -6 11 -10 q5 -4 10.5 -7 q5.5 -3 11.5 -6 l55 -28 q10 -5 16.5 -13.5 q6.5 -8.5 9.5 -19.5 l11 -42 q0 -2 -1 -4 q-1 -2 -2 -3 q-3 -3 -7.5 -6 q-4.5 -3 -9.5 -5 q-5 26 -26.5 44 q-21.5 18 -49.5 18 q-28 0 -49.5 -18.5 q-21.5 -18.5 -25.5 -45.5 l-135 0 q-5 27 -26 45.5 q-21 18.5 -50 18.5 q-28 0 -49 -18 q-21 -18 -26 -45 q-8 2 -14.5 5.5 q-6.5 3.5 -12.5 8.5 q-7 7 -10.5 16.5 q-3.5 9.5 -3.5 19.5 l0 0 ZM177 462 q0 19 13 32 q13 13 31 13 q19 0 32 -13 q13 -13 13 -32 q0 -18 -13 -31 q-13 -13 -32 -13 q-18 0 -31 13 q-13 13 -13 31 l0 0 ZM296 443 l137 0 q6 -21 22 -36 q16 -15 37 -20 l-252 1 q20 5 35 20 q15 15 21 35 l0 0 ZM127 356 l535 -1 l0 -48 l-278 0 q-14 13 -33 20.5 q-19 7.5 -40 7.5 q-21 0 -40 -7.5 q-19 -7.5 -33 -20.5 q0 0 -0.5 0 q-0.5 0 -0.5 0 l-133 0 l23 49 l0 0 ZM311 151 q-32 0 -54 22.5 q-22 22.5 -22 53.5 q0 32 22 54 q22 22 54 22 q31 0 53.5 -22 q22.5 -22 22.5 -54 q0 -31 -22.5 -53.5 q-22.5 -22.5 -53.5 -22.5 ZM780 151 q-31 0 -53.5 22.5 q-22.5 22.5 -22.5 53.5 q0 32 22.5 54 q22.5 22 53.5 22 q31 0 53.5 -22 q22.5 -22 22.5 -54 q0 -31 -22.5 -53.5 q-22.5 -22.5 -53.5 -22.5 ZM929 353 l-26 -46 l-47 0 q-1 0 -1.5 0 q-0.5 0 -1.5 0 q-14 13 -33 20.5 q-19 7.5 -40 7.5 q-21 0 -40 -7.5 q-19 -7.5 -33 -20.5 q-1 0 -1 0 q0 0 -1 0 l-11 0 l0 127 q0 0 0 0 q0 0 0 0 l0 275 q2 25 10 30.5 q8 5.5 9 5.5 l156 0 l61 -209 l0 -183 l-1 0 ZM787 497 l-41 0 q-6 0 -10.5 -5 q-4.5 -5 -4.5 -11 q0 -7 4.5 -11.5 q4.5 -4.5 10.5 -4.5 l41 0 q7 0 11.5 4.5 q4.5 4.5 4.5 11.5 q0 6 -4.5 11 q-4.5 5 -11.5 5 ZM814 701 l-44 0 q-15 0 -25.5 -10.5 q-10.5 -10.5 -10.5 -25.5 l0 -70 q0 -15 10.5 -25.5 q10.5 -10.5 25.5 -10.5 l77 0 q6 0 11 2.5 q5 2.5 8 7.5 q4 5 5 10.5 q1 5.5 0 10.5 l-22 84 q-4 12 -13.5 19.5 q-9.5 7.5 -21.5 7.5 l0 0 ZM770 591 q-2 0 -3 1 q-1 1 -1 3 l0 70 q0 2 1 3 q1 1 3 1 l44 0 q1 0 2 -0.5 q1 -0.5 2 -2.5 l19 -75 l-67 0 l0 0 ZM155 593 l286 0 q4 0 7.5 2 q3.5 2 5.5 5 q2 3 2.5 7 q0.5 4 -0.5 7 q-17 48 -57.5 76.5 q-40.5 28.5 -90.5 28.5 l-53 0 q-35 0 -64 -20 q-29 -20 -41 -54 l-10 -31 q-2 -3 -1.5 -7 q0.5 -4 3.5 -7 q2 -3 5.5 -5 q3.5 -2 7.5 -2 l0 0 ZM416 625 l-122 0 l0 63 l14 0 q34 0 62.5 -17 q28.5 -17 45.5 -46 ZM180 635 q9 24 29.5 38.5 q20.5 14.5 45.5 14.5 l7 0 l0 -63 l-85 0 l3 10 l0 0 Z" /><glyph glyph-name="" unicode="&#xe92e;" d="M791 724 l-554 0 q-16 0 -27 -11.5 q-11 -11.5 -11 -26.5 l0 -294 q0 -16 11 -27 q11 -11 27 -11 l554 0 q16 0 27.5 11 q11.5 11 11.5 27 l0 294 q0 15 -11.5 26.5 q-11.5 11.5 -27.5 11.5 ZM798 392 q0 -3 -2 -4.5 q-2 -1.5 -5 -1.5 l-554 0 q-3 0 -4.5 1.5 q-1.5 1.5 -1.5 4.5 l0 294 q0 2 1.5 4 q1.5 2 4.5 2 l554 0 q3 0 5 -2 q2 -2 2 -4 l0 -294 ZM278 316 q-32 0 -54.5 -22.5 q-22.5 -22.5 -22.5 -54.5 q0 -31 22.5 -53.5 q22.5 -22.5 54.5 -22.5 q32 0 54.5 22.5 q22.5 22.5 22.5 53.5 q0 32 -22.5 54.5 q-22.5 22.5 -54.5 22.5 ZM278 195 q-18 0 -31.5 13 q-13.5 13 -13.5 32 q0 18 13.5 31 q13.5 13 31.5 13 q19 0 32 -13 q13 -13 13 -31 q0 -19 -13 -32 q-13 -13 -32 -13 ZM745 316 q-32 0 -54.5 -22.5 q-22.5 -22.5 -22.5 -54.5 q0 -31 22.5 -53.5 q22.5 -22.5 54.5 -22.5 q31 0 53.5 22.5 q22.5 22.5 22.5 53.5 q0 32 -22.5 54.5 q-22.5 22.5 -53.5 22.5 ZM745 195 q-19 0 -32 13 q-13 13 -13 32 q0 18 13 31 q13 13 32 13 q18 0 31 -13 q13 -13 13 -31 q0 -19 -13 -32 q-13 -13 -31 -13 ZM920 690 q-1 0 -2 0.5 q-1 0.5 -3 1.5 q-4 2 -9.5 2.5 q-5.5 0.5 -12.5 0.5 l0 56 q0 57 -40.5 97.5 q-40.5 40.5 -97.5 40.5 l-485 0 q-57 0 -97.5 -40.5 q-40.5 -40.5 -40.5 -97.5 l0 -56 q-7 0 -13 -0.5 q-6 -0.5 -9 -2.5 q-2 -1 -3 -1.5 q-1 -0.5 -2 -0.5 q-18 -11 -28 -30.5 q-10 -19.5 -10 -43.5 l0 -99 q0 -14 8.5 -23.5 q8.5 -9.5 20.5 -9.5 l36 0 l0 -250 q0 -42 24.5 -77 q24.5 -35 63.5 -52 l0 -33 q0 -26 18.5 -45 q18.5 -19 44.5 -19 l9 0 q26 0 44.5 19 q18.5 19 18.5 45 l0 24 l314 0 l0 -24 q0 -26 18.5 -45 q18.5 -19 43.5 -19 l9 0 q25 0 43.5 19 q18.5 19 18.5 45 l0 32 q41 14 66 50 q25 36 25 80 l0 250 l36 0 q12 0 20.5 9.5 q8.5 9.5 8.5 23.5 l0 99 q0 24 -10 43.5 q-10 19.5 -28 30.5 l0 0 ZM131 517 q0 0 0 -0.5 q0 -0.5 0 -0.5 l-32 0 q0 0 0 0.5 q0 0.5 0 0.5 l0 99 q0 15 6 27.5 q6 12.5 16 18.5 q1 0 4 0.5 q3 0.5 6 0.5 l0 -146 l0 0 ZM861 234 q0 -37 -22 -65.5 q-22 -28.5 -57 -37.5 l-12 -3 l0 -56 q0 -13 -9 -22.5 q-9 -9.5 -21 -9.5 l-9 0 q-12 0 -21 9.5 q-9 9.5 -9 22.5 l0 56 l-378 0 l0 -56 q0 -13 -9 -22.5 q-9 -9.5 -22 -9.5 l-9 0 q-13 0 -22 9.5 q-9 9.5 -9 22.5 l0 56 l-11 3 q-34 11 -55.5 40 q-21.5 29 -21.5 63 l0 517 q0 44 31 75 q31 31 75 31 l485 0 q44 0 75 -31 q31 -31 31 -75 l0 -517 l0 0 ZM926 517 q0 0 0 -0.5 q0 -0.5 0 -0.5 l-32 0 q0 0 0 0.5 q0 0.5 0 0.5 l0 146 q3 0 6 -0.5 q3 -0.5 4 -0.5 q10 -6 16 -18.5 q6 -12.5 6 -27.5 l0 -99 l0 0 Z" /><glyph glyph-name="" unicode="&#xe92f;" d="M824 403 q0 0 0.5 -0.5 q0.5 -0.5 0.5 -0.5 q0 0 0.5 -0.5 q0.5 -0.5 0.5 -0.5 q0 0 0.5 0 q0.5 0 0.5 -1 q1 0 1 0 q0 0 1 0 q0 0 0.5 -0.5 q0.5 -0.5 0.5 -0.5 q0 0 0.5 0 q0.5 0 1.5 0 q0 0 0.5 -0.5 q0.5 -0.5 0.5 -0.5 q0 0 0.5 0 q0.5 0 0.5 0 l110 -11 q1 0 1.5 0 q0.5 0 0.5 0 q3 0 6 1 q3 1 6 4 q2 2 3 5.5 q1 3.5 1 7.5 l-14 110 q0 1 0 2 q0 1 -1 2 q0 1 0 1 q0 0 0 0 q-1 1 -1.5 2.5 q-0.5 1.5 -1.5 2.5 q0 0 0 0 q0 0 0 0 l-377 370 q-2 2 -5 3.5 q-3 1.5 -6 1.5 q-4 0 -6.5 -1.5 q-2.5 -1.5 -5.5 -3.5 l-96 -100 q-5 -5 -5 -11.5 q0 -6.5 5 -10.5 l376 -370 l0 0 ZM870 427 l51 51 l7 -57 l-58 6 l0 0 ZM835 437 l-276 272 l74 76 l277 -272 l-75 -76 l0 0 ZM556 861 l54 -54 l-74 -76 l-54 53 l74 77 ZM706 239 q0 27 -9 51 q-9 24 -26 42 l35 0 q17 0 29 12.5 q12 12.5 12 29.5 q0 17 -12 29.5 q-12 12.5 -29 12.5 l-42 0 q-7 0 -12.5 -2 q-5.5 -2 -11.5 -6 q-12 66 -51 105 q-39 39 -96 41 l-173 0 q-33 -1 -62.5 -15 q-29.5 -14 -50.5 -38 q-13 -14 -24.5 -37 q-11.5 -23 -16.5 -55 q-4 3 -10 5 q-6 2 -12 2 l-42 0 q-17 0 -29.5 -12.5 q-12.5 -12.5 -12.5 -29.5 q0 -17 12.5 -29.5 q12.5 -12.5 29.5 -12.5 l37 0 q-16 -18 -25.5 -42 q-9.5 -24 -9.5 -51 l0 -69 q0 -29 12.5 -53 q12.5 -24 35.5 -39 l0 -5 q0 -30 22 -52 q22 -22 52 -22 l21 0 q26 0 46.5 17 q20.5 17 25.5 42 l172 0 q6 -25 26 -42 q20 -17 47 -17 l20 0 q31 0 52.5 22 q21.5 22 21.5 52 l0 5 q23 15 35.5 39 q12.5 24 12.5 53 l0 69 l0 0 ZM646 359 l4 8 l0 22 l70 0 l0 -30 l-56 0 l-14 -5 q-1 1 -2 1 q-1 0 -2 1 l0 3 l0 0 ZM231 479 q17 20 40.5 31 q23.5 11 48.5 12 l172 0 q51 -2 83.5 -42 q32.5 -40 37.5 -108 q-11 5 -23.5 7 q-12.5 2 -25.5 3 q-7 0 -64 4 q-57 4 -85 4 q-31 0 -96 -4 q-65 -4 -73 -4 q-13 -1 -25.5 -3 q-12.5 -2 -24.5 -7 q0 33 8.5 60 q8.5 27 26.5 47 l0 0 ZM89 359 l-2 0 l0 30 l71 0 l0 -22 l3 -8 l0 -3 q-1 -1 -2 -1 q-1 0 -1 -1 l-14 5 l-55 0 l0 0 ZM626 97 l0 0 l0 0 l0 -24 q0 -17 -12.5 -29.5 q-12.5 -12.5 -29.5 -12.5 l-20 0 q-17 0 -29.5 12 q-12.5 12 -12.5 29 l0 18 l-233 0 l0 -17 q0 -17 -12.5 -29.5 q-12.5 -12.5 -29.5 -12.5 l-21 0 q-17 0 -29.5 12.5 q-12.5 12.5 -12.5 29.5 l0 24 l0 0 q-22 9 -35 28.5 q-13 19.5 -13 44.5 l0 69 q0 46 32.5 78.5 q32.5 32.5 77.5 32.5 q1 0 1 0 q0 0 1 0 q1 0 67.5 4 q66.5 4 98.5 4 q0 0 0.5 0 q0.5 0 0.5 0 q27 0 86.5 -4 q59.5 -4 60.5 -4 q1 0 1 0 q0 0 0 0 q46 0 78.5 -32.5 q32.5 -32.5 32.5 -78.5 l0 -69 q0 -25 -12.5 -44.5 q-12.5 -19.5 -35.5 -28.5 l0 0 ZM318 217 q0 25 -18 43 q-18 18 -44 18 q-25 0 -43 -18 q-18 -18 -18 -43 q0 -26 18 -44 q18 -18 43 -18 q26 0 44 18 q18 18 18 44 ZM227 217 q0 12 8.5 20.5 q8.5 8.5 20.5 8.5 q12 0 21 -8.5 q9 -8.5 9 -20.5 q0 -13 -9 -21.5 q-9 -8.5 -21 -8.5 q-12 0 -20.5 8.5 q-8.5 8.5 -8.5 21.5 l0 0 ZM616 217 q0 25 -18 43 q-18 18 -43 18 q-26 0 -44 -18 q-18 -18 -18 -43 q0 -26 18 -44 q18 -18 44 -18 q25 0 43 18 q18 18 18 44 l0 0 ZM525 217 q0 12 9 20.5 q9 8.5 21 8.5 q12 0 20.5 -8.5 q8.5 -8.5 8.5 -20.5 q0 -13 -8.5 -21.5 q-8.5 -8.5 -20.5 -8.5 q-12 0 -21 8.5 q-9 8.5 -9 21.5 Z" /><glyph glyph-name="" unicode="&#xe930;" d="M177 446 q0 -6 5 -11 q5 -5 11 -5 l650 0 q7 0 11.5 5 q4.5 5 4.5 11 l0 325 q0 7 -4.5 11.5 q-4.5 4.5 -11.5 4.5 l-323 0 q-1 0 -1 0 q0 0 0 0 q0 0 -0.5 0 q-0.5 0 -0.5 0 q-70 0 -132 -26 q-63 -27 -109 -73.5 q-46 -46.5 -73 -108.5 q-27 -62 -27 -133 l0 0 ZM827 462 l-617 0 q3 62 28 115 q26 53 67.5 93 q41.5 40 96.5 63 q54 23 116 23 q0 0 0.5 0 q0.5 0 0.5 0 q0 0 0 0 q0 0 1 0 l307 0 l0 -294 ZM947 899 l-431 0 q-1 0 -2 -0.5 q-1 -0.5 -2 -0.5 l0 1 q-93 0 -175 -36 q-82 -35 -143.5 -96.5 q-61.5 -61.5 -96.5 -143.5 q-36 -82 -36 -175 l1 0 q0 -2 0.5 -3.5 q0.5 -1.5 0.5 -3.5 l214 -435 q2 -4 6 -6.5 q4 -2.5 8 -2.5 l656 0 q6 0 11 5 q5 5 5 11 l0 870 q0 6 -5 11 q-5 5 -11 5 l0 0 ZM931 29 l-630 0 l-208 424 q1 85 35 161 q33 75 89.5 131.5 q56.5 56.5 132.5 88.5 q76 33 162 33 l0 0 q1 0 2 0 q1 0 2 0 l415 0 l0 -838 l0 0 l0 0 ZM834 349 l-139 0 q-6 0 -11 -4.5 q-5 -4.5 -5 -11.5 q0 -6 5 -11 q5 -5 11 -5 l139 0 q7 0 11.5 5 q4.5 5 4.5 11 q0 7 -4.5 11.5 q-4.5 4.5 -11.5 4.5 Z" /><glyph glyph-name="" unicode="&#xe931;" d="M563 773 l-285 0 q-15 0 -25.5 -10.5 q-10.5 -10.5 -10.5 -25.5 l0 -230 q0 -15 10.5 -26 q10.5 -11 25.5 -11 l285 0 q15 0 26 11 q11 11 11 26 l0 230 q0 15 -11 25.5 q-11 10.5 -26 10.5 l0 0 ZM568 507 q0 -2 -1.5 -3 q-1.5 -1 -3.5 -1 l-285 0 q-2 0 -3 1 q-1 1 -1 3 l0 230 q0 2 1 3 q1 1 3 1 l285 0 q2 0 3.5 -1 q1.5 -1 1.5 -3 l0 -230 l0 0 ZM914 690 l-109 61 q-5 3 -11.5 1 q-6.5 -2 -9.5 -7 q-4 -6 -2 -12.5 q2 -6.5 8 -9.5 l39 -22 q-4 -3 -7.5 -7 q-3.5 -4 -6.5 -9 q-5 -9 -6 -19 q-1 -10 1 -20 q3 -11 9 -19 q6 -8 16 -13 l55 -32 l0 -331 q0 -17 -12 -29 q-12 -12 -29 -12 q-17 0 -29 12 q-12 12 -12 29 l0 222 q-1 29 -24 77 q-23 48 -87 65 l0 163 q0 50 -35 85 q-35 35 -85 35 l-313 0 q-49 0 -84 -35 q-35 -35 -35 -85 l0 -633 l-51 -39 q-3 -3 -4.5 -6 q-1.5 -3 -1.5 -7 l0 -79 q0 -6 4.5 -11 q4.5 -5 11.5 -5 l634 0 q6 0 11 5 q5 5 5 11 l0 79 q0 4 -1.5 7 q-1.5 3 -4.5 6 l-51 39 l0 436 q57 -19 68 -62.5 q11 -43.5 11 -46.5 l0 -221 q0 -30 21.5 -51.5 q21.5 -21.5 51.5 -21.5 q30 0 51.5 21.5 q21.5 21.5 21.5 51.5 l0 425 q0 5 -2 8.5 q-2 3.5 -6 5.5 l0 0 ZM722 30 l-602 0 l0 55 l47 37 q1 1 1.5 1.5 q0.5 0.5 1.5 1.5 q3 2 5 5.5 q2 3.5 2 7.5 l0 640 q0 36 25.5 62 q25.5 26 61.5 26 l313 0 q36 0 62 -26 q26 -26 26 -62 l0 -640 q0 -4 1.5 -7.5 q1.5 -3.5 5.5 -5.5 q0 -1 0.5 -1.5 q0.5 -0.5 1.5 -1.5 l48 -37 l0 -55 l0 0 ZM851 641 q-4 3 -6.5 6 q-2.5 3 -3.5 7 q-1 4 -0.5 8 q0.5 4 2.5 7 q4 8 12.5 10 q8.5 2 15.5 -2 q1 -1 2.5 -1.5 q1.5 -0.5 2.5 -0.5 l14 -8 l0 -48 l-39 22 ZM523 693 l-198 0 q-7 0 -11.5 -5 q-4.5 -5 -4.5 -11 q0 -7 4.5 -11.5 q4.5 -4.5 11.5 -4.5 l198 0 q6 0 11 4.5 q5 4.5 5 11.5 q0 6 -5 11 q-5 5 -11 5 ZM480 618 l-155 0 q-7 0 -11.5 -4.5 q-4.5 -4.5 -4.5 -11.5 q0 -7 4.5 -11.5 q4.5 -4.5 11.5 -4.5 l155 0 q6 0 11 4.5 q5 4.5 5 11.5 q0 7 -5 11.5 q-5 4.5 -11 4.5 Z" /><glyph glyph-name="" unicode="&#xe932;" d="M889 781 q-2 3 -5 4 q-3 1 -7 0 q-76 -6 -136 6 q-61 11 -105.5 30.5 q-44.5 19.5 -72.5 40.5 q-29 21 -41 32 q-4 5 -10.5 5 q-6.5 0 -10.5 -4 q-49 -44 -102 -67 q-53 -23 -101 -33.5 q-48 -10.5 -88 -10.5 q-40 -1 -63 1 q-4 1 -7 0 q-3 -1 -5 -4 q-3 -2 -4.5 -5 q-1.5 -3 -1.5 -7 l0 -368 q0 -60 42 -125.5 q42 -65.5 124 -134.5 q66 -56 127.5 -93.5 q61.5 -37.5 81.5 -47.5 q2 -1 3.5 -1.5 q1.5 -0.5 3.5 -0.5 q2 0 4 0.5 q2 0.5 4 1.5 q24 12 85 50 q62 38 126.5 92 q64.5 54 114.5 121 q50 67 50 138 l0 368 q0 4 -1.5 7 q-1.5 3 -4.5 5 l0 0 ZM863 401 q0 -62 -47 -123 q-46 -61 -106 -111.5 q-60 -50.5 -118 -86.5 q-58 -36 -81 -48 q-22 12 -80 48 q-57 36 -117 86.5 q-60 50.5 -106 111.5 q-47 60 -47 123 l0 351 q28 -1 68 1 q41 2 87.5 13 q46.5 11 96.5 33 q51 23 98 62 q17 -14 47 -34 q31 -21 75 -39 q44 -18 102 -29 q57 -11 128 -7 l0 -351 l0 0 ZM726 602 q-5 4 -11.5 3.5 q-6.5 -0.5 -11.5 -5.5 l-231 -270 l-152 152 q-5 5 -11.5 5 q-6.5 0 -11.5 -5 q-4 -5 -4 -11.5 q0 -6.5 4 -11.5 l164 -163 q2 -3 5 -4 q3 -1 6 -1 q1 0 1 0 q0 0 0 0 q3 0 6 1.5 q3 1.5 5 3.5 l243 283 q5 5 4.5 11.5 q-0.5 6.5 -5.5 11.5 l0 0 Z" /></font>
</defs>
</svg>
